G04                                                      *
G04 Greetings!                                           *
G04 This Gerber was generated by PCBmodE, an open source *
G04 PCB design software. Get it here:                    *
G04                                                      *
G04   http://pcbmode.com                                 *
G04                                                      *
G04 Also visit                                           *
G04                                                      *
G04   http://boldport.com                                *
G04                                                      *
G04 and follow @boldport / @pcbmode for updates!         *
G04                                                      *

G04 leading zeros omitted (L); absolute data (A); 6 integer digits and 6 fractional digits *
%FSLAX66Y66*%

G04 mode (MO): millimeters (MM) *
%MOMM*%

G04 Aperture definitions *
%ADD10C,0.001X*%
%ADD11C,0.001X*%

%LPD*%
G36*
G01X65679703Y-50571785D02*
G01X62579703Y-50571785D01*
G01X62579703Y-54671785D01*
G01X65679703Y-54671785D01*
G01X65679703Y-50571785D01*
G37*
G36*
G01X33279703Y-54671785D02*
G01X36379703Y-54671785D01*
G01X36379703Y-50571785D01*
G01X33279703Y-50571785D01*
G01X33279703Y-54671785D01*
G37*
G36*
G01X72836896Y-26685612D02*
G01X72836896Y-26685612D01*
G01X72755039Y-26684949D01*
G01X72673502Y-26682967D01*
G01X72592297Y-26679675D01*
G01X72511432Y-26675083D01*
G01X72430919Y-26669203D01*
G01X72350768Y-26662045D01*
G01X72270988Y-26653617D01*
G01X72191590Y-26643931D01*
G01X72112584Y-26632997D01*
G01X72033981Y-26620825D01*
G01X71955790Y-26607426D01*
G01X71878021Y-26592808D01*
G01X71800686Y-26576983D01*
G01X71723793Y-26559961D01*
G01X71647354Y-26541752D01*
G01X71571378Y-26522366D01*
G01X71495876Y-26501814D01*
G01X71420858Y-26480105D01*
G01X71346334Y-26457250D01*
G01X71272313Y-26433258D01*
G01X71198808Y-26408141D01*
G01X71125827Y-26381908D01*
G01X71053380Y-26354570D01*
G01X70981479Y-26326136D01*
G01X70910133Y-26296617D01*
G01X70839352Y-26266023D01*
G01X70769147Y-26234365D01*
G01X70699527Y-26201652D01*
G01X70630504Y-26167894D01*
G01X70562086Y-26133102D01*
G01X70494285Y-26097287D01*
G01X70427111Y-26060458D01*
G01X70360573Y-26022625D01*
G01X70294682Y-25983798D01*
G01X70229448Y-25943989D01*
G01X70164881Y-25903206D01*
G01X70100992Y-25861461D01*
G01X70037790Y-25818763D01*
G01X69975286Y-25775122D01*
G01X69913491Y-25730550D01*
G01X69852413Y-25685055D01*
G01X69792064Y-25638648D01*
G01X69732454Y-25591340D01*
G01X69673592Y-25543140D01*
G01X69615489Y-25494059D01*
G01X69558156Y-25444107D01*
G01X69501602Y-25393294D01*
G01X69445837Y-25341630D01*
G01X69390873Y-25289126D01*
G01X69336718Y-25235791D01*
G01X69283383Y-25181636D01*
G01X69230879Y-25126672D01*
G01X69179215Y-25070907D01*
G01X69128402Y-25014353D01*
G01X69078450Y-24957019D01*
G01X69029369Y-24898917D01*
G01X68981169Y-24840055D01*
G01X68933861Y-24780445D01*
G01X68887454Y-24720096D01*
G01X68841959Y-24659018D01*
G01X68797386Y-24597223D01*
G01X68753746Y-24534719D01*
G01X68711048Y-24471517D01*
G01X68669303Y-24407628D01*
G01X68628520Y-24343061D01*
G01X68588711Y-24277827D01*
G01X68549884Y-24211936D01*
G01X68512051Y-24145398D01*
G01X68475222Y-24078224D01*
G01X68439406Y-24010422D01*
G01X68404615Y-23942005D01*
G01X68370857Y-23872981D01*
G01X68338144Y-23803362D01*
G01X68306486Y-23733157D01*
G01X68275892Y-23662376D01*
G01X68246373Y-23591030D01*
G01X68217939Y-23519128D01*
G01X68190601Y-23446682D01*
G01X68164368Y-23373701D01*
G01X68139251Y-23300195D01*
G01X68115259Y-23226175D01*
G01X68092404Y-23151651D01*
G01X68070695Y-23076633D01*
G01X68050142Y-23001131D01*
G01X68030756Y-22925155D01*
G01X68012547Y-22848716D01*
G01X67995525Y-22771823D01*
G01X67979701Y-22694488D01*
G01X67965083Y-22616719D01*
G01X67951683Y-22538528D01*
G01X67939511Y-22459925D01*
G01X67928577Y-22380919D01*
G01X67918892Y-22301521D01*
G01X67910464Y-22221741D01*
G01X67903305Y-22141589D01*
G01X67897425Y-22061076D01*
G01X67892834Y-21980212D01*
G01X67889542Y-21899006D01*
G01X67887559Y-21817470D01*
G01X67886896Y-21735612D01*
G01X67886896Y-21735612D01*
G01X67886896Y-21735612D01*
G01X67887559Y-21653755D01*
G01X67889542Y-21572219D01*
G01X67892834Y-21491013D01*
G01X67897425Y-21410149D01*
G01X67903305Y-21329636D01*
G01X67910464Y-21249484D01*
G01X67918892Y-21169704D01*
G01X67928577Y-21090306D01*
G01X67939511Y-21011300D01*
G01X67951683Y-20932697D01*
G01X67965083Y-20854506D01*
G01X67979701Y-20776737D01*
G01X67995525Y-20699402D01*
G01X68012547Y-20622509D01*
G01X68030756Y-20546070D01*
G01X68050142Y-20470094D01*
G01X68070695Y-20394592D01*
G01X68092404Y-20319574D01*
G01X68115259Y-20245050D01*
G01X68139251Y-20171030D01*
G01X68164368Y-20097524D01*
G01X68190601Y-20024543D01*
G01X68217939Y-19952097D01*
G01X68246373Y-19880195D01*
G01X68275892Y-19808849D01*
G01X68306486Y-19738068D01*
G01X68338144Y-19667863D01*
G01X68370857Y-19598244D01*
G01X68404615Y-19529220D01*
G01X68439406Y-19460803D01*
G01X68475222Y-19393001D01*
G01X68512051Y-19325827D01*
G01X68549884Y-19259289D01*
G01X68588711Y-19193398D01*
G01X68628520Y-19128164D01*
G01X68669303Y-19063597D01*
G01X68711048Y-18999708D01*
G01X68753746Y-18936506D01*
G01X68797386Y-18874002D01*
G01X68841959Y-18812207D01*
G01X68887454Y-18751129D01*
G01X68933861Y-18690780D01*
G01X68981169Y-18631170D01*
G01X69029369Y-18572308D01*
G01X69078450Y-18514206D01*
G01X69128402Y-18456872D01*
G01X69179215Y-18400318D01*
G01X69230879Y-18344553D01*
G01X69283383Y-18289589D01*
G01X69336718Y-18235434D01*
G01X69390873Y-18182099D01*
G01X69445837Y-18129595D01*
G01X69501602Y-18077931D01*
G01X69558156Y-18027118D01*
G01X69615489Y-17977166D01*
G01X69673592Y-17928085D01*
G01X69732454Y-17879885D01*
G01X69792064Y-17832577D01*
G01X69852413Y-17786170D01*
G01X69913491Y-17740675D01*
G01X69975286Y-17696103D01*
G01X70037790Y-17652462D01*
G01X70100992Y-17609764D01*
G01X70164881Y-17568019D01*
G01X70229448Y-17527236D01*
G01X70294682Y-17487427D01*
G01X70360573Y-17448600D01*
G01X70427111Y-17410767D01*
G01X70494285Y-17373938D01*
G01X70562086Y-17338123D01*
G01X70630504Y-17303331D01*
G01X70699527Y-17269573D01*
G01X70769147Y-17236860D01*
G01X70839352Y-17205202D01*
G01X70910133Y-17174608D01*
G01X70981479Y-17145089D01*
G01X71053380Y-17116655D01*
G01X71125827Y-17089317D01*
G01X71198808Y-17063084D01*
G01X71272313Y-17037967D01*
G01X71346334Y-17013975D01*
G01X71420858Y-16991120D01*
G01X71495876Y-16969411D01*
G01X71571378Y-16948859D01*
G01X71647354Y-16929473D01*
G01X71723793Y-16911264D01*
G01X71800686Y-16894242D01*
G01X71878021Y-16878417D01*
G01X71955790Y-16863799D01*
G01X72033981Y-16850400D01*
G01X72112584Y-16838228D01*
G01X72191590Y-16827294D01*
G01X72270988Y-16817608D01*
G01X72350768Y-16809180D01*
G01X72430919Y-16802022D01*
G01X72511432Y-16796142D01*
G01X72592297Y-16791550D01*
G01X72673502Y-16788258D01*
G01X72755039Y-16786276D01*
G01X72836896Y-16785612D01*
G01X72836896Y-16785612D01*
G01X72836896Y-16785612D01*
G01X72918754Y-16786276D01*
G01X73000290Y-16788258D01*
G01X73081496Y-16791550D01*
G01X73162360Y-16796142D01*
G01X73242873Y-16802022D01*
G01X73323025Y-16809180D01*
G01X73402805Y-16817608D01*
G01X73482203Y-16827294D01*
G01X73561208Y-16838228D01*
G01X73639812Y-16850400D01*
G01X73718003Y-16863799D01*
G01X73795771Y-16878417D01*
G01X73873107Y-16894242D01*
G01X73949999Y-16911264D01*
G01X74026439Y-16929473D01*
G01X74102414Y-16948859D01*
G01X74177916Y-16969411D01*
G01X74252935Y-16991120D01*
G01X74327459Y-17013975D01*
G01X74401479Y-17037967D01*
G01X74474985Y-17063084D01*
G01X74547966Y-17089317D01*
G01X74620412Y-17116655D01*
G01X74692314Y-17145089D01*
G01X74763660Y-17174608D01*
G01X74834440Y-17205202D01*
G01X74904646Y-17236860D01*
G01X74974265Y-17269573D01*
G01X75043289Y-17303331D01*
G01X75111706Y-17338123D01*
G01X75179507Y-17373938D01*
G01X75246682Y-17410767D01*
G01X75313220Y-17448600D01*
G01X75379111Y-17487427D01*
G01X75444345Y-17527236D01*
G01X75508912Y-17568019D01*
G01X75572801Y-17609764D01*
G01X75636003Y-17652462D01*
G01X75698506Y-17696103D01*
G01X75760302Y-17740675D01*
G01X75821379Y-17786170D01*
G01X75881729Y-17832577D01*
G01X75941339Y-17879885D01*
G01X76000201Y-17928085D01*
G01X76058303Y-17977166D01*
G01X76115637Y-18027118D01*
G01X76172191Y-18077931D01*
G01X76227955Y-18129595D01*
G01X76282920Y-18182099D01*
G01X76337075Y-18235434D01*
G01X76390410Y-18289589D01*
G01X76442914Y-18344553D01*
G01X76494578Y-18400318D01*
G01X76545391Y-18456872D01*
G01X76595343Y-18514206D01*
G01X76644424Y-18572308D01*
G01X76692624Y-18631170D01*
G01X76739932Y-18690780D01*
G01X76786339Y-18751129D01*
G01X76831833Y-18812207D01*
G01X76876406Y-18874002D01*
G01X76920047Y-18936506D01*
G01X76962745Y-18999708D01*
G01X77004490Y-19063597D01*
G01X77045273Y-19128164D01*
G01X77085082Y-19193398D01*
G01X77123908Y-19259289D01*
G01X77161741Y-19325827D01*
G01X77198571Y-19393001D01*
G01X77234386Y-19460803D01*
G01X77269178Y-19529220D01*
G01X77302935Y-19598244D01*
G01X77335648Y-19667863D01*
G01X77367307Y-19738068D01*
G01X77397901Y-19808849D01*
G01X77427420Y-19880195D01*
G01X77455853Y-19952097D01*
G01X77483192Y-20024543D01*
G01X77509425Y-20097524D01*
G01X77534542Y-20171030D01*
G01X77558533Y-20245050D01*
G01X77581389Y-20319574D01*
G01X77603098Y-20394592D01*
G01X77623650Y-20470094D01*
G01X77643036Y-20546070D01*
G01X77661245Y-20622509D01*
G01X77678267Y-20699402D01*
G01X77694092Y-20776737D01*
G01X77708709Y-20854506D01*
G01X77722109Y-20932697D01*
G01X77734281Y-21011300D01*
G01X77745215Y-21090306D01*
G01X77754901Y-21169704D01*
G01X77763328Y-21249484D01*
G01X77770487Y-21329636D01*
G01X77776367Y-21410149D01*
G01X77780958Y-21491013D01*
G01X77784250Y-21572219D01*
G01X77786233Y-21653755D01*
G01X77786896Y-21735613D01*
G01X77786896Y-21735613D01*
G01X77786896Y-21735612D01*
G01X77786233Y-21817470D01*
G01X77784250Y-21899006D01*
G01X77780958Y-21980212D01*
G01X77776367Y-22061076D01*
G01X77770487Y-22141589D01*
G01X77763328Y-22221741D01*
G01X77754901Y-22301521D01*
G01X77745215Y-22380919D01*
G01X77734281Y-22459925D01*
G01X77722109Y-22538528D01*
G01X77708709Y-22616719D01*
G01X77694092Y-22694488D01*
G01X77678267Y-22771823D01*
G01X77661245Y-22848716D01*
G01X77643036Y-22925155D01*
G01X77623650Y-23001131D01*
G01X77603098Y-23076633D01*
G01X77581389Y-23151651D01*
G01X77558533Y-23226175D01*
G01X77534542Y-23300195D01*
G01X77509425Y-23373701D01*
G01X77483192Y-23446682D01*
G01X77455853Y-23519128D01*
G01X77427420Y-23591030D01*
G01X77397901Y-23662376D01*
G01X77367307Y-23733157D01*
G01X77335648Y-23803362D01*
G01X77302935Y-23872981D01*
G01X77269178Y-23942005D01*
G01X77234386Y-24010422D01*
G01X77198571Y-24078224D01*
G01X77161741Y-24145398D01*
G01X77123908Y-24211936D01*
G01X77085082Y-24277827D01*
G01X77045273Y-24343061D01*
G01X77004490Y-24407628D01*
G01X76962745Y-24471517D01*
G01X76920047Y-24534719D01*
G01X76876406Y-24597223D01*
G01X76831833Y-24659018D01*
G01X76786339Y-24720096D01*
G01X76739932Y-24780445D01*
G01X76692624Y-24840055D01*
G01X76644424Y-24898917D01*
G01X76595343Y-24957019D01*
G01X76545391Y-25014353D01*
G01X76494578Y-25070907D01*
G01X76442914Y-25126672D01*
G01X76390410Y-25181636D01*
G01X76337075Y-25235791D01*
G01X76282920Y-25289126D01*
G01X76227955Y-25341630D01*
G01X76172191Y-25393294D01*
G01X76115637Y-25444107D01*
G01X76058303Y-25494059D01*
G01X76000201Y-25543140D01*
G01X75941339Y-25591340D01*
G01X75881729Y-25638648D01*
G01X75821379Y-25685055D01*
G01X75760302Y-25730550D01*
G01X75698506Y-25775122D01*
G01X75636003Y-25818763D01*
G01X75572801Y-25861461D01*
G01X75508912Y-25903206D01*
G01X75444345Y-25943989D01*
G01X75379111Y-25983798D01*
G01X75313220Y-26022625D01*
G01X75246682Y-26060458D01*
G01X75179507Y-26097287D01*
G01X75111706Y-26133102D01*
G01X75043289Y-26167894D01*
G01X74974265Y-26201652D01*
G01X74904646Y-26234365D01*
G01X74834440Y-26266023D01*
G01X74763660Y-26296617D01*
G01X74692314Y-26326136D01*
G01X74620412Y-26354570D01*
G01X74547966Y-26381908D01*
G01X74474985Y-26408141D01*
G01X74401479Y-26433258D01*
G01X74327459Y-26457250D01*
G01X74252935Y-26480105D01*
G01X74177916Y-26501814D01*
G01X74102414Y-26522366D01*
G01X74026439Y-26541752D01*
G01X73949999Y-26559961D01*
G01X73873107Y-26576983D01*
G01X73795771Y-26592808D01*
G01X73718003Y-26607426D01*
G01X73639812Y-26620825D01*
G01X73561208Y-26632997D01*
G01X73482203Y-26643931D01*
G01X73402805Y-26653617D01*
G01X73323025Y-26662045D01*
G01X73242873Y-26669203D01*
G01X73162360Y-26675083D01*
G01X73081496Y-26679675D01*
G01X73000290Y-26682967D01*
G01X72918754Y-26684949D01*
G01X72836896Y-26685612D01*
G01X72836896Y-26685612D01*
G37*
G36*
G01X101385567Y-14750000D02*
G01X102585567Y-14750000D01*
G01X102585567Y-15950000D01*
G01X101385567Y-15950000D01*
G01X101385567Y-14750000D01*
G37*
G36*
G01X102835566Y-14755859D02*
G01X102835566Y-14755859D01*
G01X102878926Y-14752343D01*
G01X102878926Y-14752343D01*
G01X102930317Y-14784542D01*
G01X102932832Y-14798046D01*
G01X102932832Y-14798046D01*
G01X102932549Y-14843372D01*
G01X102932006Y-14913645D01*
G01X102931666Y-14955875D01*
G01X102931660Y-14956543D01*
G01X102931660Y-14956543D01*
G01X102930926Y-15053363D01*
G01X102930588Y-15109864D01*
G01X102930493Y-15134653D01*
G01X102930488Y-15137890D01*
G01X102930488Y-15137890D01*
G01X102999168Y-15099904D01*
G01X103060519Y-15081086D01*
G01X103103170Y-15074703D01*
G01X103116230Y-15074023D01*
G01X103116230Y-15074023D01*
G01X103190417Y-15088704D01*
G01X103241759Y-15118067D01*
G01X103266555Y-15140089D01*
G01X103268281Y-15141992D01*
G01X103268281Y-15141992D01*
G01X103300989Y-15199600D01*
G01X103318384Y-15263470D01*
G01X103325302Y-15316980D01*
G01X103326578Y-15343509D01*
G01X103326582Y-15344140D01*
G01X103326582Y-15344140D01*
G01X103318523Y-15424557D01*
G01X103299888Y-15489739D01*
G01X103278986Y-15536614D01*
G01X103264128Y-15562115D01*
G01X103261543Y-15565918D01*
G01X103261543Y-15565918D01*
G01X103207279Y-15616377D01*
G01X103148090Y-15643213D01*
G01X103098897Y-15653885D01*
G01X103074619Y-15655853D01*
G01X103074043Y-15655859D01*
G01X103074043Y-15655859D01*
G01X102996274Y-15646592D01*
G01X102931316Y-15624826D01*
G01X102882522Y-15599612D01*
G01X102853246Y-15580001D01*
G01X102846113Y-15574414D01*
G01X102846113Y-15574414D01*
G01X102850177Y-15519926D01*
G01X102852751Y-15452529D01*
G01X102854171Y-15386595D01*
G01X102854776Y-15336495D01*
G01X102854902Y-15316601D01*
G01X102854902Y-15316601D01*
G01X102854902Y-15316601D01*
G01X102854429Y-15255239D01*
G01X102853252Y-15185855D01*
G01X102851734Y-15117345D01*
G01X102850237Y-15058603D01*
G01X102849124Y-15018526D01*
G01X102848750Y-15005761D01*
G01X102848750Y-15005761D01*
G01X102845016Y-14901359D01*
G01X102841452Y-14829582D01*
G01X102838435Y-14785015D01*
G01X102836347Y-14762246D01*
G01X102835566Y-14755859D01*
G01X102835566Y-14755859D01*
G37*
%LPC*%
G36*
G01X102929316Y-15526367D02*
G01X102929316Y-15526367D01*
G01X102994248Y-15567299D01*
G01X103050732Y-15584881D01*
G01X103082726Y-15588984D01*
G01X103085176Y-15589062D01*
G01X103085176Y-15589062D01*
G01X103153532Y-15569582D01*
G01X103192690Y-15534856D01*
G01X103203242Y-15519921D01*
G01X103203242Y-15519921D01*
G01X103228842Y-15453993D01*
G01X103239713Y-15393696D01*
G01X103242168Y-15358586D01*
G01X103242207Y-15355859D01*
G01X103242207Y-15355859D01*
G01X103232905Y-15273509D01*
G01X103214300Y-15220395D01*
G01X103200346Y-15196327D01*
G01X103199141Y-15194726D01*
G01X103199141Y-15194726D01*
G01X103141085Y-15152357D01*
G01X103096849Y-15141717D01*
G01X103091035Y-15141406D01*
G01X103089277Y-15141406D01*
G01X103089277Y-15141406D01*
G01X103019938Y-15154285D01*
G01X102965638Y-15180575D01*
G01X102935211Y-15201757D01*
G01X102931660Y-15204687D01*
G01X102931660Y-15204687D01*
G01X102932081Y-15263528D01*
G01X102932246Y-15281738D01*
G01X102932246Y-15281738D01*
G01X102932759Y-15355676D01*
G01X102932832Y-15382812D01*
G01X102932832Y-15382812D01*
G01X102932832Y-15382812D01*
G01X102931841Y-15465888D01*
G01X102930076Y-15513521D01*
G01X102929316Y-15526367D01*
G37*
%LPD*%
G36*
G01X103426777Y-15365820D02*
G01X103426777Y-15365820D01*
G01X103435707Y-15286637D01*
G01X103456357Y-15224310D01*
G01X103479519Y-15180635D01*
G01X103495983Y-15157410D01*
G01X103498848Y-15154004D01*
G01X103498848Y-15154004D01*
G01X103556206Y-15109133D01*
G01X103615589Y-15085269D01*
G01X103663632Y-15075779D01*
G01X103686970Y-15074028D01*
G01X103687520Y-15074023D01*
G01X103687520Y-15074023D01*
G01X103764012Y-15085632D01*
G01X103822470Y-15111615D01*
G01X103860754Y-15138704D01*
G01X103876727Y-15153630D01*
G01X103877070Y-15154004D01*
G01X103877070Y-15154004D01*
G01X103914786Y-15212364D01*
G01X103936242Y-15274048D01*
G01X103946026Y-15327319D01*
G01X103948724Y-15360442D01*
G01X103948848Y-15365820D01*
G01X103948848Y-15365820D01*
G01X103939203Y-15448097D01*
G01X103917256Y-15511711D01*
G01X103893487Y-15554738D01*
G01X103878375Y-15575252D01*
G01X103877070Y-15576757D01*
G01X103877070Y-15576757D01*
G01X103819706Y-15621135D01*
G01X103760030Y-15644737D01*
G01X103711625Y-15654123D01*
G01X103688074Y-15655854D01*
G01X103687520Y-15655859D01*
G01X103687520Y-15655859D01*
G01X103611642Y-15644377D01*
G01X103553439Y-15618680D01*
G01X103515194Y-15591889D01*
G01X103499192Y-15577127D01*
G01X103498848Y-15576757D01*
G01X103498848Y-15576757D01*
G01X103460978Y-15518859D01*
G01X103439434Y-15457438D01*
G01X103429610Y-15404286D01*
G01X103426902Y-15371196D01*
G01X103426777Y-15365820D01*
G37*
%LPC*%
G36*
G01X103511152Y-15348828D02*
G01X103511152Y-15348828D01*
G01X103520063Y-15426576D01*
G01X103538616Y-15483586D01*
G01X103554538Y-15515382D01*
G01X103557734Y-15520507D01*
G01X103557734Y-15520507D01*
G01X103611509Y-15568443D01*
G01X103663374Y-15586368D01*
G01X103687495Y-15589062D01*
G01X103687520Y-15589062D01*
G01X103687520Y-15589062D01*
G01X103761505Y-15573214D01*
G01X103805796Y-15544962D01*
G01X103818184Y-15532812D01*
G01X103818184Y-15532812D01*
G01X103850320Y-15471593D01*
G01X103862872Y-15413139D01*
G01X103865056Y-15383254D01*
G01X103865059Y-15382812D01*
G01X103865059Y-15382812D01*
G01X103855867Y-15304952D01*
G01X103836732Y-15247709D01*
G01X103820308Y-15215712D01*
G01X103817012Y-15210546D01*
G01X103817012Y-15210546D01*
G01X103762661Y-15162201D01*
G01X103711251Y-15144123D01*
G01X103687544Y-15141406D01*
G01X103687520Y-15141406D01*
G01X103687520Y-15141406D01*
G01X103613699Y-15157419D01*
G01X103569702Y-15185965D01*
G01X103557441Y-15198242D01*
G01X103557441Y-15198242D01*
G01X103525707Y-15259863D01*
G01X103513312Y-15318474D01*
G01X103511155Y-15348386D01*
G01X103511152Y-15348828D01*
G37*
%LPD*%
G36*
G01X104002754Y-15129101D02*
G01X104002754Y-15129101D01*
G01X104020625Y-15093945D01*
G01X104020625Y-15093945D01*
G01X104077632Y-15086380D01*
G01X104081855Y-15086328D01*
G01X104115840Y-15086328D01*
G01X104115840Y-15086328D01*
G01X104112349Y-15007560D01*
G01X104109020Y-14960581D01*
G01X104108223Y-14951562D01*
G01X104108223Y-14951562D01*
G01X104148066Y-14948046D01*
G01X104148066Y-14948046D01*
G01X104202337Y-14978967D01*
G01X104205488Y-14993750D01*
G01X104205488Y-14993750D01*
G01X104202864Y-15052062D01*
G01X104200801Y-15087500D01*
G01X104200801Y-15087500D01*
G01X104296565Y-15086493D01*
G01X104358711Y-15084277D01*
G01X104392292Y-15082061D01*
G01X104402363Y-15081054D01*
G01X104402363Y-15081054D01*
G01X104402363Y-15081054D01*
G01X104407051Y-15109179D01*
G01X104407051Y-15109179D01*
G01X104394453Y-15141406D01*
G01X104394453Y-15141406D01*
G01X104354316Y-15150781D01*
G01X104354316Y-15150781D01*
G01X104296372Y-15151600D01*
G01X104230869Y-15151907D01*
G01X104198491Y-15151953D01*
G01X104198457Y-15151953D01*
G01X104198457Y-15151953D01*
G01X104197359Y-15226150D01*
G01X104196672Y-15296827D01*
G01X104196300Y-15357547D01*
G01X104196146Y-15401871D01*
G01X104196114Y-15423361D01*
G01X104196113Y-15424414D01*
G01X104196113Y-15424414D01*
G01X104203039Y-15510114D01*
G01X104215067Y-15551574D01*
G01X104219551Y-15560058D01*
G01X104219551Y-15560058D01*
G01X104274618Y-15590168D01*
G01X104296895Y-15592578D01*
G01X104296895Y-15592578D01*
G01X104361531Y-15572781D01*
G01X104383027Y-15556250D01*
G01X104383027Y-15556250D01*
G01X104404707Y-15599609D01*
G01X104404707Y-15599609D01*
G01X104373974Y-15640165D01*
G01X104373652Y-15640332D01*
G01X104373652Y-15640332D01*
G01X104311945Y-15655193D01*
G01X104298066Y-15655859D01*
G01X104298066Y-15655859D01*
G01X104219795Y-15641982D01*
G01X104174002Y-15615405D01*
G01X104157348Y-15598705D01*
G01X104157148Y-15598437D01*
G01X104157148Y-15598437D01*
G01X104131258Y-15540591D01*
G01X104119359Y-15478544D01*
G01X104116009Y-15434832D01*
G01X104115840Y-15426757D01*
G01X104115840Y-15426757D01*
G01X104116938Y-15319359D01*
G01X104117625Y-15242231D01*
G01X104117997Y-15191249D01*
G01X104118151Y-15162291D01*
G01X104118183Y-15151233D01*
G01X104118184Y-15150781D01*
G01X104118184Y-15150781D01*
G01X104069156Y-15154518D01*
G01X104009308Y-15159324D01*
G01X104006270Y-15159570D01*
G01X104006270Y-15159570D01*
G01X104002754Y-15129101D01*
G37*
G36*
G01X104424629Y-15129101D02*
G01X104424629Y-15129101D01*
G01X104442500Y-15093945D01*
G01X104442500Y-15093945D01*
G01X104499507Y-15086380D01*
G01X104503730Y-15086328D01*
G01X104537715Y-15086328D01*
G01X104537715Y-15086328D01*
G01X104534224Y-15007560D01*
G01X104530895Y-14960581D01*
G01X104530098Y-14951562D01*
G01X104530098Y-14951562D01*
G01X104569941Y-14948046D01*
G01X104569941Y-14948046D01*
G01X104624212Y-14978967D01*
G01X104627363Y-14993750D01*
G01X104627363Y-14993750D01*
G01X104624739Y-15052062D01*
G01X104622676Y-15087500D01*
G01X104622676Y-15087500D01*
G01X104718440Y-15086493D01*
G01X104780586Y-15084277D01*
G01X104814167Y-15082061D01*
G01X104824238Y-15081054D01*
G01X104824238Y-15081054D01*
G01X104824238Y-15081054D01*
G01X104828926Y-15109179D01*
G01X104828926Y-15109179D01*
G01X104816328Y-15141406D01*
G01X104816328Y-15141406D01*
G01X104776191Y-15150781D01*
G01X104776191Y-15150781D01*
G01X104718247Y-15151600D01*
G01X104652744Y-15151907D01*
G01X104620366Y-15151953D01*
G01X104620332Y-15151953D01*
G01X104620332Y-15151953D01*
G01X104619234Y-15226150D01*
G01X104618547Y-15296827D01*
G01X104618175Y-15357547D01*
G01X104618021Y-15401871D01*
G01X104617989Y-15423361D01*
G01X104617988Y-15424414D01*
G01X104617988Y-15424414D01*
G01X104624914Y-15510114D01*
G01X104636942Y-15551574D01*
G01X104641426Y-15560058D01*
G01X104641426Y-15560058D01*
G01X104696493Y-15590168D01*
G01X104718770Y-15592578D01*
G01X104718770Y-15592578D01*
G01X104783406Y-15572781D01*
G01X104804902Y-15556250D01*
G01X104804902Y-15556250D01*
G01X104826582Y-15599609D01*
G01X104826582Y-15599609D01*
G01X104795849Y-15640165D01*
G01X104795527Y-15640332D01*
G01X104795527Y-15640332D01*
G01X104733820Y-15655193D01*
G01X104719941Y-15655859D01*
G01X104719941Y-15655859D01*
G01X104641670Y-15641982D01*
G01X104595877Y-15615405D01*
G01X104579223Y-15598705D01*
G01X104579023Y-15598437D01*
G01X104579023Y-15598437D01*
G01X104553133Y-15540591D01*
G01X104541234Y-15478544D01*
G01X104537884Y-15434832D01*
G01X104537715Y-15426757D01*
G01X104537715Y-15426757D01*
G01X104538813Y-15319359D01*
G01X104539500Y-15242231D01*
G01X104539872Y-15191249D01*
G01X104540026Y-15162291D01*
G01X104540058Y-15151233D01*
G01X104540059Y-15150781D01*
G01X104540059Y-15150781D01*
G01X104491031Y-15154518D01*
G01X104431183Y-15159324D01*
G01X104428145Y-15159570D01*
G01X104428145Y-15159570D01*
G01X104424629Y-15129101D01*
G37*
G36*
G01X104900410Y-15365820D02*
G01X104900410Y-15365820D01*
G01X104909340Y-15286637D01*
G01X104929990Y-15224310D01*
G01X104953152Y-15180635D01*
G01X104969616Y-15157410D01*
G01X104972480Y-15154004D01*
G01X104972480Y-15154004D01*
G01X105029839Y-15109133D01*
G01X105089222Y-15085269D01*
G01X105137265Y-15075779D01*
G01X105160603Y-15074028D01*
G01X105161152Y-15074023D01*
G01X105161152Y-15074023D01*
G01X105237645Y-15085632D01*
G01X105296102Y-15111615D01*
G01X105334387Y-15138704D01*
G01X105350360Y-15153630D01*
G01X105350703Y-15154004D01*
G01X105350703Y-15154004D01*
G01X105388418Y-15212364D01*
G01X105409875Y-15274048D01*
G01X105419659Y-15327319D01*
G01X105422356Y-15360442D01*
G01X105422480Y-15365820D01*
G01X105422480Y-15365820D01*
G01X105412836Y-15448097D01*
G01X105390889Y-15511711D01*
G01X105367120Y-15554738D01*
G01X105352008Y-15575252D01*
G01X105350703Y-15576757D01*
G01X105350703Y-15576757D01*
G01X105293339Y-15621135D01*
G01X105233663Y-15644737D01*
G01X105185258Y-15654123D01*
G01X105161707Y-15655854D01*
G01X105161152Y-15655859D01*
G01X105161152Y-15655859D01*
G01X105085275Y-15644377D01*
G01X105027072Y-15618680D01*
G01X104988827Y-15591889D01*
G01X104972825Y-15577127D01*
G01X104972480Y-15576757D01*
G01X104972480Y-15576757D01*
G01X104934611Y-15518859D01*
G01X104913067Y-15457438D01*
G01X104903243Y-15404286D01*
G01X104900535Y-15371196D01*
G01X104900410Y-15365820D01*
G37*
%LPC*%
G36*
G01X104984785Y-15348828D02*
G01X104984785Y-15348828D01*
G01X104993696Y-15426576D01*
G01X105012248Y-15483586D01*
G01X105028171Y-15515382D01*
G01X105031367Y-15520507D01*
G01X105031367Y-15520507D01*
G01X105085141Y-15568443D01*
G01X105137007Y-15586368D01*
G01X105161127Y-15589062D01*
G01X105161152Y-15589062D01*
G01X105161152Y-15589062D01*
G01X105235138Y-15573214D01*
G01X105279429Y-15544962D01*
G01X105291816Y-15532812D01*
G01X105291816Y-15532812D01*
G01X105323952Y-15471593D01*
G01X105336504Y-15413139D01*
G01X105338688Y-15383254D01*
G01X105338691Y-15382812D01*
G01X105338691Y-15382812D01*
G01X105329500Y-15304952D01*
G01X105310364Y-15247709D01*
G01X105293941Y-15215712D01*
G01X105290645Y-15210546D01*
G01X105290645Y-15210546D01*
G01X105236294Y-15162201D01*
G01X105184884Y-15144123D01*
G01X105161177Y-15141406D01*
G01X105161152Y-15141406D01*
G01X105161152Y-15141406D01*
G01X105087332Y-15157419D01*
G01X105043335Y-15185965D01*
G01X105031074Y-15198242D01*
G01X105031074Y-15198242D01*
G01X104999340Y-15259863D01*
G01X104986945Y-15318474D01*
G01X104984788Y-15348386D01*
G01X104984785Y-15348828D01*
G37*
%LPD*%
G36*
G01X105548457Y-15092187D02*
G01X105548457Y-15092187D01*
G01X105591816Y-15082812D01*
G01X105591816Y-15082812D01*
G01X105641876Y-15117162D01*
G01X105646895Y-15142578D01*
G01X105646895Y-15142578D01*
G01X105704976Y-15106762D01*
G01X105735371Y-15093359D01*
G01X105735371Y-15093359D01*
G01X105735371Y-15093359D01*
G01X105804512Y-15076440D01*
G01X105834980Y-15074023D01*
G01X105834980Y-15074023D01*
G01X105834980Y-15074023D01*
G01X105909381Y-15091847D01*
G01X105951959Y-15126746D01*
G01X105968056Y-15150861D01*
G01X105968574Y-15151953D01*
G01X105968574Y-15151953D01*
G01X106022533Y-15114125D01*
G01X106058490Y-15097119D01*
G01X106059102Y-15096875D01*
G01X106059102Y-15096875D01*
G01X106129629Y-15077825D01*
G01X106167463Y-15074046D01*
G01X106168965Y-15074023D01*
G01X106168965Y-15074023D01*
G01X106239296Y-15090496D01*
G01X106272996Y-15112565D01*
G01X106274727Y-15114160D01*
G01X106274727Y-15114160D01*
G01X106305267Y-15171816D01*
G01X106314733Y-15227722D01*
G01X106315449Y-15243359D01*
G01X106315449Y-15243359D01*
G01X106314180Y-15297574D01*
G01X106313398Y-15329785D01*
G01X106313398Y-15329785D01*
G01X106311791Y-15410968D01*
G01X106311364Y-15452044D01*
G01X106311348Y-15457226D01*
G01X106311348Y-15457226D01*
G01X106315271Y-15539829D01*
G01X106323438Y-15599798D01*
G01X106330448Y-15632965D01*
G01X106331855Y-15638281D01*
G01X106331855Y-15638281D01*
G01X106284980Y-15647656D01*
G01X106284980Y-15647656D01*
G01X106240156Y-15633886D01*
G01X106240156Y-15633886D01*
G01X106226387Y-15586718D01*
G01X106226387Y-15586718D01*
G01X106226387Y-15586718D01*
G01X106227191Y-15529728D01*
G01X106228765Y-15463284D01*
G01X106229853Y-15423207D01*
G01X106229902Y-15421484D01*
G01X106229902Y-15421484D01*
G01X106232452Y-15326310D01*
G01X106233323Y-15284065D01*
G01X106233418Y-15275586D01*
G01X106233418Y-15275586D01*
G01X106220620Y-15202306D01*
G01X106205585Y-15174573D01*
G01X106205293Y-15174218D01*
G01X106205293Y-15174218D01*
G01X106148565Y-15143352D01*
G01X106131465Y-15141406D01*
G01X106131465Y-15141406D01*
G01X106066552Y-15155879D01*
G01X106012049Y-15184218D01*
G01X105983769Y-15203800D01*
G01X105982637Y-15204687D01*
G01X105982637Y-15204687D01*
G01X105983825Y-15296297D01*
G01X105984523Y-15365514D01*
G01X105984862Y-15412893D01*
G01X105984971Y-15438986D01*
G01X105984980Y-15444921D01*
G01X105984980Y-15444921D01*
G01X105986257Y-15527927D01*
G01X105989017Y-15591793D01*
G01X105991654Y-15631635D01*
G01X105992598Y-15642968D01*
G01X105992598Y-15642968D01*
G01X105951582Y-15646484D01*
G01X105951582Y-15646484D01*
G01X105900191Y-15614286D01*
G01X105897676Y-15600781D01*
G01X105897676Y-15600781D01*
G01X105899434Y-15552441D01*
G01X105899434Y-15552441D01*
G01X105901295Y-15488506D01*
G01X105902276Y-15438567D01*
G01X105902363Y-15433203D01*
G01X105902363Y-15433203D01*
G01X105903167Y-15361559D01*
G01X105903480Y-15303351D01*
G01X105903535Y-15275974D01*
G01X105903535Y-15275586D01*
G01X105903535Y-15275586D01*
G01X105884621Y-15193604D01*
G01X105844486Y-15154466D01*
G01X105808042Y-15142326D01*
G01X105798066Y-15141406D01*
G01X105798066Y-15141406D01*
G01X105733941Y-15156550D01*
G01X105679758Y-15186200D01*
G01X105651542Y-15206689D01*
G01X105650410Y-15207617D01*
G01X105650410Y-15207617D01*
G01X105651642Y-15302663D01*
G01X105652342Y-15372686D01*
G01X105652662Y-15418696D01*
G01X105652750Y-15441705D01*
G01X105652754Y-15444921D01*
G01X105652754Y-15444921D01*
G01X105653933Y-15527927D01*
G01X105656480Y-15591793D01*
G01X105658914Y-15631635D01*
G01X105659785Y-15642968D01*
G01X105659785Y-15642968D01*
G01X105619355Y-15646484D01*
G01X105619355Y-15646484D01*
G01X105567964Y-15614286D01*
G01X105565449Y-15600781D01*
G01X105565449Y-15600781D01*
G01X105567220Y-15546008D01*
G01X105568379Y-15512597D01*
G01X105568379Y-15512597D01*
G01X105570346Y-15437634D01*
G01X105571148Y-15377789D01*
G01X105571308Y-15347670D01*
G01X105571309Y-15346484D01*
G01X105571309Y-15346484D01*
G01X105568932Y-15244437D01*
G01X105563265Y-15171921D01*
G01X105556501Y-15125000D01*
G01X105550834Y-15099734D01*
G01X105548457Y-15092187D01*
G01X105548457Y-15092187D01*
G37*
G36*
G01X106727949Y-15560351D02*
G01X106727949Y-15560351D01*
G01X106765927Y-15516248D01*
G01X106781855Y-15509961D01*
G01X106781855Y-15509961D01*
G01X106822756Y-15559257D01*
G01X106838984Y-15568847D01*
G01X106838984Y-15568847D01*
G01X106905136Y-15586827D01*
G01X106934199Y-15589062D01*
G01X106934199Y-15589062D01*
G01X107001708Y-15574918D01*
G01X107017695Y-15566211D01*
G01X107017695Y-15566211D01*
G01X107048011Y-15511335D01*
G01X107049629Y-15495312D01*
G01X107049629Y-15495312D01*
G01X107022331Y-15443535D01*
G01X107017695Y-15440234D01*
G01X107017695Y-15440234D01*
G01X106957579Y-15415253D01*
G01X106940352Y-15410644D01*
G01X106940352Y-15410644D01*
G01X106873774Y-15393679D01*
G01X106849238Y-15386621D01*
G01X106849238Y-15386621D01*
G01X106790878Y-15353366D01*
G01X106771602Y-15334472D01*
G01X106771602Y-15334472D01*
G01X106744422Y-15273011D01*
G01X106739675Y-15233477D01*
G01X106739668Y-15232812D01*
G01X106739668Y-15232812D01*
G01X106759663Y-15165299D01*
G01X106792512Y-15125982D01*
G01X106801484Y-15118554D01*
G01X106801484Y-15118554D01*
G01X106866429Y-15086826D01*
G01X106920372Y-15075482D01*
G01X106941230Y-15074023D01*
G01X106941230Y-15074023D01*
G01X107009847Y-15084364D01*
G01X107049428Y-15098217D01*
G01X107051680Y-15099218D01*
G01X107051680Y-15099218D01*
G01X107100603Y-15146893D01*
G01X107105879Y-15168945D01*
G01X107105879Y-15168945D01*
G01X107067901Y-15213631D01*
G01X107051973Y-15219336D01*
G01X107051973Y-15219336D01*
G01X107011055Y-15171544D01*
G01X106997773Y-15163086D01*
G01X106997773Y-15163086D01*
G01X106933378Y-15143130D01*
G01X106912520Y-15141406D01*
G01X106912520Y-15141406D01*
G01X106850710Y-15157998D01*
G01X106841621Y-15163671D01*
G01X106841621Y-15163671D01*
G01X106812545Y-15217033D01*
G01X106811738Y-15226367D01*
G01X106811738Y-15226367D01*
G01X106838682Y-15278854D01*
G01X106843672Y-15282617D01*
G01X106843672Y-15282617D01*
G01X106902987Y-15308836D01*
G01X106921016Y-15313964D01*
G01X106921016Y-15313964D01*
G01X106986617Y-15331183D01*
G01X107012129Y-15338574D01*
G01X107012129Y-15338574D01*
G01X107071262Y-15371178D01*
G01X107089766Y-15388379D01*
G01X107089766Y-15388379D01*
G01X107117707Y-15448913D01*
G01X107121699Y-15482421D01*
G01X107121699Y-15482421D01*
G01X107121699Y-15482421D01*
G01X107105278Y-15554821D01*
G01X107075266Y-15598146D01*
G01X107060469Y-15611621D01*
G01X107060469Y-15611621D01*
G01X106996153Y-15642554D01*
G01X106939899Y-15654120D01*
G01X106914888Y-15655859D01*
G01X106914863Y-15655859D01*
G01X106914863Y-15655859D01*
G01X106840693Y-15646951D01*
G01X106794047Y-15632317D01*
G01X106784785Y-15628320D01*
G01X106784785Y-15628320D01*
G01X106733481Y-15580826D01*
G01X106727949Y-15560351D01*
G37*
G36*
G01X107224238Y-15365820D02*
G01X107224238Y-15365820D01*
G01X107233168Y-15286637D01*
G01X107253818Y-15224310D01*
G01X107276980Y-15180635D01*
G01X107293444Y-15157410D01*
G01X107296309Y-15154004D01*
G01X107296309Y-15154004D01*
G01X107353667Y-15109133D01*
G01X107413050Y-15085269D01*
G01X107461093Y-15075779D01*
G01X107484431Y-15074028D01*
G01X107484980Y-15074023D01*
G01X107484980Y-15074023D01*
G01X107561473Y-15085632D01*
G01X107619930Y-15111615D01*
G01X107658215Y-15138704D01*
G01X107674188Y-15153630D01*
G01X107674531Y-15154004D01*
G01X107674531Y-15154004D01*
G01X107712246Y-15212364D01*
G01X107733703Y-15274048D01*
G01X107743487Y-15327319D01*
G01X107746185Y-15360442D01*
G01X107746309Y-15365820D01*
G01X107746309Y-15365820D01*
G01X107736664Y-15448097D01*
G01X107714717Y-15511711D01*
G01X107690948Y-15554738D01*
G01X107675836Y-15575252D01*
G01X107674531Y-15576757D01*
G01X107674531Y-15576757D01*
G01X107617167Y-15621135D01*
G01X107557491Y-15644737D01*
G01X107509086Y-15654123D01*
G01X107485535Y-15655854D01*
G01X107484980Y-15655859D01*
G01X107484980Y-15655859D01*
G01X107409103Y-15644377D01*
G01X107350900Y-15618680D01*
G01X107312655Y-15591889D01*
G01X107296653Y-15577127D01*
G01X107296309Y-15576757D01*
G01X107296309Y-15576757D01*
G01X107258439Y-15518859D01*
G01X107236895Y-15457438D01*
G01X107227071Y-15404286D01*
G01X107224363Y-15371196D01*
G01X107224238Y-15365820D01*
G37*
%LPC*%
G36*
G01X107308613Y-15348828D02*
G01X107308613Y-15348828D01*
G01X107317524Y-15426576D01*
G01X107336077Y-15483586D01*
G01X107351999Y-15515382D01*
G01X107355195Y-15520507D01*
G01X107355195Y-15520507D01*
G01X107408969Y-15568443D01*
G01X107460835Y-15586368D01*
G01X107484956Y-15589062D01*
G01X107484980Y-15589062D01*
G01X107484980Y-15589062D01*
G01X107558966Y-15573214D01*
G01X107603257Y-15544962D01*
G01X107615645Y-15532812D01*
G01X107615645Y-15532812D01*
G01X107647781Y-15471593D01*
G01X107660333Y-15413139D01*
G01X107662517Y-15383254D01*
G01X107662520Y-15382812D01*
G01X107662520Y-15382812D01*
G01X107653328Y-15304952D01*
G01X107634193Y-15247709D01*
G01X107617769Y-15215712D01*
G01X107614473Y-15210546D01*
G01X107614473Y-15210546D01*
G01X107560122Y-15162201D01*
G01X107508712Y-15144123D01*
G01X107485005Y-15141406D01*
G01X107484980Y-15141406D01*
G01X107484980Y-15141406D01*
G01X107411160Y-15157419D01*
G01X107367163Y-15185965D01*
G01X107354902Y-15198242D01*
G01X107354902Y-15198242D01*
G01X107323168Y-15259863D01*
G01X107310773Y-15318474D01*
G01X107308616Y-15348386D01*
G01X107308613Y-15348828D01*
G37*
%LPD*%
G36*
G01X107872285Y-14755859D02*
G01X107872285Y-14755859D01*
G01X107914473Y-14752343D01*
G01X107914473Y-14752343D01*
G01X107966761Y-14783906D01*
G01X107969551Y-14798046D01*
G01X107969551Y-14798046D01*
G01X107968011Y-14854788D01*
G01X107967793Y-14862207D01*
G01X107967793Y-14862207D01*
G01X107965951Y-14926626D01*
G01X107964260Y-14987842D01*
G01X107963411Y-15019070D01*
G01X107963398Y-15019531D01*
G01X107963398Y-15019531D01*
G01X107961830Y-15094037D01*
G01X107961053Y-15158110D01*
G01X107960790Y-15201555D01*
G01X107960762Y-15214648D01*
G01X107960762Y-15401562D01*
G01X107960762Y-15401562D01*
G01X107963362Y-15491159D01*
G01X107969469Y-15559311D01*
G01X107976543Y-15606278D01*
G01X107982045Y-15632322D01*
G01X107983613Y-15638281D01*
G01X107983613Y-15638281D01*
G01X107938496Y-15647656D01*
G01X107938496Y-15647656D01*
G01X107892207Y-15633300D01*
G01X107892207Y-15633300D01*
G01X107879316Y-15585546D01*
G01X107879316Y-15585546D01*
G01X107879316Y-15585546D01*
G01X107879615Y-15535454D01*
G01X107880174Y-15468079D01*
G01X107880488Y-15432948D01*
G01X107880488Y-15432910D01*
G01X107880488Y-15432910D01*
G01X107881204Y-15343697D01*
G01X107881546Y-15282444D01*
G01X107881652Y-15249047D01*
G01X107881660Y-15242187D01*
G01X107881660Y-15102734D01*
G01X107881660Y-15102734D01*
G01X107881091Y-14989648D01*
G01X107879635Y-14903003D01*
G01X107877673Y-14839652D01*
G01X107875585Y-14796453D01*
G01X107873750Y-14770260D01*
G01X107872548Y-14757930D01*
G01X107872285Y-14755859D01*
G37*
G36*
G01X108109590Y-15365820D02*
G01X108109590Y-15365820D01*
G01X108118737Y-15287180D01*
G01X108139891Y-15225036D01*
G01X108163618Y-15181332D01*
G01X108180484Y-15158017D01*
G01X108183418Y-15154589D01*
G01X108183418Y-15154589D01*
G01X108242396Y-15108012D01*
G01X108300166Y-15084094D01*
G01X108344093Y-15075282D01*
G01X108361543Y-15074023D01*
G01X108361543Y-15074023D01*
G01X108361543Y-15074023D01*
G01X108432806Y-15085579D01*
G01X108484495Y-15106179D01*
G01X108500996Y-15115039D01*
G01X108500996Y-15115039D01*
G01X108502858Y-15036438D01*
G01X108503326Y-14994791D01*
G01X108503340Y-14990234D01*
G01X108503340Y-14990234D01*
G01X108502178Y-14901904D01*
G01X108499492Y-14832916D01*
G01X108496479Y-14784920D01*
G01X108494337Y-14759561D01*
G01X108493965Y-14755859D01*
G01X108493965Y-14755859D01*
G01X108536738Y-14752343D01*
G01X108536738Y-14752343D01*
G01X108588129Y-14784542D01*
G01X108590645Y-14798046D01*
G01X108590645Y-14798046D01*
G01X108590146Y-14839367D01*
G01X108588939Y-14902902D01*
G01X108587458Y-14972159D01*
G01X108586137Y-15030643D01*
G01X108585409Y-15061861D01*
G01X108585371Y-15063476D01*
G01X108585371Y-15063476D01*
G01X108583223Y-15160156D01*
G01X108581756Y-15237668D01*
G01X108580839Y-15297009D01*
G01X108580344Y-15339170D01*
G01X108580140Y-15365145D01*
G01X108580098Y-15375928D01*
G01X108580098Y-15376367D01*
G01X108580098Y-15376367D01*
G01X108582259Y-15476081D01*
G01X108587489Y-15548899D01*
G01X108593907Y-15598004D01*
G01X108599632Y-15626580D01*
G01X108602784Y-15637810D01*
G01X108602949Y-15638281D01*
G01X108602949Y-15638281D01*
G01X108557246Y-15647656D01*
G01X108557246Y-15647656D01*
G01X108509445Y-15611539D01*
G01X108504512Y-15587890D01*
G01X108504512Y-15587890D01*
G01X108441440Y-15631532D01*
G01X108386097Y-15650823D01*
G01X108352716Y-15655710D01*
G01X108348652Y-15655859D01*
G01X108347480Y-15655859D01*
G01X108347480Y-15655859D01*
G01X108276054Y-15641148D01*
G01X108221046Y-15609932D01*
G01X108187853Y-15581586D01*
G01X108180488Y-15573828D01*
G01X108180488Y-15573828D01*
G01X108141957Y-15512320D01*
G01X108120754Y-15449268D01*
G01X108111702Y-15397077D01*
G01X108109626Y-15368152D01*
G01X108109590Y-15365820D01*
G37*
%LPC*%
G36*
G01X108193965Y-15348828D02*
G01X108193965Y-15348828D01*
G01X108203604Y-15428779D01*
G01X108223674Y-15486802D01*
G01X108240898Y-15518883D01*
G01X108244355Y-15524023D01*
G01X108244355Y-15524023D01*
G01X108301048Y-15573751D01*
G01X108349429Y-15590727D01*
G01X108366230Y-15592578D01*
G01X108366230Y-15592578D01*
G01X108432080Y-15575108D01*
G01X108481081Y-15542409D01*
G01X108500977Y-15524043D01*
G01X108500996Y-15524023D01*
G01X108500996Y-15524023D01*
G01X108500092Y-15402174D01*
G01X108499456Y-15312405D01*
G01X108499042Y-15249934D01*
G01X108498802Y-15209979D01*
G01X108498689Y-15187759D01*
G01X108498655Y-15178492D01*
G01X108498652Y-15177148D01*
G01X108498652Y-15177148D01*
G01X108429101Y-15149519D01*
G01X108383105Y-15141786D01*
G01X108375020Y-15141406D01*
G01X108375020Y-15141406D01*
G01X108302277Y-15156649D01*
G01X108257096Y-15184507D01*
G01X108242598Y-15198242D01*
G01X108242598Y-15198242D01*
G01X108209257Y-15259863D01*
G01X108196234Y-15318474D01*
G01X108193968Y-15348386D01*
G01X108193965Y-15348828D01*
G37*
%LPD*%
G36*
G01X108728340Y-15368164D02*
G01X108728340Y-15368164D01*
G01X108738250Y-15284219D01*
G01X108761166Y-15220005D01*
G01X108786870Y-15176197D01*
G01X108805142Y-15153467D01*
G01X108808320Y-15150195D01*
G01X108808320Y-15150195D01*
G01X108871405Y-15106158D01*
G01X108932209Y-15083545D01*
G01X108978018Y-15075213D01*
G01X108996113Y-15074023D01*
G01X108996113Y-15074023D01*
G01X108996113Y-15074023D01*
G01X109071585Y-15087395D01*
G01X109118524Y-15111232D01*
G01X109132051Y-15121484D01*
G01X109132051Y-15121484D01*
G01X109172935Y-15181175D01*
G01X109183782Y-15225790D01*
G01X109184199Y-15232812D01*
G01X109184199Y-15232812D01*
G01X109172667Y-15298759D01*
G01X109167500Y-15310742D01*
G01X109167500Y-15310742D01*
G01X109127991Y-15356644D01*
G01X109123848Y-15359668D01*
G01X109123848Y-15359668D01*
G01X109064730Y-15382882D01*
G01X109045918Y-15387207D01*
G01X109045918Y-15387207D01*
G01X108976704Y-15396838D01*
G01X108945723Y-15399218D01*
G01X108945723Y-15399218D01*
G01X108945723Y-15399218D01*
G01X108880570Y-15401030D01*
G01X108826701Y-15401537D01*
G01X108816230Y-15401562D01*
G01X108816230Y-15401562D01*
G01X108834303Y-15476525D01*
G01X108857513Y-15523308D01*
G01X108868086Y-15538379D01*
G01X108868086Y-15538379D01*
G01X108924891Y-15576983D01*
G01X108974594Y-15588361D01*
G01X108986152Y-15589062D01*
G01X108986152Y-15589062D01*
G01X109061543Y-15572248D01*
G01X109102357Y-15541518D01*
G01X109113887Y-15526367D01*
G01X109113887Y-15526367D01*
G01X109160050Y-15569079D01*
G01X109161348Y-15576757D01*
G01X109161348Y-15576757D01*
G01X109126037Y-15624261D01*
G01X109106855Y-15634179D01*
G01X109106855Y-15634179D01*
G01X109038862Y-15651406D01*
G01X108991062Y-15655733D01*
G01X108984980Y-15655859D01*
G01X108984980Y-15655859D01*
G01X108908387Y-15644735D01*
G01X108850142Y-15620263D01*
G01X108813099Y-15595791D01*
G01X108800117Y-15584668D01*
G01X108800117Y-15584668D01*
G01X108800117Y-15584668D01*
G01X108762402Y-15529255D01*
G01X108740945Y-15466338D01*
G01X108731161Y-15409933D01*
G01X108728464Y-15374062D01*
G01X108728340Y-15368164D01*
G37*
%LPC*%
G36*
G01X108815059Y-15341796D02*
G01X108815059Y-15341796D01*
G01X108885318Y-15341054D01*
G01X108901191Y-15340625D01*
G01X108901191Y-15340625D01*
G01X108964150Y-15334996D01*
G01X108976777Y-15333300D01*
G01X108976777Y-15333300D01*
G01X109037850Y-15318373D01*
G01X109042988Y-15316308D01*
G01X109042988Y-15316308D01*
G01X109084250Y-15285307D01*
G01X109084297Y-15285254D01*
G01X109084297Y-15285254D01*
G01X109101576Y-15235582D01*
G01X109101582Y-15235156D01*
G01X109101582Y-15235156D01*
G01X109078427Y-15177422D01*
G01X109069941Y-15168359D01*
G01X109069941Y-15168359D01*
G01X109010784Y-15142172D01*
G01X108991426Y-15140234D01*
G01X108991426Y-15140234D01*
G01X108921605Y-15155462D01*
G01X108878192Y-15181201D01*
G01X108868379Y-15189453D01*
G01X108868379Y-15189453D01*
G01X108833613Y-15246089D01*
G01X108818614Y-15305739D01*
G01X108815109Y-15340334D01*
G01X108815059Y-15341796D01*
G37*
%LPD*%
G36*
G01X109310176Y-15086328D02*
G01X109310176Y-15086328D01*
G01X109351191Y-15082812D01*
G01X109351191Y-15082812D01*
G01X109400727Y-15115829D01*
G01X109402754Y-15127929D01*
G01X109402754Y-15127929D01*
G01X109402168Y-15144336D01*
G01X109402168Y-15144336D01*
G01X109401582Y-15170117D01*
G01X109401582Y-15170117D01*
G01X109445739Y-15120229D01*
G01X109465742Y-15103613D01*
G01X109465742Y-15103613D01*
G01X109527984Y-15076062D01*
G01X109545137Y-15074023D01*
G01X109545137Y-15074023D01*
G01X109588496Y-15086621D01*
G01X109588496Y-15086621D01*
G01X109604316Y-15120898D01*
G01X109604316Y-15120898D01*
G01X109581941Y-15172580D01*
G01X109580293Y-15174804D01*
G01X109580293Y-15174804D01*
G01X109526129Y-15152164D01*
G01X109522285Y-15151953D01*
G01X109522285Y-15151953D01*
G01X109463896Y-15172289D01*
G01X109455195Y-15178320D01*
G01X109455195Y-15178320D01*
G01X109410901Y-15228004D01*
G01X109398652Y-15248046D01*
G01X109398652Y-15248046D01*
G01X109397833Y-15305095D01*
G01X109397527Y-15368921D01*
G01X109397480Y-15400357D01*
G01X109397480Y-15400390D01*
G01X109397480Y-15400390D01*
G01X109400080Y-15491042D01*
G01X109406187Y-15559579D01*
G01X109413262Y-15606522D01*
G01X109418764Y-15632392D01*
G01X109420332Y-15638281D01*
G01X109420332Y-15638281D01*
G01X109374629Y-15647656D01*
G01X109374629Y-15647656D01*
G01X109328047Y-15632129D01*
G01X109328047Y-15632129D01*
G01X109328047Y-15632129D01*
G01X109316044Y-15579969D01*
G01X109316035Y-15579101D01*
G01X109316035Y-15579101D01*
G01X109316674Y-15520742D01*
G01X109317207Y-15484472D01*
G01X109317207Y-15484472D01*
G01X109318162Y-15406430D01*
G01X109318376Y-15369448D01*
G01X109318379Y-15366992D01*
G01X109318379Y-15366992D01*
G01X109317677Y-15280649D01*
G01X109315955Y-15208113D01*
G01X109313786Y-15151005D01*
G01X109311745Y-15110945D01*
G01X109310405Y-15089551D01*
G01X109310176Y-15086328D01*
G37*
G36*
G01X109688105Y-15092187D02*
G01X109688105Y-15092187D01*
G01X109734980Y-15082812D01*
G01X109734980Y-15082812D01*
G01X109782443Y-15118929D01*
G01X109786543Y-15142578D01*
G01X109786543Y-15142578D01*
G01X109854676Y-15102945D01*
G01X109915449Y-15082592D01*
G01X109959083Y-15075094D01*
G01X109975801Y-15074023D01*
G01X109975801Y-15074023D01*
G01X109975801Y-15074023D01*
G01X110049727Y-15088698D01*
G01X110100527Y-15117430D01*
G01X110123488Y-15137284D01*
G01X110124336Y-15138183D01*
G01X110124336Y-15138183D01*
G01X110158041Y-15195784D01*
G01X110175349Y-15259948D01*
G01X110181726Y-15312083D01*
G01X110182637Y-15333593D01*
G01X110182637Y-15333593D01*
G01X110182637Y-15333593D01*
G01X110176052Y-15409918D01*
G01X110163441Y-15466069D01*
G01X110155518Y-15490871D01*
G01X110155391Y-15491211D01*
G01X110155391Y-15491211D01*
G01X110119949Y-15554636D01*
G01X110083715Y-15595677D01*
G01X110068379Y-15609277D01*
G01X110068379Y-15609277D01*
G01X110005088Y-15641849D01*
G01X109949216Y-15654028D01*
G01X109924263Y-15655859D01*
G01X109924238Y-15655859D01*
G01X109924238Y-15655859D01*
G01X109853227Y-15643913D01*
G01X109803720Y-15623163D01*
G01X109790059Y-15615429D01*
G01X109790059Y-15615429D01*
G01X109790584Y-15672429D01*
G01X109790645Y-15678418D01*
G01X109790645Y-15678418D01*
G01X109791626Y-15747616D01*
G01X109791816Y-15755761D01*
G01X109791816Y-15755761D01*
G01X109794498Y-15814139D01*
G01X109794746Y-15818750D01*
G01X109794746Y-15818750D01*
G01X109800999Y-15882414D01*
G01X109802070Y-15889062D01*
G01X109802070Y-15889062D01*
G01X109814080Y-15938274D01*
G01X109814082Y-15938281D01*
G01X109814082Y-15938281D01*
G01X109766035Y-15947656D01*
G01X109766035Y-15947656D01*
G01X109719453Y-15932129D01*
G01X109719453Y-15932129D01*
G01X109719453Y-15932129D01*
G01X109707450Y-15879969D01*
G01X109707441Y-15879101D01*
G01X109707441Y-15879101D01*
G01X109707592Y-15811404D01*
G01X109707961Y-15740866D01*
G01X109708426Y-15675525D01*
G01X109708863Y-15623417D01*
G01X109709150Y-15592580D01*
G01X109709199Y-15587597D01*
G01X109709199Y-15587597D01*
G01X109710090Y-15491723D01*
G01X109710614Y-15421643D01*
G01X109710868Y-15375323D01*
G01X109710950Y-15350727D01*
G01X109710957Y-15345312D01*
G01X109710957Y-15345312D01*
G01X109708580Y-15246312D01*
G01X109702913Y-15174453D01*
G01X109696149Y-15126781D01*
G01X109690482Y-15100343D01*
G01X109688105Y-15092187D01*
G01X109688105Y-15092187D01*
G37*
%LPC*%
G36*
G01X109790059Y-15207617D02*
G01X109790059Y-15207617D01*
G01X109790963Y-15314309D01*
G01X109791598Y-15398441D01*
G01X109792012Y-15462055D01*
G01X109792252Y-15507190D01*
G01X109792366Y-15535888D01*
G01X109792400Y-15550190D01*
G01X109792402Y-15552734D01*
G01X109792402Y-15552734D01*
G01X109855532Y-15578358D01*
G01X109913215Y-15587749D01*
G01X109936543Y-15589062D01*
G01X109936543Y-15589062D01*
G01X110002607Y-15570752D01*
G01X110028242Y-15552441D01*
G01X110028242Y-15552441D01*
G01X110028242Y-15552441D01*
G01X110068019Y-15496459D01*
G01X110081488Y-15463917D01*
G01X110081562Y-15463671D01*
G01X110081562Y-15463671D01*
G01X110094363Y-15395911D01*
G01X110097063Y-15353660D01*
G01X110097090Y-15351171D01*
G01X110097090Y-15351171D01*
G01X110087642Y-15267117D01*
G01X110069143Y-15214787D01*
G01X110056360Y-15193134D01*
G01X110055781Y-15192382D01*
G01X110055781Y-15192382D01*
G01X109997751Y-15151352D01*
G01X109954065Y-15141615D01*
G01X109949434Y-15141406D01*
G01X109949434Y-15141406D01*
G01X109881278Y-15154881D01*
G01X109825786Y-15182389D01*
G01X109793846Y-15204551D01*
G01X109790059Y-15207617D01*
G37*
%LPD*%
G36*
G01X110289863Y-15487109D02*
G01X110289863Y-15487109D01*
G01X110305080Y-15417539D01*
G01X110318574Y-15397168D01*
G01X110318574Y-15397168D01*
G01X110373631Y-15362387D01*
G01X110397676Y-15353515D01*
G01X110397676Y-15353515D01*
G01X110462223Y-15339876D01*
G01X110528819Y-15330344D01*
G01X110585559Y-15324433D01*
G01X110620540Y-15321656D01*
G01X110626191Y-15321289D01*
G01X110626191Y-15321289D01*
G01X110619093Y-15236356D01*
G01X110606438Y-15191540D01*
G01X110600996Y-15180371D01*
G01X110600996Y-15180371D01*
G01X110548008Y-15148622D01*
G01X110498212Y-15141513D01*
G01X110493770Y-15141406D01*
G01X110493770Y-15141406D01*
G01X110433573Y-15157901D01*
G01X110424336Y-15162793D01*
G01X110424336Y-15162793D01*
G01X110378837Y-15209389D01*
G01X110370137Y-15225195D01*
G01X110370137Y-15225195D01*
G01X110317628Y-15188721D01*
G01X110315059Y-15177148D01*
G01X110315059Y-15177148D01*
G01X110344782Y-15121304D01*
G01X110372773Y-15102148D01*
G01X110372773Y-15102148D01*
G01X110439805Y-15081056D01*
G01X110493363Y-15074517D01*
G01X110507246Y-15074023D01*
G01X110507246Y-15074023D01*
G01X110589556Y-15084360D01*
G01X110639409Y-15104157D01*
G01X110658187Y-15116597D01*
G01X110658418Y-15116796D01*
G01X110658418Y-15116796D01*
G01X110690681Y-15170713D01*
G01X110703828Y-15231748D01*
G01X110706448Y-15268168D01*
G01X110706465Y-15269726D01*
G01X110706465Y-15269726D01*
G01X110705531Y-15327641D01*
G01X110705293Y-15340332D01*
G01X110705293Y-15340332D01*
G01X110704228Y-15413494D01*
G01X110704121Y-15432031D01*
G01X110704121Y-15432031D01*
G01X110707692Y-15522595D01*
G01X110715547Y-15587011D01*
G01X110723402Y-15625500D01*
G01X110726973Y-15638281D01*
G01X110726973Y-15638281D01*
G01X110726973Y-15638281D01*
G01X110680098Y-15647656D01*
G01X110680098Y-15647656D01*
G01X110642891Y-15635058D01*
G01X110642891Y-15635058D01*
G01X110628535Y-15594921D01*
G01X110628535Y-15594921D01*
G01X110562559Y-15634957D01*
G01X110507626Y-15651959D01*
G01X110477309Y-15655798D01*
G01X110475020Y-15655859D01*
G01X110475020Y-15655859D01*
G01X110392165Y-15641425D01*
G01X110338660Y-15605995D01*
G01X110308086Y-15561381D01*
G01X110294027Y-15519390D01*
G01X110290064Y-15491834D01*
G01X110289863Y-15487109D01*
G37*
%LPC*%
G36*
G01X110374238Y-15487109D02*
G01X110374238Y-15487109D01*
G01X110393005Y-15552309D01*
G01X110405293Y-15566796D01*
G01X110405293Y-15566796D01*
G01X110465495Y-15590928D01*
G01X110484395Y-15592578D01*
G01X110484395Y-15592578D01*
G01X110557510Y-15578121D01*
G01X110605827Y-15551699D01*
G01X110622090Y-15538671D01*
G01X110622090Y-15538671D01*
G01X110620920Y-15483765D01*
G01X110620918Y-15482421D01*
G01X110620918Y-15482421D01*
G01X110623245Y-15413042D01*
G01X110625020Y-15382812D01*
G01X110625020Y-15382812D01*
G01X110572955Y-15388660D01*
G01X110572871Y-15388671D01*
G01X110572871Y-15388671D01*
G01X110525703Y-15394531D01*
G01X110525703Y-15394531D01*
G01X110481758Y-15401562D01*
G01X110481758Y-15401562D01*
G01X110446602Y-15411230D01*
G01X110446602Y-15411230D01*
G01X110415547Y-15424707D01*
G01X110415547Y-15424707D01*
G01X110393867Y-15440820D01*
G01X110393867Y-15440820D01*
G01X110378340Y-15461035D01*
G01X110378340Y-15461035D01*
G01X110374238Y-15487109D01*
G37*
%LPD*%
G36*
G01X110840645Y-15560351D02*
G01X110840645Y-15560351D01*
G01X110878622Y-15516248D01*
G01X110894551Y-15509961D01*
G01X110894551Y-15509961D01*
G01X110935452Y-15559257D01*
G01X110951680Y-15568847D01*
G01X110951680Y-15568847D01*
G01X111017832Y-15586827D01*
G01X111046895Y-15589062D01*
G01X111046895Y-15589062D01*
G01X111114403Y-15574918D01*
G01X111130391Y-15566211D01*
G01X111130391Y-15566211D01*
G01X111160707Y-15511335D01*
G01X111162324Y-15495312D01*
G01X111162324Y-15495312D01*
G01X111135026Y-15443535D01*
G01X111130391Y-15440234D01*
G01X111130391Y-15440234D01*
G01X111070274Y-15415253D01*
G01X111053047Y-15410644D01*
G01X111053047Y-15410644D01*
G01X110986469Y-15393679D01*
G01X110961934Y-15386621D01*
G01X110961934Y-15386621D01*
G01X110903573Y-15353366D01*
G01X110884297Y-15334472D01*
G01X110884297Y-15334472D01*
G01X110857117Y-15273011D01*
G01X110852370Y-15233477D01*
G01X110852363Y-15232812D01*
G01X110852363Y-15232812D01*
G01X110872358Y-15165299D01*
G01X110905207Y-15125982D01*
G01X110914180Y-15118554D01*
G01X110914180Y-15118554D01*
G01X110979124Y-15086826D01*
G01X111033067Y-15075482D01*
G01X111053926Y-15074023D01*
G01X111053926Y-15074023D01*
G01X111122542Y-15084364D01*
G01X111162124Y-15098217D01*
G01X111164375Y-15099218D01*
G01X111164375Y-15099218D01*
G01X111213299Y-15146893D01*
G01X111218574Y-15168945D01*
G01X111218574Y-15168945D01*
G01X111180597Y-15213631D01*
G01X111164668Y-15219336D01*
G01X111164668Y-15219336D01*
G01X111123751Y-15171544D01*
G01X111110469Y-15163086D01*
G01X111110469Y-15163086D01*
G01X111046073Y-15143130D01*
G01X111025215Y-15141406D01*
G01X111025215Y-15141406D01*
G01X110963405Y-15157998D01*
G01X110954316Y-15163671D01*
G01X110954316Y-15163671D01*
G01X110925240Y-15217033D01*
G01X110924434Y-15226367D01*
G01X110924434Y-15226367D01*
G01X110951378Y-15278854D01*
G01X110956367Y-15282617D01*
G01X110956367Y-15282617D01*
G01X111015683Y-15308836D01*
G01X111033711Y-15313964D01*
G01X111033711Y-15313964D01*
G01X111099312Y-15331183D01*
G01X111124824Y-15338574D01*
G01X111124824Y-15338574D01*
G01X111183957Y-15371178D01*
G01X111202461Y-15388379D01*
G01X111202461Y-15388379D01*
G01X111230403Y-15448913D01*
G01X111234395Y-15482421D01*
G01X111234395Y-15482421D01*
G01X111234395Y-15482421D01*
G01X111217973Y-15554821D01*
G01X111187961Y-15598146D01*
G01X111173164Y-15611621D01*
G01X111173164Y-15611621D01*
G01X111108848Y-15642554D01*
G01X111052594Y-15654120D01*
G01X111027584Y-15655859D01*
G01X111027559Y-15655859D01*
G01X111027559Y-15655859D01*
G01X110953388Y-15646951D01*
G01X110906743Y-15632317D01*
G01X110897480Y-15628320D01*
G01X110897480Y-15628320D01*
G01X110846177Y-15580826D01*
G01X110840645Y-15560351D01*
G37*
G36*
G01X111283027Y-15129101D02*
G01X111283027Y-15129101D01*
G01X111300898Y-15093945D01*
G01X111300898Y-15093945D01*
G01X111357905Y-15086380D01*
G01X111362129Y-15086328D01*
G01X111396113Y-15086328D01*
G01X111396113Y-15086328D01*
G01X111392622Y-15007560D01*
G01X111389294Y-14960581D01*
G01X111388496Y-14951562D01*
G01X111388496Y-14951562D01*
G01X111428340Y-14948046D01*
G01X111428340Y-14948046D01*
G01X111482611Y-14978967D01*
G01X111485762Y-14993750D01*
G01X111485762Y-14993750D01*
G01X111483137Y-15052062D01*
G01X111481074Y-15087500D01*
G01X111481074Y-15087500D01*
G01X111576838Y-15086493D01*
G01X111638984Y-15084277D01*
G01X111672566Y-15082061D01*
G01X111682637Y-15081054D01*
G01X111682637Y-15081054D01*
G01X111682637Y-15081054D01*
G01X111687324Y-15109179D01*
G01X111687324Y-15109179D01*
G01X111674727Y-15141406D01*
G01X111674727Y-15141406D01*
G01X111634590Y-15150781D01*
G01X111634590Y-15150781D01*
G01X111576645Y-15151600D01*
G01X111511143Y-15151907D01*
G01X111478765Y-15151953D01*
G01X111478730Y-15151953D01*
G01X111478730Y-15151953D01*
G01X111477632Y-15226150D01*
G01X111476945Y-15296827D01*
G01X111476573Y-15357547D01*
G01X111476419Y-15401871D01*
G01X111476387Y-15423361D01*
G01X111476387Y-15424414D01*
G01X111476387Y-15424414D01*
G01X111483312Y-15510114D01*
G01X111495341Y-15551574D01*
G01X111499824Y-15560058D01*
G01X111499824Y-15560058D01*
G01X111554892Y-15590168D01*
G01X111577168Y-15592578D01*
G01X111577168Y-15592578D01*
G01X111641804Y-15572781D01*
G01X111663301Y-15556250D01*
G01X111663301Y-15556250D01*
G01X111684980Y-15599609D01*
G01X111684980Y-15599609D01*
G01X111654248Y-15640165D01*
G01X111653926Y-15640332D01*
G01X111653926Y-15640332D01*
G01X111592218Y-15655193D01*
G01X111578340Y-15655859D01*
G01X111578340Y-15655859D01*
G01X111500068Y-15641982D01*
G01X111454275Y-15615405D01*
G01X111437621Y-15598705D01*
G01X111437422Y-15598437D01*
G01X111437422Y-15598437D01*
G01X111411532Y-15540591D01*
G01X111399632Y-15478544D01*
G01X111396282Y-15434832D01*
G01X111396113Y-15426757D01*
G01X111396113Y-15426757D01*
G01X111397211Y-15319359D01*
G01X111397898Y-15242231D01*
G01X111398271Y-15191249D01*
G01X111398425Y-15162291D01*
G01X111398457Y-15151233D01*
G01X111398457Y-15150781D01*
G01X111398457Y-15150781D01*
G01X111349430Y-15154518D01*
G01X111289582Y-15159324D01*
G01X111286543Y-15159570D01*
G01X111286543Y-15159570D01*
G01X111283027Y-15129101D01*
G37*
G36*
G01X111758809Y-15368164D02*
G01X111758809Y-15368164D01*
G01X111768718Y-15284219D01*
G01X111791635Y-15220005D01*
G01X111817339Y-15176197D01*
G01X111835610Y-15153467D01*
G01X111838789Y-15150195D01*
G01X111838789Y-15150195D01*
G01X111901873Y-15106158D01*
G01X111962678Y-15083545D01*
G01X112008487Y-15075213D01*
G01X112026582Y-15074023D01*
G01X112026582Y-15074023D01*
G01X112026582Y-15074023D01*
G01X112102053Y-15087395D01*
G01X112148993Y-15111232D01*
G01X112162520Y-15121484D01*
G01X112162520Y-15121484D01*
G01X112203404Y-15181175D01*
G01X112214251Y-15225790D01*
G01X112214668Y-15232812D01*
G01X112214668Y-15232812D01*
G01X112203135Y-15298759D01*
G01X112197969Y-15310742D01*
G01X112197969Y-15310742D01*
G01X112158460Y-15356644D01*
G01X112154316Y-15359668D01*
G01X112154316Y-15359668D01*
G01X112095198Y-15382882D01*
G01X112076387Y-15387207D01*
G01X112076387Y-15387207D01*
G01X112007173Y-15396838D01*
G01X111976191Y-15399218D01*
G01X111976191Y-15399218D01*
G01X111976191Y-15399218D01*
G01X111911039Y-15401030D01*
G01X111857169Y-15401537D01*
G01X111846699Y-15401562D01*
G01X111846699Y-15401562D01*
G01X111864772Y-15476525D01*
G01X111887981Y-15523308D01*
G01X111898555Y-15538379D01*
G01X111898555Y-15538379D01*
G01X111955360Y-15576983D01*
G01X112005062Y-15588361D01*
G01X112016621Y-15589062D01*
G01X112016621Y-15589062D01*
G01X112092012Y-15572248D01*
G01X112132826Y-15541518D01*
G01X112144355Y-15526367D01*
G01X112144355Y-15526367D01*
G01X112190519Y-15569079D01*
G01X112191816Y-15576757D01*
G01X112191816Y-15576757D01*
G01X112156505Y-15624261D01*
G01X112137324Y-15634179D01*
G01X112137324Y-15634179D01*
G01X112069331Y-15651406D01*
G01X112021531Y-15655733D01*
G01X112015449Y-15655859D01*
G01X112015449Y-15655859D01*
G01X111938856Y-15644735D01*
G01X111880610Y-15620263D01*
G01X111843568Y-15595791D01*
G01X111830586Y-15584668D01*
G01X111830586Y-15584668D01*
G01X111830586Y-15584668D01*
G01X111792871Y-15529255D01*
G01X111771414Y-15466338D01*
G01X111761630Y-15409933D01*
G01X111758933Y-15374062D01*
G01X111758809Y-15368164D01*
G37*
%LPC*%
G36*
G01X111845527Y-15341796D02*
G01X111845527Y-15341796D01*
G01X111915786Y-15341054D01*
G01X111931660Y-15340625D01*
G01X111931660Y-15340625D01*
G01X111994619Y-15334996D01*
G01X112007246Y-15333300D01*
G01X112007246Y-15333300D01*
G01X112068318Y-15318373D01*
G01X112073457Y-15316308D01*
G01X112073457Y-15316308D01*
G01X112114719Y-15285307D01*
G01X112114766Y-15285254D01*
G01X112114766Y-15285254D01*
G01X112132045Y-15235582D01*
G01X112132051Y-15235156D01*
G01X112132051Y-15235156D01*
G01X112108896Y-15177422D01*
G01X112100410Y-15168359D01*
G01X112100410Y-15168359D01*
G01X112041253Y-15142172D01*
G01X112021895Y-15140234D01*
G01X112021895Y-15140234D01*
G01X111952073Y-15155462D01*
G01X111908660Y-15181201D01*
G01X111898848Y-15189453D01*
G01X111898848Y-15189453D01*
G01X111864081Y-15246089D01*
G01X111849083Y-15305739D01*
G01X111845578Y-15340334D01*
G01X111845527Y-15341796D01*
G37*

G04 Pad flashes *
%LPD*%
D11*

G04 end of program *
M02*
