G04                                                      *
G04 Greetings!                                           *
G04 This Gerber was generated by PCBmodE, an open source *
G04 PCB design software. Get it here:                    *
G04                                                      *
G04   http://pcbmode.com                                 *
G04                                                      *
G04 Also visit                                           *
G04                                                      *
G04   http://boldport.com                                *
G04                                                      *
G04 and follow @boldport / @pcbmode for updates!         *
G04                                                      *

G04 leading zeros omitted (L); absolute data (A); 6 integer digits and 6 fractional digits *
%FSLAX66Y66*%

G04 mode (MO): millimeters (MM) *
%MOMM*%

G04 Aperture definitions *
%ADD10C,0.001X*%
%ADD11C,0.001X*%
%ADD20C,0.05X*%

%LPD*%
D20*
G01X57613117Y-7566613D02*
G01X72985533Y-7566613D01*
G01X72985533Y-10041172D01*
G01X57613117Y-10041172D01*
D20*
G01X10786785Y-18100513D02*
G01X10786785Y-18100513D01*
G01X10825892Y-18160548D01*
G01X10865244Y-18226832D01*
G01X10904889Y-18299228D01*
G01X10944878Y-18377597D01*
G01X10985259Y-18461800D01*
G01X11026080Y-18551700D01*
G01X11067393Y-18647158D01*
G01X11109245Y-18748035D01*
G01X11151686Y-18854194D01*
G01X11194764Y-18965496D01*
G01X11238530Y-19081803D01*
G01X11283032Y-19202977D01*
G01X11328320Y-19328879D01*
G01X11374442Y-19459370D01*
G01X11421448Y-19594314D01*
G01X11469386Y-19733570D01*
G01X11518307Y-19877002D01*
G01X11568260Y-20024470D01*
G01X11619292Y-20175837D01*
G01X11671454Y-20330964D01*
G01X11724795Y-20489712D01*
G01X11779364Y-20651945D01*
G01X11835211Y-20817522D01*
G01X11892383Y-20986306D01*
G01X11950931Y-21158159D01*
G01X12010903Y-21332941D01*
G01X12072349Y-21510516D01*
G01X12135318Y-21690745D01*
G01X12199860Y-21873488D01*
G01X12266022Y-22058609D01*
G01X12333855Y-22245969D01*
G01X12403408Y-22435429D01*
G01X12474729Y-22626851D01*
G01X12547868Y-22820097D01*
G01X12622875Y-23015028D01*
G01X12699797Y-23211506D01*
G01X12778686Y-23409394D01*
G01X12859588Y-23608552D01*
G01X12942555Y-23808842D01*
G01X13027634Y-24010126D01*
G01X13114876Y-24212266D01*
G01X13204328Y-24415123D01*
G01X13296042Y-24618559D01*
G01X13390065Y-24822436D01*
G01X13486446Y-25026616D01*
G01X13585236Y-25230959D01*
G01X13686483Y-25435328D01*
G01X13790235Y-25639585D01*
G01X13896544Y-25843591D01*
G01X14005457Y-26047208D01*
G01X14117024Y-26250298D01*
G01X14231293Y-26452721D01*
G01X14348315Y-26654341D01*
G01X14468138Y-26855019D01*
G01X14590812Y-27054615D01*
G01X14716385Y-27252993D01*
G01X14844907Y-27450014D01*
G01X14976427Y-27645539D01*
G01X15110994Y-27839430D01*
G01X15248657Y-28031549D01*
G01X15389466Y-28221757D01*
G01X15533469Y-28409917D01*
G01X15680716Y-28595890D01*
G01X15831256Y-28779537D01*
G01X15985138Y-28960720D01*
G01X16142412Y-29139302D01*
G01X16303126Y-29315143D01*
G01X16467329Y-29488106D01*
G01X16635071Y-29658051D01*
G01X16806402Y-29824842D01*
G01X16981369Y-29988339D01*
G01X17160022Y-30148404D01*
G01X17342412Y-30304899D01*
G01X17528585Y-30457685D01*
G01X17718593Y-30606625D01*
G01X17912483Y-30751579D01*
G01X18110305Y-30892410D01*
G01X18312109Y-31028980D01*
G01X18517943Y-31161149D01*
G01X18727857Y-31288781D01*
G01X18941899Y-31411735D01*
G01X19160120Y-31529875D01*
G01X19382568Y-31643061D01*
G01X19609291Y-31751156D01*
G01X19840341Y-31854021D01*
G01X20075765Y-31951518D01*
G01X20315612Y-32043509D01*
G01X20559933Y-32129855D01*
G01X20808776Y-32210418D01*
G01X21062190Y-32285059D01*
G01X21320224Y-32353641D01*
G01X21582928Y-32416024D01*
G01X21850351Y-32472072D01*
G01X22122542Y-32521645D01*
G01X22399550Y-32564605D01*
G01X22681424Y-32600813D01*
G01X22968214Y-32630133D01*
G01X23259968Y-32652424D01*
G01X23556736Y-32667549D01*
G01X23858567Y-32675370D01*
G01X23858567Y-32675370D01*
G01X23858567Y-32675370D01*
G01X24038477Y-32676861D01*
G01X24215956Y-32676451D01*
G01X24391100Y-32674175D01*
G01X24564009Y-32670068D01*
G01X24734781Y-32664166D01*
G01X24903514Y-32656505D01*
G01X25070306Y-32647119D01*
G01X25235257Y-32636045D01*
G01X25398464Y-32623317D01*
G01X25560026Y-32608971D01*
G01X25720041Y-32593043D01*
G01X25878608Y-32575569D01*
G01X26035824Y-32556582D01*
G01X26191790Y-32536119D01*
G01X26346601Y-32514216D01*
G01X26500359Y-32490908D01*
G01X26653159Y-32466230D01*
G01X26805102Y-32440217D01*
G01X26956285Y-32412906D01*
G01X27106807Y-32384331D01*
G01X27256766Y-32354529D01*
G01X27406261Y-32323533D01*
G01X27555389Y-32291381D01*
G01X27704250Y-32258107D01*
G01X27852942Y-32223747D01*
G01X28001563Y-32188336D01*
G01X28150211Y-32151910D01*
G01X28298985Y-32114504D01*
G01X28447984Y-32076154D01*
G01X28597305Y-32036895D01*
G01X28747047Y-31996762D01*
G01X28897309Y-31955791D01*
G01X29048189Y-31914017D01*
G01X29199785Y-31871476D01*
G01X29352196Y-31828204D01*
G01X29505520Y-31784235D01*
G01X29659855Y-31739606D01*
G01X29815300Y-31694351D01*
G01X29971954Y-31648506D01*
G01X30129914Y-31602106D01*
G01X30289279Y-31555188D01*
G01X30450147Y-31507785D01*
G01X30612618Y-31459935D01*
G01X30776789Y-31411672D01*
G01X30942758Y-31363032D01*
G01X31110624Y-31314049D01*
G01X31280486Y-31264761D01*
G01X31452441Y-31215201D01*
G01X31626589Y-31165406D01*
G01X31803028Y-31115411D01*
G01X31981855Y-31065251D01*
G01X32163170Y-31014962D01*
G01X32347070Y-30964580D01*
G01X32533655Y-30914139D01*
G01X32723022Y-30863675D01*
G01X32915270Y-30813224D01*
G01X33110498Y-30762821D01*
G01X33308803Y-30712501D01*
G01X33510285Y-30662301D01*
G01X33715041Y-30612254D01*
G01X33923170Y-30562398D01*
G01X34134770Y-30512767D01*
G01X34349940Y-30463396D01*
G01X34568778Y-30414322D01*
G01X34791383Y-30365579D01*
G01X35017853Y-30317204D01*
G01X35248285Y-30269231D01*
G01X35482780Y-30221695D01*
G01X35721435Y-30174634D01*
G01X35964348Y-30128081D01*
G01X36211618Y-30082072D01*
G01X36463343Y-30036643D01*
G01X36719622Y-29991829D01*
G01X36980553Y-29947666D01*
G01X37246235Y-29904189D01*
G01X37516765Y-29861433D01*
G01X37792243Y-29819435D01*
G01X38072766Y-29778229D01*
G01X38358433Y-29737850D01*
G01X38649343Y-29698335D01*
G01X38945593Y-29659719D01*
G01X39247283Y-29622037D01*
G01X39554510Y-29585324D01*
G01X39867374Y-29549616D01*
G01X40185971Y-29514949D01*
G01X40510402Y-29481358D01*
G01X40840764Y-29448879D01*
G01X41177155Y-29417546D01*
G01X41519674Y-29387395D01*
G01X41868420Y-29358463D01*
G01X42223490Y-29330783D01*
G01X42584984Y-29304392D01*
G01X42952999Y-29279325D01*
G01X43327634Y-29255618D01*
G01X43708988Y-29233305D01*
G01X44097158Y-29212423D01*
G01X44492243Y-29193007D01*
G01X44894342Y-29175092D01*
G01X45303553Y-29158714D01*
G01X45719974Y-29143908D01*
G01X45719974Y-29143908D01*
G01X45719974Y-29143908D01*
G01X45690641Y-28209981D01*
G01X45685259Y-27295465D01*
G01X45703356Y-26400317D01*
G01X45744463Y-25524492D01*
G01X45808111Y-24667947D01*
G01X45893830Y-23830637D01*
G01X46001149Y-23012519D01*
G01X46129601Y-22213550D01*
G01X46278714Y-21433684D01*
G01X46448018Y-20672879D01*
G01X46637046Y-19931090D01*
G01X46845325Y-19208273D01*
G01X47072388Y-18504385D01*
G01X47317764Y-17819381D01*
G01X47580983Y-17153219D01*
G01X47861576Y-16505853D01*
G01X48159073Y-15877240D01*
G01X48473005Y-15267336D01*
G01X48802901Y-14676098D01*
G01X49148292Y-14103480D01*
G01X49508708Y-13549440D01*
G01X49883680Y-13013934D01*
G01X50272737Y-12496917D01*
G01X50675411Y-11998347D01*
G01X51091231Y-11518178D01*
G01X51519728Y-11056367D01*
G01X51960432Y-10612870D01*
G01X52412873Y-10187643D01*
G01X52876582Y-9780643D01*
G01X53351088Y-9391825D01*
G01X53835923Y-9021145D01*
G01X54330616Y-8668560D01*
G01X54834698Y-8334026D01*
G01X55347699Y-8017499D01*
G01X55869150Y-7718935D01*
G01X56398580Y-7438290D01*
G01X56935520Y-7175520D01*
G01X57479500Y-6930582D01*
G01X58030051Y-6703431D01*
G01X58586702Y-6494023D01*
G01X59148985Y-6302316D01*
G01X59716429Y-6128264D01*
G01X60288565Y-5971823D01*
G01X60864923Y-5832951D01*
G01X61445033Y-5711603D01*
G01X62028426Y-5607735D01*
G01X62614631Y-5521304D01*
G01X63203180Y-5452265D01*
G01X63793602Y-5400574D01*
G01X64385429Y-5366189D01*
G01X64978189Y-5349064D01*
G01X65571413Y-5349155D01*
G01X66164632Y-5366420D01*
G01X66757376Y-5400814D01*
G01X67349176Y-5452293D01*
G01X67939561Y-5520814D01*
G01X68528061Y-5606332D01*
G01X69114208Y-5708803D01*
G01X69697532Y-5828185D01*
G01X70277562Y-5964432D01*
G01X70853829Y-6117500D01*
G01X71425863Y-6287347D01*
G01X71993195Y-6473928D01*
G01X72555355Y-6677200D01*
G01X73111873Y-6897117D01*
G01X73662279Y-7133637D01*
G01X74206104Y-7386716D01*
G01X74742879Y-7656309D01*
G01X75272132Y-7942373D01*
G01X75793396Y-8244864D01*
G01X76306199Y-8563738D01*
G01X76810073Y-8898951D01*
G01X77304547Y-9250460D01*
G01X77789152Y-9618219D01*
G01X78263418Y-10002187D01*
G01X78726876Y-10402317D01*
G01X79179055Y-10818568D01*
G01X79619486Y-11250894D01*
G01X80047700Y-11699252D01*
G01X80463226Y-12163598D01*
G01X80865595Y-12643889D01*
G01X81254337Y-13140079D01*
G01X81628983Y-13652126D01*
G01X81989063Y-14179985D01*
G01X82334107Y-14723613D01*
G01X82663645Y-15282966D01*
G01X82977207Y-15857999D01*
G01X83274325Y-16448670D01*
G01X83554528Y-17054933D01*
G01X83817346Y-17676745D01*
G01X84062311Y-18314063D01*
G01X84288951Y-18966842D01*
G01X84496798Y-19635039D01*
G01X84685382Y-20318609D01*
G01X84854233Y-21017509D01*
G01X85002881Y-21731694D01*
G01X85130856Y-22461122D01*
G01X85237690Y-23205747D01*
G01X85322912Y-23965527D01*
G01X85386052Y-24740417D01*
G01X85386052Y-24740417D01*
G01X85386052Y-24740417D01*
G01X85455399Y-24809526D01*
G01X85523351Y-24878939D01*
G01X85589995Y-24948632D01*
G01X85655420Y-25018580D01*
G01X85719717Y-25088760D01*
G01X85782973Y-25159148D01*
G01X85845278Y-25229718D01*
G01X85906721Y-25300448D01*
G01X85967391Y-25371313D01*
G01X86027378Y-25442288D01*
G01X86086769Y-25513350D01*
G01X86145655Y-25584474D01*
G01X86204124Y-25655636D01*
G01X86262265Y-25726812D01*
G01X86320168Y-25797978D01*
G01X86377921Y-25869110D01*
G01X86435614Y-25940183D01*
G01X86493335Y-26011174D01*
G01X86551174Y-26082057D01*
G01X86609220Y-26152810D01*
G01X86667562Y-26223408D01*
G01X86726288Y-26293826D01*
G01X86785488Y-26364040D01*
G01X86845252Y-26434027D01*
G01X86905667Y-26503762D01*
G01X86966823Y-26573221D01*
G01X87028810Y-26642380D01*
G01X87091716Y-26711214D01*
G01X87155630Y-26779700D01*
G01X87220642Y-26847813D01*
G01X87286840Y-26915529D01*
G01X87354313Y-26982824D01*
G01X87423151Y-27049674D01*
G01X87493442Y-27116054D01*
G01X87565277Y-27181941D01*
G01X87638743Y-27247310D01*
G01X87713929Y-27312137D01*
G01X87790926Y-27376398D01*
G01X87869822Y-27440069D01*
G01X87950705Y-27503125D01*
G01X88033666Y-27565543D01*
G01X88118792Y-27627298D01*
G01X88206174Y-27688366D01*
G01X88295900Y-27748723D01*
G01X88388060Y-27808344D01*
G01X88482741Y-27867206D01*
G01X88580035Y-27925285D01*
G01X88680028Y-27982555D01*
G01X88782811Y-28038994D01*
G01X88888473Y-28094576D01*
G01X88997103Y-28149278D01*
G01X89108789Y-28203076D01*
G01X89223621Y-28255945D01*
G01X89341688Y-28307861D01*
G01X89463079Y-28358800D01*
G01X89587883Y-28408738D01*
G01X89716188Y-28457651D01*
G01X89848085Y-28505514D01*
G01X89983663Y-28552303D01*
G01X90123009Y-28597995D01*
G01X90266214Y-28642564D01*
G01X90413366Y-28685988D01*
G01X90564554Y-28728241D01*
G01X90719868Y-28769299D01*
G01X90879397Y-28809139D01*
G01X91043229Y-28847735D01*
G01X91211454Y-28885065D01*
G01X91384160Y-28921104D01*
G01X91561437Y-28955827D01*
G01X91743375Y-28989210D01*
G01X91930061Y-29021230D01*
G01X92121585Y-29051862D01*
G01X92318036Y-29081081D01*
G01X92519504Y-29108865D01*
G01X92726076Y-29135188D01*
G01X92937843Y-29160027D01*
G01X93154893Y-29183356D01*
G01X93377315Y-29205153D01*
G01X93605199Y-29225393D01*
G01X93838633Y-29244051D01*
G01X94077707Y-29261104D01*
G01X94322510Y-29276527D01*
G01X94573130Y-29290297D01*
G01X94829657Y-29302388D01*
G01X95092180Y-29312778D01*
G01X95360787Y-29321441D01*
G01X95635569Y-29328353D01*
G01X95916614Y-29333491D01*
G01X96204010Y-29336831D01*
G01X96497848Y-29338347D01*
G01X96798216Y-29338016D01*
G01X97105203Y-29335813D01*
G01X97418898Y-29331716D01*
G01X97739391Y-29325698D01*
G01X98066771Y-29317737D01*
G01X98401125Y-29307807D01*
G01X98742545Y-29295886D01*
G01X99091118Y-29281948D01*
G01X99446933Y-29265969D01*
G01X99810081Y-29247926D01*
G01X99810081Y-29247926D01*
G01X99810081Y-29247926D01*
G01X99827702Y-29335754D01*
G01X99844791Y-29421310D01*
G01X99861280Y-29504740D01*
G01X99877101Y-29586188D01*
G01X99892188Y-29665797D01*
G01X99906472Y-29743712D01*
G01X99919887Y-29820077D01*
G01X99932365Y-29895035D01*
G01X99943839Y-29968731D01*
G01X99954242Y-30041309D01*
G01X99963506Y-30112912D01*
G01X99971563Y-30183685D01*
G01X99978347Y-30253773D01*
G01X99983791Y-30323318D01*
G01X99987826Y-30392465D01*
G01X99990386Y-30461358D01*
G01X99991404Y-30530141D01*
G01X99990811Y-30598959D01*
G01X99988540Y-30667954D01*
G01X99984525Y-30737272D01*
G01X99978698Y-30807056D01*
G01X99970992Y-30877450D01*
G01X99961339Y-30948598D01*
G01X99949672Y-31020645D01*
G01X99935923Y-31093734D01*
G01X99920026Y-31168010D01*
G01X99901912Y-31243616D01*
G01X99881516Y-31320697D01*
G01X99858768Y-31399396D01*
G01X99833603Y-31479858D01*
G01X99805952Y-31562226D01*
G01X99775748Y-31646645D01*
G01X99742925Y-31733259D01*
G01X99707414Y-31822212D01*
G01X99669149Y-31913648D01*
G01X99628061Y-32007710D01*
G01X99584084Y-32104543D01*
G01X99537151Y-32204291D01*
G01X99487193Y-32307099D01*
G01X99434144Y-32413109D01*
G01X99377937Y-32522466D01*
G01X99318504Y-32635315D01*
G01X99255777Y-32751798D01*
G01X99189690Y-32872061D01*
G01X99120174Y-32996247D01*
G01X99047164Y-33124500D01*
G01X98970590Y-33256965D01*
G01X98890387Y-33393785D01*
G01X98806487Y-33535104D01*
G01X98718822Y-33681067D01*
G01X98718822Y-33681067D01*
G01X98718822Y-33681067D01*
G01X98610061Y-33827029D01*
G01X98502250Y-33971057D01*
G01X98395326Y-34113155D01*
G01X98289226Y-34253329D01*
G01X98183889Y-34391584D01*
G01X98079250Y-34527924D01*
G01X97975247Y-34662356D01*
G01X97871819Y-34794883D01*
G01X97768901Y-34925511D01*
G01X97666432Y-35054246D01*
G01X97564350Y-35181092D01*
G01X97462590Y-35306054D01*
G01X97361091Y-35429138D01*
G01X97259790Y-35550348D01*
G01X97158625Y-35669690D01*
G01X97057532Y-35787168D01*
G01X96956449Y-35902788D01*
G01X96855314Y-36016555D01*
G01X96754064Y-36128473D01*
G01X96652636Y-36238549D01*
G01X96550967Y-36346786D01*
G01X96448996Y-36453191D01*
G01X96346659Y-36557768D01*
G01X96243894Y-36660522D01*
G01X96140637Y-36761458D01*
G01X96036827Y-36860582D01*
G01X95932401Y-36957899D01*
G01X95827296Y-37053412D01*
G01X95721450Y-37147129D01*
G01X95614800Y-37239053D01*
G01X95507282Y-37329190D01*
G01X95398836Y-37417545D01*
G01X95289397Y-37504123D01*
G01X95178904Y-37588928D01*
G01X95067294Y-37671967D01*
G01X94954504Y-37753244D01*
G01X94840471Y-37832765D01*
G01X94725133Y-37910533D01*
G01X94608427Y-37986556D01*
G01X94490291Y-38060836D01*
G01X94370662Y-38133380D01*
G01X94249477Y-38204193D01*
G01X94126674Y-38273279D01*
G01X94002190Y-38340645D01*
G01X93875962Y-38406294D01*
G01X93747928Y-38470232D01*
G01X93618026Y-38532464D01*
G01X93486191Y-38592995D01*
G01X93352363Y-38651831D01*
G01X93216478Y-38708976D01*
G01X93078474Y-38764435D01*
G01X92938287Y-38818213D01*
G01X92795856Y-38870316D01*
G01X92651118Y-38920749D01*
G01X92504010Y-38969516D01*
G01X92354469Y-39016623D01*
G01X92202433Y-39062074D01*
G01X92047840Y-39105876D01*
G01X91890625Y-39148033D01*
G01X91730728Y-39188549D01*
G01X91568085Y-39227431D01*
G01X91402634Y-39264683D01*
G01X91234312Y-39300310D01*
G01X91063056Y-39334317D01*
G01X90888804Y-39366710D01*
G01X90711493Y-39397494D01*
G01X90531061Y-39426673D01*
G01X90347445Y-39454253D01*
G01X90160581Y-39480238D01*
G01X89970409Y-39504634D01*
G01X89776864Y-39527446D01*
G01X89579885Y-39548680D01*
G01X89379409Y-39568339D01*
G01X89175372Y-39586429D01*
G01X88967713Y-39602955D01*
G01X88756369Y-39617923D01*
G01X88541277Y-39631337D01*
G01X88322375Y-39643203D01*
G01X88099599Y-39653525D01*
G01X87872888Y-39662309D01*
G01X87642178Y-39669559D01*
G01X87407408Y-39675281D01*
G01X87168514Y-39679480D01*
G01X86925433Y-39682161D01*
G01X86678104Y-39683328D01*
G01X86426463Y-39682988D01*
G01X86170448Y-39681145D01*
G01X85909997Y-39677804D01*
G01X85645046Y-39672971D01*
G01X85375533Y-39666650D01*
G01X85101395Y-39658846D01*
G01X84822570Y-39649565D01*
G01X84538995Y-39638811D01*
G01X84250607Y-39626590D01*
G01X83957345Y-39612907D01*
G01X83659144Y-39597766D01*
G01X83355943Y-39581174D01*
G01X83047679Y-39563134D01*
G01X82734289Y-39543653D01*
G01X82415711Y-39522735D01*
G01X82415711Y-39522735D01*
G01X82415711Y-39522735D01*
G01X83206437Y-40272673D01*
G01X83958022Y-41020046D01*
G01X84670929Y-41764733D01*
G01X85345623Y-42506615D01*
G01X85982567Y-43245569D01*
G01X86582227Y-43981476D01*
G01X87145065Y-44714214D01*
G01X87671547Y-45443663D01*
G01X88162136Y-46169701D01*
G01X88617297Y-46892209D01*
G01X89037493Y-47611065D01*
G01X89423190Y-48326149D01*
G01X89774850Y-49037339D01*
G01X90092938Y-49744516D01*
G01X90377919Y-50447557D01*
G01X90630256Y-51146344D01*
G01X90850414Y-51840754D01*
G01X91038856Y-52530666D01*
G01X91196047Y-53215961D01*
G01X91322452Y-53896518D01*
G01X91418533Y-54572215D01*
G01X91484756Y-55242931D01*
G01X91521584Y-55908547D01*
G01X91529482Y-56568941D01*
G01X91508914Y-57223993D01*
G01X91460343Y-57873581D01*
G01X91384235Y-58517585D01*
G01X91281053Y-59155885D01*
G01X91151261Y-59788358D01*
G01X90995324Y-60414886D01*
G01X90813706Y-61035346D01*
G01X90606870Y-61649618D01*
G01X90375282Y-62257582D01*
G01X90119404Y-62859116D01*
G01X89839702Y-63454100D01*
G01X89536639Y-64042413D01*
G01X89210680Y-64623934D01*
G01X88862288Y-65198543D01*
G01X88491928Y-65766118D01*
G01X88100065Y-66326539D01*
G01X87687161Y-66879685D01*
G01X87253682Y-67425435D01*
G01X86800091Y-67963669D01*
G01X86326853Y-68494266D01*
G01X85834432Y-69017105D01*
G01X85323292Y-69532065D01*
G01X84793896Y-70039025D01*
G01X84246710Y-70537866D01*
G01X83682197Y-71028465D01*
G01X83100822Y-71510702D01*
G01X82503049Y-71984456D01*
G01X81889341Y-72449607D01*
G01X81260163Y-72906034D01*
G01X80615979Y-73353616D01*
G01X79957254Y-73792232D01*
G01X79284451Y-74221762D01*
G01X78598035Y-74642084D01*
G01X77898469Y-75053079D01*
G01X77186218Y-75454624D01*
G01X76461746Y-75846600D01*
G01X75725518Y-76228885D01*
G01X74977996Y-76601360D01*
G01X74219646Y-76963902D01*
G01X73450932Y-77316392D01*
G01X72672317Y-77658708D01*
G01X71884267Y-77990730D01*
G01X71087244Y-78312336D01*
G01X70281714Y-78623407D01*
G01X69468140Y-78923822D01*
G01X68646986Y-79213459D01*
G01X67818718Y-79492198D01*
G01X66983798Y-79759918D01*
G01X66142690Y-80016498D01*
G01X65295861Y-80261818D01*
G01X64443772Y-80495756D01*
G01X63586888Y-80718193D01*
G01X62725675Y-80929006D01*
G01X61860595Y-81128077D01*
G01X60992112Y-81315283D01*
G01X60120692Y-81490503D01*
G01X59246798Y-81653618D01*
G01X58370894Y-81804506D01*
G01X57493445Y-81943047D01*
G01X56614914Y-82069119D01*
G01X55735766Y-82182603D01*
G01X54856465Y-82283377D01*
G01X53977475Y-82371320D01*
G01X53099261Y-82446312D01*
G01X52222285Y-82508232D01*
G01X51347013Y-82556959D01*
G01X50473909Y-82592372D01*
G01X49603436Y-82614351D01*
G01X48736060Y-82622775D01*
G01X47872243Y-82617522D01*
G01X47012451Y-82598473D01*
G01X46157147Y-82565507D01*
G01X45306796Y-82518502D01*
G01X44461861Y-82457338D01*
G01X43622808Y-82381894D01*
G01X42790099Y-82292050D01*
G01X42790099Y-82292050D01*
G01X42790099Y-82292050D01*
G01X42743400Y-82286909D01*
G01X42693365Y-82280554D01*
G01X42640053Y-82273013D01*
G01X42583524Y-82264316D01*
G01X42523839Y-82254491D01*
G01X42461057Y-82243568D01*
G01X42395239Y-82231575D01*
G01X42326443Y-82218542D01*
G01X42254732Y-82204498D01*
G01X42180163Y-82189471D01*
G01X42102799Y-82173492D01*
G01X42022697Y-82156588D01*
G01X41939920Y-82138789D01*
G01X41854526Y-82120123D01*
G01X41766575Y-82100621D01*
G01X41676128Y-82080311D01*
G01X41583245Y-82059222D01*
G01X41487986Y-82037382D01*
G01X41390410Y-82014822D01*
G01X41290578Y-81991570D01*
G01X41188550Y-81967656D01*
G01X41084385Y-81943107D01*
G01X40978145Y-81917954D01*
G01X40869888Y-81892225D01*
G01X40759675Y-81865949D01*
G01X40647566Y-81839156D01*
G01X40533621Y-81811874D01*
G01X40417900Y-81784133D01*
G01X40300463Y-81755961D01*
G01X40181370Y-81727388D01*
G01X40060681Y-81698442D01*
G01X39938456Y-81669153D01*
G01X39814755Y-81639550D01*
G01X39689639Y-81609661D01*
G01X39563166Y-81579516D01*
G01X39435398Y-81549144D01*
G01X39306394Y-81518574D01*
G01X39176214Y-81487835D01*
G01X39044918Y-81456955D01*
G01X38912567Y-81425965D01*
G01X38779220Y-81394892D01*
G01X38644938Y-81363767D01*
G01X38509779Y-81332618D01*
G01X38373805Y-81301473D01*
G01X38237076Y-81270363D01*
G01X38099651Y-81239317D01*
G01X37961591Y-81208362D01*
G01X37822955Y-81177529D01*
G01X37683803Y-81146846D01*
G01X37544197Y-81116342D01*
G01X37404194Y-81086047D01*
G01X37263857Y-81055989D01*
G01X37123244Y-81026198D01*
G01X36982416Y-80996703D01*
G01X36841432Y-80967532D01*
G01X36700353Y-80938714D01*
G01X36559239Y-80910279D01*
G01X36418150Y-80882256D01*
G01X36277146Y-80854674D01*
G01X36136286Y-80827561D01*
G01X35995632Y-80800947D01*
G01X35855242Y-80774862D01*
G01X35715177Y-80749333D01*
G01X35575497Y-80724390D01*
G01X35436262Y-80700061D01*
G01X35297532Y-80676377D01*
G01X35159367Y-80653366D01*
G01X35021828Y-80631058D01*
G01X34884973Y-80609480D01*
G01X34748863Y-80588662D01*
G01X34613559Y-80568634D01*
G01X34479120Y-80549424D01*
G01X34345606Y-80531061D01*
G01X34213077Y-80513575D01*
G01X34081593Y-80496994D01*
G01X33951215Y-80481348D01*
G01X33822002Y-80466665D01*
G01X33694014Y-80452974D01*
G01X33567312Y-80440305D01*
G01X33441955Y-80428687D01*
G01X33318004Y-80418148D01*
G01X33195518Y-80408718D01*
G01X33074558Y-80400426D01*
G01X32955183Y-80393300D01*
G01X32837453Y-80387371D01*
G01X32721429Y-80382666D01*
G01X32607171Y-80379215D01*
G01X32494738Y-80377047D01*
G01X32384191Y-80376191D01*
G01X32275590Y-80376675D01*
G01X32168994Y-80378530D01*
G01X32064465Y-80381784D01*
G01X31962060Y-80386467D01*
G01X31861842Y-80392606D01*
G01X31763869Y-80400232D01*
G01X31668203Y-80409372D01*
G01X31574902Y-80420058D01*
G01X31484027Y-80432316D01*
G01X31395638Y-80446177D01*
G01X31309795Y-80461669D01*
G01X31309795Y-80461669D01*
G01X31309795Y-80461669D01*
G01X31229459Y-80481446D01*
G01X31157446Y-80508046D01*
G01X31093593Y-80541326D01*
G01X31037741Y-80581144D01*
G01X30989728Y-80627355D01*
G01X30949393Y-80679817D01*
G01X30916576Y-80738388D01*
G01X30891114Y-80802923D01*
G01X30872849Y-80873281D01*
G01X30861618Y-80949317D01*
G01X30857260Y-81030889D01*
G01X30859615Y-81117854D01*
G01X30868522Y-81210069D01*
G01X30883819Y-81307390D01*
G01X30905347Y-81409676D01*
G01X30932943Y-81516782D01*
G01X30966447Y-81628565D01*
G01X31005699Y-81744884D01*
G01X31050536Y-81865594D01*
G01X31100799Y-81990553D01*
G01X31156326Y-82119617D01*
G01X31216956Y-82252644D01*
G01X31282529Y-82389490D01*
G01X31352883Y-82530013D01*
G01X31427858Y-82674069D01*
G01X31507292Y-82821516D01*
G01X31591026Y-82972210D01*
G01X31678896Y-83126009D01*
G01X31770744Y-83282769D01*
G01X31866407Y-83442347D01*
G01X31965726Y-83604600D01*
G01X32068538Y-83769386D01*
G01X32174683Y-83936561D01*
G01X32284001Y-84105982D01*
G01X32396330Y-84277506D01*
G01X32511509Y-84450991D01*
G01X32629377Y-84626292D01*
G01X32749774Y-84803268D01*
G01X32872539Y-84981774D01*
G01X32997509Y-85161669D01*
G01X33124526Y-85342808D01*
G01X33253427Y-85525050D01*
G01X33384052Y-85708250D01*
G01X33516240Y-85892267D01*
G01X33649830Y-86076956D01*
G01X33784660Y-86262175D01*
G01X33920571Y-86447781D01*
G01X34057401Y-86633630D01*
G01X34194988Y-86819580D01*
G01X34333174Y-87005488D01*
G01X34471795Y-87191211D01*
G01X34610692Y-87376605D01*
G01X34749703Y-87561528D01*
G01X34888668Y-87745837D01*
G01X35027425Y-87929388D01*
G01X35165814Y-88112038D01*
G01X35303673Y-88293645D01*
G01X35440843Y-88474066D01*
G01X35577161Y-88653157D01*
G01X35712467Y-88830775D01*
G01X35846600Y-89006778D01*
G01X35979399Y-89181022D01*
G01X36110703Y-89353364D01*
G01X36240352Y-89523662D01*
G01X36368183Y-89691772D01*
G01X36494037Y-89857551D01*
G01X36617753Y-90020856D01*
G01X36739168Y-90181545D01*
G01X36858124Y-90339473D01*
G01X36974457Y-90494499D01*
G01X37088009Y-90646479D01*
G01X37198617Y-90795270D01*
G01X37306121Y-90940728D01*
G01X37410360Y-91082712D01*
G01X37511173Y-91221078D01*
G01X37608399Y-91355682D01*
G01X37701876Y-91486383D01*
G01X37791445Y-91613036D01*
G01X37876944Y-91735499D01*
G01X37958213Y-91853629D01*
G01X38035089Y-91967283D01*
G01X38107413Y-92076318D01*
G01X38175024Y-92180590D01*
G01X38237760Y-92279957D01*
G01X38295461Y-92374275D01*
G01X38347965Y-92463402D01*
G01X38395112Y-92547195D01*
G01X38436741Y-92625510D01*
G01X38472691Y-92698205D01*
G01X38502800Y-92765136D01*
G01X38526909Y-92826161D01*
G01X38544856Y-92881136D01*
G01X38556479Y-92929919D01*
G01X38561619Y-92972366D01*
G01X38560115Y-93008334D01*
G01X38551804Y-93037680D01*
G01X38536527Y-93060262D01*
G01X38514123Y-93075936D01*
G01X38484430Y-93084560D01*
G01X38447288Y-93085989D01*
G01X38447288Y-93085989D01*
G01X38447288Y-93085989D01*
G01X38269273Y-93072416D01*
G01X38092839Y-93051158D01*
G01X37917976Y-93022368D01*
G01X37744674Y-92986197D01*
G01X37572924Y-92942801D01*
G01X37402714Y-92892331D01*
G01X37234036Y-92834940D01*
G01X37066880Y-92770782D01*
G01X36901234Y-92700009D01*
G01X36737090Y-92622774D01*
G01X36574438Y-92539230D01*
G01X36413267Y-92449530D01*
G01X36253568Y-92353828D01*
G01X36095330Y-92252275D01*
G01X35938544Y-92145026D01*
G01X35783199Y-92032232D01*
G01X35629286Y-91914047D01*
G01X35476795Y-91790624D01*
G01X35325716Y-91662116D01*
G01X35176038Y-91528676D01*
G01X35027753Y-91390456D01*
G01X34880849Y-91247609D01*
G01X34735317Y-91100289D01*
G01X34591148Y-90948649D01*
G01X34448330Y-90792841D01*
G01X34306854Y-90633019D01*
G01X34166711Y-90469334D01*
G01X34027890Y-90301941D01*
G01X33890381Y-90130993D01*
G01X33754174Y-89956641D01*
G01X33619259Y-89779040D01*
G01X33485627Y-89598341D01*
G01X33353268Y-89414699D01*
G01X33222170Y-89228265D01*
G01X33092325Y-89039193D01*
G01X32963723Y-88847637D01*
G01X32836353Y-88653748D01*
G01X32710206Y-88457679D01*
G01X32585272Y-88259585D01*
G01X32461540Y-88059617D01*
G01X32339001Y-87857928D01*
G01X32217644Y-87654672D01*
G01X32097461Y-87450002D01*
G01X31978440Y-87244070D01*
G01X31860572Y-87037029D01*
G01X31743847Y-86829033D01*
G01X31628255Y-86620234D01*
G01X31513787Y-86410785D01*
G01X31400431Y-86200839D01*
G01X31288178Y-85990549D01*
G01X31177019Y-85780068D01*
G01X31066942Y-85569550D01*
G01X30957939Y-85359146D01*
G01X30849999Y-85149010D01*
G01X30743113Y-84939295D01*
G01X30637270Y-84730153D01*
G01X30532460Y-84521739D01*
G01X30428674Y-84314204D01*
G01X30325901Y-84107701D01*
G01X30224132Y-83902384D01*
G01X30123356Y-83698406D01*
G01X30023564Y-83495919D01*
G01X29924746Y-83295077D01*
G01X29826891Y-83096031D01*
G01X29729990Y-82898937D01*
G01X29634033Y-82703945D01*
G01X29539010Y-82511209D01*
G01X29444910Y-82320883D01*
G01X29351725Y-82133119D01*
G01X29259443Y-81948069D01*
G01X29168056Y-81765888D01*
G01X29077552Y-81586728D01*
G01X28987923Y-81410741D01*
G01X28899157Y-81238081D01*
G01X28811246Y-81068901D01*
G01X28724179Y-80903354D01*
G01X28637947Y-80741592D01*
G01X28552538Y-80583769D01*
G01X28467944Y-80430037D01*
G01X28384154Y-80280550D01*
G01X28301159Y-80135460D01*
G01X28218949Y-79994921D01*
G01X28137512Y-79859085D01*
G01X28056841Y-79728105D01*
G01X27976924Y-79602135D01*
G01X27897751Y-79481326D01*
G01X27819313Y-79365833D01*
G01X27741600Y-79255808D01*
G01X27664602Y-79151404D01*
G01X27588309Y-79052773D01*
G01X27512710Y-78960070D01*
G01X27437796Y-78873446D01*
G01X27363557Y-78793055D01*
G01X27289984Y-78719050D01*
G01X27217065Y-78651584D01*
G01X27144791Y-78590809D01*
G01X27073153Y-78536879D01*
G01X27002139Y-78489946D01*
G01X26931741Y-78450164D01*
G01X26861948Y-78417685D01*
G01X26861948Y-78417685D01*
G01X26861948Y-78417685D01*
G01X26723159Y-78359963D01*
G01X26584766Y-78301903D01*
G01X26446769Y-78243506D01*
G01X26309168Y-78184773D01*
G01X26171962Y-78125705D01*
G01X26035152Y-78066303D01*
G01X25898736Y-78006568D01*
G01X25762715Y-77946501D01*
G01X25627088Y-77886104D01*
G01X25491856Y-77825378D01*
G01X25357017Y-77764323D01*
G01X25222572Y-77702941D01*
G01X25088520Y-77641233D01*
G01X24954861Y-77579200D01*
G01X24821595Y-77516843D01*
G01X24688721Y-77454163D01*
G01X24556239Y-77391162D01*
G01X24424149Y-77327840D01*
G01X24292451Y-77264198D01*
G01X24161143Y-77200238D01*
G01X24030227Y-77135960D01*
G01X23899702Y-77071367D01*
G01X23769567Y-77006458D01*
G01X23639822Y-76941236D01*
G01X23510467Y-76875700D01*
G01X23381502Y-76809853D01*
G01X23252926Y-76743695D01*
G01X23124739Y-76677228D01*
G01X22996941Y-76610452D01*
G01X22869531Y-76543369D01*
G01X22742510Y-76475979D01*
G01X22615876Y-76408285D01*
G01X22489630Y-76340286D01*
G01X22363772Y-76271984D01*
G01X22238301Y-76203381D01*
G01X22113216Y-76134477D01*
G01X21988518Y-76065273D01*
G01X21864206Y-75995771D01*
G01X21740280Y-75925971D01*
G01X21616740Y-75855875D01*
G01X21493586Y-75785483D01*
G01X21370816Y-75714798D01*
G01X21248432Y-75643820D01*
G01X21126432Y-75572550D01*
G01X21004816Y-75500988D01*
G01X20883584Y-75429138D01*
G01X20762736Y-75356998D01*
G01X20642272Y-75284572D01*
G01X20522191Y-75211858D01*
G01X20402492Y-75138860D01*
G01X20283176Y-75065577D01*
G01X20164243Y-74992012D01*
G01X20045692Y-74918164D01*
G01X19927522Y-74844036D01*
G01X19809734Y-74769627D01*
G01X19692328Y-74694940D01*
G01X19575302Y-74619976D01*
G01X19458657Y-74544735D01*
G01X19342392Y-74469219D01*
G01X19226507Y-74393428D01*
G01X19111003Y-74317365D01*
G01X18995878Y-74241029D01*
G01X18881132Y-74164423D01*
G01X18766765Y-74087546D01*
G01X18652777Y-74010401D01*
G01X18539167Y-73932989D01*
G01X18425936Y-73855309D01*
G01X18313082Y-73777365D01*
G01X18200606Y-73699156D01*
G01X18088507Y-73620684D01*
G01X17976786Y-73541950D01*
G01X17865441Y-73462955D01*
G01X17754472Y-73383700D01*
G01X17643880Y-73304186D01*
G01X17533664Y-73224415D01*
G01X17423824Y-73144387D01*
G01X17314359Y-73064103D01*
G01X17205269Y-72983565D01*
G01X17096553Y-72902774D01*
G01X16988213Y-72821731D01*
G01X16880246Y-72740437D01*
G01X16772654Y-72658893D01*
G01X16665435Y-72577100D01*
G01X16558590Y-72495059D01*
G01X16452118Y-72412771D01*
G01X16346019Y-72330238D01*
G01X16240292Y-72247461D01*
G01X16134938Y-72164440D01*
G01X16029955Y-72081177D01*
G01X15925345Y-71997673D01*
G01X15821106Y-71913929D01*
G01X15717238Y-71829946D01*
G01X15613741Y-71745726D01*
G01X15510615Y-71661268D01*
G01X15407859Y-71576575D01*
G01X15305473Y-71491648D01*
G01X15203457Y-71406487D01*
G01X15101810Y-71321094D01*
G01X15000533Y-71235470D01*
G01X14899625Y-71149615D01*
G01X14899625Y-71149615D01*
G01X14899625Y-71149615D01*
G01X14698914Y-70977221D01*
G01X14499676Y-70803919D01*
G01X14301907Y-70629719D01*
G01X14105607Y-70454630D01*
G01X13910773Y-70278660D01*
G01X13717403Y-70101819D01*
G01X13525493Y-69924115D01*
G01X13335043Y-69745557D01*
G01X13146050Y-69566153D01*
G01X12958511Y-69385913D01*
G01X12772425Y-69204846D01*
G01X12587789Y-69022960D01*
G01X12404601Y-68840264D01*
G01X12222859Y-68656767D01*
G01X12042560Y-68472478D01*
G01X11863703Y-68287405D01*
G01X11686285Y-68101558D01*
G01X11510303Y-67914945D01*
G01X11335756Y-67727576D01*
G01X11162641Y-67539458D01*
G01X10990957Y-67350601D01*
G01X10820700Y-67161014D01*
G01X10651869Y-66970705D01*
G01X10484462Y-66779683D01*
G01X10318475Y-66587958D01*
G01X10153908Y-66395537D01*
G01X9990757Y-66202430D01*
G01X9829021Y-66008646D01*
G01X9668697Y-65814194D01*
G01X9509783Y-65619081D01*
G01X9352277Y-65423318D01*
G01X9196177Y-65226913D01*
G01X9041480Y-65029874D01*
G01X8888184Y-64832211D01*
G01X8736286Y-64633933D01*
G01X8585786Y-64435048D01*
G01X8436680Y-64235564D01*
G01X8288966Y-64035492D01*
G01X8142642Y-63834840D01*
G01X7997706Y-63633616D01*
G01X7854155Y-63431830D01*
G01X7711987Y-63229490D01*
G01X7571201Y-63026605D01*
G01X7431793Y-62823184D01*
G01X7293762Y-62619235D01*
G01X7157105Y-62414769D01*
G01X7021820Y-62209793D01*
G01X6887905Y-62004316D01*
G01X6755358Y-61798347D01*
G01X6624176Y-61591895D01*
G01X6494358Y-61384969D01*
G01X6365900Y-61177577D01*
G01X6238801Y-60969729D01*
G01X6113058Y-60761433D01*
G01X5988670Y-60552698D01*
G01X5865634Y-60343533D01*
G01X5743947Y-60133947D01*
G01X5623608Y-59923949D01*
G01X5504615Y-59713547D01*
G01X5386964Y-59502750D01*
G01X5270655Y-59291567D01*
G01X5155683Y-59080007D01*
G01X5042049Y-58868079D01*
G01X4929748Y-58655791D01*
G01X4818780Y-58443153D01*
G01X4709141Y-58230173D01*
G01X4600829Y-58016861D01*
G01X4493843Y-57803224D01*
G01X4388180Y-57589272D01*
G01X4283838Y-57375013D01*
G01X4180814Y-57160457D01*
G01X4079106Y-56945612D01*
G01X3978713Y-56730487D01*
G01X3879631Y-56515092D01*
G01X3781859Y-56299433D01*
G01X3685394Y-56083522D01*
G01X3590235Y-55867366D01*
G01X3496378Y-55650974D01*
G01X3403822Y-55434355D01*
G01X3312565Y-55217518D01*
G01X3222603Y-55000472D01*
G01X3133936Y-54783225D01*
G01X3046561Y-54565787D01*
G01X2960475Y-54348166D01*
G01X2875676Y-54130371D01*
G01X2792162Y-53912411D01*
G01X2709932Y-53694295D01*
G01X2628981Y-53476031D01*
G01X2549310Y-53257628D01*
G01X2470914Y-53039096D01*
G01X2393792Y-52820443D01*
G01X2317942Y-52601678D01*
G01X2243361Y-52382810D01*
G01X2170048Y-52163847D01*
G01X2097999Y-51944798D01*
G01X2027214Y-51725673D01*
G01X1957689Y-51506480D01*
G01X1889422Y-51287227D01*
G01X1822411Y-51067925D01*
G01X1756654Y-50848581D01*
G01X1756654Y-50848581D01*
G01X1756654Y-50848581D01*
G01X1628892Y-50409804D01*
G01X1506119Y-49970967D01*
G01X1388317Y-49532141D01*
G01X1275467Y-49093396D01*
G01X1167552Y-48654804D01*
G01X1064555Y-48216434D01*
G01X0966457Y-47778358D01*
G01X0873240Y-47340646D01*
G01X0784886Y-46903369D01*
G01X0701378Y-46466598D01*
G01X0622699Y-46030402D01*
G01X0548829Y-45594853D01*
G01X0479751Y-45160022D01*
G01X0415447Y-44725979D01*
G01X0355900Y-44292795D01*
G01X0301092Y-43860540D01*
G01X0251004Y-43429285D01*
G01X0205619Y-42999101D01*
G01X0164919Y-42570059D01*
G01X0128886Y-42142228D01*
G01X0097503Y-41715680D01*
G01X0070750Y-41290486D01*
G01X0048612Y-40866715D01*
G01X0031069Y-40444440D01*
G01X0018104Y-40023729D01*
G01X0009700Y-39604655D01*
G01X0005837Y-39187288D01*
G01X0006499Y-38771697D01*
G01X0011667Y-38357955D01*
G01X0021324Y-37946132D01*
G01X0035451Y-37536297D01*
G01X0054032Y-37128523D01*
G01X0077047Y-36722880D01*
G01X0104480Y-36319437D01*
G01X0136312Y-35918267D01*
G01X0172526Y-35519439D01*
G01X0213103Y-35123025D01*
G01X0258026Y-34729094D01*
G01X0307277Y-34337719D01*
G01X0360838Y-33948968D01*
G01X0418692Y-33562913D01*
G01X0480819Y-33179625D01*
G01X0547204Y-32799174D01*
G01X0617827Y-32421632D01*
G01X0692670Y-32047067D01*
G01X0771717Y-31675552D01*
G01X0854949Y-31307157D01*
G01X0942348Y-30941952D01*
G01X1033897Y-30580009D01*
G01X1129577Y-30221397D01*
G01X1229371Y-29866188D01*
G01X1333261Y-29514452D01*
G01X1441229Y-29166260D01*
G01X1553256Y-28821682D01*
G01X1669327Y-28480790D01*
G01X1789421Y-28143653D01*
G01X1913523Y-27810343D01*
G01X2041613Y-27480930D01*
G01X2173674Y-27155485D01*
G01X2309687Y-26834078D01*
G01X2449637Y-26516780D01*
G01X2593503Y-26203662D01*
G01X2741269Y-25894795D01*
G01X2892916Y-25590248D01*
G01X3048428Y-25290094D01*
G01X3207785Y-24994402D01*
G01X3370970Y-24703242D01*
G01X3537966Y-24416687D01*
G01X3708754Y-24134806D01*
G01X3883316Y-23857670D01*
G01X4061635Y-23585350D01*
G01X4243693Y-23317916D01*
G01X4429472Y-23055439D01*
G01X4618954Y-22797990D01*
G01X4812121Y-22545639D01*
G01X5008956Y-22298458D01*
G01X5209440Y-22056516D01*
G01X5413555Y-21819884D01*
G01X5621285Y-21588633D01*
G01X5832611Y-21362834D01*
G01X6047514Y-21142557D01*
G01X6265978Y-20927873D01*
G01X6487985Y-20718853D01*
G01X6713516Y-20515567D01*
G01X6942553Y-20318086D01*
G01X7175080Y-20126481D01*
G01X7411078Y-19940821D01*
G01X7650528Y-19761179D01*
G01X7893414Y-19587625D01*
G01X8139718Y-19420228D01*
G01X8389421Y-19259061D01*
G01X8642506Y-19104193D01*
G01X8898954Y-18955695D01*
G01X9158749Y-18813638D01*
G01X9421872Y-18678093D01*
G01X9688305Y-18549130D01*
G01X9958031Y-18426820D01*
G01X10231032Y-18311233D01*
G01X10507289Y-18202441D01*
G01X10786785Y-18100513D01*
G01X10786785Y-18100513D01*
G04 end of program *
M02*
