G04                                                      *
G04 Greetings!                                           *
G04 This Gerber was generated by PCBmodE, an open source *
G04 PCB design software. Get it here:                    *
G04                                                      *
G04   http://pcbmode.com                                 *
G04                                                      *
G04 Also visit                                           *
G04                                                      *
G04   http://boldport.com                                *
G04                                                      *
G04 and follow @boldport / @pcbmode for updates!         *
G04                                                      *

G04 leading zeros omitted (L); absolute data (A); 6 integer digits and 6 fractional digits *
%FSLAX66Y66*%

G04 mode (MO): millimeters (MM) *
%MOMM*%

G04 Aperture definitions *
%ADD10C,0.001X*%
%ADD11C,0.001X*%

%LPD*%
G36*
G01X65754703Y-50496785D02*
G01X62504703Y-50496785D01*
G01X62504703Y-54746785D01*
G01X65754703Y-54746785D01*
G01X65754703Y-50496785D01*
G37*
G36*
G01X33204703Y-54746785D02*
G01X36454703Y-54746785D01*
G01X36454703Y-50496785D01*
G01X33204703Y-50496785D01*
G01X33204703Y-54746785D01*
G37*
G36*
G01X72836896Y-26735612D02*
G01X72836896Y-26735612D01*
G01X72754212Y-26734943D01*
G01X72671852Y-26732940D01*
G01X72589826Y-26729615D01*
G01X72508145Y-26724977D01*
G01X72426819Y-26719038D01*
G01X72345857Y-26711806D01*
G01X72265272Y-26703294D01*
G01X72185072Y-26693510D01*
G01X72105268Y-26682466D01*
G01X72025870Y-26670171D01*
G01X71946889Y-26656636D01*
G01X71868336Y-26641871D01*
G01X71790219Y-26625886D01*
G01X71712550Y-26608692D01*
G01X71635338Y-26590299D01*
G01X71558595Y-26570717D01*
G01X71482330Y-26549957D01*
G01X71406554Y-26528029D01*
G01X71331277Y-26504943D01*
G01X71256510Y-26480709D01*
G01X71182261Y-26455338D01*
G01X71108543Y-26428840D01*
G01X71035365Y-26401226D01*
G01X70962737Y-26372505D01*
G01X70890671Y-26342688D01*
G01X70819175Y-26311785D01*
G01X70748261Y-26279807D01*
G01X70677938Y-26246763D01*
G01X70608217Y-26212665D01*
G01X70539108Y-26177522D01*
G01X70470622Y-26141344D01*
G01X70402769Y-26104143D01*
G01X70335559Y-26065928D01*
G01X70269003Y-26026709D01*
G01X70203110Y-25986498D01*
G01X70137891Y-25945303D01*
G01X70073356Y-25903136D01*
G01X70009516Y-25860007D01*
G01X69946381Y-25815925D01*
G01X69883961Y-25770903D01*
G01X69822267Y-25724948D01*
G01X69761308Y-25678073D01*
G01X69701096Y-25630287D01*
G01X69641639Y-25581600D01*
G01X69582950Y-25532023D01*
G01X69525037Y-25481566D01*
G01X69467912Y-25430240D01*
G01X69411584Y-25378054D01*
G01X69356064Y-25325020D01*
G01X69301362Y-25271146D01*
G01X69247489Y-25216445D01*
G01X69194454Y-25160925D01*
G01X69142269Y-25104597D01*
G01X69090942Y-25047472D01*
G01X69040486Y-24989559D01*
G01X68990909Y-24930869D01*
G01X68942222Y-24871413D01*
G01X68894436Y-24811201D01*
G01X68847561Y-24750242D01*
G01X68801606Y-24688548D01*
G01X68756583Y-24626128D01*
G01X68712502Y-24562993D01*
G01X68669373Y-24499153D01*
G01X68627206Y-24434618D01*
G01X68586011Y-24369399D01*
G01X68545800Y-24303506D01*
G01X68506581Y-24236950D01*
G01X68468366Y-24169740D01*
G01X68431165Y-24101886D01*
G01X68394987Y-24033400D01*
G01X68359844Y-23964292D01*
G01X68325746Y-23894571D01*
G01X68292702Y-23824248D01*
G01X68260724Y-23753334D01*
G01X68229821Y-23681838D01*
G01X68200004Y-23609771D01*
G01X68171283Y-23537144D01*
G01X68143668Y-23463966D01*
G01X68117171Y-23390247D01*
G01X68091800Y-23315999D01*
G01X68067566Y-23241231D01*
G01X68044480Y-23165954D01*
G01X68022551Y-23090178D01*
G01X68001791Y-23013914D01*
G01X67982210Y-22937170D01*
G01X67963817Y-22859959D01*
G01X67946623Y-22782290D01*
G01X67930638Y-22704173D01*
G01X67915873Y-22625619D01*
G01X67902338Y-22546638D01*
G01X67890043Y-22467241D01*
G01X67878999Y-22387437D01*
G01X67869215Y-22307237D01*
G01X67860702Y-22226651D01*
G01X67853471Y-22145690D01*
G01X67847532Y-22064364D01*
G01X67842894Y-21982683D01*
G01X67839569Y-21900657D01*
G01X67837566Y-21818297D01*
G01X67836896Y-21735613D01*
G01X67836896Y-21735613D01*
G01X67836896Y-21735612D01*
G01X67837566Y-21652928D01*
G01X67839569Y-21570568D01*
G01X67842894Y-21488542D01*
G01X67847532Y-21406861D01*
G01X67853471Y-21325535D01*
G01X67860702Y-21244574D01*
G01X67869215Y-21163988D01*
G01X67878999Y-21083788D01*
G01X67890043Y-21003984D01*
G01X67902338Y-20924587D01*
G01X67915873Y-20845606D01*
G01X67930638Y-20767052D01*
G01X67946623Y-20688935D01*
G01X67963817Y-20611266D01*
G01X67982210Y-20534055D01*
G01X68001791Y-20457311D01*
G01X68022551Y-20381047D01*
G01X68044480Y-20305271D01*
G01X68067566Y-20229994D01*
G01X68091800Y-20155226D01*
G01X68117171Y-20080978D01*
G01X68143668Y-20007259D01*
G01X68171283Y-19934081D01*
G01X68200004Y-19861454D01*
G01X68229821Y-19789387D01*
G01X68260724Y-19717891D01*
G01X68292702Y-19646977D01*
G01X68325746Y-19576654D01*
G01X68359844Y-19506933D01*
G01X68394987Y-19437825D01*
G01X68431165Y-19369339D01*
G01X68468366Y-19301485D01*
G01X68506581Y-19234275D01*
G01X68545800Y-19167719D01*
G01X68586011Y-19101826D01*
G01X68627206Y-19036607D01*
G01X68669373Y-18972072D01*
G01X68712502Y-18908232D01*
G01X68756583Y-18845097D01*
G01X68801606Y-18782677D01*
G01X68847561Y-18720983D01*
G01X68894436Y-18660024D01*
G01X68942222Y-18599812D01*
G01X68990909Y-18540356D01*
G01X69040486Y-18481666D01*
G01X69090942Y-18423753D01*
G01X69142269Y-18366628D01*
G01X69194454Y-18310300D01*
G01X69247489Y-18254780D01*
G01X69301362Y-18200079D01*
G01X69356064Y-18146205D01*
G01X69411584Y-18093171D01*
G01X69467912Y-18040985D01*
G01X69525037Y-17989659D01*
G01X69582950Y-17939202D01*
G01X69641639Y-17889625D01*
G01X69701096Y-17840938D01*
G01X69761308Y-17793152D01*
G01X69822267Y-17746277D01*
G01X69883961Y-17700322D01*
G01X69946381Y-17655300D01*
G01X70009516Y-17611218D01*
G01X70073356Y-17568089D01*
G01X70137891Y-17525922D01*
G01X70203110Y-17484727D01*
G01X70269003Y-17444516D01*
G01X70335559Y-17405297D01*
G01X70402769Y-17367082D01*
G01X70470622Y-17329881D01*
G01X70539108Y-17293703D01*
G01X70608217Y-17258560D01*
G01X70677938Y-17224462D01*
G01X70748261Y-17191418D01*
G01X70819175Y-17159440D01*
G01X70890671Y-17128537D01*
G01X70962737Y-17098720D01*
G01X71035365Y-17069999D01*
G01X71108543Y-17042385D01*
G01X71182261Y-17015887D01*
G01X71256510Y-16990516D01*
G01X71331277Y-16966282D01*
G01X71406554Y-16943196D01*
G01X71482330Y-16921268D01*
G01X71558595Y-16900508D01*
G01X71635338Y-16880926D01*
G01X71712550Y-16862533D01*
G01X71790219Y-16845339D01*
G01X71868336Y-16829354D01*
G01X71946889Y-16814589D01*
G01X72025870Y-16801054D01*
G01X72105268Y-16788759D01*
G01X72185072Y-16777715D01*
G01X72265272Y-16767931D01*
G01X72345857Y-16759419D01*
G01X72426819Y-16752187D01*
G01X72508145Y-16746248D01*
G01X72589826Y-16741610D01*
G01X72671852Y-16738285D01*
G01X72754212Y-16736282D01*
G01X72836896Y-16735613D01*
G01X72836896Y-16735613D01*
G01X72836896Y-16735612D01*
G01X72919580Y-16736282D01*
G01X73001941Y-16738285D01*
G01X73083966Y-16741610D01*
G01X73165648Y-16746248D01*
G01X73246974Y-16752187D01*
G01X73327935Y-16759419D01*
G01X73408521Y-16767931D01*
G01X73488721Y-16777715D01*
G01X73568525Y-16788759D01*
G01X73647922Y-16801054D01*
G01X73726903Y-16814589D01*
G01X73805457Y-16829354D01*
G01X73883574Y-16845339D01*
G01X73961243Y-16862533D01*
G01X74038454Y-16880926D01*
G01X74115197Y-16900508D01*
G01X74191462Y-16921268D01*
G01X74267238Y-16943196D01*
G01X74342515Y-16966282D01*
G01X74417283Y-16990516D01*
G01X74491531Y-17015887D01*
G01X74565249Y-17042385D01*
G01X74638428Y-17069999D01*
G01X74711055Y-17098720D01*
G01X74783122Y-17128537D01*
G01X74854618Y-17159440D01*
G01X74925532Y-17191418D01*
G01X74995855Y-17224462D01*
G01X75065576Y-17258560D01*
G01X75134684Y-17293703D01*
G01X75203170Y-17329881D01*
G01X75271023Y-17367082D01*
G01X75338233Y-17405297D01*
G01X75404790Y-17444516D01*
G01X75470683Y-17484727D01*
G01X75535902Y-17525922D01*
G01X75600436Y-17568089D01*
G01X75664276Y-17611218D01*
G01X75727411Y-17655300D01*
G01X75789831Y-17700322D01*
G01X75851526Y-17746277D01*
G01X75912484Y-17793152D01*
G01X75972697Y-17840938D01*
G01X76032153Y-17889625D01*
G01X76090843Y-17939202D01*
G01X76148755Y-17989659D01*
G01X76205881Y-18040985D01*
G01X76262208Y-18093171D01*
G01X76317728Y-18146205D01*
G01X76372430Y-18200079D01*
G01X76426304Y-18254780D01*
G01X76479338Y-18310300D01*
G01X76531524Y-18366628D01*
G01X76582850Y-18423753D01*
G01X76633307Y-18481666D01*
G01X76682884Y-18540356D01*
G01X76731570Y-18599812D01*
G01X76779357Y-18660024D01*
G01X76826232Y-18720983D01*
G01X76872186Y-18782677D01*
G01X76917209Y-18845097D01*
G01X76961291Y-18908232D01*
G01X77004420Y-18972072D01*
G01X77046587Y-19036607D01*
G01X77087781Y-19101826D01*
G01X77127993Y-19167719D01*
G01X77167212Y-19234275D01*
G01X77205427Y-19301485D01*
G01X77242628Y-19369339D01*
G01X77278805Y-19437825D01*
G01X77313948Y-19506933D01*
G01X77348047Y-19576654D01*
G01X77381090Y-19646977D01*
G01X77413069Y-19717891D01*
G01X77443972Y-19789387D01*
G01X77473789Y-19861454D01*
G01X77502510Y-19934081D01*
G01X77530124Y-20007259D01*
G01X77556622Y-20080978D01*
G01X77581993Y-20155226D01*
G01X77606227Y-20229994D01*
G01X77629313Y-20305271D01*
G01X77651241Y-20381047D01*
G01X77672001Y-20457311D01*
G01X77691583Y-20534055D01*
G01X77709976Y-20611266D01*
G01X77727170Y-20688935D01*
G01X77743155Y-20767052D01*
G01X77757920Y-20845606D01*
G01X77771455Y-20924587D01*
G01X77783750Y-21003984D01*
G01X77794794Y-21083788D01*
G01X77804578Y-21163988D01*
G01X77813090Y-21244574D01*
G01X77820321Y-21325535D01*
G01X77826261Y-21406861D01*
G01X77830898Y-21488542D01*
G01X77834224Y-21570568D01*
G01X77836226Y-21652928D01*
G01X77836896Y-21735612D01*
G01X77836896Y-21735612D01*
G01X77836896Y-21735612D01*
G01X77836226Y-21818297D01*
G01X77834224Y-21900657D01*
G01X77830898Y-21982683D01*
G01X77826261Y-22064364D01*
G01X77820321Y-22145690D01*
G01X77813090Y-22226651D01*
G01X77804578Y-22307237D01*
G01X77794794Y-22387437D01*
G01X77783750Y-22467241D01*
G01X77771455Y-22546638D01*
G01X77757920Y-22625619D01*
G01X77743155Y-22704173D01*
G01X77727170Y-22782290D01*
G01X77709976Y-22859959D01*
G01X77691583Y-22937170D01*
G01X77672001Y-23013914D01*
G01X77651241Y-23090178D01*
G01X77629313Y-23165954D01*
G01X77606227Y-23241231D01*
G01X77581993Y-23315999D01*
G01X77556622Y-23390247D01*
G01X77530124Y-23463966D01*
G01X77502510Y-23537144D01*
G01X77473789Y-23609771D01*
G01X77443972Y-23681838D01*
G01X77413069Y-23753334D01*
G01X77381090Y-23824248D01*
G01X77348047Y-23894571D01*
G01X77313948Y-23964292D01*
G01X77278805Y-24033400D01*
G01X77242628Y-24101886D01*
G01X77205427Y-24169740D01*
G01X77167212Y-24236950D01*
G01X77127993Y-24303506D01*
G01X77087781Y-24369399D01*
G01X77046587Y-24434618D01*
G01X77004420Y-24499153D01*
G01X76961291Y-24562993D01*
G01X76917209Y-24626128D01*
G01X76872186Y-24688548D01*
G01X76826232Y-24750242D01*
G01X76779357Y-24811201D01*
G01X76731570Y-24871413D01*
G01X76682884Y-24930869D01*
G01X76633307Y-24989559D01*
G01X76582850Y-25047472D01*
G01X76531524Y-25104597D01*
G01X76479338Y-25160925D01*
G01X76426304Y-25216445D01*
G01X76372430Y-25271146D01*
G01X76317728Y-25325020D01*
G01X76262208Y-25378054D01*
G01X76205881Y-25430240D01*
G01X76148755Y-25481566D01*
G01X76090843Y-25532023D01*
G01X76032153Y-25581600D01*
G01X75972697Y-25630287D01*
G01X75912484Y-25678073D01*
G01X75851526Y-25724948D01*
G01X75789831Y-25770903D01*
G01X75727411Y-25815925D01*
G01X75664276Y-25860007D01*
G01X75600436Y-25903136D01*
G01X75535902Y-25945303D01*
G01X75470683Y-25986498D01*
G01X75404790Y-26026709D01*
G01X75338233Y-26065928D01*
G01X75271023Y-26104143D01*
G01X75203170Y-26141344D01*
G01X75134684Y-26177522D01*
G01X75065576Y-26212665D01*
G01X74995855Y-26246763D01*
G01X74925532Y-26279807D01*
G01X74854618Y-26311785D01*
G01X74783122Y-26342688D01*
G01X74711055Y-26372505D01*
G01X74638428Y-26401226D01*
G01X74565249Y-26428840D01*
G01X74491531Y-26455338D01*
G01X74417283Y-26480709D01*
G01X74342515Y-26504943D01*
G01X74267238Y-26528029D01*
G01X74191462Y-26549957D01*
G01X74115197Y-26570717D01*
G01X74038454Y-26590299D01*
G01X73961243Y-26608692D01*
G01X73883574Y-26625886D01*
G01X73805457Y-26641871D01*
G01X73726903Y-26656636D01*
G01X73647922Y-26670171D01*
G01X73568525Y-26682466D01*
G01X73488721Y-26693510D01*
G01X73408521Y-26703294D01*
G01X73327935Y-26711806D01*
G01X73246974Y-26719038D01*
G01X73165648Y-26724977D01*
G01X73083966Y-26729615D01*
G01X73001941Y-26732940D01*
G01X72919580Y-26734943D01*
G01X72836896Y-26735612D01*
G01X72836896Y-26735612D01*
G37*
G36*
G01X101385567Y-10400000D02*
G01X102585567Y-10400000D01*
G01X102585567Y-11600000D01*
G01X101385567Y-11600000D01*
G01X101385567Y-10400000D01*
G37*
G36*
G01X102835567Y-10551758D02*
G01X102835567Y-10551758D01*
G01X102878926Y-10548242D01*
G01X102878926Y-10548242D01*
G01X102930317Y-10580441D01*
G01X102932832Y-10593946D01*
G01X102932832Y-10593946D01*
G01X102932549Y-10639271D01*
G01X102932007Y-10709544D01*
G01X102931666Y-10751774D01*
G01X102931661Y-10752442D01*
G01X102931661Y-10752442D01*
G01X102930926Y-10849262D01*
G01X102930589Y-10905763D01*
G01X102930494Y-10930552D01*
G01X102930489Y-10933789D01*
G01X102930489Y-10933789D01*
G01X102999169Y-10895803D01*
G01X103060519Y-10876985D01*
G01X103103171Y-10870602D01*
G01X103116231Y-10869922D01*
G01X103116231Y-10869922D01*
G01X103190418Y-10884603D01*
G01X103241760Y-10913966D01*
G01X103266556Y-10935988D01*
G01X103268282Y-10937891D01*
G01X103268282Y-10937891D01*
G01X103300990Y-10995499D01*
G01X103318385Y-11059369D01*
G01X103325303Y-11112879D01*
G01X103326579Y-11139408D01*
G01X103326582Y-11140039D01*
G01X103326582Y-11140039D01*
G01X103318524Y-11220456D01*
G01X103299888Y-11285638D01*
G01X103278986Y-11332513D01*
G01X103264128Y-11358014D01*
G01X103261543Y-11361817D01*
G01X103261543Y-11361817D01*
G01X103207279Y-11412276D01*
G01X103148091Y-11439112D01*
G01X103098897Y-11449784D01*
G01X103074620Y-11451752D01*
G01X103074043Y-11451758D01*
G01X103074043Y-11451758D01*
G01X102996274Y-11442491D01*
G01X102931316Y-11420725D01*
G01X102882522Y-11395511D01*
G01X102853247Y-11375900D01*
G01X102846114Y-11370313D01*
G01X102846114Y-11370313D01*
G01X102850178Y-11315825D01*
G01X102852751Y-11248428D01*
G01X102854172Y-11182494D01*
G01X102854776Y-11132394D01*
G01X102854903Y-11112500D01*
G01X102854903Y-11112500D01*
G01X102854903Y-11112500D01*
G01X102854430Y-11051138D01*
G01X102853253Y-10981754D01*
G01X102851734Y-10913244D01*
G01X102850237Y-10854502D01*
G01X102849124Y-10814425D01*
G01X102848750Y-10801660D01*
G01X102848750Y-10801660D01*
G01X102845017Y-10697258D01*
G01X102841452Y-10625481D01*
G01X102838436Y-10580914D01*
G01X102836347Y-10558145D01*
G01X102835567Y-10551758D01*
G01X102835567Y-10551758D01*
G37*
%LPC*%
G36*
G01X102929317Y-11322266D02*
G01X102929317Y-11322266D01*
G01X102994249Y-11363198D01*
G01X103050732Y-11380780D01*
G01X103082726Y-11384883D01*
G01X103085176Y-11384961D01*
G01X103085176Y-11384961D01*
G01X103153533Y-11365481D01*
G01X103192690Y-11330755D01*
G01X103203243Y-11315820D01*
G01X103203243Y-11315820D01*
G01X103228843Y-11249892D01*
G01X103239714Y-11189595D01*
G01X103242169Y-11154485D01*
G01X103242207Y-11151758D01*
G01X103242207Y-11151758D01*
G01X103232905Y-11069408D01*
G01X103214300Y-11016294D01*
G01X103200347Y-10992226D01*
G01X103199141Y-10990625D01*
G01X103199141Y-10990625D01*
G01X103141086Y-10948256D01*
G01X103096850Y-10937616D01*
G01X103091036Y-10937305D01*
G01X103089278Y-10937305D01*
G01X103089278Y-10937305D01*
G01X103019938Y-10950184D01*
G01X102965639Y-10976474D01*
G01X102935212Y-10997656D01*
G01X102931661Y-11000586D01*
G01X102931661Y-11000586D01*
G01X102932081Y-11059427D01*
G01X102932247Y-11077637D01*
G01X102932247Y-11077637D01*
G01X102932759Y-11151575D01*
G01X102932832Y-11178711D01*
G01X102932832Y-11178711D01*
G01X102932832Y-11178711D01*
G01X102931842Y-11261787D01*
G01X102930076Y-11309420D01*
G01X102929317Y-11322266D01*
G37*
%LPD*%
G36*
G01X103426778Y-11161719D02*
G01X103426778Y-11161719D01*
G01X103435708Y-11082536D01*
G01X103456358Y-11020209D01*
G01X103479519Y-10976534D01*
G01X103495984Y-10953309D01*
G01X103498848Y-10949903D01*
G01X103498848Y-10949903D01*
G01X103556206Y-10905032D01*
G01X103615589Y-10881168D01*
G01X103663632Y-10871678D01*
G01X103686971Y-10869927D01*
G01X103687520Y-10869922D01*
G01X103687520Y-10869922D01*
G01X103764012Y-10881531D01*
G01X103822470Y-10907514D01*
G01X103860755Y-10934603D01*
G01X103876728Y-10949529D01*
G01X103877071Y-10949903D01*
G01X103877071Y-10949903D01*
G01X103914786Y-11008263D01*
G01X103936243Y-11069947D01*
G01X103946027Y-11123218D01*
G01X103948724Y-11156341D01*
G01X103948848Y-11161719D01*
G01X103948848Y-11161719D01*
G01X103939204Y-11243996D01*
G01X103917257Y-11307610D01*
G01X103893488Y-11350637D01*
G01X103878375Y-11371151D01*
G01X103877071Y-11372656D01*
G01X103877071Y-11372656D01*
G01X103819707Y-11417034D01*
G01X103760030Y-11440636D01*
G01X103711625Y-11450022D01*
G01X103688075Y-11451753D01*
G01X103687520Y-11451758D01*
G01X103687520Y-11451758D01*
G01X103611643Y-11440276D01*
G01X103553439Y-11414579D01*
G01X103515194Y-11387788D01*
G01X103499192Y-11373026D01*
G01X103498848Y-11372656D01*
G01X103498848Y-11372656D01*
G01X103460979Y-11314758D01*
G01X103439434Y-11253337D01*
G01X103429610Y-11200185D01*
G01X103426902Y-11167095D01*
G01X103426778Y-11161719D01*
G37*
%LPC*%
G36*
G01X103511153Y-11144727D02*
G01X103511153Y-11144727D01*
G01X103520064Y-11222475D01*
G01X103538616Y-11279485D01*
G01X103554539Y-11311281D01*
G01X103557735Y-11316406D01*
G01X103557735Y-11316406D01*
G01X103611509Y-11364342D01*
G01X103663375Y-11382267D01*
G01X103687495Y-11384961D01*
G01X103687520Y-11384961D01*
G01X103687520Y-11384961D01*
G01X103761505Y-11369113D01*
G01X103805797Y-11340861D01*
G01X103818184Y-11328711D01*
G01X103818184Y-11328711D01*
G01X103850320Y-11267492D01*
G01X103862872Y-11209038D01*
G01X103865056Y-11179153D01*
G01X103865059Y-11178711D01*
G01X103865059Y-11178711D01*
G01X103855868Y-11100851D01*
G01X103836732Y-11043608D01*
G01X103820309Y-11011612D01*
G01X103817012Y-11006445D01*
G01X103817012Y-11006445D01*
G01X103762662Y-10958100D01*
G01X103711251Y-10940022D01*
G01X103687544Y-10937305D01*
G01X103687520Y-10937305D01*
G01X103687520Y-10937305D01*
G01X103613700Y-10953318D01*
G01X103569703Y-10981864D01*
G01X103557442Y-10994141D01*
G01X103557442Y-10994141D01*
G01X103525708Y-11055762D01*
G01X103513312Y-11114373D01*
G01X103511156Y-11144285D01*
G01X103511153Y-11144727D01*
G37*
%LPD*%
G36*
G01X104002754Y-10925000D02*
G01X104002754Y-10925000D01*
G01X104020625Y-10889844D01*
G01X104020625Y-10889844D01*
G01X104077632Y-10882279D01*
G01X104081856Y-10882227D01*
G01X104115840Y-10882227D01*
G01X104115840Y-10882227D01*
G01X104112349Y-10803459D01*
G01X104109021Y-10756480D01*
G01X104108223Y-10747461D01*
G01X104108223Y-10747461D01*
G01X104148067Y-10743946D01*
G01X104148067Y-10743946D01*
G01X104202338Y-10774866D01*
G01X104205489Y-10789649D01*
G01X104205489Y-10789649D01*
G01X104202864Y-10847961D01*
G01X104200801Y-10883399D01*
G01X104200801Y-10883399D01*
G01X104296565Y-10882392D01*
G01X104358711Y-10880176D01*
G01X104392293Y-10877960D01*
G01X104402364Y-10876953D01*
G01X104402364Y-10876953D01*
G01X104402364Y-10876953D01*
G01X104407051Y-10905078D01*
G01X104407051Y-10905078D01*
G01X104394454Y-10937305D01*
G01X104394454Y-10937305D01*
G01X104354317Y-10946680D01*
G01X104354317Y-10946680D01*
G01X104296372Y-10947499D01*
G01X104230870Y-10947806D01*
G01X104198492Y-10947852D01*
G01X104198457Y-10947852D01*
G01X104198457Y-10947852D01*
G01X104197359Y-11022049D01*
G01X104196672Y-11092726D01*
G01X104196300Y-11153446D01*
G01X104196146Y-11197770D01*
G01X104196114Y-11219260D01*
G01X104196114Y-11220313D01*
G01X104196114Y-11220313D01*
G01X104203039Y-11306013D01*
G01X104215068Y-11347473D01*
G01X104219551Y-11355957D01*
G01X104219551Y-11355957D01*
G01X104274619Y-11386067D01*
G01X104296895Y-11388477D01*
G01X104296895Y-11388477D01*
G01X104361531Y-11368680D01*
G01X104383028Y-11352149D01*
G01X104383028Y-11352149D01*
G01X104404707Y-11395508D01*
G01X104404707Y-11395508D01*
G01X104373975Y-11436064D01*
G01X104373653Y-11436231D01*
G01X104373653Y-11436231D01*
G01X104311945Y-11451092D01*
G01X104298067Y-11451758D01*
G01X104298067Y-11451758D01*
G01X104219795Y-11437881D01*
G01X104174002Y-11411304D01*
G01X104157348Y-11394604D01*
G01X104157149Y-11394336D01*
G01X104157149Y-11394336D01*
G01X104131259Y-11336490D01*
G01X104119359Y-11274443D01*
G01X104116009Y-11230731D01*
G01X104115840Y-11222656D01*
G01X104115840Y-11222656D01*
G01X104116938Y-11115258D01*
G01X104117625Y-11038130D01*
G01X104117998Y-10987148D01*
G01X104118152Y-10958190D01*
G01X104118184Y-10947132D01*
G01X104118184Y-10946680D01*
G01X104118184Y-10946680D01*
G01X104069157Y-10950417D01*
G01X104009309Y-10955223D01*
G01X104006270Y-10955469D01*
G01X104006270Y-10955469D01*
G01X104002754Y-10925000D01*
G37*
G36*
G01X104424629Y-10925000D02*
G01X104424629Y-10925000D01*
G01X104442500Y-10889844D01*
G01X104442500Y-10889844D01*
G01X104499507Y-10882279D01*
G01X104503731Y-10882227D01*
G01X104537715Y-10882227D01*
G01X104537715Y-10882227D01*
G01X104534224Y-10803459D01*
G01X104530896Y-10756480D01*
G01X104530098Y-10747461D01*
G01X104530098Y-10747461D01*
G01X104569942Y-10743946D01*
G01X104569942Y-10743946D01*
G01X104624213Y-10774866D01*
G01X104627364Y-10789649D01*
G01X104627364Y-10789649D01*
G01X104624739Y-10847961D01*
G01X104622676Y-10883399D01*
G01X104622676Y-10883399D01*
G01X104718440Y-10882392D01*
G01X104780586Y-10880176D01*
G01X104814168Y-10877960D01*
G01X104824239Y-10876953D01*
G01X104824239Y-10876953D01*
G01X104824239Y-10876953D01*
G01X104828926Y-10905078D01*
G01X104828926Y-10905078D01*
G01X104816329Y-10937305D01*
G01X104816329Y-10937305D01*
G01X104776192Y-10946680D01*
G01X104776192Y-10946680D01*
G01X104718247Y-10947499D01*
G01X104652745Y-10947806D01*
G01X104620367Y-10947852D01*
G01X104620332Y-10947852D01*
G01X104620332Y-10947852D01*
G01X104619234Y-11022049D01*
G01X104618547Y-11092726D01*
G01X104618175Y-11153446D01*
G01X104618021Y-11197770D01*
G01X104617989Y-11219260D01*
G01X104617989Y-11220313D01*
G01X104617989Y-11220313D01*
G01X104624914Y-11306013D01*
G01X104636943Y-11347473D01*
G01X104641426Y-11355957D01*
G01X104641426Y-11355957D01*
G01X104696494Y-11386067D01*
G01X104718770Y-11388477D01*
G01X104718770Y-11388477D01*
G01X104783406Y-11368680D01*
G01X104804903Y-11352149D01*
G01X104804903Y-11352149D01*
G01X104826582Y-11395508D01*
G01X104826582Y-11395508D01*
G01X104795850Y-11436064D01*
G01X104795528Y-11436231D01*
G01X104795528Y-11436231D01*
G01X104733820Y-11451092D01*
G01X104719942Y-11451758D01*
G01X104719942Y-11451758D01*
G01X104641670Y-11437881D01*
G01X104595877Y-11411304D01*
G01X104579223Y-11394604D01*
G01X104579024Y-11394336D01*
G01X104579024Y-11394336D01*
G01X104553134Y-11336490D01*
G01X104541234Y-11274443D01*
G01X104537884Y-11230731D01*
G01X104537715Y-11222656D01*
G01X104537715Y-11222656D01*
G01X104538813Y-11115258D01*
G01X104539500Y-11038130D01*
G01X104539873Y-10987148D01*
G01X104540027Y-10958190D01*
G01X104540059Y-10947132D01*
G01X104540059Y-10946680D01*
G01X104540059Y-10946680D01*
G01X104491032Y-10950417D01*
G01X104431184Y-10955223D01*
G01X104428145Y-10955469D01*
G01X104428145Y-10955469D01*
G01X104424629Y-10925000D01*
G37*
G36*
G01X104900411Y-11161719D02*
G01X104900411Y-11161719D01*
G01X104909340Y-11082536D01*
G01X104929991Y-11020209D01*
G01X104953152Y-10976534D01*
G01X104969617Y-10953309D01*
G01X104972481Y-10949903D01*
G01X104972481Y-10949903D01*
G01X105029839Y-10905032D01*
G01X105089222Y-10881168D01*
G01X105137265Y-10871678D01*
G01X105160603Y-10869927D01*
G01X105161153Y-10869922D01*
G01X105161153Y-10869922D01*
G01X105237645Y-10881531D01*
G01X105296103Y-10907514D01*
G01X105334387Y-10934603D01*
G01X105350361Y-10949529D01*
G01X105350704Y-10949903D01*
G01X105350704Y-10949903D01*
G01X105388419Y-11008263D01*
G01X105409876Y-11069947D01*
G01X105419660Y-11123218D01*
G01X105422357Y-11156341D01*
G01X105422481Y-11161719D01*
G01X105422481Y-11161719D01*
G01X105412836Y-11243996D01*
G01X105390890Y-11307610D01*
G01X105367120Y-11350637D01*
G01X105352008Y-11371151D01*
G01X105350704Y-11372656D01*
G01X105350704Y-11372656D01*
G01X105293340Y-11417034D01*
G01X105233663Y-11440636D01*
G01X105185258Y-11450022D01*
G01X105161708Y-11451753D01*
G01X105161153Y-11451758D01*
G01X105161153Y-11451758D01*
G01X105085275Y-11440276D01*
G01X105027072Y-11414579D01*
G01X104988827Y-11387788D01*
G01X104972825Y-11373026D01*
G01X104972481Y-11372656D01*
G01X104972481Y-11372656D01*
G01X104934612Y-11314758D01*
G01X104913067Y-11253337D01*
G01X104903243Y-11200185D01*
G01X104900535Y-11167095D01*
G01X104900411Y-11161719D01*
G37*
%LPC*%
G36*
G01X104984786Y-11144727D02*
G01X104984786Y-11144727D01*
G01X104993697Y-11222475D01*
G01X105012249Y-11279485D01*
G01X105028172Y-11311281D01*
G01X105031368Y-11316406D01*
G01X105031368Y-11316406D01*
G01X105085142Y-11364342D01*
G01X105137008Y-11382267D01*
G01X105161128Y-11384961D01*
G01X105161153Y-11384961D01*
G01X105161153Y-11384961D01*
G01X105235138Y-11369113D01*
G01X105279430Y-11340861D01*
G01X105291817Y-11328711D01*
G01X105291817Y-11328711D01*
G01X105323953Y-11267492D01*
G01X105336505Y-11209038D01*
G01X105338689Y-11179153D01*
G01X105338692Y-11178711D01*
G01X105338692Y-11178711D01*
G01X105329501Y-11100851D01*
G01X105310365Y-11043608D01*
G01X105293941Y-11011612D01*
G01X105290645Y-11006445D01*
G01X105290645Y-11006445D01*
G01X105236294Y-10958100D01*
G01X105184884Y-10940022D01*
G01X105161177Y-10937305D01*
G01X105161153Y-10937305D01*
G01X105161153Y-10937305D01*
G01X105087332Y-10953318D01*
G01X105043335Y-10981864D01*
G01X105031075Y-10994141D01*
G01X105031075Y-10994141D01*
G01X104999340Y-11055762D01*
G01X104986945Y-11114373D01*
G01X104984789Y-11144285D01*
G01X104984786Y-11144727D01*
G37*
%LPD*%
G36*
G01X105548457Y-10888086D02*
G01X105548457Y-10888086D01*
G01X105591817Y-10878711D01*
G01X105591817Y-10878711D01*
G01X105641876Y-10913061D01*
G01X105646895Y-10938477D01*
G01X105646895Y-10938477D01*
G01X105704976Y-10902661D01*
G01X105735372Y-10889258D01*
G01X105735372Y-10889258D01*
G01X105735372Y-10889258D01*
G01X105804512Y-10872339D01*
G01X105834981Y-10869922D01*
G01X105834981Y-10869922D01*
G01X105834981Y-10869922D01*
G01X105909381Y-10887746D01*
G01X105951959Y-10922645D01*
G01X105968056Y-10946760D01*
G01X105968575Y-10947852D01*
G01X105968575Y-10947852D01*
G01X106022533Y-10910024D01*
G01X106058491Y-10893018D01*
G01X106059102Y-10892774D01*
G01X106059102Y-10892774D01*
G01X106129630Y-10873724D01*
G01X106167463Y-10869945D01*
G01X106168965Y-10869922D01*
G01X106168965Y-10869922D01*
G01X106239296Y-10886395D01*
G01X106272996Y-10908464D01*
G01X106274727Y-10910059D01*
G01X106274727Y-10910059D01*
G01X106305267Y-10967715D01*
G01X106314734Y-11023621D01*
G01X106315450Y-11039258D01*
G01X106315450Y-11039258D01*
G01X106314180Y-11093473D01*
G01X106313399Y-11125684D01*
G01X106313399Y-11125684D01*
G01X106311791Y-11206867D01*
G01X106311365Y-11247943D01*
G01X106311348Y-11253125D01*
G01X106311348Y-11253125D01*
G01X106315271Y-11335728D01*
G01X106323439Y-11395697D01*
G01X106330449Y-11428864D01*
G01X106331856Y-11434180D01*
G01X106331856Y-11434180D01*
G01X106284981Y-11443555D01*
G01X106284981Y-11443555D01*
G01X106240157Y-11429785D01*
G01X106240157Y-11429785D01*
G01X106226387Y-11382617D01*
G01X106226387Y-11382617D01*
G01X106226387Y-11382617D01*
G01X106227191Y-11325627D01*
G01X106228766Y-11259183D01*
G01X106229854Y-11219106D01*
G01X106229903Y-11217383D01*
G01X106229903Y-11217383D01*
G01X106232453Y-11122209D01*
G01X106233323Y-11079964D01*
G01X106233418Y-11071485D01*
G01X106233418Y-11071485D01*
G01X106220620Y-10998205D01*
G01X106205585Y-10970472D01*
G01X106205293Y-10970117D01*
G01X106205293Y-10970117D01*
G01X106148566Y-10939251D01*
G01X106131465Y-10937305D01*
G01X106131465Y-10937305D01*
G01X106066553Y-10951778D01*
G01X106012049Y-10980117D01*
G01X105983770Y-10999699D01*
G01X105982637Y-11000586D01*
G01X105982637Y-11000586D01*
G01X105983825Y-11092196D01*
G01X105984524Y-11161413D01*
G01X105984862Y-11208792D01*
G01X105984971Y-11234885D01*
G01X105984981Y-11240820D01*
G01X105984981Y-11240820D01*
G01X105986258Y-11323826D01*
G01X105989018Y-11387692D01*
G01X105991654Y-11427534D01*
G01X105992598Y-11438867D01*
G01X105992598Y-11438867D01*
G01X105951582Y-11442383D01*
G01X105951582Y-11442383D01*
G01X105900191Y-11410185D01*
G01X105897676Y-11396680D01*
G01X105897676Y-11396680D01*
G01X105899434Y-11348340D01*
G01X105899434Y-11348340D01*
G01X105901295Y-11284405D01*
G01X105902276Y-11234466D01*
G01X105902364Y-11229102D01*
G01X105902364Y-11229102D01*
G01X105903167Y-11157458D01*
G01X105903481Y-11099250D01*
G01X105903536Y-11071873D01*
G01X105903536Y-11071485D01*
G01X105903536Y-11071485D01*
G01X105884621Y-10989503D01*
G01X105844487Y-10950365D01*
G01X105808042Y-10938225D01*
G01X105798067Y-10937305D01*
G01X105798067Y-10937305D01*
G01X105733941Y-10952449D01*
G01X105679758Y-10982099D01*
G01X105651543Y-11002588D01*
G01X105650411Y-11003516D01*
G01X105650411Y-11003516D01*
G01X105651642Y-11098562D01*
G01X105652343Y-11168585D01*
G01X105652662Y-11214595D01*
G01X105652750Y-11237604D01*
G01X105652754Y-11240820D01*
G01X105652754Y-11240820D01*
G01X105653933Y-11323826D01*
G01X105656481Y-11387692D01*
G01X105658914Y-11427534D01*
G01X105659786Y-11438867D01*
G01X105659786Y-11438867D01*
G01X105619356Y-11442383D01*
G01X105619356Y-11442383D01*
G01X105567965Y-11410185D01*
G01X105565450Y-11396680D01*
G01X105565450Y-11396680D01*
G01X105567220Y-11341907D01*
G01X105568379Y-11308496D01*
G01X105568379Y-11308496D01*
G01X105570347Y-11233533D01*
G01X105571148Y-11173688D01*
G01X105571308Y-11143569D01*
G01X105571309Y-11142383D01*
G01X105571309Y-11142383D01*
G01X105568932Y-11040336D01*
G01X105563265Y-10967821D01*
G01X105556501Y-10920899D01*
G01X105550834Y-10895633D01*
G01X105548457Y-10888086D01*
G01X105548457Y-10888086D01*
G37*
G36*
G01X106727950Y-11356250D02*
G01X106727950Y-11356250D01*
G01X106765927Y-11312147D01*
G01X106781856Y-11305860D01*
G01X106781856Y-11305860D01*
G01X106822757Y-11355156D01*
G01X106838985Y-11364746D01*
G01X106838985Y-11364746D01*
G01X106905137Y-11382726D01*
G01X106934200Y-11384961D01*
G01X106934200Y-11384961D01*
G01X107001708Y-11370817D01*
G01X107017696Y-11362110D01*
G01X107017696Y-11362110D01*
G01X107048012Y-11307234D01*
G01X107049629Y-11291211D01*
G01X107049629Y-11291211D01*
G01X107022331Y-11239434D01*
G01X107017696Y-11236133D01*
G01X107017696Y-11236133D01*
G01X106957580Y-11211152D01*
G01X106940352Y-11206543D01*
G01X106940352Y-11206543D01*
G01X106873774Y-11189578D01*
G01X106849239Y-11182520D01*
G01X106849239Y-11182520D01*
G01X106790879Y-11149265D01*
G01X106771602Y-11130371D01*
G01X106771602Y-11130371D01*
G01X106744423Y-11068910D01*
G01X106739675Y-11029376D01*
G01X106739668Y-11028711D01*
G01X106739668Y-11028711D01*
G01X106759663Y-10961198D01*
G01X106792512Y-10921881D01*
G01X106801485Y-10914453D01*
G01X106801485Y-10914453D01*
G01X106866429Y-10882725D01*
G01X106920373Y-10871381D01*
G01X106941231Y-10869922D01*
G01X106941231Y-10869922D01*
G01X107009848Y-10880263D01*
G01X107049429Y-10894116D01*
G01X107051680Y-10895117D01*
G01X107051680Y-10895117D01*
G01X107100604Y-10942792D01*
G01X107105879Y-10964844D01*
G01X107105879Y-10964844D01*
G01X107067902Y-11009530D01*
G01X107051973Y-11015235D01*
G01X107051973Y-11015235D01*
G01X107011056Y-10967443D01*
G01X106997774Y-10958985D01*
G01X106997774Y-10958985D01*
G01X106933378Y-10939029D01*
G01X106912520Y-10937305D01*
G01X106912520Y-10937305D01*
G01X106850710Y-10953897D01*
G01X106841622Y-10959570D01*
G01X106841622Y-10959570D01*
G01X106812546Y-11012932D01*
G01X106811739Y-11022266D01*
G01X106811739Y-11022266D01*
G01X106838683Y-11074753D01*
G01X106843672Y-11078516D01*
G01X106843672Y-11078516D01*
G01X106902988Y-11104735D01*
G01X106921016Y-11109863D01*
G01X106921016Y-11109863D01*
G01X106986617Y-11127082D01*
G01X107012129Y-11134473D01*
G01X107012129Y-11134473D01*
G01X107071263Y-11167077D01*
G01X107089766Y-11184278D01*
G01X107089766Y-11184278D01*
G01X107117708Y-11244812D01*
G01X107121700Y-11278320D01*
G01X107121700Y-11278320D01*
G01X107121700Y-11278320D01*
G01X107105278Y-11350720D01*
G01X107075266Y-11394045D01*
G01X107060469Y-11407520D01*
G01X107060469Y-11407520D01*
G01X106996154Y-11438453D01*
G01X106939899Y-11450019D01*
G01X106914889Y-11451758D01*
G01X106914864Y-11451758D01*
G01X106914864Y-11451758D01*
G01X106840693Y-11442850D01*
G01X106794048Y-11428216D01*
G01X106784786Y-11424219D01*
G01X106784786Y-11424219D01*
G01X106733482Y-11376725D01*
G01X106727950Y-11356250D01*
G37*
G36*
G01X107224239Y-11161719D02*
G01X107224239Y-11161719D01*
G01X107233169Y-11082536D01*
G01X107253819Y-11020209D01*
G01X107276980Y-10976534D01*
G01X107293445Y-10953309D01*
G01X107296309Y-10949903D01*
G01X107296309Y-10949903D01*
G01X107353667Y-10905032D01*
G01X107413050Y-10881168D01*
G01X107461093Y-10871678D01*
G01X107484432Y-10869927D01*
G01X107484981Y-10869922D01*
G01X107484981Y-10869922D01*
G01X107561473Y-10881531D01*
G01X107619931Y-10907514D01*
G01X107658216Y-10934603D01*
G01X107674189Y-10949529D01*
G01X107674532Y-10949903D01*
G01X107674532Y-10949903D01*
G01X107712247Y-11008263D01*
G01X107733704Y-11069947D01*
G01X107743488Y-11123218D01*
G01X107746185Y-11156341D01*
G01X107746309Y-11161719D01*
G01X107746309Y-11161719D01*
G01X107736665Y-11243996D01*
G01X107714718Y-11307610D01*
G01X107690948Y-11350637D01*
G01X107675836Y-11371151D01*
G01X107674532Y-11372656D01*
G01X107674532Y-11372656D01*
G01X107617168Y-11417034D01*
G01X107557491Y-11440636D01*
G01X107509086Y-11450022D01*
G01X107485536Y-11451753D01*
G01X107484981Y-11451758D01*
G01X107484981Y-11451758D01*
G01X107409103Y-11440276D01*
G01X107350900Y-11414579D01*
G01X107312655Y-11387788D01*
G01X107296653Y-11373026D01*
G01X107296309Y-11372656D01*
G01X107296309Y-11372656D01*
G01X107258440Y-11314758D01*
G01X107236895Y-11253337D01*
G01X107227071Y-11200185D01*
G01X107224363Y-11167095D01*
G01X107224239Y-11161719D01*
G37*
%LPC*%
G36*
G01X107308614Y-11144727D02*
G01X107308614Y-11144727D01*
G01X107317525Y-11222475D01*
G01X107336077Y-11279485D01*
G01X107352000Y-11311281D01*
G01X107355196Y-11316406D01*
G01X107355196Y-11316406D01*
G01X107408970Y-11364342D01*
G01X107460836Y-11382267D01*
G01X107484956Y-11384961D01*
G01X107484981Y-11384961D01*
G01X107484981Y-11384961D01*
G01X107558966Y-11369113D01*
G01X107603258Y-11340861D01*
G01X107615645Y-11328711D01*
G01X107615645Y-11328711D01*
G01X107647781Y-11267492D01*
G01X107660333Y-11209038D01*
G01X107662517Y-11179153D01*
G01X107662520Y-11178711D01*
G01X107662520Y-11178711D01*
G01X107653329Y-11100851D01*
G01X107634193Y-11043608D01*
G01X107617769Y-11011612D01*
G01X107614473Y-11006445D01*
G01X107614473Y-11006445D01*
G01X107560123Y-10958100D01*
G01X107508712Y-10940022D01*
G01X107485005Y-10937305D01*
G01X107484981Y-10937305D01*
G01X107484981Y-10937305D01*
G01X107411160Y-10953318D01*
G01X107367164Y-10981864D01*
G01X107354903Y-10994141D01*
G01X107354903Y-10994141D01*
G01X107323168Y-11055762D01*
G01X107310773Y-11114373D01*
G01X107308617Y-11144285D01*
G01X107308614Y-11144727D01*
G37*
%LPD*%
G36*
G01X107872286Y-10551758D02*
G01X107872286Y-10551758D01*
G01X107914473Y-10548242D01*
G01X107914473Y-10548242D01*
G01X107966761Y-10579805D01*
G01X107969551Y-10593946D01*
G01X107969551Y-10593946D01*
G01X107968011Y-10650687D01*
G01X107967793Y-10658106D01*
G01X107967793Y-10658106D01*
G01X107965951Y-10722525D01*
G01X107964260Y-10783741D01*
G01X107963411Y-10814969D01*
G01X107963399Y-10815430D01*
G01X107963399Y-10815430D01*
G01X107961831Y-10889936D01*
G01X107961054Y-10954009D01*
G01X107960790Y-10997454D01*
G01X107960762Y-11010547D01*
G01X107960762Y-11197461D01*
G01X107960762Y-11197461D01*
G01X107963362Y-11287058D01*
G01X107969469Y-11355210D01*
G01X107976544Y-11402177D01*
G01X107982046Y-11428221D01*
G01X107983614Y-11434180D01*
G01X107983614Y-11434180D01*
G01X107938497Y-11443555D01*
G01X107938497Y-11443555D01*
G01X107892207Y-11429199D01*
G01X107892207Y-11429199D01*
G01X107879317Y-11381445D01*
G01X107879317Y-11381445D01*
G01X107879317Y-11381445D01*
G01X107879615Y-11331353D01*
G01X107880174Y-11263978D01*
G01X107880488Y-11228847D01*
G01X107880489Y-11228809D01*
G01X107880489Y-11228809D01*
G01X107881205Y-11139596D01*
G01X107881547Y-11078343D01*
G01X107881653Y-11044946D01*
G01X107881661Y-11038086D01*
G01X107881661Y-10898633D01*
G01X107881661Y-10898633D01*
G01X107881091Y-10785547D01*
G01X107879636Y-10698902D01*
G01X107877674Y-10635551D01*
G01X107875586Y-10592352D01*
G01X107873750Y-10566159D01*
G01X107872548Y-10553829D01*
G01X107872286Y-10551758D01*
G37*
G36*
G01X108109590Y-11161719D02*
G01X108109590Y-11161719D01*
G01X108118738Y-11083079D01*
G01X108139892Y-11020935D01*
G01X108163618Y-10977231D01*
G01X108180484Y-10953916D01*
G01X108183418Y-10950488D01*
G01X108183418Y-10950488D01*
G01X108242397Y-10903911D01*
G01X108300166Y-10879993D01*
G01X108344093Y-10871181D01*
G01X108361543Y-10869922D01*
G01X108361543Y-10869922D01*
G01X108361543Y-10869922D01*
G01X108432807Y-10881478D01*
G01X108484496Y-10902078D01*
G01X108500997Y-10910938D01*
G01X108500997Y-10910938D01*
G01X108502859Y-10832337D01*
G01X108503327Y-10790690D01*
G01X108503340Y-10786133D01*
G01X108503340Y-10786133D01*
G01X108502179Y-10697803D01*
G01X108499492Y-10628815D01*
G01X108496480Y-10580819D01*
G01X108494338Y-10555460D01*
G01X108493965Y-10551758D01*
G01X108493965Y-10551758D01*
G01X108536739Y-10548242D01*
G01X108536739Y-10548242D01*
G01X108588130Y-10580441D01*
G01X108590645Y-10593946D01*
G01X108590645Y-10593946D01*
G01X108590146Y-10635266D01*
G01X108588939Y-10698801D01*
G01X108587458Y-10768058D01*
G01X108586137Y-10826542D01*
G01X108585410Y-10857760D01*
G01X108585372Y-10859375D01*
G01X108585372Y-10859375D01*
G01X108583224Y-10956055D01*
G01X108581756Y-11033567D01*
G01X108580840Y-11092908D01*
G01X108580344Y-11135069D01*
G01X108580140Y-11161044D01*
G01X108580098Y-11171827D01*
G01X108580098Y-11172266D01*
G01X108580098Y-11172266D01*
G01X108582259Y-11271980D01*
G01X108587490Y-11344798D01*
G01X108593908Y-11393903D01*
G01X108599633Y-11422479D01*
G01X108602784Y-11433709D01*
G01X108602950Y-11434180D01*
G01X108602950Y-11434180D01*
G01X108557247Y-11443555D01*
G01X108557247Y-11443555D01*
G01X108509446Y-11407438D01*
G01X108504512Y-11383789D01*
G01X108504512Y-11383789D01*
G01X108441441Y-11427431D01*
G01X108386098Y-11446722D01*
G01X108352717Y-11451609D01*
G01X108348653Y-11451758D01*
G01X108347481Y-11451758D01*
G01X108347481Y-11451758D01*
G01X108276055Y-11437047D01*
G01X108221046Y-11405831D01*
G01X108187854Y-11377485D01*
G01X108180489Y-11369727D01*
G01X108180489Y-11369727D01*
G01X108141958Y-11308219D01*
G01X108120754Y-11245167D01*
G01X108111702Y-11192976D01*
G01X108109627Y-11164051D01*
G01X108109590Y-11161719D01*
G37*
%LPC*%
G36*
G01X108193965Y-11144727D02*
G01X108193965Y-11144727D01*
G01X108203605Y-11224678D01*
G01X108223674Y-11282701D01*
G01X108240899Y-11314782D01*
G01X108244356Y-11319922D01*
G01X108244356Y-11319922D01*
G01X108301049Y-11369650D01*
G01X108349430Y-11386626D01*
G01X108366231Y-11388477D01*
G01X108366231Y-11388477D01*
G01X108432081Y-11371007D01*
G01X108481081Y-11338308D01*
G01X108500977Y-11319942D01*
G01X108500997Y-11319922D01*
G01X108500997Y-11319922D01*
G01X108500092Y-11198073D01*
G01X108499457Y-11108304D01*
G01X108499043Y-11045833D01*
G01X108498803Y-11005878D01*
G01X108498689Y-10983658D01*
G01X108498655Y-10974391D01*
G01X108498653Y-10973047D01*
G01X108498653Y-10973047D01*
G01X108429102Y-10945418D01*
G01X108383105Y-10937685D01*
G01X108375020Y-10937305D01*
G01X108375020Y-10937305D01*
G01X108302277Y-10952548D01*
G01X108257096Y-10980406D01*
G01X108242598Y-10994141D01*
G01X108242598Y-10994141D01*
G01X108209257Y-11055762D01*
G01X108196234Y-11114373D01*
G01X108193968Y-11144285D01*
G01X108193965Y-11144727D01*
G37*
%LPD*%
G36*
G01X108728340Y-11164063D02*
G01X108728340Y-11164063D01*
G01X108738250Y-11080118D01*
G01X108761167Y-11015904D01*
G01X108786871Y-10972096D01*
G01X108805142Y-10949366D01*
G01X108808321Y-10946094D01*
G01X108808321Y-10946094D01*
G01X108871405Y-10902057D01*
G01X108932210Y-10879444D01*
G01X108978018Y-10871112D01*
G01X108996114Y-10869922D01*
G01X108996114Y-10869922D01*
G01X108996114Y-10869922D01*
G01X109071585Y-10883294D01*
G01X109118525Y-10907131D01*
G01X109132051Y-10917383D01*
G01X109132051Y-10917383D01*
G01X109172936Y-10977074D01*
G01X109183782Y-11021689D01*
G01X109184200Y-11028711D01*
G01X109184200Y-11028711D01*
G01X109172667Y-11094658D01*
G01X109167500Y-11106641D01*
G01X109167500Y-11106641D01*
G01X109127991Y-11152543D01*
G01X109123848Y-11155567D01*
G01X109123848Y-11155567D01*
G01X109064730Y-11178781D01*
G01X109045918Y-11183106D01*
G01X109045918Y-11183106D01*
G01X108976705Y-11192737D01*
G01X108945723Y-11195117D01*
G01X108945723Y-11195117D01*
G01X108945723Y-11195117D01*
G01X108880571Y-11196929D01*
G01X108826701Y-11197436D01*
G01X108816231Y-11197461D01*
G01X108816231Y-11197461D01*
G01X108834304Y-11272424D01*
G01X108857513Y-11319207D01*
G01X108868086Y-11334278D01*
G01X108868086Y-11334278D01*
G01X108924891Y-11372882D01*
G01X108974594Y-11384260D01*
G01X108986153Y-11384961D01*
G01X108986153Y-11384961D01*
G01X109061544Y-11368147D01*
G01X109102358Y-11337417D01*
G01X109113887Y-11322266D01*
G01X109113887Y-11322266D01*
G01X109160051Y-11364978D01*
G01X109161348Y-11372656D01*
G01X109161348Y-11372656D01*
G01X109126037Y-11420160D01*
G01X109106856Y-11430078D01*
G01X109106856Y-11430078D01*
G01X109038862Y-11447305D01*
G01X108991062Y-11451632D01*
G01X108984981Y-11451758D01*
G01X108984981Y-11451758D01*
G01X108908388Y-11440634D01*
G01X108850142Y-11416162D01*
G01X108813100Y-11391690D01*
G01X108800118Y-11380567D01*
G01X108800118Y-11380567D01*
G01X108800118Y-11380567D01*
G01X108762402Y-11325154D01*
G01X108740946Y-11262237D01*
G01X108731161Y-11205832D01*
G01X108728464Y-11169961D01*
G01X108728340Y-11164063D01*
G37*
%LPC*%
G36*
G01X108815059Y-11137695D02*
G01X108815059Y-11137695D01*
G01X108885318Y-11136953D01*
G01X108901192Y-11136524D01*
G01X108901192Y-11136524D01*
G01X108964151Y-11130895D01*
G01X108976778Y-11129199D01*
G01X108976778Y-11129199D01*
G01X109037850Y-11114272D01*
G01X109042989Y-11112207D01*
G01X109042989Y-11112207D01*
G01X109084251Y-11081206D01*
G01X109084297Y-11081153D01*
G01X109084297Y-11081153D01*
G01X109101577Y-11031481D01*
G01X109101582Y-11031055D01*
G01X109101582Y-11031055D01*
G01X109078428Y-10973321D01*
G01X109069942Y-10964258D01*
G01X109069942Y-10964258D01*
G01X109010785Y-10938071D01*
G01X108991426Y-10936133D01*
G01X108991426Y-10936133D01*
G01X108921605Y-10951361D01*
G01X108878192Y-10977100D01*
G01X108868379Y-10985352D01*
G01X108868379Y-10985352D01*
G01X108833613Y-11041988D01*
G01X108818614Y-11101638D01*
G01X108815109Y-11136233D01*
G01X108815059Y-11137695D01*
G37*
%LPD*%
G36*
G01X109310176Y-10882227D02*
G01X109310176Y-10882227D01*
G01X109351192Y-10878711D01*
G01X109351192Y-10878711D01*
G01X109400728Y-10911728D01*
G01X109402754Y-10923828D01*
G01X109402754Y-10923828D01*
G01X109402168Y-10940235D01*
G01X109402168Y-10940235D01*
G01X109401582Y-10966016D01*
G01X109401582Y-10966016D01*
G01X109445739Y-10916128D01*
G01X109465743Y-10899512D01*
G01X109465743Y-10899512D01*
G01X109527985Y-10871961D01*
G01X109545137Y-10869922D01*
G01X109545137Y-10869922D01*
G01X109588497Y-10882520D01*
G01X109588497Y-10882520D01*
G01X109604317Y-10916797D01*
G01X109604317Y-10916797D01*
G01X109581942Y-10968479D01*
G01X109580293Y-10970703D01*
G01X109580293Y-10970703D01*
G01X109526130Y-10948063D01*
G01X109522286Y-10947852D01*
G01X109522286Y-10947852D01*
G01X109463897Y-10968188D01*
G01X109455196Y-10974219D01*
G01X109455196Y-10974219D01*
G01X109410902Y-11023903D01*
G01X109398653Y-11043945D01*
G01X109398653Y-11043945D01*
G01X109397833Y-11100994D01*
G01X109397527Y-11164820D01*
G01X109397481Y-11196256D01*
G01X109397481Y-11196289D01*
G01X109397481Y-11196289D01*
G01X109400081Y-11286941D01*
G01X109406188Y-11355478D01*
G01X109413262Y-11402421D01*
G01X109418765Y-11428291D01*
G01X109420332Y-11434180D01*
G01X109420332Y-11434180D01*
G01X109374629Y-11443555D01*
G01X109374629Y-11443555D01*
G01X109328047Y-11428028D01*
G01X109328047Y-11428028D01*
G01X109328047Y-11428028D01*
G01X109316044Y-11375868D01*
G01X109316036Y-11375000D01*
G01X109316036Y-11375000D01*
G01X109316674Y-11316641D01*
G01X109317207Y-11280371D01*
G01X109317207Y-11280371D01*
G01X109318162Y-11202329D01*
G01X109318376Y-11165347D01*
G01X109318379Y-11162891D01*
G01X109318379Y-11162891D01*
G01X109317678Y-11076548D01*
G01X109315955Y-11004012D01*
G01X109313787Y-10946904D01*
G01X109311745Y-10906844D01*
G01X109310406Y-10885450D01*
G01X109310176Y-10882227D01*
G37*
G36*
G01X109688106Y-10888086D02*
G01X109688106Y-10888086D01*
G01X109731465Y-10878711D01*
G01X109731465Y-10878711D01*
G01X109781524Y-10913061D01*
G01X109786543Y-10938477D01*
G01X109786543Y-10938477D01*
G01X109844624Y-10902661D01*
G01X109875020Y-10889258D01*
G01X109875020Y-10889258D01*
G01X109875020Y-10889258D01*
G01X109944161Y-10872339D01*
G01X109974629Y-10869922D01*
G01X109974629Y-10869922D01*
G01X109974629Y-10869922D01*
G01X110049030Y-10887746D01*
G01X110091608Y-10922645D01*
G01X110107705Y-10946760D01*
G01X110108223Y-10947852D01*
G01X110108223Y-10947852D01*
G01X110162182Y-10910024D01*
G01X110198139Y-10893018D01*
G01X110198750Y-10892774D01*
G01X110198750Y-10892774D01*
G01X110269278Y-10873724D01*
G01X110307112Y-10869945D01*
G01X110308614Y-10869922D01*
G01X110308614Y-10869922D01*
G01X110378945Y-10886395D01*
G01X110412645Y-10908464D01*
G01X110414375Y-10910059D01*
G01X110414375Y-10910059D01*
G01X110444916Y-10967715D01*
G01X110454382Y-11023621D01*
G01X110455098Y-11039258D01*
G01X110455098Y-11039258D01*
G01X110453829Y-11093473D01*
G01X110453047Y-11125684D01*
G01X110453047Y-11125684D01*
G01X110451440Y-11206867D01*
G01X110451013Y-11247943D01*
G01X110450997Y-11253125D01*
G01X110450997Y-11253125D01*
G01X110454920Y-11335728D01*
G01X110463087Y-11395697D01*
G01X110470097Y-11428864D01*
G01X110471504Y-11434180D01*
G01X110471504Y-11434180D01*
G01X110424629Y-11443555D01*
G01X110424629Y-11443555D01*
G01X110379805Y-11429785D01*
G01X110379805Y-11429785D01*
G01X110366036Y-11382617D01*
G01X110366036Y-11382617D01*
G01X110366036Y-11382617D01*
G01X110366840Y-11325627D01*
G01X110368414Y-11259183D01*
G01X110369502Y-11219106D01*
G01X110369551Y-11217383D01*
G01X110369551Y-11217383D01*
G01X110372101Y-11122209D01*
G01X110372972Y-11079964D01*
G01X110373067Y-11071485D01*
G01X110373067Y-11071485D01*
G01X110360268Y-10998205D01*
G01X110345233Y-10970472D01*
G01X110344942Y-10970117D01*
G01X110344942Y-10970117D01*
G01X110288214Y-10939251D01*
G01X110271114Y-10937305D01*
G01X110271114Y-10937305D01*
G01X110206201Y-10951778D01*
G01X110151698Y-10980117D01*
G01X110123418Y-10999699D01*
G01X110122286Y-11000586D01*
G01X110122286Y-11000586D01*
G01X110123474Y-11092196D01*
G01X110124172Y-11161413D01*
G01X110124511Y-11208792D01*
G01X110124620Y-11234885D01*
G01X110124629Y-11240820D01*
G01X110124629Y-11240820D01*
G01X110125906Y-11323826D01*
G01X110128666Y-11387692D01*
G01X110131303Y-11427534D01*
G01X110132247Y-11438867D01*
G01X110132247Y-11438867D01*
G01X110091231Y-11442383D01*
G01X110091231Y-11442383D01*
G01X110039840Y-11410185D01*
G01X110037325Y-11396680D01*
G01X110037325Y-11396680D01*
G01X110039082Y-11348340D01*
G01X110039082Y-11348340D01*
G01X110040944Y-11284405D01*
G01X110041925Y-11234466D01*
G01X110042012Y-11229102D01*
G01X110042012Y-11229102D01*
G01X110042816Y-11157458D01*
G01X110043129Y-11099250D01*
G01X110043184Y-11071873D01*
G01X110043184Y-11071485D01*
G01X110043184Y-11071485D01*
G01X110024270Y-10989503D01*
G01X109984135Y-10950365D01*
G01X109947691Y-10938225D01*
G01X109937715Y-10937305D01*
G01X109937715Y-10937305D01*
G01X109873589Y-10952449D01*
G01X109819407Y-10982099D01*
G01X109791191Y-11002588D01*
G01X109790059Y-11003516D01*
G01X109790059Y-11003516D01*
G01X109791291Y-11098562D01*
G01X109791991Y-11168585D01*
G01X109792311Y-11214595D01*
G01X109792399Y-11237604D01*
G01X109792403Y-11240820D01*
G01X109792403Y-11240820D01*
G01X109793582Y-11323826D01*
G01X109796129Y-11387692D01*
G01X109798563Y-11427534D01*
G01X109799434Y-11438867D01*
G01X109799434Y-11438867D01*
G01X109759004Y-11442383D01*
G01X109759004Y-11442383D01*
G01X109707613Y-11410185D01*
G01X109705098Y-11396680D01*
G01X109705098Y-11396680D01*
G01X109706869Y-11341907D01*
G01X109708028Y-11308496D01*
G01X109708028Y-11308496D01*
G01X109709995Y-11233533D01*
G01X109710797Y-11173688D01*
G01X109710956Y-11143569D01*
G01X109710957Y-11142383D01*
G01X109710957Y-11142383D01*
G01X109708581Y-11040336D01*
G01X109702914Y-10967821D01*
G01X109696150Y-10920899D01*
G01X109690482Y-10895633D01*
G01X109688106Y-10888086D01*
G01X109688106Y-10888086D01*
G37*
G36*
G01X110597481Y-11283008D02*
G01X110597481Y-11283008D01*
G01X110612697Y-11213438D01*
G01X110626192Y-11193067D01*
G01X110626192Y-11193067D01*
G01X110681249Y-11158286D01*
G01X110705293Y-11149414D01*
G01X110705293Y-11149414D01*
G01X110769840Y-11135775D01*
G01X110836436Y-11126243D01*
G01X110893177Y-11120332D01*
G01X110928157Y-11117555D01*
G01X110933809Y-11117188D01*
G01X110933809Y-11117188D01*
G01X110926710Y-11032255D01*
G01X110914056Y-10987439D01*
G01X110908614Y-10976270D01*
G01X110908614Y-10976270D01*
G01X110855626Y-10944521D01*
G01X110805830Y-10937412D01*
G01X110801387Y-10937305D01*
G01X110801387Y-10937305D01*
G01X110741190Y-10953800D01*
G01X110731954Y-10958692D01*
G01X110731954Y-10958692D01*
G01X110686454Y-11005288D01*
G01X110677754Y-11021094D01*
G01X110677754Y-11021094D01*
G01X110625246Y-10984620D01*
G01X110622676Y-10973047D01*
G01X110622676Y-10973047D01*
G01X110652399Y-10917203D01*
G01X110680391Y-10898047D01*
G01X110680391Y-10898047D01*
G01X110747423Y-10876955D01*
G01X110800981Y-10870416D01*
G01X110814864Y-10869922D01*
G01X110814864Y-10869922D01*
G01X110897174Y-10880259D01*
G01X110947027Y-10900056D01*
G01X110965805Y-10912496D01*
G01X110966036Y-10912695D01*
G01X110966036Y-10912695D01*
G01X110998299Y-10966612D01*
G01X111011446Y-11027647D01*
G01X111014066Y-11064067D01*
G01X111014082Y-11065625D01*
G01X111014082Y-11065625D01*
G01X111013149Y-11123540D01*
G01X111012911Y-11136231D01*
G01X111012911Y-11136231D01*
G01X111011846Y-11209393D01*
G01X111011739Y-11227930D01*
G01X111011739Y-11227930D01*
G01X111015309Y-11318494D01*
G01X111023165Y-11382910D01*
G01X111031020Y-11421399D01*
G01X111034590Y-11434180D01*
G01X111034590Y-11434180D01*
G01X111034590Y-11434180D01*
G01X110987715Y-11443555D01*
G01X110987715Y-11443555D01*
G01X110950508Y-11430957D01*
G01X110950508Y-11430957D01*
G01X110936153Y-11390821D01*
G01X110936153Y-11390821D01*
G01X110870177Y-11430856D01*
G01X110815243Y-11447858D01*
G01X110784926Y-11451697D01*
G01X110782637Y-11451758D01*
G01X110782637Y-11451758D01*
G01X110699783Y-11437324D01*
G01X110646278Y-11401894D01*
G01X110615704Y-11357280D01*
G01X110601645Y-11315289D01*
G01X110597682Y-11287733D01*
G01X110597481Y-11283008D01*
G37*
%LPC*%
G36*
G01X110681856Y-11283008D02*
G01X110681856Y-11283008D01*
G01X110700623Y-11348208D01*
G01X110712911Y-11362696D01*
G01X110712911Y-11362695D01*
G01X110773112Y-11386827D01*
G01X110792012Y-11388477D01*
G01X110792012Y-11388477D01*
G01X110865128Y-11374020D01*
G01X110913445Y-11347598D01*
G01X110929707Y-11334570D01*
G01X110929707Y-11334570D01*
G01X110928537Y-11279664D01*
G01X110928536Y-11278320D01*
G01X110928536Y-11278320D01*
G01X110930863Y-11208941D01*
G01X110932637Y-11178711D01*
G01X110932637Y-11178711D01*
G01X110880573Y-11184559D01*
G01X110880489Y-11184570D01*
G01X110880489Y-11184570D01*
G01X110833321Y-11190430D01*
G01X110833321Y-11190430D01*
G01X110789375Y-11197461D01*
G01X110789375Y-11197461D01*
G01X110754219Y-11207129D01*
G01X110754219Y-11207129D01*
G01X110723165Y-11220606D01*
G01X110723165Y-11220606D01*
G01X110701485Y-11236719D01*
G01X110701485Y-11236719D01*
G01X110685957Y-11256934D01*
G01X110685957Y-11256934D01*
G01X110681856Y-11283008D01*
G37*
%LPD*%
G36*
G01X111148262Y-11356250D02*
G01X111148262Y-11356250D01*
G01X111186240Y-11312147D01*
G01X111202168Y-11305860D01*
G01X111202168Y-11305860D01*
G01X111243069Y-11355156D01*
G01X111259297Y-11364746D01*
G01X111259297Y-11364746D01*
G01X111325449Y-11382726D01*
G01X111354512Y-11384961D01*
G01X111354512Y-11384961D01*
G01X111422021Y-11370817D01*
G01X111438008Y-11362110D01*
G01X111438008Y-11362110D01*
G01X111468324Y-11307234D01*
G01X111469942Y-11291211D01*
G01X111469942Y-11291211D01*
G01X111442643Y-11239434D01*
G01X111438008Y-11236133D01*
G01X111438008Y-11236133D01*
G01X111377892Y-11211152D01*
G01X111360665Y-11206543D01*
G01X111360665Y-11206543D01*
G01X111294086Y-11189578D01*
G01X111269551Y-11182520D01*
G01X111269551Y-11182520D01*
G01X111211191Y-11149265D01*
G01X111191915Y-11130371D01*
G01X111191915Y-11130371D01*
G01X111164735Y-11068910D01*
G01X111159988Y-11029376D01*
G01X111159981Y-11028711D01*
G01X111159981Y-11028711D01*
G01X111179976Y-10961198D01*
G01X111212825Y-10921881D01*
G01X111221797Y-10914453D01*
G01X111221797Y-10914453D01*
G01X111286742Y-10882725D01*
G01X111340685Y-10871381D01*
G01X111361543Y-10869922D01*
G01X111361543Y-10869922D01*
G01X111430160Y-10880263D01*
G01X111469741Y-10894116D01*
G01X111471993Y-10895117D01*
G01X111471993Y-10895117D01*
G01X111520916Y-10942792D01*
G01X111526192Y-10964844D01*
G01X111526192Y-10964844D01*
G01X111488214Y-11009530D01*
G01X111472286Y-11015235D01*
G01X111472286Y-11015235D01*
G01X111431368Y-10967443D01*
G01X111418086Y-10958985D01*
G01X111418086Y-10958985D01*
G01X111353691Y-10939029D01*
G01X111332832Y-10937305D01*
G01X111332832Y-10937305D01*
G01X111271023Y-10953897D01*
G01X111261934Y-10959570D01*
G01X111261934Y-10959570D01*
G01X111232858Y-11012932D01*
G01X111232051Y-11022266D01*
G01X111232051Y-11022266D01*
G01X111258995Y-11074753D01*
G01X111263985Y-11078516D01*
G01X111263985Y-11078516D01*
G01X111323300Y-11104735D01*
G01X111341329Y-11109863D01*
G01X111341329Y-11109863D01*
G01X111406930Y-11127082D01*
G01X111432442Y-11134473D01*
G01X111432442Y-11134473D01*
G01X111491575Y-11167077D01*
G01X111510079Y-11184278D01*
G01X111510079Y-11184278D01*
G01X111538020Y-11244812D01*
G01X111542012Y-11278320D01*
G01X111542012Y-11278320D01*
G01X111542012Y-11278320D01*
G01X111525591Y-11350720D01*
G01X111495579Y-11394045D01*
G01X111480782Y-11407520D01*
G01X111480782Y-11407520D01*
G01X111416466Y-11438453D01*
G01X111360212Y-11450019D01*
G01X111335201Y-11451758D01*
G01X111335176Y-11451758D01*
G01X111335176Y-11451758D01*
G01X111261006Y-11442850D01*
G01X111214360Y-11428216D01*
G01X111205098Y-11424219D01*
G01X111205098Y-11424219D01*
G01X111153794Y-11376725D01*
G01X111148262Y-11356250D01*
G37*
G36*
G01X111662715Y-10551758D02*
G01X111662715Y-10551758D01*
G01X111704903Y-10548242D01*
G01X111704903Y-10548242D01*
G01X111757191Y-10579805D01*
G01X111759981Y-10593946D01*
G01X111759981Y-10593946D01*
G01X111758263Y-10647869D01*
G01X111758223Y-10649024D01*
G01X111758223Y-10649024D01*
G01X111756031Y-10714412D01*
G01X111754236Y-10770094D01*
G01X111753829Y-10782910D01*
G01X111753829Y-10782910D01*
G01X111752096Y-10855866D01*
G01X111751361Y-10915358D01*
G01X111751194Y-10947766D01*
G01X111751192Y-10950195D01*
G01X111751192Y-10950195D01*
G01X111815782Y-10903787D01*
G01X111875044Y-10879956D01*
G01X111918376Y-10871176D01*
G01X111935176Y-10869922D01*
G01X111935176Y-10869922D01*
G01X111935176Y-10869922D01*
G01X112009168Y-10884365D01*
G01X112047953Y-10907396D01*
G01X112053829Y-10912695D01*
G01X112053829Y-10912695D01*
G01X112087400Y-10973449D01*
G01X112094481Y-11015036D01*
G01X112094551Y-11017578D01*
G01X112094551Y-11017578D01*
G01X112080683Y-11089003D01*
G01X112057242Y-11133914D01*
G01X112049727Y-11144141D01*
G01X112049727Y-11144141D01*
G01X111994431Y-11185294D01*
G01X111942719Y-11202912D01*
G01X111924043Y-11206250D01*
G01X111924043Y-11206250D01*
G01X111974201Y-11285211D01*
G01X112003507Y-11326200D01*
G01X112014151Y-11339123D01*
G01X112014278Y-11339258D01*
G01X112014278Y-11339258D01*
G01X112072406Y-11375265D01*
G01X112088692Y-11377930D01*
G01X112088692Y-11377930D01*
G01X112119747Y-11372656D01*
G01X112119747Y-11372656D01*
G01X112130879Y-11407813D01*
G01X112130879Y-11407813D01*
G01X112105684Y-11440625D01*
G01X112105684Y-11440625D01*
G01X112057637Y-11451758D01*
G01X112057637Y-11451758D01*
G01X111995758Y-11429730D01*
G01X111970918Y-11408985D01*
G01X111970918Y-11408985D01*
G01X111940743Y-11372949D01*
G01X111940743Y-11372949D01*
G01X111910933Y-11329996D01*
G01X111910860Y-11329883D01*
G01X111910860Y-11329883D01*
G01X111885665Y-11289453D01*
G01X111885665Y-11289453D01*
G01X111858379Y-11243300D01*
G01X111858125Y-11242871D01*
G01X111858125Y-11242871D01*
G01X111834395Y-11202149D01*
G01X111834395Y-11202149D01*
G01X111802754Y-11176953D01*
G01X111802754Y-11176953D01*
G01X111809200Y-11148242D01*
G01X111809200Y-11148242D01*
G01X111868007Y-11156933D01*
G01X111870137Y-11157031D01*
G01X111870137Y-11157031D01*
G01X111941782Y-11140913D01*
G01X111971694Y-11121076D01*
G01X111972383Y-11120410D01*
G01X111972383Y-11120410D01*
G01X112004911Y-11060454D01*
G01X112008418Y-11035742D01*
G01X112008418Y-11035742D01*
G01X111990080Y-10974806D01*
G01X111983809Y-10966016D01*
G01X111983809Y-10966016D01*
G01X111928270Y-10938536D01*
G01X111914668Y-10937305D01*
G01X111914668Y-10937305D01*
G01X111851446Y-10951814D01*
G01X111829415Y-10961914D01*
G01X111829415Y-10961914D01*
G01X111772448Y-11002639D01*
G01X111751192Y-11023438D01*
G01X111751192Y-11197461D01*
G01X111751192Y-11197461D01*
G01X111753792Y-11287058D01*
G01X111759899Y-11355210D01*
G01X111766973Y-11402177D01*
G01X111772476Y-11428221D01*
G01X111774043Y-11434180D01*
G01X111774043Y-11434180D01*
G01X111728926Y-11443555D01*
G01X111728926Y-11443555D01*
G01X111682637Y-11429199D01*
G01X111682637Y-11429199D01*
G01X111669747Y-11381445D01*
G01X111669747Y-11381445D01*
G01X111669747Y-11381445D01*
G01X111670045Y-11331353D01*
G01X111670604Y-11263978D01*
G01X111670918Y-11228847D01*
G01X111670918Y-11228809D01*
G01X111670918Y-11228809D01*
G01X111671634Y-11139596D01*
G01X111671976Y-11078343D01*
G01X111672082Y-11044946D01*
G01X111672090Y-11038086D01*
G01X111672090Y-10898633D01*
G01X111672090Y-10898633D01*
G01X111671521Y-10785547D01*
G01X111670065Y-10698902D01*
G01X111668104Y-10635551D01*
G01X111666015Y-10592352D01*
G01X111664180Y-10566159D01*
G01X111662978Y-10553829D01*
G01X111662715Y-10551758D01*
G37*

G04 Pad flashes *
%LPD*%
D11*

G04 end of program *
M02*
