G04                                                      *
G04 Greetings!                                           *
G04 This Gerber was generated by PCBmodE, an open source *
G04 PCB design software. Get it here:                    *
G04                                                      *
G04   http://pcbmode.com                                 *
G04                                                      *
G04 Also visit                                           *
G04                                                      *
G04   http://boldport.com                                *
G04                                                      *
G04 and follow @boldport / @pcbmode for updates!         *
G04                                                      *

G04 leading zeros omitted (L); absolute data (A); 6 integer digits and 6 fractional digits *
%FSLAX66Y66*%

G04 mode (MO): millimeters (MM) *
%MOMM*%

G04 Aperture definitions *
%ADD10C,0.001X*%
%ADD11C,0.001X*%

%LPD*%
G36*
G01X86505299Y-65140399D02*
G01X85348281Y-66519279D01*
G01X84160912Y-65522958D01*
G01X85317930Y-64144078D01*
G01X86505299Y-65140399D01*
G37*
G36*
G01X81750460Y-68395626D02*
G01X82907477Y-67016746D01*
G01X84094846Y-68013067D01*
G01X82937828Y-69391947D01*
G01X81750460Y-68395626D01*
G37*
G36*
G01X62842424Y-78532057D02*
G01X61150978Y-79147693D01*
G01X60620847Y-77691169D01*
G01X62312293Y-77075533D01*
G01X62842424Y-78532057D01*
G37*
G36*
G01X57096999Y-78973744D02*
G01X58788446Y-78358108D01*
G01X59318577Y-79814632D01*
G01X57627130Y-80430268D01*
G01X57096999Y-78973744D01*
G37*
G36*
G01X35633937Y-79426809D02*
G01X33942490Y-78811173D01*
G01X34472621Y-77354649D01*
G01X36164068Y-77970286D01*
G01X35633937Y-79426809D01*
G37*
G36*
G01X30948774Y-76072074D02*
G01X32640220Y-76687710D01*
G01X32110089Y-78144234D01*
G01X30418642Y-77528597D01*
G01X30948774Y-76072074D01*
G37*
G36*
G01X75537783Y-20931967D02*
G01X74487783Y-20931967D01*
G01X74487783Y-19981967D01*
G01X75537783Y-19981967D01*
G01X75537783Y-20931967D01*
G37*
G36*
G01X75537783Y-22531967D02*
G01X74487783Y-22531967D01*
G01X74487783Y-21581967D01*
G01X75537783Y-21581967D01*
G01X75537783Y-22531967D01*
G37*
G36*
G01X70087783Y-23181967D02*
G01X71137783Y-23181967D01*
G01X71137783Y-24131967D01*
G01X70087783Y-24131967D01*
G01X70087783Y-23181967D01*
G37*
G36*
G01X75537783Y-24131967D02*
G01X74487783Y-24131967D01*
G01X74487783Y-23181967D01*
G01X75537783Y-23181967D01*
G01X75537783Y-24131967D01*
G37*
G36*
G01X70087783Y-19981967D02*
G01X71137783Y-19981967D01*
G01X71137783Y-20931967D01*
G01X70087783Y-20931967D01*
G01X70087783Y-19981967D01*
G37*
G36*
G01X70087783Y-21581967D02*
G01X71137783Y-21581967D01*
G01X71137783Y-22531967D01*
G01X70087783Y-22531967D01*
G01X70087783Y-21581967D01*
G37*
G36*
G01X2988034Y-47379048D02*
G01X2583122Y-45625182D01*
G01X4093395Y-45276508D01*
G01X4498307Y-47030374D01*
G01X2988034Y-47379048D01*
G37*
G36*
G01X3249829Y-41622620D02*
G01X3654741Y-43376486D01*
G01X2144467Y-43725161D01*
G01X1739555Y-41971294D01*
G01X3249829Y-41622620D01*
G37*
G36*
G01X5863227Y-23459413D02*
G01X7355494Y-22452866D01*
G01X8222243Y-23737874D01*
G01X6729976Y-24744421D01*
G01X5863227Y-23459413D01*
G37*
G36*
G01X11331134Y-21640902D02*
G01X9838866Y-22647449D01*
G01X8972117Y-21362441D01*
G01X10464385Y-20355894D01*
G01X11331134Y-21640902D01*
G37*
G36*
G01X27640692Y-34698410D02*
G01X29362040Y-34172141D01*
G01X29815217Y-35654414D01*
G01X28093868Y-36180683D01*
G01X27640692Y-34698410D01*
G37*
G36*
G01X33401359Y-34558020D02*
G01X31680010Y-35084289D01*
G01X31226834Y-33602017D01*
G01X32948183Y-33075748D01*
G01X33401359Y-34558020D01*
G37*
G36*
G01X80483630Y-40468645D02*
G01X81734015Y-41763457D01*
G01X80619038Y-42840177D01*
G01X79368653Y-41545366D01*
G01X80483630Y-40468645D01*
G37*
G36*
G01X83224007Y-45537702D02*
G01X81973622Y-44242890D01*
G01X83088598Y-43166169D01*
G01X84338983Y-44460981D01*
G01X83224007Y-45537702D01*
G37*
G36*
G01X45202783Y-41856967D02*
G01X48112783Y-41856967D01*
G01X48112783Y-42326967D01*
G01X45202783Y-42326967D01*
G01X45202783Y-41856967D01*
G37*
G36*
G01X45202783Y-44396967D02*
G01X48112783Y-44396967D01*
G01X48112783Y-44866967D01*
G01X45202783Y-44866967D01*
G01X45202783Y-44396967D01*
G37*
G36*
G01X45202783Y-43126967D02*
G01X48112783Y-43126967D01*
G01X48112783Y-43596967D01*
G01X45202783Y-43596967D01*
G01X45202783Y-43126967D01*
G37*
G36*
G01X54782783Y-42326967D02*
G01X51872783Y-42326967D01*
G01X51872783Y-41856967D01*
G01X54782783Y-41856967D01*
G01X54782783Y-42326967D01*
G37*
G36*
G01X45202783Y-45666967D02*
G01X48112783Y-45666967D01*
G01X48112783Y-46136967D01*
G01X45202783Y-46136967D01*
G01X45202783Y-45666967D01*
G37*
G36*
G01X54782783Y-44866967D02*
G01X51872783Y-44866967D01*
G01X51872783Y-44396967D01*
G01X54782783Y-44396967D01*
G01X54782783Y-44866967D01*
G37*
G36*
G01X54782783Y-43596967D02*
G01X51872783Y-43596967D01*
G01X51872783Y-43126967D01*
G01X54782783Y-43126967D01*
G01X54782783Y-43596967D01*
G37*
G36*
G01X54782783Y-46136967D02*
G01X51872783Y-46136967D01*
G01X51872783Y-45666967D01*
G01X54782783Y-45666967D01*
G01X54782783Y-46136967D01*
G37*
G36*
G01X26850806Y-76740737D02*
G01X26632747Y-77010018D01*
G01X26632747Y-77010018D01*
G01X26595548Y-77047236D01*
G01X26552788Y-77075085D01*
G01X26506057Y-77093396D01*
G01X26456945Y-77102004D01*
G01X26407043Y-77100740D01*
G01X26357942Y-77089438D01*
G01X26311231Y-77067930D01*
G01X26281130Y-77046974D01*
G01X25856808Y-76703365D01*
G01X25238200Y-76202426D01*
G01X25613590Y-75738859D01*
G01X25988979Y-75275291D01*
G01X26607588Y-75776230D01*
G01X27031909Y-76119839D01*
G01X27031909Y-76119839D01*
G01X27069128Y-76157037D01*
G01X27096976Y-76199797D01*
G01X27115288Y-76246529D01*
G01X27123895Y-76295640D01*
G01X27122632Y-76345542D01*
G01X27111330Y-76394644D01*
G01X27089822Y-76441354D01*
G01X27068866Y-76471456D01*
G01X26850806Y-76740737D01*
G37*
G36*
G01X23837034Y-74300232D02*
G01X24055094Y-74030951D01*
G01X24055094Y-74030951D01*
G01X24092292Y-73993733D01*
G01X24135052Y-73965884D01*
G01X24181784Y-73947573D01*
G01X24230895Y-73938965D01*
G01X24280797Y-73940229D01*
G01X24329899Y-73951531D01*
G01X24376609Y-73973039D01*
G01X24406711Y-73993995D01*
G01X24831032Y-74337604D01*
G01X25449640Y-74838543D01*
G01X25074251Y-75302110D01*
G01X24698861Y-75765678D01*
G01X24080253Y-75264739D01*
G01X23655931Y-74921130D01*
G01X23655931Y-74921130D01*
G01X23618713Y-74883932D01*
G01X23590864Y-74841172D01*
G01X23572553Y-74794440D01*
G01X23563945Y-74745329D01*
G01X23565209Y-74695427D01*
G01X23576511Y-74646325D01*
G01X23598019Y-74599615D01*
G01X23618975Y-74569513D01*
G01X23837034Y-74300232D01*
G37*
G36*
G01X76029429Y-20508856D02*
G01X76029429Y-20162356D01*
G01X76029429Y-20162356D01*
G01X76034916Y-20110023D01*
G01X76050621Y-20061471D01*
G01X76075414Y-20017831D01*
G01X76108164Y-19980234D01*
G01X76147740Y-19949812D01*
G01X76193012Y-19927695D01*
G01X76242848Y-19915014D01*
G01X76279429Y-19912356D01*
G01X76825429Y-19912356D01*
G01X77621429Y-19912356D01*
G01X77621429Y-20508856D01*
G01X77621429Y-21105356D01*
G01X76825429Y-21105356D01*
G01X76279429Y-21105356D01*
G01X76279429Y-21105356D01*
G01X76227095Y-21099870D01*
G01X76178543Y-21084165D01*
G01X76134904Y-21059372D01*
G01X76097307Y-21026622D01*
G01X76066885Y-20987046D01*
G01X76044768Y-20941774D01*
G01X76032087Y-20891938D01*
G01X76029429Y-20855356D01*
G01X76029429Y-20508856D01*
G37*
G36*
G01X79907429Y-20508856D02*
G01X79907429Y-20855356D01*
G01X79907429Y-20855356D01*
G01X79901943Y-20907690D01*
G01X79886238Y-20956242D01*
G01X79861445Y-20999882D01*
G01X79828695Y-21037479D01*
G01X79789119Y-21067901D01*
G01X79743847Y-21090018D01*
G01X79694011Y-21102699D01*
G01X79657429Y-21105356D01*
G01X79111429Y-21105356D01*
G01X78315429Y-21105356D01*
G01X78315429Y-20508856D01*
G01X78315429Y-19912356D01*
G01X79111429Y-19912356D01*
G01X79657429Y-19912356D01*
G01X79657429Y-19912356D01*
G01X79709763Y-19917843D01*
G01X79758315Y-19933548D01*
G01X79801955Y-19958341D01*
G01X79839551Y-19991091D01*
G01X79869974Y-20030667D01*
G01X79892091Y-20075939D01*
G01X79904772Y-20125775D01*
G01X79907429Y-20162356D01*
G01X79907429Y-20508856D01*
G37*
G36*
G01X88629259Y-49525258D02*
G01X88975759Y-49525258D01*
G01X88975759Y-49525258D01*
G01X89028093Y-49530745D01*
G01X89076645Y-49546450D01*
G01X89120285Y-49571243D01*
G01X89157881Y-49603993D01*
G01X89188304Y-49643569D01*
G01X89210421Y-49688841D01*
G01X89223102Y-49738677D01*
G01X89225759Y-49775258D01*
G01X89225759Y-50321258D01*
G01X89225759Y-51117258D01*
G01X88629259Y-51117258D01*
G01X88032759Y-51117258D01*
G01X88032759Y-50321258D01*
G01X88032759Y-49775258D01*
G01X88032759Y-49775258D01*
G01X88038246Y-49722925D01*
G01X88053951Y-49674372D01*
G01X88078744Y-49630733D01*
G01X88111494Y-49593136D01*
G01X88151070Y-49562714D01*
G01X88196342Y-49540597D01*
G01X88246178Y-49527916D01*
G01X88282759Y-49525258D01*
G01X88629259Y-49525258D01*
G37*
G36*
G01X88629259Y-53403258D02*
G01X88282759Y-53403258D01*
G01X88282759Y-53403258D01*
G01X88230425Y-53397772D01*
G01X88181873Y-53382067D01*
G01X88138234Y-53357274D01*
G01X88100637Y-53324524D01*
G01X88070215Y-53284948D01*
G01X88048098Y-53239676D01*
G01X88035417Y-53189840D01*
G01X88032759Y-53153258D01*
G01X88032759Y-52607258D01*
G01X88032759Y-51811258D01*
G01X88629259Y-51811258D01*
G01X89225759Y-51811258D01*
G01X89225759Y-52607258D01*
G01X89225759Y-53153258D01*
G01X89225759Y-53153258D01*
G01X89220273Y-53205592D01*
G01X89204568Y-53254144D01*
G01X89179775Y-53297784D01*
G01X89147025Y-53335380D01*
G01X89107449Y-53365803D01*
G01X89062177Y-53387920D01*
G01X89012341Y-53400601D01*
G01X88975759Y-53403258D01*
G01X88629259Y-53403258D01*
G37*
G36*
G01X52447003Y-80379581D02*
G01X52410784Y-80724182D01*
G01X52410784Y-80724182D01*
G01X52399857Y-80775656D01*
G01X52379163Y-80822301D01*
G01X52349944Y-80863110D01*
G01X52313444Y-80897077D01*
G01X52270904Y-80923195D01*
G01X52223569Y-80940459D01*
G01X52172680Y-80947862D01*
G01X52136021Y-80946681D01*
G01X51593012Y-80889608D01*
G01X50801373Y-80806404D01*
G01X50863724Y-80213171D01*
G01X50926075Y-79619939D01*
G01X51717715Y-79703144D01*
G01X52260724Y-79760216D01*
G01X52260724Y-79760216D01*
G01X52312198Y-79771143D01*
G01X52358842Y-79791837D01*
G01X52399651Y-79821056D01*
G01X52433618Y-79857556D01*
G01X52459737Y-79900096D01*
G01X52477001Y-79947431D01*
G01X52484403Y-79998320D01*
G01X52483222Y-80034979D01*
G01X52447003Y-80379581D01*
G37*
G36*
G01X48590248Y-79974218D02*
G01X48626467Y-79629617D01*
G01X48626467Y-79629617D01*
G01X48637394Y-79578143D01*
G01X48658088Y-79531498D01*
G01X48687307Y-79490689D01*
G01X48723807Y-79456722D01*
G01X48766347Y-79430604D01*
G01X48813682Y-79413340D01*
G01X48864571Y-79405937D01*
G01X48901230Y-79407118D01*
G01X49444239Y-79464191D01*
G01X50235878Y-79547395D01*
G01X50173527Y-80140628D01*
G01X50111176Y-80733860D01*
G01X49319536Y-80650655D01*
G01X48776527Y-80593583D01*
G01X48776527Y-80593583D01*
G01X48725054Y-80582656D01*
G01X48678409Y-80561962D01*
G01X48637600Y-80532743D01*
G01X48603633Y-80496243D01*
G01X48577514Y-80453703D01*
G01X48560250Y-80406368D01*
G01X48552848Y-80355479D01*
G01X48554029Y-80318820D01*
G01X48590248Y-79974218D01*
G37*
G36*
G01X9860141Y-61211310D02*
G01X9560063Y-61384560D01*
G01X9560063Y-61384560D01*
G01X9511998Y-61405975D01*
G01X9462098Y-61416650D01*
G01X9411908Y-61416999D01*
G01X9362974Y-61407435D01*
G01X9316839Y-61388372D01*
G01X9275050Y-61360224D01*
G01X9239149Y-61323405D01*
G01X9218557Y-61293053D01*
G01X8945557Y-60820203D01*
G01X8547557Y-60130847D01*
G01X9064141Y-59832597D01*
G01X9580725Y-59534347D01*
G01X9978725Y-60223703D01*
G01X10251725Y-60696553D01*
G01X10251725Y-60696553D01*
G01X10273141Y-60744619D01*
G01X10283816Y-60794519D01*
G01X10284165Y-60844708D01*
G01X10274600Y-60893643D01*
G01X10255537Y-60939777D01*
G01X10227390Y-60981567D01*
G01X10190571Y-61017468D01*
G01X10160219Y-61038060D01*
G01X9860141Y-61211310D01*
G37*
G36*
G01X7921141Y-57852863D02*
G01X8221219Y-57679613D01*
G01X8221219Y-57679613D01*
G01X8269285Y-57658198D01*
G01X8319185Y-57647523D01*
G01X8369374Y-57647174D01*
G01X8418309Y-57656738D01*
G01X8464443Y-57675801D01*
G01X8506233Y-57703949D01*
G01X8542133Y-57740768D01*
G01X8562725Y-57771120D01*
G01X8835725Y-58243970D01*
G01X9233725Y-58933326D01*
G01X8717141Y-59231576D01*
G01X8200557Y-59529826D01*
G01X7802557Y-58840470D01*
G01X7529557Y-58367620D01*
G01X7529557Y-58367620D01*
G01X7508142Y-58319554D01*
G01X7497466Y-58269654D01*
G01X7497118Y-58219465D01*
G01X7506682Y-58170530D01*
G01X7525745Y-58124396D01*
G01X7553893Y-58082606D01*
G01X7590712Y-58046705D01*
G01X7621063Y-58026113D01*
G01X7921141Y-57852863D01*
G37*
G36*
G01X78196115Y-71324359D02*
G01X78364101Y-71627415D01*
G01X78364101Y-71627415D01*
G01X78384675Y-71675847D01*
G01X78394477Y-71725926D01*
G01X78393950Y-71776114D01*
G01X78383533Y-71824874D01*
G01X78363668Y-71870668D01*
G01X78334795Y-71911961D01*
G01X78297355Y-71947213D01*
G01X78266649Y-71967272D01*
G01X77789106Y-72231978D01*
G01X77092909Y-72617887D01*
G01X76803720Y-72096176D01*
G01X76514531Y-71574465D01*
G01X77210728Y-71188557D01*
G01X77688271Y-70923851D01*
G01X77688271Y-70923851D01*
G01X77736703Y-70903277D01*
G01X77786781Y-70893475D01*
G01X77836969Y-70894002D01*
G01X77885730Y-70904419D01*
G01X77931524Y-70924284D01*
G01X77972817Y-70953157D01*
G01X78008069Y-70990597D01*
G01X78028128Y-71021303D01*
G01X78196115Y-71324359D01*
G37*
G36*
G01X74804340Y-73204450D02*
G01X74636353Y-72901394D01*
G01X74636353Y-72901394D01*
G01X74615780Y-72852962D01*
G01X74605977Y-72802883D01*
G01X74606505Y-72752695D01*
G01X74616922Y-72703935D01*
G01X74636787Y-72658141D01*
G01X74665660Y-72616848D01*
G01X74703099Y-72581596D01*
G01X74733806Y-72561537D01*
G01X75211348Y-72296831D01*
G01X75907546Y-71910922D01*
G01X76196735Y-72432633D01*
G01X76485923Y-72954344D01*
G01X75789726Y-73340252D01*
G01X75312184Y-73604958D01*
G01X75312184Y-73604958D01*
G01X75263752Y-73625532D01*
G01X75213673Y-73635334D01*
G01X75163485Y-73634807D01*
G01X75114725Y-73624390D01*
G01X75068930Y-73604525D01*
G01X75027638Y-73575652D01*
G01X74992386Y-73538212D01*
G01X74972327Y-73507506D01*
G01X74804340Y-73204450D01*
G37*
G36*
G01X10770994Y-29561496D02*
G01X10954611Y-29267647D01*
G01X10954611Y-29267647D01*
G01X10986997Y-29226173D01*
G01X11026044Y-29193321D01*
G01X11070195Y-29169450D01*
G01X11117892Y-29154922D01*
G01X11167576Y-29150095D01*
G01X11217689Y-29155328D01*
G01X11266672Y-29170983D01*
G01X11299103Y-29188115D01*
G01X11762137Y-29477451D01*
G01X12437184Y-29899267D01*
G01X12121087Y-30405127D01*
G01X11804990Y-30910988D01*
G01X11129944Y-30489172D01*
G01X10666910Y-30199836D01*
G01X10666910Y-30199836D01*
G01X10625435Y-30167451D01*
G01X10592583Y-30128404D01*
G01X10568713Y-30084252D01*
G01X10554184Y-30036556D01*
G01X10549357Y-29986872D01*
G01X10554591Y-29936759D01*
G01X10570246Y-29887775D01*
G01X10587377Y-29855344D01*
G01X10770994Y-29561496D01*
G37*
G36*
G01X14059724Y-31616523D02*
G01X13876107Y-31910372D01*
G01X13876107Y-31910372D01*
G01X13843722Y-31951846D01*
G01X13804674Y-31984698D01*
G01X13760523Y-32008569D01*
G01X13712827Y-32023097D01*
G01X13663143Y-32027924D01*
G01X13613030Y-32022691D01*
G01X13564046Y-32007036D01*
G01X13531615Y-31989904D01*
G01X13068581Y-31700568D01*
G01X12393535Y-31278752D01*
G01X12709632Y-30772892D01*
G01X13025729Y-30267031D01*
G01X13700775Y-30688847D01*
G01X14163809Y-30978183D01*
G01X14163809Y-30978183D01*
G01X14205283Y-31010568D01*
G01X14238136Y-31049615D01*
G01X14262006Y-31093767D01*
G01X14276534Y-31141463D01*
G01X14281362Y-31191147D01*
G01X14276128Y-31241260D01*
G01X14260473Y-31290244D01*
G01X14243341Y-31322675D01*
G01X14059724Y-31616523D01*
G37*
G36*
G01X1564646Y-39400365D02*
G01X1229953Y-39310685D01*
G01X1229953Y-39310685D01*
G01X1180822Y-39291840D01*
G01X1137989Y-39264104D01*
G01X1102253Y-39228861D01*
G01X1074414Y-39187496D01*
G01X1055272Y-39141395D01*
G01X1045626Y-39091941D01*
G01X1046275Y-39040521D01*
G01X1053176Y-39004498D01*
G01X1194491Y-38477103D01*
G01X1400511Y-37708226D01*
G01X1976686Y-37862612D01*
G01X2552861Y-38016997D01*
G01X2346841Y-38785874D01*
G01X2205526Y-39313270D01*
G01X2205526Y-39313270D01*
G01X2186681Y-39362400D01*
G01X2158945Y-39405233D01*
G01X2123702Y-39440969D01*
G01X2082337Y-39468808D01*
G01X2036236Y-39487950D01*
G01X1986782Y-39497597D01*
G01X1935362Y-39496947D01*
G01X1899339Y-39490046D01*
G01X1564646Y-39400365D01*
G37*
G36*
G01X2568346Y-35654505D02*
G01X2903040Y-35744186D01*
G01X2903040Y-35744186D01*
G01X2952170Y-35763030D01*
G01X2995003Y-35790766D01*
G01X3030739Y-35826009D01*
G01X3058578Y-35867374D01*
G01X3077721Y-35913476D01*
G01X3087367Y-35962929D01*
G01X3086718Y-36014349D01*
G01X3079816Y-36050372D01*
G01X2938501Y-36577767D01*
G01X2732481Y-37346644D01*
G01X2156307Y-37192259D01*
G01X1580132Y-37037873D01*
G01X1786152Y-36268996D01*
G01X1927467Y-35741601D01*
G01X1927467Y-35741601D01*
G01X1946311Y-35692470D01*
G01X1974047Y-35649637D01*
G01X2009290Y-35613901D01*
G01X2050655Y-35586062D01*
G01X2096757Y-35566920D01*
G01X2146210Y-35557274D01*
G01X2197631Y-35557923D01*
G01X2233653Y-35564824D01*
G01X2568346Y-35654505D01*
G37*
G36*
G01X76155951Y-22157145D02*
G01X76155951Y-21810645D01*
G01X76155951Y-21810645D01*
G01X76161438Y-21758312D01*
G01X76177143Y-21709760D01*
G01X76201936Y-21666120D01*
G01X76234686Y-21628523D01*
G01X76274262Y-21598101D01*
G01X76319534Y-21575984D01*
G01X76369370Y-21563303D01*
G01X76405951Y-21560645D01*
G01X76951951Y-21560645D01*
G01X77747951Y-21560645D01*
G01X77747951Y-22157145D01*
G01X77747951Y-22753645D01*
G01X76951951Y-22753645D01*
G01X76405951Y-22753645D01*
G01X76405951Y-22753645D01*
G01X76353617Y-22748159D01*
G01X76305065Y-22732454D01*
G01X76261426Y-22707661D01*
G01X76223829Y-22674911D01*
G01X76193407Y-22635335D01*
G01X76171290Y-22590063D01*
G01X76158609Y-22540227D01*
G01X76155951Y-22503645D01*
G01X76155951Y-22157145D01*
G37*
G36*
G01X80033951Y-22157145D02*
G01X80033951Y-22503645D01*
G01X80033951Y-22503645D01*
G01X80028465Y-22555979D01*
G01X80012760Y-22604531D01*
G01X79987967Y-22648171D01*
G01X79955217Y-22685768D01*
G01X79915641Y-22716190D01*
G01X79870369Y-22738307D01*
G01X79820533Y-22750988D01*
G01X79783951Y-22753645D01*
G01X79237951Y-22753645D01*
G01X78441951Y-22753645D01*
G01X78441951Y-22157145D01*
G01X78441951Y-21560645D01*
G01X79237951Y-21560645D01*
G01X79783951Y-21560645D01*
G01X79783951Y-21560645D01*
G01X79836285Y-21566132D01*
G01X79884837Y-21581837D01*
G01X79928477Y-21606630D01*
G01X79966073Y-21639380D01*
G01X79996496Y-21678956D01*
G01X80018613Y-21724228D01*
G01X80031294Y-21774064D01*
G01X80033951Y-21810645D01*
G01X80033951Y-22157145D01*
G37*
G36*
G01X76200059Y-23887847D02*
G01X76200059Y-23541347D01*
G01X76200059Y-23541347D01*
G01X76205546Y-23489014D01*
G01X76221251Y-23440462D01*
G01X76246044Y-23396822D01*
G01X76278794Y-23359225D01*
G01X76318370Y-23328803D01*
G01X76363642Y-23306686D01*
G01X76413478Y-23294005D01*
G01X76450059Y-23291347D01*
G01X76996059Y-23291347D01*
G01X77792059Y-23291347D01*
G01X77792059Y-23887847D01*
G01X77792059Y-24484347D01*
G01X76996059Y-24484347D01*
G01X76450059Y-24484347D01*
G01X76450059Y-24484347D01*
G01X76397725Y-24478861D01*
G01X76349173Y-24463156D01*
G01X76305534Y-24438363D01*
G01X76267937Y-24405613D01*
G01X76237515Y-24366037D01*
G01X76215398Y-24320765D01*
G01X76202717Y-24270929D01*
G01X76200059Y-24234347D01*
G01X76200059Y-23887847D01*
G37*
G36*
G01X80078059Y-23887847D02*
G01X80078059Y-24234347D01*
G01X80078059Y-24234347D01*
G01X80072573Y-24286681D01*
G01X80056868Y-24335233D01*
G01X80032075Y-24378873D01*
G01X79999325Y-24416470D01*
G01X79959749Y-24446892D01*
G01X79914477Y-24469009D01*
G01X79864641Y-24481690D01*
G01X79828059Y-24484347D01*
G01X79282059Y-24484347D01*
G01X78486059Y-24484347D01*
G01X78486059Y-23887847D01*
G01X78486059Y-23291347D01*
G01X79282059Y-23291347D01*
G01X79828059Y-23291347D01*
G01X79828059Y-23291347D01*
G01X79880393Y-23296834D01*
G01X79928945Y-23312539D01*
G01X79972585Y-23337332D01*
G01X80010181Y-23370082D01*
G01X80040604Y-23409658D01*
G01X80062721Y-23454930D01*
G01X80075402Y-23504766D01*
G01X80078059Y-23541347D01*
G01X80078059Y-23887847D01*
G37*
G36*
G01X23966524Y-36673772D02*
G01X23865217Y-36342413D01*
G01X23865217Y-36342413D01*
G01X23855163Y-36290762D01*
G01X23855986Y-36239739D01*
G01X23866937Y-36190758D01*
G01X23887264Y-36145229D01*
G01X23916216Y-36104565D01*
G01X23953043Y-36070178D01*
G01X23996994Y-36043480D01*
G01X24031200Y-36030244D01*
G01X24553343Y-35870609D01*
G01X25314561Y-35637881D01*
G01X25488961Y-36208317D01*
G01X25663361Y-36778752D01*
G01X24902142Y-37011480D01*
G01X24380000Y-37171115D01*
G01X24380000Y-37171115D01*
G01X24328349Y-37181170D01*
G01X24277326Y-37180346D01*
G01X24228345Y-37169395D01*
G01X24182816Y-37149069D01*
G01X24142152Y-37120116D01*
G01X24107765Y-37083289D01*
G01X24081067Y-37039338D01*
G01X24067831Y-37005132D01*
G01X23966524Y-36673772D01*
G37*
G36*
G01X27675075Y-35539955D02*
G01X27776381Y-35871314D01*
G01X27776381Y-35871314D01*
G01X27786436Y-35922965D01*
G01X27785612Y-35973988D01*
G01X27774662Y-36022969D01*
G01X27754335Y-36068498D01*
G01X27725382Y-36109162D01*
G01X27688555Y-36143549D01*
G01X27644604Y-36170247D01*
G01X27610398Y-36183483D01*
G01X27088256Y-36343118D01*
G01X26327037Y-36575846D01*
G01X26152637Y-36005410D01*
G01X25978238Y-35434975D01*
G01X26739456Y-35202247D01*
G01X27261599Y-35042612D01*
G01X27261599Y-35042612D01*
G01X27313250Y-35032558D01*
G01X27364272Y-35033381D01*
G01X27413254Y-35044332D01*
G01X27458783Y-35064659D01*
G01X27499446Y-35093611D01*
G01X27533833Y-35130438D01*
G01X27560531Y-35174389D01*
G01X27573768Y-35208595D01*
G01X27675075Y-35539955D01*
G37*
G36*
G01X76825301Y-38085941D02*
G01X77074552Y-37845242D01*
G01X77074552Y-37845242D01*
G01X77116009Y-37812834D01*
G01X77161844Y-37790404D01*
G01X77210459Y-37777924D01*
G01X77260253Y-37775366D01*
G01X77309629Y-37782702D01*
G01X77356987Y-37799904D01*
G01X77400728Y-37826944D01*
G01X77428052Y-37851412D01*
G01X77807335Y-38244172D01*
G01X78360283Y-38816766D01*
G01X77931197Y-39231130D01*
G01X77502111Y-39645493D01*
G01X76949163Y-39072899D01*
G01X76569879Y-38680139D01*
G01X76569879Y-38680139D01*
G01X76537472Y-38638683D01*
G01X76515042Y-38592847D01*
G01X76502562Y-38544233D01*
G01X76500003Y-38494438D01*
G01X76507339Y-38445062D01*
G01X76524541Y-38397704D01*
G01X76551581Y-38353963D01*
G01X76576050Y-38326640D01*
G01X76825301Y-38085941D01*
G37*
G36*
G01X79519186Y-40875540D02*
G01X79269935Y-41116239D01*
G01X79269935Y-41116239D01*
G01X79228478Y-41148646D01*
G01X79182642Y-41171076D01*
G01X79134028Y-41183556D01*
G01X79084233Y-41186114D01*
G01X79034858Y-41178779D01*
G01X78987499Y-41161577D01*
G01X78943758Y-41134537D01*
G01X78916435Y-41110068D01*
G01X78537152Y-40717309D01*
G01X77984204Y-40144714D01*
G01X78413290Y-39730351D01*
G01X78842376Y-39315987D01*
G01X79395324Y-39888581D01*
G01X79774607Y-40281341D01*
G01X79774607Y-40281341D01*
G01X79807015Y-40322798D01*
G01X79829445Y-40368633D01*
G01X79841925Y-40417247D01*
G01X79844483Y-40467042D01*
G01X79837147Y-40516418D01*
G01X79819946Y-40563776D01*
G01X79792906Y-40607517D01*
G01X79768437Y-40634840D01*
G01X79519186Y-40875540D01*
G37*
G36*
G01X88505169Y-61488638D02*
G01X88770603Y-61711364D01*
G01X88770603Y-61711364D01*
G01X88807166Y-61749206D01*
G01X88834265Y-61792445D01*
G01X88851758Y-61839489D01*
G01X88859507Y-61888743D01*
G01X88857373Y-61938616D01*
G01X88845215Y-61987512D01*
G01X88822896Y-62033841D01*
G01X88801417Y-62063572D01*
G01X88450455Y-62481832D01*
G01X87938796Y-63091603D01*
G01X87481851Y-62708180D01*
G01X87024905Y-62324758D01*
G01X87536564Y-61714986D01*
G01X87887526Y-61296726D01*
G01X87887526Y-61296726D01*
G01X87925368Y-61260163D01*
G01X87968608Y-61233064D01*
G01X88015652Y-61215571D01*
G01X88064906Y-61207822D01*
G01X88114778Y-61209956D01*
G01X88163675Y-61222114D01*
G01X88210003Y-61244433D01*
G01X88239734Y-61265912D01*
G01X88505169Y-61488638D01*
G37*
G36*
G01X86012438Y-64459357D02*
G01X85747004Y-64236631D01*
G01X85747004Y-64236631D01*
G01X85710440Y-64198789D01*
G01X85683342Y-64155550D01*
G01X85665849Y-64108506D01*
G01X85658100Y-64059252D01*
G01X85660234Y-64009379D01*
G01X85672391Y-63960483D01*
G01X85694711Y-63914154D01*
G01X85716189Y-63884423D01*
G01X86067151Y-63466163D01*
G01X86578810Y-62856392D01*
G01X87035756Y-63239815D01*
G01X87492701Y-63623237D01*
G01X86981043Y-64233009D01*
G01X86630080Y-64651269D01*
G01X86630080Y-64651269D01*
G01X86592238Y-64687832D01*
G01X86548999Y-64714931D01*
G01X86501955Y-64732424D01*
G01X86452701Y-64740173D01*
G01X86402828Y-64738039D01*
G01X86353932Y-64725881D01*
G01X86307604Y-64703562D01*
G01X86277872Y-64682083D01*
G01X86012438Y-64459357D01*
G37*
G36*
G01X66388298Y-76299560D02*
G01X66506808Y-76625164D01*
G01X66506808Y-76625164D01*
G01X66519552Y-76676218D01*
G01X66521400Y-76727214D01*
G01X66513027Y-76776701D01*
G01X66495111Y-76823231D01*
G01X66468327Y-76865355D01*
G01X66433350Y-76901622D01*
G01X66390856Y-76930584D01*
G01X66357390Y-76945592D01*
G01X65844318Y-77132335D01*
G01X65096322Y-77404583D01*
G01X64892307Y-76844057D01*
G01X64688292Y-76283530D01*
G01X65436288Y-76011282D01*
G01X65949360Y-75824539D01*
G01X65949360Y-75824539D01*
G01X66000414Y-75811795D01*
G01X66051410Y-75809947D01*
G01X66100897Y-75818319D01*
G01X66147427Y-75836236D01*
G01X66189551Y-75863020D01*
G01X66225818Y-75897997D01*
G01X66254779Y-75940491D01*
G01X66269788Y-75973957D01*
G01X66388298Y-76299560D01*
G37*
G36*
G01X62744171Y-77625915D02*
G01X62625661Y-77300311D01*
G01X62625661Y-77300311D01*
G01X62612917Y-77249257D01*
G01X62611069Y-77198261D01*
G01X62619441Y-77148774D01*
G01X62637357Y-77102244D01*
G01X62664142Y-77060120D01*
G01X62699119Y-77023853D01*
G01X62741612Y-76994891D01*
G01X62775079Y-76979883D01*
G01X63288151Y-76793140D01*
G01X64036146Y-76520892D01*
G01X64240161Y-77081418D01*
G01X64444176Y-77641945D01*
G01X63696181Y-77914193D01*
G01X63183109Y-78100936D01*
G01X63183109Y-78100936D01*
G01X63132055Y-78113680D01*
G01X63081059Y-78115528D01*
G01X63031571Y-78107156D01*
G01X62985041Y-78089239D01*
G01X62942918Y-78062455D01*
G01X62906651Y-78027478D01*
G01X62877689Y-77984984D01*
G01X62862681Y-77951518D01*
G01X62744171Y-77625915D01*
G37*
G36*
G01X17287512Y-70432099D02*
G01X17022077Y-70654825D01*
G01X17022077Y-70654825D01*
G01X16978461Y-70684262D01*
G01X16931172Y-70703440D01*
G01X16881806Y-70712498D01*
G01X16831954Y-70711577D01*
G01X16783210Y-70700815D01*
G01X16737167Y-70680351D01*
G01X16695419Y-70650326D01*
G01X16669869Y-70624011D01*
G01X16318907Y-70205751D01*
G01X15807248Y-69595979D01*
G01X16264194Y-69212557D01*
G01X16721139Y-68829134D01*
G01X17232798Y-69438905D01*
G01X17583760Y-69857165D01*
G01X17583760Y-69857165D01*
G01X17613197Y-69900782D01*
G01X17632375Y-69948070D01*
G01X17641433Y-69997437D01*
G01X17640512Y-70047288D01*
G01X17629750Y-70096032D01*
G01X17609286Y-70142075D01*
G01X17579261Y-70183824D01*
G01X17552946Y-70209373D01*
G01X17287512Y-70432099D01*
G37*
G36*
G01X14794781Y-67461380D02*
G01X15060215Y-67238654D01*
G01X15060215Y-67238654D01*
G01X15103832Y-67209217D01*
G01X15151120Y-67190039D01*
G01X15200487Y-67180981D01*
G01X15250339Y-67181902D01*
G01X15299082Y-67192664D01*
G01X15345125Y-67213128D01*
G01X15386874Y-67243153D01*
G01X15412423Y-67269468D01*
G01X15763386Y-67687728D01*
G01X16275044Y-68297500D01*
G01X15818099Y-68680922D01*
G01X15361153Y-69064345D01*
G01X14849494Y-68454574D01*
G01X14498532Y-68036314D01*
G01X14498532Y-68036314D01*
G01X14469096Y-67992697D01*
G01X14449918Y-67945409D01*
G01X14440859Y-67896042D01*
G01X14441781Y-67846191D01*
G01X14452543Y-67797447D01*
G01X14473006Y-67751404D01*
G01X14503032Y-67709655D01*
G01X14529347Y-67684106D01*
G01X14794781Y-67461380D01*
G37*
G36*
G01X4723815Y-51160795D02*
G01X4386196Y-51238740D01*
G01X4386196Y-51238740D01*
G01X4333969Y-51245167D01*
G01X4283129Y-51240786D01*
G01X4235030Y-51226445D01*
G01X4191030Y-51202992D01*
G01X4152485Y-51171274D01*
G01X4120751Y-51132138D01*
G01X4097184Y-51086431D01*
G01X4086366Y-51051385D01*
G01X3963543Y-50519379D01*
G01X3784482Y-49743781D01*
G01X4365693Y-49609597D01*
G01X4946905Y-49475414D01*
G01X5125966Y-50251013D01*
G01X5248789Y-50783019D01*
G01X5248789Y-50783019D01*
G01X5255216Y-50835245D01*
G01X5250835Y-50886086D01*
G01X5236495Y-50934184D01*
G01X5213041Y-50978184D01*
G01X5181323Y-51016730D01*
G01X5142187Y-51048464D01*
G01X5096481Y-51072031D01*
G01X5061435Y-51082849D01*
G01X4723815Y-51160795D01*
G37*
G36*
G01X3851455Y-47382187D02*
G01X4189074Y-47304241D01*
G01X4189074Y-47304241D01*
G01X4241301Y-47297814D01*
G01X4292142Y-47302195D01*
G01X4340240Y-47316536D01*
G01X4384240Y-47339989D01*
G01X4422785Y-47371707D01*
G01X4454520Y-47410844D01*
G01X4478086Y-47456550D01*
G01X4488905Y-47491596D01*
G01X4611728Y-48023602D01*
G01X4790789Y-48799200D01*
G01X4209577Y-48933384D01*
G01X3628366Y-49067567D01*
G01X3449305Y-48291968D01*
G01X3326481Y-47759962D01*
G01X3326481Y-47759962D01*
G01X3320054Y-47707736D01*
G01X3324435Y-47656895D01*
G01X3338776Y-47608797D01*
G01X3362229Y-47564797D01*
G01X3393948Y-47526252D01*
G01X3433084Y-47494517D01*
G01X3478790Y-47470950D01*
G01X3513836Y-47460132D01*
G01X3851455Y-47382187D01*
G37*
G36*
G01X5016377Y-27607810D02*
G01X4822617Y-27320548D01*
G01X4822617Y-27320548D01*
G01X4797901Y-27274094D01*
G01X4783771Y-27225060D01*
G01X4779922Y-27175017D01*
G01X4786049Y-27125535D01*
G01X4801848Y-27078183D01*
G01X4827012Y-27034531D01*
G01X4861237Y-26996150D01*
G01X4890078Y-26973491D01*
G01X5342733Y-26668172D01*
G01X6002647Y-26223054D01*
G01X6336205Y-26717575D01*
G01X6669764Y-27212096D01*
G01X6009850Y-27657213D01*
G01X5557195Y-27962533D01*
G01X5557195Y-27962533D01*
G01X5510741Y-27987249D01*
G01X5461707Y-28001379D01*
G01X5411664Y-28005228D01*
G01X5362182Y-27999100D01*
G01X5314830Y-27983302D01*
G01X5271178Y-27958138D01*
G01X5232797Y-27923913D01*
G01X5210138Y-27895072D01*
G01X5016377Y-27607810D01*
G37*
G36*
G01X8231385Y-25439259D02*
G01X8425146Y-25726521D01*
G01X8425146Y-25726521D01*
G01X8449862Y-25772975D01*
G01X8463992Y-25822009D01*
G01X8467841Y-25872052D01*
G01X8461713Y-25921534D01*
G01X8445915Y-25968886D01*
G01X8420751Y-26012538D01*
G01X8386526Y-26050919D01*
G01X8357684Y-26073578D01*
G01X7905030Y-26378897D01*
G01X7245116Y-26824015D01*
G01X6911557Y-26329494D01*
G01X6577999Y-25834973D01*
G01X7237913Y-25389856D01*
G01X7690567Y-25084536D01*
G01X7690567Y-25084536D01*
G01X7737022Y-25059820D01*
G01X7786056Y-25045690D01*
G01X7836099Y-25041841D01*
G01X7885581Y-25047969D01*
G01X7932933Y-25063767D01*
G01X7976585Y-25088931D01*
G01X8014966Y-25123156D01*
G01X8037625Y-25151997D01*
G01X8231385Y-25439259D01*
G37*
G36*
G01X39730132Y-80057140D02*
G01X39611622Y-80382743D01*
G01X39611622Y-80382743D01*
G01X39588567Y-80430044D01*
G01X39557204Y-80470297D01*
G01X39518980Y-80502825D01*
G01X39475346Y-80526953D01*
G01X39427752Y-80542005D01*
G01X39377646Y-80547304D01*
G01X39326478Y-80542176D01*
G01X39291194Y-80532161D01*
G01X38778122Y-80345418D01*
G01X38030126Y-80073170D01*
G01X38234141Y-79512643D01*
G01X38438156Y-78952117D01*
G01X39186152Y-79224365D01*
G01X39699224Y-79411108D01*
G01X39699224Y-79411108D01*
G01X39746525Y-79434163D01*
G01X39786778Y-79465526D01*
G01X39819306Y-79503750D01*
G01X39843434Y-79547383D01*
G01X39858485Y-79594978D01*
G01X39863785Y-79645084D01*
G01X39858656Y-79696252D01*
G01X39848642Y-79731536D01*
G01X39730132Y-80057140D01*
G37*
G36*
G01X36086005Y-78730785D02*
G01X36204515Y-78405182D01*
G01X36204515Y-78405182D01*
G01X36227569Y-78357881D01*
G01X36258933Y-78317628D01*
G01X36297157Y-78285100D01*
G01X36340790Y-78260972D01*
G01X36388385Y-78245920D01*
G01X36438491Y-78240621D01*
G01X36489659Y-78245749D01*
G01X36524943Y-78255764D01*
G01X37038015Y-78442507D01*
G01X37786010Y-78714755D01*
G01X37581995Y-79275282D01*
G01X37377980Y-79835808D01*
G01X36629985Y-79563560D01*
G01X36116913Y-79376817D01*
G01X36116913Y-79376817D01*
G01X36069612Y-79353762D01*
G01X36029359Y-79322399D01*
G01X35996831Y-79284175D01*
G01X35972703Y-79240542D01*
G01X35957651Y-79192947D01*
G01X35952352Y-79142841D01*
G01X35957480Y-79091673D01*
G01X35967495Y-79056389D01*
G01X36086005Y-78730785D01*
G37*
G36*
G01X36238083Y-33140877D02*
G01X36189859Y-32797749D01*
G01X36189859Y-32797749D01*
G01X36188009Y-32745161D01*
G01X36196804Y-32694896D01*
G01X36215282Y-32648231D01*
G01X36242481Y-32606442D01*
G01X36277438Y-32570808D01*
G01X36319191Y-32542606D01*
G01X36366778Y-32523112D01*
G01X36402633Y-32515389D01*
G01X36943320Y-32439401D01*
G01X37731573Y-32328619D01*
G01X37814590Y-32919314D01*
G01X37897606Y-33510009D01*
G01X37109353Y-33620790D01*
G01X36568667Y-33696779D01*
G01X36568667Y-33696779D01*
G01X36516079Y-33698630D01*
G01X36465813Y-33689834D01*
G01X36419148Y-33671356D01*
G01X36377359Y-33644157D01*
G01X36341725Y-33609200D01*
G01X36313523Y-33567447D01*
G01X36294029Y-33519861D01*
G01X36286306Y-33484005D01*
G01X36238083Y-33140877D01*
G37*
G36*
G01X40078342Y-32601164D02*
G01X40126565Y-32944292D01*
G01X40126565Y-32944292D01*
G01X40128416Y-32996880D01*
G01X40119621Y-33047145D01*
G01X40101142Y-33093810D01*
G01X40073943Y-33135599D01*
G01X40038986Y-33171233D01*
G01X39997233Y-33199435D01*
G01X39949647Y-33218929D01*
G01X39913791Y-33226652D01*
G01X39373105Y-33302640D01*
G01X38584852Y-33413422D01*
G01X38501835Y-32822727D01*
G01X38418818Y-32232032D01*
G01X39207072Y-32121251D01*
G01X39747758Y-32045262D01*
G01X39747758Y-32045262D01*
G01X39800346Y-32043411D01*
G01X39850611Y-32052207D01*
G01X39897277Y-32070685D01*
G01X39939065Y-32097884D01*
G01X39974699Y-32132841D01*
G01X40002902Y-32174594D01*
G01X40022396Y-32222180D01*
G01X40030118Y-32258036D01*
G01X40078342Y-32601164D01*
G37*
G36*
G01X44302305Y-49169513D02*
G01X45752305Y-49169513D01*
G01X45752305Y-51319513D01*
G01X44302305Y-51319513D01*
G01X44302305Y-49169513D01*
G37*
G36*
G01X44302305Y-53669513D02*
G01X45752305Y-53669513D01*
G01X45752305Y-55819513D01*
G01X44302305Y-55819513D01*
G01X44302305Y-53669513D01*
G37*
G36*
G01X54852305Y-51319513D02*
G01X53402305Y-51319513D01*
G01X53402305Y-49169513D01*
G01X54852305Y-49169513D01*
G01X54852305Y-51319513D01*
G37*
G36*
G01X54852305Y-55819513D02*
G01X53402305Y-55819513D01*
G01X53402305Y-53669513D01*
G01X54852305Y-53669513D01*
G01X54852305Y-55819513D01*
G37*
G36*
G01X85268064Y-24855578D02*
G01X85268064Y-24855578D01*
G01X85291856Y-24869086D01*
G01X85315392Y-24885614D01*
G01X85338756Y-24905090D01*
G01X85362028Y-24927440D01*
G01X85385292Y-24952593D01*
G01X85408631Y-24980477D01*
G01X85432127Y-25011018D01*
G01X85455863Y-25044145D01*
G01X85479921Y-25079784D01*
G01X85504383Y-25117865D01*
G01X85529333Y-25158313D01*
G01X85554853Y-25201057D01*
G01X85581026Y-25246023D01*
G01X85607933Y-25293141D01*
G01X85635658Y-25342337D01*
G01X85664283Y-25393539D01*
G01X85693891Y-25446674D01*
G01X85724564Y-25501670D01*
G01X85756385Y-25558455D01*
G01X85789436Y-25616955D01*
G01X85823801Y-25677100D01*
G01X85859561Y-25738815D01*
G01X85896799Y-25802030D01*
G01X85935597Y-25866670D01*
G01X85976039Y-25932665D01*
G01X86018207Y-25999941D01*
G01X86062183Y-26068426D01*
G01X86108050Y-26138047D01*
G01X86155890Y-26208732D01*
G01X86205787Y-26280410D01*
G01X86257822Y-26353006D01*
G01X86312078Y-26426449D01*
G01X86368639Y-26500667D01*
G01X86427585Y-26575586D01*
G01X86489000Y-26651135D01*
G01X86552967Y-26727241D01*
G01X86619568Y-26803832D01*
G01X86688885Y-26880834D01*
G01X86761001Y-26958176D01*
G01X86835999Y-27035786D01*
G01X86913962Y-27113590D01*
G01X86994971Y-27191517D01*
G01X87079109Y-27269494D01*
G01X87166460Y-27347448D01*
G01X87257105Y-27425307D01*
G01X87351127Y-27502999D01*
G01X87448609Y-27580451D01*
G01X87549633Y-27657590D01*
G01X87654281Y-27734345D01*
G01X87762637Y-27810643D01*
G01X87874783Y-27886411D01*
G01X87990802Y-27961577D01*
G01X88110775Y-28036069D01*
G01X88234786Y-28109813D01*
G01X88362917Y-28182739D01*
G01X88495251Y-28254772D01*
G01X88631870Y-28325841D01*
G01X88772857Y-28395874D01*
G01X88918295Y-28464797D01*
G01X89068265Y-28532539D01*
G01X89222851Y-28599027D01*
G01X89382135Y-28664188D01*
G01X89546200Y-28727951D01*
G01X89715128Y-28790242D01*
G01X89889001Y-28850989D01*
G01X90067904Y-28910120D01*
G01X90251916Y-28967562D01*
G01X90441123Y-29023244D01*
G01X90635605Y-29077091D01*
G01X90835447Y-29129033D01*
G01X91040729Y-29178997D01*
G01X91251535Y-29226909D01*
G01X91467947Y-29272698D01*
G01X91690049Y-29316291D01*
G01X91917921Y-29357617D01*
G01X92151648Y-29396601D01*
G01X92391311Y-29433173D01*
G01X92636993Y-29467258D01*
G01X92888777Y-29498786D01*
G01X93146746Y-29527684D01*
G01X93410981Y-29553879D01*
G01X93681565Y-29577298D01*
G01X93958582Y-29597870D01*
G01X94242112Y-29615521D01*
G01X94532240Y-29630180D01*
G01X94829048Y-29641774D01*
G01X95132618Y-29650230D01*
G01X95443032Y-29655477D01*
G01X95760374Y-29657441D01*
G01X96084726Y-29656050D01*
G01X96416170Y-29651232D01*
G01X96754790Y-29642914D01*
G01X97100667Y-29631024D01*
G01X97453884Y-29615490D01*
G01X97814523Y-29596238D01*
G01X98182668Y-29573197D01*
G01X98558401Y-29546294D01*
G01X98941804Y-29515457D01*
G01X99332961Y-29480613D01*
G01X99731952Y-29441689D01*
G01X99731952Y-29441689D01*
G01X99731952Y-29441689D01*
G01X99725178Y-29535771D01*
G01X99717518Y-29631701D01*
G01X99708913Y-29729404D01*
G01X99699304Y-29828806D01*
G01X99688634Y-29929832D01*
G01X99676843Y-30032408D01*
G01X99663875Y-30136460D01*
G01X99649669Y-30241913D01*
G01X99634169Y-30348694D01*
G01X99617315Y-30456727D01*
G01X99599050Y-30565938D01*
G01X99579314Y-30676253D01*
G01X99558050Y-30787597D01*
G01X99535200Y-30899897D01*
G01X99510704Y-31013077D01*
G01X99484504Y-31127063D01*
G01X99456543Y-31241782D01*
G01X99426762Y-31357158D01*
G01X99395102Y-31473117D01*
G01X99361506Y-31589585D01*
G01X99325914Y-31706487D01*
G01X99288269Y-31823749D01*
G01X99248511Y-31941297D01*
G01X99206584Y-32059056D01*
G01X99162428Y-32176952D01*
G01X99115985Y-32294911D01*
G01X99067196Y-32412858D01*
G01X99016005Y-32530718D01*
G01X98962351Y-32648418D01*
G01X98906177Y-32765882D01*
G01X98847424Y-32883037D01*
G01X98786034Y-32999809D01*
G01X98721948Y-33116122D01*
G01X98655110Y-33231903D01*
G01X98585458Y-33347077D01*
G01X98512937Y-33461569D01*
G01X98437487Y-33575306D01*
G01X98359050Y-33688213D01*
G01X98277567Y-33800215D01*
G01X98192980Y-33911238D01*
G01X98105232Y-34021208D01*
G01X98014262Y-34130051D01*
G01X97920014Y-34237691D01*
G01X97822429Y-34344055D01*
G01X97721448Y-34449069D01*
G01X97617014Y-34552657D01*
G01X97509067Y-34654746D01*
G01X97397550Y-34755261D01*
G01X97282403Y-34854127D01*
G01X97163570Y-34951271D01*
G01X97040990Y-35046618D01*
G01X96914607Y-35140094D01*
G01X96784362Y-35231623D01*
G01X96650195Y-35321133D01*
G01X96512050Y-35408548D01*
G01X96369868Y-35493794D01*
G01X96223589Y-35576796D01*
G01X96073157Y-35657481D01*
G01X95918512Y-35735774D01*
G01X95759597Y-35811600D01*
G01X95596353Y-35884886D01*
G01X95428721Y-35955556D01*
G01X95256643Y-36023537D01*
G01X95080061Y-36088754D01*
G01X94898917Y-36151132D01*
G01X94713151Y-36210598D01*
G01X94522707Y-36267076D01*
G01X94327525Y-36320493D01*
G01X94127547Y-36370774D01*
G01X93922715Y-36417845D01*
G01X93712971Y-36461631D01*
G01X93498255Y-36502058D01*
G01X93278511Y-36539051D01*
G01X93053678Y-36572537D01*
G01X92823700Y-36602441D01*
G01X92588517Y-36628688D01*
G01X92348072Y-36651204D01*
G01X92102306Y-36669915D01*
G01X91851160Y-36684746D01*
G01X91594577Y-36695623D01*
G01X91332498Y-36702471D01*
G01X91064864Y-36705217D01*
G01X90791618Y-36703785D01*
G01X90512700Y-36698102D01*
G01X90228053Y-36688093D01*
G01X89937618Y-36673683D01*
G01X89641338Y-36654799D01*
G01X89339152Y-36631365D01*
G01X89031004Y-36603308D01*
G01X88716835Y-36570553D01*
G01X88396586Y-36533026D01*
G01X88070199Y-36490652D01*
G01X87737616Y-36443357D01*
G01X87398779Y-36391067D01*
G01X87053629Y-36333707D01*
G01X86702107Y-36271202D01*
G01X86344156Y-36203479D01*
G01X85979717Y-36130463D01*
G01X85608731Y-36052080D01*
G01X85231141Y-35968255D01*
G01X85231141Y-35968255D01*
G01X85231141Y-35968255D01*
G01X85230112Y-35967924D01*
G01X85227036Y-35966927D01*
G01X85221927Y-35965256D01*
G01X85214802Y-35962903D01*
G01X85205676Y-35959862D01*
G01X85194564Y-35956123D01*
G01X85181482Y-35951681D01*
G01X85166446Y-35946527D01*
G01X85149472Y-35940653D01*
G01X85130574Y-35934053D01*
G01X85109768Y-35926718D01*
G01X85087071Y-35918642D01*
G01X85062497Y-35909816D01*
G01X85036061Y-35900234D01*
G01X85007780Y-35889887D01*
G01X84977670Y-35878768D01*
G01X84945745Y-35866869D01*
G01X84912021Y-35854183D01*
G01X84876514Y-35840703D01*
G01X84839239Y-35826420D01*
G01X84800212Y-35811328D01*
G01X84759448Y-35795419D01*
G01X84716963Y-35778685D01*
G01X84672773Y-35761118D01*
G01X84626893Y-35742712D01*
G01X84579338Y-35723458D01*
G01X84530125Y-35703350D01*
G01X84479268Y-35682379D01*
G01X84426783Y-35660538D01*
G01X84372686Y-35637819D01*
G01X84316993Y-35614215D01*
G01X84259718Y-35589719D01*
G01X84200878Y-35564323D01*
G01X84140488Y-35538019D01*
G01X84078563Y-35510799D01*
G01X84015119Y-35482657D01*
G01X83950172Y-35453585D01*
G01X83883737Y-35423575D01*
G01X83815830Y-35392619D01*
G01X83746466Y-35360710D01*
G01X83675661Y-35327841D01*
G01X83603431Y-35294004D01*
G01X83529790Y-35259192D01*
G01X83454755Y-35223396D01*
G01X83378341Y-35186610D01*
G01X83300563Y-35148826D01*
G01X83221438Y-35110036D01*
G01X83140980Y-35070232D01*
G01X83059206Y-35029408D01*
G01X82976130Y-34987556D01*
G01X82891768Y-34944668D01*
G01X82806137Y-34900736D01*
G01X82719251Y-34855754D01*
G01X82631126Y-34809713D01*
G01X82541777Y-34762606D01*
G01X82451221Y-34714425D01*
G01X82359472Y-34665163D01*
G01X82266546Y-34614813D01*
G01X82172459Y-34563367D01*
G01X82077227Y-34510817D01*
G01X81980864Y-34457156D01*
G01X81883386Y-34402375D01*
G01X81784810Y-34346469D01*
G01X81685150Y-34289429D01*
G01X81584422Y-34231247D01*
G01X81482642Y-34171917D01*
G01X81379824Y-34111430D01*
G01X81275986Y-34049779D01*
G01X81171142Y-33986956D01*
G01X81065307Y-33922955D01*
G01X80958498Y-33857766D01*
G01X80850730Y-33791384D01*
G01X80742018Y-33723800D01*
G01X80632378Y-33655007D01*
G01X80521826Y-33584997D01*
G01X80410377Y-33513762D01*
G01X80298046Y-33441296D01*
G01X80184850Y-33367591D01*
G01X80070803Y-33292638D01*
G01X79955922Y-33216431D01*
G01X79840221Y-33138962D01*
G01X79723717Y-33060223D01*
G01X79606425Y-32980208D01*
G01X79488360Y-32898908D01*
G01X79369539Y-32816315D01*
G01X79249976Y-32732423D01*
G01X79129687Y-32647224D01*
G01X79008688Y-32560710D01*
G01X78886994Y-32472873D01*
G01X78764621Y-32383707D01*
G01X78641584Y-32293203D01*
G01X78517899Y-32201355D01*
G01X78393582Y-32108154D01*
G01X78268647Y-32013593D01*
G01X78143111Y-31917664D01*
G01X78016989Y-31820361D01*
G01X77890297Y-31721674D01*
G01X77763050Y-31621598D01*
G01X77635264Y-31520124D01*
G01X77506954Y-31417244D01*
G01X77506954Y-31417244D01*
G01X77506954Y-31417244D01*
G01X77506836Y-31415645D01*
G01X77506519Y-31410886D01*
G01X77506055Y-31403024D01*
G01X77505500Y-31392115D01*
G01X77504908Y-31378218D01*
G01X77504333Y-31361390D01*
G01X77503829Y-31341687D01*
G01X77503450Y-31319167D01*
G01X77503251Y-31293886D01*
G01X77503285Y-31265903D01*
G01X77503608Y-31235274D01*
G01X77504272Y-31202056D01*
G01X77505333Y-31166306D01*
G01X77506844Y-31128082D01*
G01X77508859Y-31087441D01*
G01X77511434Y-31044440D01*
G01X77514621Y-30999136D01*
G01X77518476Y-30951586D01*
G01X77523052Y-30901848D01*
G01X77528403Y-30849978D01*
G01X77534584Y-30796034D01*
G01X77541649Y-30740072D01*
G01X77549653Y-30682151D01*
G01X77558648Y-30622326D01*
G01X77568690Y-30560656D01*
G01X77579833Y-30497197D01*
G01X77592131Y-30432007D01*
G01X77605637Y-30365143D01*
G01X77620407Y-30296661D01*
G01X77636494Y-30226620D01*
G01X77653953Y-30155075D01*
G01X77672838Y-30082085D01*
G01X77693202Y-30007706D01*
G01X77715101Y-29931997D01*
G01X77738588Y-29855012D01*
G01X77763718Y-29776811D01*
G01X77790544Y-29697450D01*
G01X77819121Y-29616986D01*
G01X77849504Y-29535476D01*
G01X77881745Y-29452978D01*
G01X77915900Y-29369548D01*
G01X77952023Y-29285245D01*
G01X77990168Y-29200124D01*
G01X78030388Y-29114244D01*
G01X78072739Y-29027660D01*
G01X78117274Y-28940431D01*
G01X78164048Y-28852614D01*
G01X78213115Y-28764265D01*
G01X78264528Y-28675443D01*
G01X78318343Y-28586203D01*
G01X78374613Y-28496603D01*
G01X78433392Y-28406701D01*
G01X78494736Y-28316553D01*
G01X78558697Y-28226217D01*
G01X78625330Y-28135750D01*
G01X78694689Y-28045208D01*
G01X78766829Y-27954650D01*
G01X78841804Y-27864132D01*
G01X78919667Y-27773711D01*
G01X79000474Y-27683445D01*
G01X79084277Y-27593390D01*
G01X79171132Y-27503604D01*
G01X79261093Y-27414144D01*
G01X79354213Y-27325068D01*
G01X79450548Y-27236431D01*
G01X79550150Y-27148292D01*
G01X79653075Y-27060708D01*
G01X79759376Y-26973735D01*
G01X79869108Y-26887431D01*
G01X79982325Y-26801853D01*
G01X80099081Y-26717058D01*
G01X80219430Y-26633104D01*
G01X80343426Y-26550047D01*
G01X80471125Y-26467945D01*
G01X80602579Y-26386854D01*
G01X80737843Y-26306833D01*
G01X80876971Y-26227937D01*
G01X81020017Y-26150225D01*
G01X81167036Y-26073753D01*
G01X81318082Y-25998578D01*
G01X81473209Y-25924758D01*
G01X81632471Y-25852350D01*
G01X81795922Y-25781411D01*
G01X81963617Y-25711999D01*
G01X82135610Y-25644169D01*
G01X82311954Y-25577980D01*
G01X82492704Y-25513488D01*
G01X82677915Y-25450751D01*
G01X82867640Y-25389826D01*
G01X83061933Y-25330770D01*
G01X83260850Y-25273640D01*
G01X83464443Y-25218494D01*
G01X83672768Y-25165388D01*
G01X83885878Y-25114379D01*
G01X84103827Y-25065525D01*
G01X84326670Y-25018884D01*
G01X84554462Y-24974511D01*
G01X84787255Y-24932464D01*
G01X85025104Y-24892801D01*
G01X85268064Y-24855579D01*
G01X85268064Y-24855579D01*
G37*
G36*
G01X23198684Y-74865104D02*
G01X21799821Y-73732328D01*
G01X22775268Y-72527751D01*
G01X24174131Y-73660528D01*
G01X23198684Y-74865104D01*
G37*
G36*
G01X19860971Y-70167801D02*
G01X21259833Y-71300577D01*
G01X20284387Y-72505154D01*
G01X18885524Y-71372377D01*
G01X19860971Y-70167801D01*
G37*
G36*
G01X14081955Y-67879770D02*
G01X12924937Y-66500890D01*
G01X14112306Y-65504569D01*
G01X15269324Y-66883449D01*
G01X14081955Y-67879770D01*
G37*
G36*
G01X11701854Y-62631903D02*
G01X12858871Y-64010783D01*
G01X11671502Y-65007104D01*
G01X10514485Y-63628224D01*
G01X11701854Y-62631903D01*
G37*
G36*
G01X89507628Y-53624468D02*
G01X89507628Y-55424468D01*
G01X87957628Y-55424468D01*
G01X87957628Y-53624468D01*
G01X89507628Y-53624468D01*
G37*
G36*
G01X87957628Y-59174468D02*
G01X87957628Y-57374468D01*
G01X89507628Y-57374468D01*
G01X89507628Y-59174468D01*
G01X87957628Y-59174468D01*
G37*
G36*
G01X48266234Y-80854938D02*
G01X46476094Y-80666787D01*
G01X46638113Y-79125278D01*
G01X48428253Y-79313429D01*
G01X48266234Y-80854938D01*
G37*
G36*
G01X42908656Y-78733297D02*
G01X44698796Y-78921448D01*
G01X44536777Y-80462957D01*
G01X42746637Y-80274806D01*
G01X42908656Y-78733297D01*
G37*
G36*
G01X7095526Y-58134605D02*
G01X6195526Y-56575759D01*
G01X7537866Y-55800759D01*
G01X8437866Y-57359605D01*
G01X7095526Y-58134605D01*
G37*
G36*
G01X5662866Y-52553164D02*
G01X6562866Y-54112010D01*
G01X5220527Y-54887010D01*
G01X4320527Y-53328164D01*
G01X5662866Y-52553164D01*
G37*
G36*
G01X75022550Y-74039128D02*
G01X73448235Y-74911786D01*
G01X72696780Y-73556125D01*
G01X74271095Y-72683468D01*
G01X75022550Y-74039128D01*
G37*
G36*
G01X69416956Y-75374161D02*
G01X70991272Y-74501503D01*
G01X71742727Y-75857164D01*
G01X70168411Y-76729821D01*
G01X69416956Y-75374161D01*
G37*
G36*
G01X14525711Y-30947633D02*
G01X16052198Y-31901488D01*
G01X15230823Y-33215962D01*
G01X13704336Y-32262107D01*
G01X14525711Y-30947633D01*
G37*
G36*
G01X18411003Y-35203160D02*
G01X16884517Y-34249305D01*
G01X17705892Y-32934831D01*
G01X19232378Y-33888686D01*
G01X18411003Y-35203160D01*
G37*
G36*
G01X1846774Y-35157378D02*
G01X2312648Y-33418712D01*
G01X3809833Y-33819881D01*
G01X3343959Y-35558548D01*
G01X1846774Y-35157378D01*
G37*
G36*
G01X4780405Y-30197661D02*
G01X4314531Y-31936327D01*
G01X2817346Y-31535158D01*
G01X3283220Y-29796491D01*
G01X4780405Y-30197661D01*
G37*
G36*
G01X40188945Y-31793415D02*
G01X41971428Y-31542903D01*
G01X42187146Y-33077819D01*
G01X40404663Y-33328331D01*
G01X40188945Y-31793415D01*
G37*
G36*
G01X45900650Y-32555920D02*
G01X44118168Y-32806432D01*
G01X43902449Y-31271516D01*
G01X45684932Y-31021004D01*
G01X45900650Y-32555920D01*
G37*
G36*
G01X101385567Y-1450000D02*
G01X102585567Y-1450000D01*
G01X102585567Y-2650000D01*
G01X101385567Y-2650000D01*
G01X101385567Y-1450000D01*
G37*
G36*
G01X102835567Y-1829102D02*
G01X102835567Y-1829102D01*
G01X102853438Y-1793946D01*
G01X102853438Y-1793946D01*
G01X102910445Y-1786381D01*
G01X102914669Y-1786329D01*
G01X102948653Y-1786329D01*
G01X102948653Y-1786329D01*
G01X102945162Y-1707561D01*
G01X102941834Y-1660582D01*
G01X102941036Y-1651563D01*
G01X102941036Y-1651563D01*
G01X102980880Y-1648047D01*
G01X102980880Y-1648047D01*
G01X103035151Y-1678967D01*
G01X103038301Y-1693750D01*
G01X103038301Y-1693750D01*
G01X103035677Y-1752063D01*
G01X103033614Y-1787500D01*
G01X103033614Y-1787500D01*
G01X103129378Y-1786493D01*
G01X103191524Y-1784278D01*
G01X103225106Y-1782062D01*
G01X103235176Y-1781055D01*
G01X103235176Y-1781055D01*
G01X103235176Y-1781055D01*
G01X103239864Y-1809180D01*
G01X103239864Y-1809180D01*
G01X103227266Y-1841407D01*
G01X103227266Y-1841407D01*
G01X103187130Y-1850782D01*
G01X103187130Y-1850782D01*
G01X103129185Y-1851601D01*
G01X103063682Y-1851908D01*
G01X103031304Y-1851954D01*
G01X103031270Y-1851954D01*
G01X103031270Y-1851954D01*
G01X103030172Y-1926151D01*
G01X103029485Y-1996828D01*
G01X103029113Y-2057548D01*
G01X103028959Y-2101872D01*
G01X103028927Y-2123362D01*
G01X103028926Y-2124414D01*
G01X103028926Y-2124414D01*
G01X103035852Y-2210115D01*
G01X103047880Y-2251574D01*
G01X103052364Y-2260059D01*
G01X103052364Y-2260059D01*
G01X103107432Y-2290169D01*
G01X103129708Y-2292579D01*
G01X103129708Y-2292579D01*
G01X103194344Y-2272782D01*
G01X103215840Y-2256250D01*
G01X103215840Y-2256250D01*
G01X103237520Y-2299610D01*
G01X103237520Y-2299610D01*
G01X103206787Y-2340166D01*
G01X103206465Y-2340332D01*
G01X103206465Y-2340332D01*
G01X103144758Y-2355194D01*
G01X103130880Y-2355860D01*
G01X103130880Y-2355860D01*
G01X103052608Y-2341983D01*
G01X103006815Y-2315405D01*
G01X102990161Y-2298706D01*
G01X102989962Y-2298438D01*
G01X102989962Y-2298438D01*
G01X102964071Y-2240592D01*
G01X102952172Y-2178545D01*
G01X102948822Y-2134832D01*
G01X102948653Y-2126758D01*
G01X102948653Y-2126758D01*
G01X102949751Y-2019360D01*
G01X102950438Y-1942231D01*
G01X102950810Y-1891250D01*
G01X102950964Y-1862292D01*
G01X102950996Y-1851234D01*
G01X102950997Y-1850782D01*
G01X102950997Y-1850782D01*
G01X102901970Y-1854519D01*
G01X102842121Y-1859325D01*
G01X102839083Y-1859571D01*
G01X102839083Y-1859571D01*
G01X102835567Y-1829102D01*
G37*
G36*
G01X103311348Y-2065821D02*
G01X103311348Y-2065821D01*
G01X103320278Y-1986638D01*
G01X103340928Y-1924311D01*
G01X103364090Y-1880636D01*
G01X103380554Y-1857411D01*
G01X103383419Y-1854004D01*
G01X103383419Y-1854004D01*
G01X103440777Y-1809133D01*
G01X103500160Y-1785270D01*
G01X103548203Y-1775780D01*
G01X103571541Y-1774029D01*
G01X103572090Y-1774024D01*
G01X103572090Y-1774024D01*
G01X103648583Y-1785633D01*
G01X103707040Y-1811616D01*
G01X103745325Y-1838704D01*
G01X103761298Y-1853631D01*
G01X103761641Y-1854004D01*
G01X103761641Y-1854004D01*
G01X103799356Y-1912365D01*
G01X103820813Y-1974049D01*
G01X103830597Y-2027320D01*
G01X103833295Y-2060443D01*
G01X103833419Y-2065821D01*
G01X103833419Y-2065821D01*
G01X103823774Y-2148098D01*
G01X103801827Y-2211712D01*
G01X103778058Y-2254739D01*
G01X103762946Y-2275253D01*
G01X103761641Y-2276758D01*
G01X103761641Y-2276758D01*
G01X103704277Y-2321136D01*
G01X103644601Y-2344737D01*
G01X103596196Y-2354123D01*
G01X103572645Y-2355855D01*
G01X103572090Y-2355860D01*
G01X103572090Y-2355860D01*
G01X103496213Y-2344378D01*
G01X103438010Y-2318681D01*
G01X103399765Y-2291890D01*
G01X103383763Y-2277128D01*
G01X103383419Y-2276758D01*
G01X103383419Y-2276758D01*
G01X103345549Y-2218859D01*
G01X103324005Y-2157438D01*
G01X103314181Y-2104287D01*
G01X103311473Y-2071197D01*
G01X103311348Y-2065821D01*
G37*
%LPC*%
G36*
G01X103395723Y-2048829D02*
G01X103395723Y-2048829D01*
G01X103404634Y-2126577D01*
G01X103423187Y-2183587D01*
G01X103439109Y-2215382D01*
G01X103442305Y-2220508D01*
G01X103442305Y-2220508D01*
G01X103496079Y-2268444D01*
G01X103547945Y-2286368D01*
G01X103572066Y-2289063D01*
G01X103572090Y-2289063D01*
G01X103572090Y-2289063D01*
G01X103646076Y-2273214D01*
G01X103690367Y-2244963D01*
G01X103702755Y-2232813D01*
G01X103702755Y-2232813D01*
G01X103734891Y-2171594D01*
G01X103747443Y-2113139D01*
G01X103749627Y-2083255D01*
G01X103749630Y-2082813D01*
G01X103749630Y-2082813D01*
G01X103740438Y-2004953D01*
G01X103721303Y-1947709D01*
G01X103704879Y-1915713D01*
G01X103701583Y-1910547D01*
G01X103701583Y-1910547D01*
G01X103647232Y-1862202D01*
G01X103595822Y-1844124D01*
G01X103572115Y-1841407D01*
G01X103572090Y-1841407D01*
G01X103572090Y-1841407D01*
G01X103498270Y-1857420D01*
G01X103454273Y-1885966D01*
G01X103442012Y-1898243D01*
G01X103442012Y-1898243D01*
G01X103410278Y-1959864D01*
G01X103397883Y-2018475D01*
G01X103395726Y-2048387D01*
G01X103395723Y-2048829D01*
G37*
%LPD*%
G36*
G01X103959395Y-1792188D02*
G01X103959395Y-1792188D01*
G01X104006270Y-1782813D01*
G01X104006270Y-1782813D01*
G01X104053733Y-1818930D01*
G01X104057833Y-1842579D01*
G01X104057833Y-1842579D01*
G01X104125966Y-1802945D01*
G01X104186739Y-1782593D01*
G01X104230373Y-1775095D01*
G01X104247090Y-1774024D01*
G01X104247090Y-1774024D01*
G01X104247090Y-1774024D01*
G01X104321016Y-1788698D01*
G01X104371817Y-1817431D01*
G01X104394778Y-1837285D01*
G01X104395626Y-1838184D01*
G01X104395626Y-1838184D01*
G01X104429331Y-1895784D01*
G01X104446639Y-1959949D01*
G01X104453015Y-2012084D01*
G01X104453926Y-2033594D01*
G01X104453926Y-2033594D01*
G01X104453926Y-2033594D01*
G01X104447342Y-2109919D01*
G01X104434731Y-2166070D01*
G01X104426808Y-2190872D01*
G01X104426680Y-2191211D01*
G01X104426680Y-2191211D01*
G01X104391239Y-2254637D01*
G01X104355005Y-2295678D01*
G01X104339669Y-2309278D01*
G01X104339669Y-2309278D01*
G01X104276377Y-2341850D01*
G01X104220506Y-2354029D01*
G01X104195553Y-2355860D01*
G01X104195528Y-2355860D01*
G01X104195528Y-2355860D01*
G01X104124516Y-2343913D01*
G01X104075010Y-2323164D01*
G01X104061348Y-2315430D01*
G01X104061348Y-2315430D01*
G01X104061873Y-2372430D01*
G01X104061934Y-2378418D01*
G01X104061934Y-2378418D01*
G01X104062916Y-2447617D01*
G01X104063106Y-2455762D01*
G01X104063106Y-2455762D01*
G01X104065787Y-2514140D01*
G01X104066036Y-2518750D01*
G01X104066036Y-2518750D01*
G01X104072289Y-2582415D01*
G01X104073360Y-2589063D01*
G01X104073360Y-2589063D01*
G01X104085370Y-2638275D01*
G01X104085372Y-2638282D01*
G01X104085372Y-2638282D01*
G01X104037325Y-2647657D01*
G01X104037325Y-2647657D01*
G01X103990743Y-2632129D01*
G01X103990743Y-2632129D01*
G01X103990743Y-2632129D01*
G01X103978740Y-2579970D01*
G01X103978731Y-2579102D01*
G01X103978731Y-2579102D01*
G01X103978881Y-2511405D01*
G01X103979250Y-2440867D01*
G01X103979715Y-2375525D01*
G01X103980153Y-2323417D01*
G01X103980440Y-2292580D01*
G01X103980489Y-2287598D01*
G01X103980489Y-2287598D01*
G01X103981380Y-2191724D01*
G01X103981904Y-2121644D01*
G01X103982158Y-2075323D01*
G01X103982239Y-2050728D01*
G01X103982247Y-2045313D01*
G01X103982247Y-2045313D01*
G01X103979870Y-1946313D01*
G01X103974203Y-1874454D01*
G01X103967439Y-1826782D01*
G01X103961772Y-1800344D01*
G01X103959395Y-1792188D01*
G01X103959395Y-1792188D01*
G37*
%LPC*%
G36*
G01X104061348Y-1907618D02*
G01X104061348Y-1907618D01*
G01X104062253Y-2014310D01*
G01X104062888Y-2098442D01*
G01X104063302Y-2162056D01*
G01X104063542Y-2207191D01*
G01X104063655Y-2235889D01*
G01X104063690Y-2250191D01*
G01X104063692Y-2252735D01*
G01X104063692Y-2252735D01*
G01X104126821Y-2278358D01*
G01X104184505Y-2287750D01*
G01X104207833Y-2289063D01*
G01X104207833Y-2289063D01*
G01X104273897Y-2270752D01*
G01X104299532Y-2252442D01*
G01X104299532Y-2252442D01*
G01X104299532Y-2252442D01*
G01X104339309Y-2196459D01*
G01X104352777Y-2163918D01*
G01X104352852Y-2163672D01*
G01X104352852Y-2163672D01*
G01X104365653Y-2095912D01*
G01X104368353Y-2053661D01*
G01X104368380Y-2051172D01*
G01X104368380Y-2051172D01*
G01X104358931Y-1967118D01*
G01X104340432Y-1914788D01*
G01X104327650Y-1893135D01*
G01X104327071Y-1892383D01*
G01X104327071Y-1892383D01*
G01X104269041Y-1851353D01*
G01X104225355Y-1841615D01*
G01X104220723Y-1841407D01*
G01X104220723Y-1841407D01*
G01X104152568Y-1854882D01*
G01X104097075Y-1882390D01*
G01X104065136Y-1904552D01*
G01X104061348Y-1907618D01*
G37*
%LPD*%
G36*
G01X104831270Y-2260352D02*
G01X104831270Y-2260352D01*
G01X104869248Y-2216249D01*
G01X104885176Y-2209961D01*
G01X104885176Y-2209961D01*
G01X104926077Y-2259257D01*
G01X104942305Y-2268848D01*
G01X104942305Y-2268848D01*
G01X105008457Y-2286827D01*
G01X105037520Y-2289063D01*
G01X105037520Y-2289063D01*
G01X105105029Y-2274918D01*
G01X105121016Y-2266211D01*
G01X105121016Y-2266211D01*
G01X105151332Y-2211336D01*
G01X105152950Y-2195313D01*
G01X105152950Y-2195313D01*
G01X105125651Y-2143536D01*
G01X105121016Y-2140235D01*
G01X105121016Y-2140235D01*
G01X105060900Y-2115254D01*
G01X105043672Y-2110645D01*
G01X105043672Y-2110645D01*
G01X104977094Y-2093680D01*
G01X104952559Y-2086622D01*
G01X104952559Y-2086622D01*
G01X104894199Y-2053367D01*
G01X104874922Y-2034473D01*
G01X104874922Y-2034473D01*
G01X104847743Y-1973012D01*
G01X104842996Y-1933477D01*
G01X104842989Y-1932813D01*
G01X104842989Y-1932813D01*
G01X104862984Y-1865300D01*
G01X104895833Y-1825983D01*
G01X104904805Y-1818555D01*
G01X104904805Y-1818555D01*
G01X104969750Y-1786826D01*
G01X105023693Y-1775483D01*
G01X105044551Y-1774024D01*
G01X105044551Y-1774024D01*
G01X105113168Y-1784365D01*
G01X105152749Y-1798218D01*
G01X105155001Y-1799219D01*
G01X105155001Y-1799219D01*
G01X105203924Y-1846894D01*
G01X105209200Y-1868946D01*
G01X105209200Y-1868946D01*
G01X105171222Y-1913632D01*
G01X105155294Y-1919336D01*
G01X105155294Y-1919336D01*
G01X105114376Y-1871545D01*
G01X105101094Y-1863086D01*
G01X105101094Y-1863086D01*
G01X105036699Y-1843130D01*
G01X105015840Y-1841407D01*
G01X105015840Y-1841407D01*
G01X104954031Y-1857998D01*
G01X104944942Y-1863672D01*
G01X104944942Y-1863672D01*
G01X104915866Y-1917034D01*
G01X104915059Y-1926368D01*
G01X104915059Y-1926368D01*
G01X104942003Y-1978855D01*
G01X104946993Y-1982618D01*
G01X104946993Y-1982618D01*
G01X105006308Y-2008837D01*
G01X105024337Y-2013965D01*
G01X105024337Y-2013965D01*
G01X105089938Y-2031183D01*
G01X105115450Y-2038575D01*
G01X105115450Y-2038575D01*
G01X105174583Y-2071179D01*
G01X105193087Y-2088379D01*
G01X105193087Y-2088379D01*
G01X105221028Y-2148914D01*
G01X105225020Y-2182422D01*
G01X105225020Y-2182422D01*
G01X105225020Y-2182422D01*
G01X105208599Y-2254822D01*
G01X105178587Y-2298147D01*
G01X105163790Y-2311622D01*
G01X105163790Y-2311622D01*
G01X105099474Y-2342555D01*
G01X105043219Y-2354121D01*
G01X105018209Y-2355860D01*
G01X105018184Y-2355860D01*
G01X105018184Y-2355860D01*
G01X104944014Y-2346952D01*
G01X104897368Y-2332318D01*
G01X104888106Y-2328321D01*
G01X104888106Y-2328321D01*
G01X104836802Y-2280827D01*
G01X104831270Y-2260352D01*
G37*
G36*
G01X105327559Y-2065821D02*
G01X105327559Y-2065821D01*
G01X105336489Y-1986638D01*
G01X105357139Y-1924311D01*
G01X105380301Y-1880636D01*
G01X105396765Y-1857411D01*
G01X105399630Y-1854004D01*
G01X105399630Y-1854004D01*
G01X105456988Y-1809133D01*
G01X105516371Y-1785270D01*
G01X105564414Y-1775780D01*
G01X105587752Y-1774029D01*
G01X105588301Y-1774024D01*
G01X105588301Y-1774024D01*
G01X105664794Y-1785633D01*
G01X105723251Y-1811616D01*
G01X105761536Y-1838704D01*
G01X105777509Y-1853631D01*
G01X105777852Y-1854004D01*
G01X105777852Y-1854004D01*
G01X105815567Y-1912365D01*
G01X105837024Y-1974049D01*
G01X105846808Y-2027320D01*
G01X105849505Y-2060443D01*
G01X105849630Y-2065821D01*
G01X105849630Y-2065821D01*
G01X105839985Y-2148098D01*
G01X105818038Y-2211712D01*
G01X105794269Y-2254739D01*
G01X105779157Y-2275253D01*
G01X105777852Y-2276758D01*
G01X105777852Y-2276758D01*
G01X105720488Y-2321136D01*
G01X105660812Y-2344737D01*
G01X105612407Y-2354123D01*
G01X105588856Y-2355855D01*
G01X105588301Y-2355860D01*
G01X105588301Y-2355860D01*
G01X105512424Y-2344378D01*
G01X105454221Y-2318681D01*
G01X105415976Y-2291890D01*
G01X105399974Y-2277128D01*
G01X105399630Y-2276758D01*
G01X105399630Y-2276758D01*
G01X105361760Y-2218859D01*
G01X105340216Y-2157438D01*
G01X105330392Y-2104287D01*
G01X105327684Y-2071197D01*
G01X105327559Y-2065821D01*
G37*
%LPC*%
G36*
G01X105411934Y-2048829D02*
G01X105411934Y-2048829D01*
G01X105420845Y-2126577D01*
G01X105439397Y-2183587D01*
G01X105455320Y-2215382D01*
G01X105458516Y-2220508D01*
G01X105458516Y-2220508D01*
G01X105512290Y-2268444D01*
G01X105564156Y-2286368D01*
G01X105588277Y-2289063D01*
G01X105588301Y-2289063D01*
G01X105588301Y-2289063D01*
G01X105662287Y-2273214D01*
G01X105706578Y-2244963D01*
G01X105718965Y-2232813D01*
G01X105718965Y-2232813D01*
G01X105751101Y-2171594D01*
G01X105763653Y-2113139D01*
G01X105765837Y-2083255D01*
G01X105765840Y-2082813D01*
G01X105765840Y-2082813D01*
G01X105756649Y-2004953D01*
G01X105737514Y-1947709D01*
G01X105721090Y-1915713D01*
G01X105717794Y-1910547D01*
G01X105717794Y-1910547D01*
G01X105663443Y-1862202D01*
G01X105612033Y-1844124D01*
G01X105588326Y-1841407D01*
G01X105588301Y-1841407D01*
G01X105588301Y-1841407D01*
G01X105514481Y-1857420D01*
G01X105470484Y-1885966D01*
G01X105458223Y-1898243D01*
G01X105458223Y-1898243D01*
G01X105426489Y-1959864D01*
G01X105414094Y-2018475D01*
G01X105411937Y-2048387D01*
G01X105411934Y-2048829D01*
G37*
%LPD*%
G36*
G01X105975606Y-1455860D02*
G01X105975606Y-1455860D01*
G01X106017794Y-1452344D01*
G01X106017794Y-1452344D01*
G01X106070082Y-1483907D01*
G01X106072872Y-1498047D01*
G01X106072872Y-1498047D01*
G01X106071332Y-1554789D01*
G01X106071114Y-1562207D01*
G01X106071114Y-1562207D01*
G01X106069272Y-1626627D01*
G01X106067580Y-1687843D01*
G01X106066732Y-1719071D01*
G01X106066719Y-1719532D01*
G01X106066719Y-1719532D01*
G01X106065151Y-1794038D01*
G01X106064374Y-1858111D01*
G01X106064111Y-1901555D01*
G01X106064083Y-1914649D01*
G01X106064083Y-2101563D01*
G01X106064083Y-2101563D01*
G01X106066683Y-2191160D01*
G01X106072790Y-2259312D01*
G01X106079864Y-2306279D01*
G01X106085366Y-2332322D01*
G01X106086934Y-2338282D01*
G01X106086934Y-2338282D01*
G01X106041817Y-2347657D01*
G01X106041817Y-2347657D01*
G01X105995528Y-2333301D01*
G01X105995528Y-2333301D01*
G01X105982637Y-2285547D01*
G01X105982637Y-2285547D01*
G01X105982637Y-2285547D01*
G01X105982936Y-2235454D01*
G01X105983495Y-2168080D01*
G01X105983809Y-2132949D01*
G01X105983809Y-2132911D01*
G01X105983809Y-2132911D01*
G01X105984525Y-2043698D01*
G01X105984867Y-1982444D01*
G01X105984973Y-1949047D01*
G01X105984981Y-1942188D01*
G01X105984981Y-1802735D01*
G01X105984981Y-1802735D01*
G01X105984412Y-1689649D01*
G01X105982956Y-1603003D01*
G01X105980994Y-1539653D01*
G01X105978906Y-1496454D01*
G01X105977071Y-1470261D01*
G01X105975869Y-1457931D01*
G01X105975606Y-1455860D01*
G37*
G36*
G01X106212911Y-2065821D02*
G01X106212911Y-2065821D01*
G01X106222058Y-1987181D01*
G01X106243212Y-1925036D01*
G01X106266939Y-1881333D01*
G01X106283805Y-1858018D01*
G01X106286739Y-1854590D01*
G01X106286739Y-1854590D01*
G01X106345717Y-1808013D01*
G01X106403487Y-1784095D01*
G01X106447414Y-1775283D01*
G01X106464864Y-1774024D01*
G01X106464864Y-1774024D01*
G01X106464864Y-1774024D01*
G01X106536127Y-1785580D01*
G01X106587816Y-1806180D01*
G01X106604317Y-1815039D01*
G01X106604317Y-1815039D01*
G01X106606179Y-1736439D01*
G01X106606647Y-1694792D01*
G01X106606661Y-1690235D01*
G01X106606661Y-1690235D01*
G01X106605499Y-1601904D01*
G01X106602813Y-1532917D01*
G01X106599800Y-1484921D01*
G01X106597658Y-1459562D01*
G01X106597286Y-1455860D01*
G01X106597286Y-1455860D01*
G01X106640059Y-1452344D01*
G01X106640059Y-1452344D01*
G01X106691450Y-1484543D01*
G01X106693965Y-1498047D01*
G01X106693965Y-1498047D01*
G01X106693467Y-1539368D01*
G01X106692260Y-1602903D01*
G01X106690779Y-1672160D01*
G01X106689457Y-1730644D01*
G01X106688730Y-1761862D01*
G01X106688692Y-1763477D01*
G01X106688692Y-1763477D01*
G01X106686544Y-1860156D01*
G01X106685077Y-1937669D01*
G01X106684160Y-1997009D01*
G01X106683665Y-2039170D01*
G01X106683461Y-2065146D01*
G01X106683419Y-2075929D01*
G01X106683419Y-2076368D01*
G01X106683419Y-2076368D01*
G01X106685580Y-2176081D01*
G01X106690810Y-2248900D01*
G01X106697228Y-2298005D01*
G01X106702953Y-2326581D01*
G01X106706104Y-2337811D01*
G01X106706270Y-2338282D01*
G01X106706270Y-2338282D01*
G01X106660567Y-2347657D01*
G01X106660567Y-2347657D01*
G01X106612766Y-2311539D01*
G01X106607833Y-2287891D01*
G01X106607833Y-2287891D01*
G01X106544761Y-2331533D01*
G01X106489418Y-2350824D01*
G01X106456037Y-2355710D01*
G01X106451973Y-2355860D01*
G01X106450801Y-2355860D01*
G01X106450801Y-2355860D01*
G01X106379375Y-2341149D01*
G01X106324367Y-2309933D01*
G01X106291174Y-2281587D01*
G01X106283809Y-2273829D01*
G01X106283809Y-2273829D01*
G01X106245278Y-2212320D01*
G01X106224075Y-2149268D01*
G01X106215023Y-2097078D01*
G01X106212947Y-2068152D01*
G01X106212911Y-2065821D01*
G37*
%LPC*%
G36*
G01X106297286Y-2048829D02*
G01X106297286Y-2048829D01*
G01X106306925Y-2128780D01*
G01X106326994Y-2186803D01*
G01X106344219Y-2218884D01*
G01X106347676Y-2224024D01*
G01X106347676Y-2224024D01*
G01X106404369Y-2273752D01*
G01X106452750Y-2290728D01*
G01X106469551Y-2292579D01*
G01X106469551Y-2292579D01*
G01X106535401Y-2275109D01*
G01X106584402Y-2242410D01*
G01X106604298Y-2224044D01*
G01X106604317Y-2224024D01*
G01X106604317Y-2224024D01*
G01X106603413Y-2102175D01*
G01X106602777Y-2012406D01*
G01X106602363Y-1949935D01*
G01X106602123Y-1909980D01*
G01X106602010Y-1887760D01*
G01X106601976Y-1878492D01*
G01X106601973Y-1877149D01*
G01X106601973Y-1877149D01*
G01X106532422Y-1849519D01*
G01X106486426Y-1841787D01*
G01X106478340Y-1841407D01*
G01X106478340Y-1841407D01*
G01X106405597Y-1856650D01*
G01X106360417Y-1884507D01*
G01X106345919Y-1898243D01*
G01X106345919Y-1898243D01*
G01X106312577Y-1959864D01*
G01X106299555Y-2018475D01*
G01X106297289Y-2048387D01*
G01X106297286Y-2048829D01*
G37*
%LPD*%
G36*
G01X106831661Y-2068164D02*
G01X106831661Y-2068164D01*
G01X106841571Y-1984220D01*
G01X106864487Y-1920006D01*
G01X106890191Y-1876198D01*
G01X106908462Y-1853468D01*
G01X106911641Y-1850196D01*
G01X106911641Y-1850196D01*
G01X106974726Y-1806159D01*
G01X107035530Y-1783545D01*
G01X107081339Y-1775214D01*
G01X107099434Y-1774024D01*
G01X107099434Y-1774024D01*
G01X107099434Y-1774024D01*
G01X107174906Y-1787396D01*
G01X107221845Y-1811233D01*
G01X107235372Y-1821485D01*
G01X107235372Y-1821485D01*
G01X107276256Y-1881175D01*
G01X107287103Y-1925791D01*
G01X107287520Y-1932813D01*
G01X107287520Y-1932813D01*
G01X107275988Y-1998760D01*
G01X107270821Y-2010743D01*
G01X107270821Y-2010743D01*
G01X107231312Y-2056645D01*
G01X107227169Y-2059668D01*
G01X107227169Y-2059668D01*
G01X107168051Y-2082883D01*
G01X107149239Y-2087207D01*
G01X107149239Y-2087207D01*
G01X107080025Y-2096839D01*
G01X107049044Y-2099219D01*
G01X107049044Y-2099219D01*
G01X107049044Y-2099219D01*
G01X106983891Y-2101031D01*
G01X106930022Y-2101538D01*
G01X106919551Y-2101563D01*
G01X106919551Y-2101563D01*
G01X106937624Y-2176526D01*
G01X106960834Y-2223309D01*
G01X106971407Y-2238379D01*
G01X106971407Y-2238379D01*
G01X107028212Y-2276984D01*
G01X107077915Y-2288362D01*
G01X107089473Y-2289063D01*
G01X107089473Y-2289063D01*
G01X107164864Y-2272249D01*
G01X107205678Y-2241519D01*
G01X107217208Y-2226368D01*
G01X107217208Y-2226368D01*
G01X107263371Y-2269079D01*
G01X107264669Y-2276758D01*
G01X107264669Y-2276758D01*
G01X107229358Y-2324261D01*
G01X107210176Y-2334180D01*
G01X107210176Y-2334180D01*
G01X107142183Y-2351407D01*
G01X107094383Y-2355733D01*
G01X107088301Y-2355860D01*
G01X107088301Y-2355860D01*
G01X107011708Y-2344736D01*
G01X106953463Y-2320264D01*
G01X106916420Y-2295792D01*
G01X106903438Y-2284668D01*
G01X106903438Y-2284668D01*
G01X106903438Y-2284668D01*
G01X106865723Y-2229256D01*
G01X106844266Y-2166338D01*
G01X106834482Y-2109934D01*
G01X106831785Y-2074063D01*
G01X106831661Y-2068164D01*
G37*
%LPC*%
G36*
G01X106918380Y-2041797D02*
G01X106918380Y-2041797D01*
G01X106988639Y-2041055D01*
G01X107004512Y-2040625D01*
G01X107004512Y-2040625D01*
G01X107067471Y-2034997D01*
G01X107080098Y-2033301D01*
G01X107080098Y-2033301D01*
G01X107141171Y-2018374D01*
G01X107146309Y-2016309D01*
G01X107146309Y-2016309D01*
G01X107187571Y-1985308D01*
G01X107187618Y-1985254D01*
G01X107187618Y-1985254D01*
G01X107204897Y-1935582D01*
G01X107204903Y-1935157D01*
G01X107204903Y-1935157D01*
G01X107181748Y-1877423D01*
G01X107173262Y-1868360D01*
G01X107173262Y-1868360D01*
G01X107114105Y-1842173D01*
G01X107094747Y-1840235D01*
G01X107094747Y-1840235D01*
G01X107024926Y-1855463D01*
G01X106981513Y-1881202D01*
G01X106971700Y-1889454D01*
G01X106971700Y-1889454D01*
G01X106936933Y-1946090D01*
G01X106921935Y-2005740D01*
G01X106918430Y-2040335D01*
G01X106918380Y-2041797D01*
G37*
%LPD*%
G36*
G01X107413497Y-1786329D02*
G01X107413497Y-1786329D01*
G01X107454512Y-1782813D01*
G01X107454512Y-1782813D01*
G01X107504048Y-1815830D01*
G01X107506075Y-1827930D01*
G01X107506075Y-1827930D01*
G01X107505489Y-1844336D01*
G01X107505489Y-1844336D01*
G01X107504903Y-1870118D01*
G01X107504903Y-1870118D01*
G01X107549059Y-1820230D01*
G01X107569063Y-1803614D01*
G01X107569063Y-1803614D01*
G01X107631305Y-1776063D01*
G01X107648458Y-1774024D01*
G01X107648458Y-1774024D01*
G01X107691817Y-1786622D01*
G01X107691817Y-1786622D01*
G01X107707637Y-1820899D01*
G01X107707637Y-1820899D01*
G01X107685262Y-1872581D01*
G01X107683614Y-1874805D01*
G01X107683614Y-1874805D01*
G01X107629450Y-1852165D01*
G01X107625606Y-1851954D01*
G01X107625606Y-1851954D01*
G01X107567217Y-1872290D01*
G01X107558516Y-1878321D01*
G01X107558516Y-1878321D01*
G01X107514222Y-1928005D01*
G01X107501973Y-1948047D01*
G01X107501973Y-1948047D01*
G01X107501154Y-2005096D01*
G01X107500847Y-2068922D01*
G01X107500801Y-2100358D01*
G01X107500801Y-2100391D01*
G01X107500801Y-2100391D01*
G01X107503401Y-2191043D01*
G01X107509508Y-2259580D01*
G01X107516583Y-2306523D01*
G01X107522085Y-2332393D01*
G01X107523653Y-2338282D01*
G01X107523653Y-2338282D01*
G01X107477950Y-2347657D01*
G01X107477950Y-2347657D01*
G01X107431368Y-2332129D01*
G01X107431368Y-2332129D01*
G01X107431368Y-2332129D01*
G01X107419365Y-2279970D01*
G01X107419356Y-2279102D01*
G01X107419356Y-2279102D01*
G01X107419995Y-2220743D01*
G01X107420528Y-2184473D01*
G01X107420528Y-2184473D01*
G01X107421483Y-2106431D01*
G01X107421697Y-2069448D01*
G01X107421700Y-2066993D01*
G01X107421700Y-2066993D01*
G01X107420998Y-1980650D01*
G01X107419276Y-1908114D01*
G01X107417107Y-1851006D01*
G01X107415066Y-1810946D01*
G01X107413726Y-1789552D01*
G01X107413497Y-1786329D01*
G37*
G36*
G01X107791426Y-1792188D02*
G01X107791426Y-1792188D01*
G01X107834786Y-1782813D01*
G01X107834786Y-1782813D01*
G01X107884845Y-1817163D01*
G01X107889864Y-1842579D01*
G01X107889864Y-1842579D01*
G01X107947945Y-1806763D01*
G01X107978340Y-1793360D01*
G01X107978340Y-1793360D01*
G01X107978340Y-1793360D01*
G01X108047481Y-1776441D01*
G01X108077950Y-1774024D01*
G01X108077950Y-1774024D01*
G01X108077950Y-1774024D01*
G01X108152350Y-1791848D01*
G01X108194928Y-1826747D01*
G01X108211025Y-1850861D01*
G01X108211544Y-1851954D01*
G01X108211544Y-1851954D01*
G01X108265502Y-1814126D01*
G01X108301459Y-1797119D01*
G01X108302071Y-1796875D01*
G01X108302071Y-1796875D01*
G01X108372599Y-1777826D01*
G01X108410432Y-1774047D01*
G01X108411934Y-1774024D01*
G01X108411934Y-1774024D01*
G01X108482265Y-1790497D01*
G01X108515965Y-1812565D01*
G01X108517696Y-1814161D01*
G01X108517696Y-1814161D01*
G01X108548236Y-1871817D01*
G01X108557703Y-1927723D01*
G01X108558419Y-1943360D01*
G01X108558419Y-1943360D01*
G01X108557149Y-1997575D01*
G01X108556368Y-2029786D01*
G01X108556368Y-2029786D01*
G01X108554760Y-2110968D01*
G01X108554333Y-2152045D01*
G01X108554317Y-2157227D01*
G01X108554317Y-2157227D01*
G01X108558240Y-2239830D01*
G01X108566408Y-2299799D01*
G01X108573418Y-2332966D01*
G01X108574825Y-2338282D01*
G01X108574825Y-2338282D01*
G01X108527950Y-2347657D01*
G01X108527950Y-2347657D01*
G01X108483126Y-2333887D01*
G01X108483126Y-2333887D01*
G01X108469356Y-2286719D01*
G01X108469356Y-2286719D01*
G01X108469356Y-2286719D01*
G01X108470160Y-2229729D01*
G01X108471735Y-2163285D01*
G01X108472822Y-2123208D01*
G01X108472872Y-2121485D01*
G01X108472872Y-2121485D01*
G01X108475422Y-2026311D01*
G01X108476292Y-1984066D01*
G01X108476387Y-1975586D01*
G01X108476387Y-1975586D01*
G01X108463589Y-1902306D01*
G01X108448554Y-1874574D01*
G01X108448262Y-1874219D01*
G01X108448262Y-1874219D01*
G01X108391535Y-1843353D01*
G01X108374434Y-1841407D01*
G01X108374434Y-1841407D01*
G01X108309521Y-1855880D01*
G01X108255018Y-1884219D01*
G01X108226739Y-1903801D01*
G01X108225606Y-1904688D01*
G01X108225606Y-1904688D01*
G01X108226794Y-1996298D01*
G01X108227493Y-2065515D01*
G01X108227831Y-2112893D01*
G01X108227940Y-2138987D01*
G01X108227950Y-2144922D01*
G01X108227950Y-2144922D01*
G01X108229227Y-2227928D01*
G01X108231987Y-2291793D01*
G01X108234623Y-2331636D01*
G01X108235567Y-2342969D01*
G01X108235567Y-2342969D01*
G01X108194551Y-2346485D01*
G01X108194551Y-2346485D01*
G01X108143160Y-2314286D01*
G01X108140645Y-2300782D01*
G01X108140645Y-2300782D01*
G01X108142403Y-2252442D01*
G01X108142403Y-2252442D01*
G01X108144264Y-2188507D01*
G01X108145245Y-2138568D01*
G01X108145333Y-2133204D01*
G01X108145333Y-2133204D01*
G01X108146136Y-2061560D01*
G01X108146450Y-2003352D01*
G01X108146504Y-1975974D01*
G01X108146505Y-1975586D01*
G01X108146505Y-1975586D01*
G01X108127590Y-1893605D01*
G01X108087456Y-1854467D01*
G01X108051011Y-1842327D01*
G01X108041036Y-1841407D01*
G01X108041036Y-1841407D01*
G01X107976910Y-1856550D01*
G01X107922727Y-1886201D01*
G01X107894512Y-1906690D01*
G01X107893380Y-1907618D01*
G01X107893380Y-1907618D01*
G01X107894611Y-2002664D01*
G01X107895312Y-2072687D01*
G01X107895631Y-2118697D01*
G01X107895719Y-2141706D01*
G01X107895723Y-2144922D01*
G01X107895723Y-2144922D01*
G01X107896902Y-2227928D01*
G01X107899450Y-2291793D01*
G01X107901883Y-2331636D01*
G01X107902755Y-2342969D01*
G01X107902755Y-2342969D01*
G01X107862325Y-2346485D01*
G01X107862325Y-2346485D01*
G01X107810934Y-2314286D01*
G01X107808419Y-2300782D01*
G01X107808419Y-2300782D01*
G01X107810189Y-2246009D01*
G01X107811348Y-2212598D01*
G01X107811348Y-2212598D01*
G01X107813316Y-2137635D01*
G01X107814117Y-2077789D01*
G01X107814277Y-2047671D01*
G01X107814278Y-2046485D01*
G01X107814278Y-2046485D01*
G01X107811901Y-1944438D01*
G01X107806234Y-1871922D01*
G01X107799470Y-1825000D01*
G01X107793803Y-1799735D01*
G01X107791426Y-1792188D01*
G01X107791426Y-1792188D01*
G37*
G36*
G01X108700801Y-2187110D02*
G01X108700801Y-2187110D01*
G01X108716018Y-2117540D01*
G01X108729512Y-2097168D01*
G01X108729512Y-2097168D01*
G01X108784569Y-2062388D01*
G01X108808614Y-2053516D01*
G01X108808614Y-2053516D01*
G01X108873161Y-2039877D01*
G01X108939757Y-2030345D01*
G01X108996497Y-2024434D01*
G01X109031478Y-2021657D01*
G01X109037130Y-2021289D01*
G01X109037130Y-2021289D01*
G01X109030031Y-1936357D01*
G01X109017376Y-1891541D01*
G01X109011934Y-1880372D01*
G01X109011934Y-1880372D01*
G01X108958946Y-1848623D01*
G01X108909150Y-1841514D01*
G01X108904708Y-1841407D01*
G01X108904708Y-1841407D01*
G01X108844511Y-1857902D01*
G01X108835274Y-1862793D01*
G01X108835274Y-1862793D01*
G01X108789775Y-1909389D01*
G01X108781075Y-1925196D01*
G01X108781075Y-1925196D01*
G01X108728566Y-1888722D01*
G01X108725997Y-1877149D01*
G01X108725997Y-1877149D01*
G01X108755720Y-1821304D01*
G01X108783712Y-1802149D01*
G01X108783712Y-1802149D01*
G01X108850743Y-1781056D01*
G01X108904302Y-1774518D01*
G01X108918184Y-1774024D01*
G01X108918184Y-1774024D01*
G01X109000495Y-1784361D01*
G01X109050347Y-1804158D01*
G01X109069125Y-1816597D01*
G01X109069356Y-1816797D01*
G01X109069356Y-1816797D01*
G01X109101619Y-1870714D01*
G01X109114767Y-1931749D01*
G01X109117386Y-1968169D01*
G01X109117403Y-1969727D01*
G01X109117403Y-1969727D01*
G01X109116470Y-2027642D01*
G01X109116231Y-2040332D01*
G01X109116231Y-2040332D01*
G01X109115166Y-2113495D01*
G01X109115059Y-2132032D01*
G01X109115059Y-2132032D01*
G01X109118630Y-2222596D01*
G01X109126485Y-2287012D01*
G01X109134340Y-2325501D01*
G01X109137911Y-2338282D01*
G01X109137911Y-2338282D01*
G01X109137911Y-2338282D01*
G01X109091036Y-2347657D01*
G01X109091036Y-2347657D01*
G01X109053829Y-2335059D01*
G01X109053829Y-2335059D01*
G01X109039473Y-2294922D01*
G01X109039473Y-2294922D01*
G01X108973497Y-2334958D01*
G01X108918564Y-2351960D01*
G01X108888247Y-2355799D01*
G01X108885958Y-2355860D01*
G01X108885958Y-2355860D01*
G01X108803103Y-2341426D01*
G01X108749598Y-2305996D01*
G01X108719025Y-2261381D01*
G01X108704965Y-2219391D01*
G01X108701002Y-2191835D01*
G01X108700801Y-2187110D01*
G37*
%LPC*%
G36*
G01X108785176Y-2187110D02*
G01X108785176Y-2187110D01*
G01X108803943Y-2252310D01*
G01X108816231Y-2266797D01*
G01X108816231Y-2266797D01*
G01X108876433Y-2290929D01*
G01X108895333Y-2292579D01*
G01X108895333Y-2292579D01*
G01X108968449Y-2278121D01*
G01X109016766Y-2251700D01*
G01X109033028Y-2238672D01*
G01X109033028Y-2238672D01*
G01X109031858Y-2183765D01*
G01X109031856Y-2182422D01*
G01X109031856Y-2182422D01*
G01X109034184Y-2113043D01*
G01X109035958Y-2082813D01*
G01X109035958Y-2082813D01*
G01X108983894Y-2088661D01*
G01X108983809Y-2088672D01*
G01X108983809Y-2088672D01*
G01X108936641Y-2094532D01*
G01X108936641Y-2094532D01*
G01X108892696Y-2101563D01*
G01X108892696Y-2101563D01*
G01X108857540Y-2111231D01*
G01X108857540Y-2111231D01*
G01X108826485Y-2124707D01*
G01X108826485Y-2124707D01*
G01X108804805Y-2140821D01*
G01X108804805Y-2140821D01*
G01X108789278Y-2161036D01*
G01X108789278Y-2161036D01*
G01X108785176Y-2187110D01*
G37*
%LPD*%
G36*
G01X109251583Y-2260352D02*
G01X109251583Y-2260352D01*
G01X109289560Y-2216249D01*
G01X109305489Y-2209961D01*
G01X109305489Y-2209961D01*
G01X109346390Y-2259257D01*
G01X109362618Y-2268848D01*
G01X109362618Y-2268848D01*
G01X109428770Y-2286827D01*
G01X109457833Y-2289063D01*
G01X109457833Y-2289063D01*
G01X109525341Y-2274918D01*
G01X109541329Y-2266211D01*
G01X109541329Y-2266211D01*
G01X109571645Y-2211336D01*
G01X109573262Y-2195313D01*
G01X109573262Y-2195313D01*
G01X109545964Y-2143536D01*
G01X109541329Y-2140235D01*
G01X109541329Y-2140235D01*
G01X109481213Y-2115254D01*
G01X109463985Y-2110645D01*
G01X109463985Y-2110645D01*
G01X109397407Y-2093680D01*
G01X109372872Y-2086622D01*
G01X109372872Y-2086622D01*
G01X109314512Y-2053367D01*
G01X109295235Y-2034473D01*
G01X109295235Y-2034473D01*
G01X109268056Y-1973012D01*
G01X109263308Y-1933477D01*
G01X109263301Y-1932813D01*
G01X109263301Y-1932813D01*
G01X109283296Y-1865300D01*
G01X109316145Y-1825983D01*
G01X109325118Y-1818555D01*
G01X109325118Y-1818555D01*
G01X109390062Y-1786826D01*
G01X109444005Y-1775483D01*
G01X109464864Y-1774024D01*
G01X109464864Y-1774024D01*
G01X109533481Y-1784365D01*
G01X109573062Y-1798218D01*
G01X109575313Y-1799219D01*
G01X109575313Y-1799219D01*
G01X109624237Y-1846894D01*
G01X109629512Y-1868946D01*
G01X109629512Y-1868946D01*
G01X109591535Y-1913632D01*
G01X109575606Y-1919336D01*
G01X109575606Y-1919336D01*
G01X109534689Y-1871545D01*
G01X109521407Y-1863086D01*
G01X109521407Y-1863086D01*
G01X109457011Y-1843130D01*
G01X109436153Y-1841407D01*
G01X109436153Y-1841407D01*
G01X109374343Y-1857998D01*
G01X109365255Y-1863672D01*
G01X109365255Y-1863672D01*
G01X109336179Y-1917034D01*
G01X109335372Y-1926368D01*
G01X109335372Y-1926368D01*
G01X109362316Y-1978855D01*
G01X109367305Y-1982618D01*
G01X109367305Y-1982618D01*
G01X109426621Y-2008837D01*
G01X109444649Y-2013965D01*
G01X109444649Y-2013965D01*
G01X109510250Y-2031183D01*
G01X109535762Y-2038575D01*
G01X109535762Y-2038575D01*
G01X109594896Y-2071179D01*
G01X109613399Y-2088379D01*
G01X109613399Y-2088379D01*
G01X109641341Y-2148914D01*
G01X109645333Y-2182422D01*
G01X109645333Y-2182422D01*
G01X109645333Y-2182422D01*
G01X109628911Y-2254822D01*
G01X109598899Y-2298147D01*
G01X109584102Y-2311622D01*
G01X109584102Y-2311622D01*
G01X109519787Y-2342555D01*
G01X109463532Y-2354121D01*
G01X109438522Y-2355860D01*
G01X109438497Y-2355860D01*
G01X109438497Y-2355860D01*
G01X109364326Y-2346952D01*
G01X109317681Y-2332318D01*
G01X109308419Y-2328321D01*
G01X109308419Y-2328321D01*
G01X109257115Y-2280827D01*
G01X109251583Y-2260352D01*
G37*
G36*
G01X109766036Y-1455860D02*
G01X109766036Y-1455860D01*
G01X109808223Y-1452344D01*
G01X109808223Y-1452344D01*
G01X109860512Y-1483907D01*
G01X109863301Y-1498047D01*
G01X109863301Y-1498047D01*
G01X109861584Y-1551971D01*
G01X109861544Y-1553125D01*
G01X109861544Y-1553125D01*
G01X109859352Y-1618514D01*
G01X109857556Y-1674196D01*
G01X109857149Y-1687012D01*
G01X109857149Y-1687012D01*
G01X109855417Y-1759968D01*
G01X109854681Y-1819460D01*
G01X109854515Y-1851868D01*
G01X109854512Y-1854297D01*
G01X109854512Y-1854297D01*
G01X109919103Y-1807889D01*
G01X109978365Y-1784058D01*
G01X110021697Y-1775278D01*
G01X110038497Y-1774024D01*
G01X110038497Y-1774024D01*
G01X110038497Y-1774024D01*
G01X110112488Y-1788467D01*
G01X110151274Y-1811498D01*
G01X110157149Y-1816797D01*
G01X110157149Y-1816797D01*
G01X110190720Y-1877551D01*
G01X110197801Y-1919138D01*
G01X110197872Y-1921680D01*
G01X110197872Y-1921680D01*
G01X110184003Y-1993105D01*
G01X110160562Y-2038016D01*
G01X110153047Y-2048243D01*
G01X110153047Y-2048243D01*
G01X110097751Y-2089396D01*
G01X110046040Y-2107014D01*
G01X110027364Y-2110352D01*
G01X110027364Y-2110352D01*
G01X110077521Y-2189313D01*
G01X110106827Y-2230302D01*
G01X110117471Y-2243224D01*
G01X110117598Y-2243360D01*
G01X110117598Y-2243360D01*
G01X110175726Y-2279366D01*
G01X110192012Y-2282032D01*
G01X110192012Y-2282032D01*
G01X110223067Y-2276758D01*
G01X110223067Y-2276758D01*
G01X110234200Y-2311914D01*
G01X110234200Y-2311914D01*
G01X110209005Y-2344727D01*
G01X110209005Y-2344727D01*
G01X110160958Y-2355860D01*
G01X110160958Y-2355860D01*
G01X110099078Y-2333832D01*
G01X110074239Y-2313086D01*
G01X110074239Y-2313086D01*
G01X110044063Y-2277051D01*
G01X110044063Y-2277051D01*
G01X110014254Y-2234098D01*
G01X110014180Y-2233985D01*
G01X110014180Y-2233985D01*
G01X109988985Y-2193555D01*
G01X109988985Y-2193555D01*
G01X109961700Y-2147402D01*
G01X109961446Y-2146973D01*
G01X109961446Y-2146973D01*
G01X109937715Y-2106250D01*
G01X109937715Y-2106250D01*
G01X109906075Y-2081055D01*
G01X109906075Y-2081055D01*
G01X109912520Y-2052344D01*
G01X109912520Y-2052344D01*
G01X109971328Y-2061035D01*
G01X109973458Y-2061133D01*
G01X109973458Y-2061133D01*
G01X110045103Y-2045015D01*
G01X110075015Y-2025178D01*
G01X110075704Y-2024512D01*
G01X110075704Y-2024512D01*
G01X110108231Y-1964556D01*
G01X110111739Y-1939844D01*
G01X110111739Y-1939844D01*
G01X110093401Y-1878908D01*
G01X110087130Y-1870118D01*
G01X110087130Y-1870118D01*
G01X110031591Y-1842638D01*
G01X110017989Y-1841407D01*
G01X110017989Y-1841407D01*
G01X109954767Y-1855916D01*
G01X109932735Y-1866016D01*
G01X109932735Y-1866016D01*
G01X109875769Y-1906741D01*
G01X109854512Y-1927539D01*
G01X109854512Y-2101563D01*
G01X109854512Y-2101563D01*
G01X109857112Y-2191160D01*
G01X109863219Y-2259312D01*
G01X109870294Y-2306279D01*
G01X109875796Y-2332322D01*
G01X109877364Y-2338282D01*
G01X109877364Y-2338282D01*
G01X109832247Y-2347657D01*
G01X109832247Y-2347657D01*
G01X109785958Y-2333301D01*
G01X109785958Y-2333301D01*
G01X109773067Y-2285547D01*
G01X109773067Y-2285547D01*
G01X109773067Y-2285547D01*
G01X109773366Y-2235454D01*
G01X109773925Y-2168080D01*
G01X109774239Y-2132949D01*
G01X109774239Y-2132911D01*
G01X109774239Y-2132911D01*
G01X109774955Y-2043698D01*
G01X109775297Y-1982444D01*
G01X109775403Y-1949047D01*
G01X109775411Y-1942188D01*
G01X109775411Y-1802735D01*
G01X109775411Y-1802735D01*
G01X109774841Y-1689649D01*
G01X109773386Y-1603003D01*
G01X109771424Y-1539653D01*
G01X109769336Y-1496454D01*
G01X109767501Y-1470261D01*
G01X109766298Y-1457931D01*
G01X109766036Y-1455860D01*
G37*

G04 Pad flashes *
%LPD*%
D11*

G04 end of program *
M02*
