G04                                                      *
G04 Greetings!                                           *
G04 This Gerber was generated by PCBmodE, an open source *
G04 PCB design software. Get it here:                    *
G04                                                      *
G04   http://pcbmode.com                                 *
G04                                                      *
G04 Also visit                                           *
G04                                                      *
G04   http://boldport.com                                *
G04                                                      *
G04 and follow @boldport / @pcbmode for updates!         *
G04                                                      *

G04 leading zeros omitted (L); absolute data (A); 6 integer digits and 6 fractional digits *
%FSLAX66Y66*%

G04 mode (MO): millimeters (MM) *
%MOMM*%

G04 Aperture definitions *
%ADD10C,0.001X*%
%ADD11C,0.001X*%

%LPD*%
G36*
G01X86399637Y-65149644D02*
G01X85339038Y-66413618D01*
G01X84266575Y-65513715D01*
G01X85327175Y-64249742D01*
G01X86399637Y-65149644D01*
G37*
G36*
G01X81856122Y-68386381D02*
G01X82916721Y-67122407D01*
G01X83989183Y-68022310D01*
G01X82928584Y-69286283D01*
G01X81856122Y-68386381D01*
G37*
G36*
G01X62746296Y-78487231D02*
G01X61195804Y-79051564D01*
G01X60716975Y-77735994D01*
G01X62267468Y-77171661D01*
G01X62746296Y-78487231D01*
G37*
G36*
G01X57193127Y-79018570D02*
G01X58743620Y-78454237D01*
G01X59222448Y-79769807D01*
G01X57671955Y-80334140D01*
G01X57193127Y-79018570D01*
G37*
G36*
G01X35589111Y-79330680D02*
G01X34038618Y-78766347D01*
G01X34517446Y-77450777D01*
G01X36067939Y-78015111D01*
G01X35589111Y-79330680D01*
G37*
G36*
G01X30993600Y-76168203D02*
G01X32544092Y-76732536D01*
G01X32065264Y-78048106D01*
G01X30514771Y-77483772D01*
G01X30993600Y-76168203D01*
G37*
G36*
G01X75462783Y-20856967D02*
G01X74562783Y-20856967D01*
G01X74562783Y-20056967D01*
G01X75462783Y-20056967D01*
G01X75462783Y-20856967D01*
G37*
G36*
G01X75462783Y-22456967D02*
G01X74562783Y-22456967D01*
G01X74562783Y-21656967D01*
G01X75462783Y-21656967D01*
G01X75462783Y-22456967D01*
G37*
G36*
G01X70162783Y-23256967D02*
G01X71062783Y-23256967D01*
G01X71062783Y-24056967D01*
G01X70162783Y-24056967D01*
G01X70162783Y-23256967D01*
G37*
G36*
G01X75462783Y-24056967D02*
G01X74562783Y-24056967D01*
G01X74562783Y-23256967D01*
G01X75462783Y-23256967D01*
G01X75462783Y-24056967D01*
G37*
G36*
G01X70162783Y-20056967D02*
G01X71062783Y-20056967D01*
G01X71062783Y-20856967D01*
G01X70162783Y-20856967D01*
G01X70162783Y-20056967D01*
G37*
G36*
G01X70162783Y-21656967D02*
G01X71062783Y-21656967D01*
G01X71062783Y-22456967D01*
G01X70162783Y-22456967D01*
G01X70162783Y-21656967D01*
G37*
G36*
G01X3044241Y-47289099D02*
G01X2673071Y-45681388D01*
G01X4037189Y-45366457D01*
G01X4408359Y-46974168D01*
G01X3044241Y-47289099D01*
G37*
G36*
G01X3193622Y-41712569D02*
G01X3564791Y-43320280D01*
G01X2200673Y-43635211D01*
G01X1829504Y-42027501D01*
G01X3193622Y-41712569D01*
G37*
G36*
G01X5967344Y-23479652D02*
G01X7335256Y-22556984D01*
G01X8118126Y-23717637D01*
G01X6750214Y-24640305D01*
G01X5967344Y-23479652D01*
G37*
G36*
G01X11227017Y-21620663D02*
G01X9859105Y-22543331D01*
G01X9076235Y-21382678D01*
G01X10444147Y-20460010D01*
G01X11227017Y-21620663D01*
G37*
G36*
G01X27734342Y-34748205D02*
G01X29312245Y-34265792D01*
G01X29721565Y-35604619D01*
G01X28143662Y-36087032D01*
G01X27734342Y-34748205D01*
G37*
G36*
G01X33307709Y-34508225D02*
G01X31729806Y-34990639D01*
G01X31320485Y-33651812D01*
G01X32898388Y-33169399D01*
G01X33307709Y-34508225D01*
G37*
G36*
G01X80481779Y-40574695D02*
G01X81627965Y-41761606D01*
G01X80620889Y-42734128D01*
G01X79474703Y-41547217D01*
G01X80481779Y-40574695D01*
G37*
G36*
G01X83225858Y-45431652D02*
G01X82079671Y-44244741D01*
G01X83086747Y-43272219D01*
G01X84232933Y-44459130D01*
G01X83225858Y-45431652D01*
G37*
G36*
G01X45277783Y-41931967D02*
G01X48037783Y-41931967D01*
G01X48037783Y-42251967D01*
G01X45277783Y-42251967D01*
G01X45277783Y-41931967D01*
G37*
G36*
G01X45277783Y-44471967D02*
G01X48037783Y-44471967D01*
G01X48037783Y-44791967D01*
G01X45277783Y-44791967D01*
G01X45277783Y-44471967D01*
G37*
G36*
G01X45277783Y-43201968D02*
G01X48037783Y-43201968D01*
G01X48037783Y-43521967D01*
G01X45277783Y-43521967D01*
G01X45277783Y-43201968D01*
G37*
G36*
G01X54707783Y-42251967D02*
G01X51947783Y-42251967D01*
G01X51947783Y-41931967D01*
G01X54707783Y-41931967D01*
G01X54707783Y-42251967D01*
G37*
G36*
G01X45277783Y-45741968D02*
G01X48037783Y-45741968D01*
G01X48037783Y-46061967D01*
G01X45277783Y-46061967D01*
G01X45277783Y-45741968D01*
G37*
G36*
G01X54707783Y-44791967D02*
G01X51947783Y-44791967D01*
G01X51947783Y-44471967D01*
G01X54707783Y-44471967D01*
G01X54707783Y-44791967D01*
G37*
G36*
G01X54707783Y-43521967D02*
G01X51947783Y-43521968D01*
G01X51947783Y-43201968D01*
G01X54707783Y-43201968D01*
G01X54707783Y-43521967D01*
G37*
G36*
G01X54707783Y-46061967D02*
G01X51947783Y-46061968D01*
G01X51947783Y-45741968D01*
G01X54707783Y-45741968D01*
G01X54707783Y-46061967D01*
G37*
G36*
G01X26792520Y-76693538D02*
G01X26621660Y-76904533D01*
G01X26621660Y-76904533D01*
G01X26584461Y-76941751D01*
G01X26541701Y-76969600D01*
G01X26494970Y-76987911D01*
G01X26445858Y-76996519D01*
G01X26395957Y-76995255D01*
G01X26346855Y-76983953D01*
G01X26300144Y-76962446D01*
G01X26270043Y-76941489D01*
G01X25904007Y-76645079D01*
G01X25343685Y-76191339D01*
G01X25671876Y-75786058D01*
G01X26000066Y-75380776D01*
G01X26560388Y-75834516D01*
G01X26926424Y-76130926D01*
G01X26926424Y-76130926D01*
G01X26963643Y-76168124D01*
G01X26991491Y-76210884D01*
G01X27009803Y-76257616D01*
G01X27018410Y-76306727D01*
G01X27017147Y-76356629D01*
G01X27005845Y-76405731D01*
G01X26984337Y-76452441D01*
G01X26963381Y-76482543D01*
G01X26792520Y-76693538D01*
G37*
G36*
G01X23895320Y-74347431D02*
G01X24066181Y-74136436D01*
G01X24066181Y-74136436D01*
G01X24103379Y-74099218D01*
G01X24146139Y-74071369D01*
G01X24192871Y-74053058D01*
G01X24241982Y-74044450D01*
G01X24291884Y-74045714D01*
G01X24340986Y-74057016D01*
G01X24387696Y-74078523D01*
G01X24417798Y-74099480D01*
G01X24783833Y-74395890D01*
G01X25344156Y-74849630D01*
G01X25015965Y-75254911D01*
G01X24687774Y-75660193D01*
G01X24127452Y-75206453D01*
G01X23761416Y-74910043D01*
G01X23761416Y-74910043D01*
G01X23724198Y-74872845D01*
G01X23696349Y-74830085D01*
G01X23678038Y-74783353D01*
G01X23669430Y-74734242D01*
G01X23670694Y-74684340D01*
G01X23681996Y-74635238D01*
G01X23703504Y-74588528D01*
G01X23724460Y-74558426D01*
G01X23895320Y-74347431D01*
G37*
G36*
G01X76104429Y-20508856D02*
G01X76104429Y-20237356D01*
G01X76104429Y-20237356D01*
G01X76109916Y-20185023D01*
G01X76125621Y-20136471D01*
G01X76150414Y-20092831D01*
G01X76183164Y-20055234D01*
G01X76222740Y-20024812D01*
G01X76268012Y-20002695D01*
G01X76317848Y-19990014D01*
G01X76354429Y-19987356D01*
G01X76825429Y-19987356D01*
G01X77546429Y-19987356D01*
G01X77546429Y-20508856D01*
G01X77546429Y-21030356D01*
G01X76825429Y-21030356D01*
G01X76354429Y-21030356D01*
G01X76354429Y-21030356D01*
G01X76302095Y-21024870D01*
G01X76253543Y-21009165D01*
G01X76209904Y-20984372D01*
G01X76172307Y-20951622D01*
G01X76141885Y-20912046D01*
G01X76119768Y-20866774D01*
G01X76107087Y-20816938D01*
G01X76104429Y-20780356D01*
G01X76104429Y-20508856D01*
G37*
G36*
G01X79832429Y-20508856D02*
G01X79832429Y-20780356D01*
G01X79832429Y-20780356D01*
G01X79826943Y-20832690D01*
G01X79811238Y-20881242D01*
G01X79786445Y-20924882D01*
G01X79753695Y-20962479D01*
G01X79714119Y-20992901D01*
G01X79668847Y-21015018D01*
G01X79619011Y-21027699D01*
G01X79582429Y-21030356D01*
G01X79111429Y-21030356D01*
G01X78390429Y-21030356D01*
G01X78390429Y-20508856D01*
G01X78390429Y-19987356D01*
G01X79111429Y-19987356D01*
G01X79582429Y-19987356D01*
G01X79582429Y-19987356D01*
G01X79634763Y-19992843D01*
G01X79683315Y-20008548D01*
G01X79726955Y-20033341D01*
G01X79764551Y-20066091D01*
G01X79794974Y-20105667D01*
G01X79817091Y-20150939D01*
G01X79829772Y-20200775D01*
G01X79832429Y-20237356D01*
G01X79832429Y-20508856D01*
G37*
G36*
G01X88629259Y-49600258D02*
G01X88900759Y-49600258D01*
G01X88900759Y-49600258D01*
G01X88953093Y-49605745D01*
G01X89001645Y-49621450D01*
G01X89045285Y-49646243D01*
G01X89082881Y-49678993D01*
G01X89113304Y-49718569D01*
G01X89135421Y-49763841D01*
G01X89148102Y-49813677D01*
G01X89150759Y-49850258D01*
G01X89150759Y-50321258D01*
G01X89150759Y-51042258D01*
G01X88629259Y-51042258D01*
G01X88107759Y-51042258D01*
G01X88107759Y-50321258D01*
G01X88107759Y-49850258D01*
G01X88107759Y-49850258D01*
G01X88113246Y-49797925D01*
G01X88128951Y-49749372D01*
G01X88153744Y-49705733D01*
G01X88186494Y-49668136D01*
G01X88226070Y-49637714D01*
G01X88271342Y-49615597D01*
G01X88321178Y-49602916D01*
G01X88357759Y-49600258D01*
G01X88629259Y-49600258D01*
G37*
G36*
G01X88629259Y-53328258D02*
G01X88357759Y-53328258D01*
G01X88357759Y-53328258D01*
G01X88305425Y-53322772D01*
G01X88256873Y-53307067D01*
G01X88213234Y-53282274D01*
G01X88175637Y-53249524D01*
G01X88145215Y-53209948D01*
G01X88123098Y-53164676D01*
G01X88110417Y-53114840D01*
G01X88107759Y-53078258D01*
G01X88107759Y-52607258D01*
G01X88107759Y-51886258D01*
G01X88629259Y-51886258D01*
G01X89150759Y-51886258D01*
G01X89150759Y-52607258D01*
G01X89150759Y-53078258D01*
G01X89150759Y-53078258D01*
G01X89145273Y-53130592D01*
G01X89129568Y-53179144D01*
G01X89104775Y-53222784D01*
G01X89072025Y-53260380D01*
G01X89032449Y-53290803D01*
G01X88987177Y-53312920D01*
G01X88937341Y-53325601D01*
G01X88900759Y-53328258D01*
G01X88629259Y-53328258D01*
G37*
G36*
G01X52372414Y-80371741D02*
G01X52344035Y-80641753D01*
G01X52344035Y-80641753D01*
G01X52333108Y-80693227D01*
G01X52312414Y-80739871D01*
G01X52283195Y-80780680D01*
G01X52246695Y-80814648D01*
G01X52204155Y-80840766D01*
G01X52156820Y-80858030D01*
G01X52105931Y-80865433D01*
G01X52069272Y-80864252D01*
G01X51600852Y-80815019D01*
G01X50883802Y-80739654D01*
G01X50938314Y-80221010D01*
G01X50992825Y-79702367D01*
G01X51709875Y-79777732D01*
G01X52178295Y-79826965D01*
G01X52178295Y-79826965D01*
G01X52229769Y-79837892D01*
G01X52276413Y-79858586D01*
G01X52317223Y-79887805D01*
G01X52351190Y-79924305D01*
G01X52377308Y-79966845D01*
G01X52394572Y-80014180D01*
G01X52401975Y-80065069D01*
G01X52400794Y-80101728D01*
G01X52372414Y-80371741D01*
G37*
G36*
G01X48664837Y-79982058D02*
G01X48693217Y-79712046D01*
G01X48693217Y-79712046D01*
G01X48704143Y-79660572D01*
G01X48724837Y-79613928D01*
G01X48754056Y-79573119D01*
G01X48790557Y-79539151D01*
G01X48833096Y-79513033D01*
G01X48880432Y-79495769D01*
G01X48931320Y-79488366D01*
G01X48967979Y-79489547D01*
G01X49436399Y-79538780D01*
G01X50153449Y-79614145D01*
G01X50098938Y-80132789D01*
G01X50044426Y-80651432D01*
G01X49327376Y-80576067D01*
G01X48858956Y-80526834D01*
G01X48858956Y-80526834D01*
G01X48807482Y-80515907D01*
G01X48760838Y-80495213D01*
G01X48720029Y-80465994D01*
G01X48686062Y-80429494D01*
G01X48659943Y-80386954D01*
G01X48642679Y-80339619D01*
G01X48635277Y-80288730D01*
G01X48636458Y-80252071D01*
G01X48664837Y-79982058D01*
G37*
G36*
G01X9822641Y-61146358D02*
G01X9587515Y-61282108D01*
G01X9587515Y-61282108D01*
G01X9539450Y-61303523D01*
G01X9489550Y-61314198D01*
G01X9439360Y-61314547D01*
G01X9390426Y-61304983D01*
G01X9344291Y-61285920D01*
G01X9302501Y-61257772D01*
G01X9266601Y-61220953D01*
G01X9246009Y-61190601D01*
G01X9010509Y-60782703D01*
G01X8650009Y-60158299D01*
G01X9101641Y-59897549D01*
G01X9553274Y-59636799D01*
G01X9913774Y-60261203D01*
G01X10149274Y-60669101D01*
G01X10149274Y-60669101D01*
G01X10170689Y-60717167D01*
G01X10181364Y-60767067D01*
G01X10181713Y-60817256D01*
G01X10172149Y-60866191D01*
G01X10153086Y-60912325D01*
G01X10124938Y-60954115D01*
G01X10088119Y-60990016D01*
G01X10057767Y-61010608D01*
G01X9822641Y-61146358D01*
G37*
G36*
G01X7958641Y-57917815D02*
G01X8193767Y-57782065D01*
G01X8193767Y-57782065D01*
G01X8241833Y-57760650D01*
G01X8291733Y-57749975D01*
G01X8341922Y-57749626D01*
G01X8390857Y-57759190D01*
G01X8436991Y-57778253D01*
G01X8478781Y-57806401D01*
G01X8514682Y-57843220D01*
G01X8535274Y-57873572D01*
G01X8770774Y-58281470D01*
G01X9131274Y-58905874D01*
G01X8679641Y-59166624D01*
G01X8228009Y-59427374D01*
G01X7867509Y-58802970D01*
G01X7632009Y-58395072D01*
G01X7632009Y-58395072D01*
G01X7610593Y-58347006D01*
G01X7599918Y-58297106D01*
G01X7599570Y-58246917D01*
G01X7609134Y-58197982D01*
G01X7628197Y-58151848D01*
G01X7656345Y-58110058D01*
G01X7693164Y-58074157D01*
G01X7723515Y-58053565D01*
G01X7958641Y-57917815D01*
G37*
G36*
G01X78130519Y-71360719D02*
G01X78262144Y-71598178D01*
G01X78262144Y-71598178D01*
G01X78282718Y-71646610D01*
G01X78292521Y-71696689D01*
G01X78291993Y-71746877D01*
G01X78281576Y-71795637D01*
G01X78261711Y-71841432D01*
G01X78232838Y-71882724D01*
G01X78195398Y-71917977D01*
G01X78164692Y-71938036D01*
G01X77752746Y-72166381D01*
G01X77122145Y-72515929D01*
G01X76869317Y-72059815D01*
G01X76616489Y-71603700D01*
G01X77247090Y-71254153D01*
G01X77659035Y-71025807D01*
G01X77659035Y-71025807D01*
G01X77707467Y-71005234D01*
G01X77757546Y-70995431D01*
G01X77807734Y-70995959D01*
G01X77856494Y-71006376D01*
G01X77902289Y-71026241D01*
G01X77943581Y-71055114D01*
G01X77978834Y-71092553D01*
G01X77998893Y-71123260D01*
G01X78130519Y-71360719D01*
G37*
G36*
G01X74869936Y-73168090D02*
G01X74738310Y-72930631D01*
G01X74738310Y-72930631D01*
G01X74717737Y-72882199D01*
G01X74707934Y-72832120D01*
G01X74708462Y-72781932D01*
G01X74718878Y-72733172D01*
G01X74738744Y-72687377D01*
G01X74767616Y-72646085D01*
G01X74805056Y-72610832D01*
G01X74835763Y-72590773D01*
G01X75247709Y-72362428D01*
G01X75878309Y-72012880D01*
G01X76131138Y-72468994D01*
G01X76383966Y-72925109D01*
G01X75753365Y-73274656D01*
G01X75341419Y-73503002D01*
G01X75341419Y-73503002D01*
G01X75292987Y-73523575D01*
G01X75242908Y-73533378D01*
G01X75192720Y-73532850D01*
G01X75143960Y-73522433D01*
G01X75098166Y-73502568D01*
G01X75056873Y-73473695D01*
G01X75021621Y-73436256D01*
G01X75001562Y-73405549D01*
G01X74869936Y-73168090D01*
G37*
G36*
G01X10834597Y-29601240D02*
G01X10978470Y-29370995D01*
G01X10978470Y-29370995D01*
G01X11010856Y-29329520D01*
G01X11049903Y-29296668D01*
G01X11094054Y-29272798D01*
G01X11141751Y-29258269D01*
G01X11191435Y-29253442D01*
G01X11241548Y-29258676D01*
G01X11290531Y-29274331D01*
G01X11322962Y-29291463D01*
G01X11722393Y-29541054D01*
G01X12333836Y-29923126D01*
G01X12057483Y-30365383D01*
G01X11781130Y-30807640D01*
G01X11169687Y-30425569D01*
G01X10770256Y-30175977D01*
G01X10770256Y-30175977D01*
G01X10728782Y-30143591D01*
G01X10695930Y-30104544D01*
G01X10672060Y-30060393D01*
G01X10657531Y-30012696D01*
G01X10652704Y-29963012D01*
G01X10657938Y-29912899D01*
G01X10673593Y-29863916D01*
G01X10690724Y-29831485D01*
G01X10834597Y-29601240D01*
G37*
G36*
G01X13996121Y-31576779D02*
G01X13852248Y-31807024D01*
G01X13852248Y-31807024D01*
G01X13819863Y-31848499D01*
G01X13780815Y-31881351D01*
G01X13736664Y-31905221D01*
G01X13688968Y-31919750D01*
G01X13639284Y-31924577D01*
G01X13589171Y-31919343D01*
G01X13540187Y-31903688D01*
G01X13507756Y-31886556D01*
G01X13108326Y-31636965D01*
G01X12496883Y-31254893D01*
G01X12773236Y-30812636D01*
G01X13049589Y-30370379D01*
G01X13661031Y-30752450D01*
G01X14060462Y-31002042D01*
G01X14060462Y-31002042D01*
G01X14101936Y-31034428D01*
G01X14134789Y-31073475D01*
G01X14158659Y-31117626D01*
G01X14173187Y-31165323D01*
G01X14178015Y-31215007D01*
G01X14172781Y-31265120D01*
G01X14157126Y-31314103D01*
G01X14139994Y-31346534D01*
G01X13996121Y-31576779D01*
G37*
G36*
G01X1584057Y-39327921D02*
G01X1321808Y-39257652D01*
G01X1321808Y-39257652D01*
G01X1272678Y-39238808D01*
G01X1229845Y-39211072D01*
G01X1194109Y-39175829D01*
G01X1166270Y-39134464D01*
G01X1147127Y-39088362D01*
G01X1137481Y-39038909D01*
G01X1138130Y-38987489D01*
G01X1145032Y-38951466D01*
G01X1266935Y-38496515D01*
G01X1453544Y-37800082D01*
G01X1957274Y-37935056D01*
G01X2461005Y-38070031D01*
G01X2274396Y-38766463D01*
G01X2152492Y-39221414D01*
G01X2152492Y-39221414D01*
G01X2133648Y-39270545D01*
G01X2105912Y-39313378D01*
G01X2070669Y-39349114D01*
G01X2029304Y-39376952D01*
G01X1983202Y-39396095D01*
G01X1933749Y-39405741D01*
G01X1882329Y-39405092D01*
G01X1846306Y-39398191D01*
G01X1584057Y-39327921D01*
G37*
G36*
G01X2548935Y-35726949D02*
G01X2811184Y-35797218D01*
G01X2811184Y-35797218D01*
G01X2860315Y-35816063D01*
G01X2903148Y-35843799D01*
G01X2938884Y-35879042D01*
G01X2966723Y-35920407D01*
G01X2985865Y-35966508D01*
G01X2995512Y-36015962D01*
G01X2994862Y-36067382D01*
G01X2987961Y-36103405D01*
G01X2866057Y-36558356D01*
G01X2679449Y-37254788D01*
G01X2175718Y-37119814D01*
G01X1671988Y-36984840D01*
G01X1858597Y-36288407D01*
G01X1980500Y-35833456D01*
G01X1980500Y-35833456D01*
G01X1999345Y-35784326D01*
G01X2027081Y-35741493D01*
G01X2062324Y-35705757D01*
G01X2103689Y-35677918D01*
G01X2149790Y-35658775D01*
G01X2199244Y-35649129D01*
G01X2250664Y-35649778D01*
G01X2286687Y-35656680D01*
G01X2548935Y-35726949D01*
G37*
G36*
G01X76230951Y-22157145D02*
G01X76230951Y-21885645D01*
G01X76230951Y-21885645D01*
G01X76236438Y-21833312D01*
G01X76252143Y-21784760D01*
G01X76276936Y-21741120D01*
G01X76309686Y-21703523D01*
G01X76349262Y-21673101D01*
G01X76394534Y-21650984D01*
G01X76444370Y-21638303D01*
G01X76480951Y-21635645D01*
G01X76951951Y-21635645D01*
G01X77672951Y-21635645D01*
G01X77672951Y-22157145D01*
G01X77672951Y-22678645D01*
G01X76951951Y-22678645D01*
G01X76480951Y-22678645D01*
G01X76480951Y-22678645D01*
G01X76428617Y-22673159D01*
G01X76380065Y-22657454D01*
G01X76336426Y-22632661D01*
G01X76298829Y-22599911D01*
G01X76268407Y-22560335D01*
G01X76246290Y-22515063D01*
G01X76233609Y-22465227D01*
G01X76230951Y-22428645D01*
G01X76230951Y-22157145D01*
G37*
G36*
G01X79958951Y-22157145D02*
G01X79958951Y-22428645D01*
G01X79958951Y-22428645D01*
G01X79953465Y-22480979D01*
G01X79937760Y-22529531D01*
G01X79912967Y-22573171D01*
G01X79880217Y-22610768D01*
G01X79840641Y-22641190D01*
G01X79795369Y-22663307D01*
G01X79745533Y-22675988D01*
G01X79708951Y-22678645D01*
G01X79237951Y-22678645D01*
G01X78516951Y-22678645D01*
G01X78516951Y-22157145D01*
G01X78516951Y-21635645D01*
G01X79237951Y-21635645D01*
G01X79708951Y-21635645D01*
G01X79708951Y-21635645D01*
G01X79761285Y-21641132D01*
G01X79809837Y-21656837D01*
G01X79853477Y-21681630D01*
G01X79891073Y-21714380D01*
G01X79921496Y-21753956D01*
G01X79943613Y-21799228D01*
G01X79956294Y-21849064D01*
G01X79958951Y-21885645D01*
G01X79958951Y-22157145D01*
G37*
G36*
G01X76275059Y-23887847D02*
G01X76275059Y-23616347D01*
G01X76275059Y-23616347D01*
G01X76280546Y-23564014D01*
G01X76296251Y-23515462D01*
G01X76321044Y-23471822D01*
G01X76353794Y-23434225D01*
G01X76393370Y-23403803D01*
G01X76438642Y-23381686D01*
G01X76488478Y-23369005D01*
G01X76525059Y-23366347D01*
G01X76996059Y-23366347D01*
G01X77717059Y-23366347D01*
G01X77717059Y-23887847D01*
G01X77717059Y-24409347D01*
G01X76996059Y-24409347D01*
G01X76525059Y-24409347D01*
G01X76525059Y-24409347D01*
G01X76472725Y-24403861D01*
G01X76424173Y-24388156D01*
G01X76380534Y-24363363D01*
G01X76342937Y-24330613D01*
G01X76312515Y-24291037D01*
G01X76290398Y-24245765D01*
G01X76277717Y-24195929D01*
G01X76275059Y-24159347D01*
G01X76275059Y-23887847D01*
G37*
G36*
G01X80003059Y-23887847D02*
G01X80003059Y-24159347D01*
G01X80003059Y-24159347D01*
G01X79997573Y-24211681D01*
G01X79981868Y-24260233D01*
G01X79957075Y-24303873D01*
G01X79924325Y-24341470D01*
G01X79884749Y-24371892D01*
G01X79839477Y-24394009D01*
G01X79789641Y-24406690D01*
G01X79753059Y-24409347D01*
G01X79282059Y-24409347D01*
G01X78561059Y-24409347D01*
G01X78561059Y-23887847D01*
G01X78561059Y-23366347D01*
G01X79282059Y-23366347D01*
G01X79753059Y-23366347D01*
G01X79753059Y-23366347D01*
G01X79805393Y-23371834D01*
G01X79853945Y-23387539D01*
G01X79897585Y-23412332D01*
G01X79935181Y-23445082D01*
G01X79965604Y-23484658D01*
G01X79987721Y-23529930D01*
G01X80000402Y-23579766D01*
G01X80003059Y-23616347D01*
G01X80003059Y-23887847D01*
G37*
G36*
G01X24038247Y-36651844D02*
G01X23958868Y-36392208D01*
G01X23958868Y-36392208D01*
G01X23948814Y-36340557D01*
G01X23949637Y-36289534D01*
G01X23960588Y-36240553D01*
G01X23980915Y-36195024D01*
G01X24009867Y-36154360D01*
G01X24046694Y-36119973D01*
G01X24090645Y-36093275D01*
G01X24124851Y-36080039D01*
G01X24575271Y-35942332D01*
G01X25264767Y-35731532D01*
G01X25417238Y-36230244D01*
G01X25569710Y-36728957D01*
G01X24880215Y-36939757D01*
G01X24429795Y-37077464D01*
G01X24429795Y-37077464D01*
G01X24378144Y-37087519D01*
G01X24327121Y-37086695D01*
G01X24278140Y-37075745D01*
G01X24232611Y-37055418D01*
G01X24191947Y-37026465D01*
G01X24157560Y-36989638D01*
G01X24130862Y-36945687D01*
G01X24117626Y-36911481D01*
G01X24038247Y-36651844D01*
G37*
G36*
G01X27603352Y-35561883D02*
G01X27682731Y-35821519D01*
G01X27682731Y-35821519D01*
G01X27692785Y-35873171D01*
G01X27691961Y-35924193D01*
G01X27681011Y-35973175D01*
G01X27660684Y-36018703D01*
G01X27631731Y-36059367D01*
G01X27594904Y-36093754D01*
G01X27550953Y-36120452D01*
G01X27516747Y-36133689D01*
G01X27066328Y-36271396D01*
G01X26376832Y-36482196D01*
G01X26224360Y-35983483D01*
G01X26071888Y-35484770D01*
G01X26761384Y-35273970D01*
G01X27211804Y-35136263D01*
G01X27211804Y-35136263D01*
G01X27263455Y-35126208D01*
G01X27314477Y-35127032D01*
G01X27363459Y-35137983D01*
G01X27408988Y-35158310D01*
G01X27449651Y-35187262D01*
G01X27484038Y-35224089D01*
G01X27510736Y-35268040D01*
G01X27523973Y-35302246D01*
G01X27603352Y-35561883D01*
G37*
G36*
G01X76877400Y-38139891D02*
G01X77072701Y-37951291D01*
G01X77072701Y-37951291D01*
G01X77114157Y-37918883D01*
G01X77159993Y-37896454D01*
G01X77208607Y-37883974D01*
G01X77258402Y-37881415D01*
G01X77307778Y-37888751D01*
G01X77355136Y-37905953D01*
G01X77398877Y-37932993D01*
G01X77426200Y-37957461D01*
G01X77753384Y-38296270D01*
G01X78254233Y-38814914D01*
G01X77879097Y-39177179D01*
G01X77503961Y-39539443D01*
G01X77003113Y-39020799D01*
G01X76675929Y-38681990D01*
G01X76675929Y-38681990D01*
G01X76643521Y-38640533D01*
G01X76621091Y-38594698D01*
G01X76608611Y-38546084D01*
G01X76606053Y-38496289D01*
G01X76613389Y-38446913D01*
G01X76630591Y-38399555D01*
G01X76657631Y-38355814D01*
G01X76682099Y-38328491D01*
G01X76877400Y-38139891D01*
G37*
G36*
G01X79467087Y-40821590D02*
G01X79271786Y-41010189D01*
G01X79271786Y-41010189D01*
G01X79230329Y-41042597D01*
G01X79184494Y-41065027D01*
G01X79135880Y-41077507D01*
G01X79086085Y-41080065D01*
G01X79036709Y-41072729D01*
G01X78989351Y-41055527D01*
G01X78945610Y-41028487D01*
G01X78918287Y-41004019D01*
G01X78591102Y-40665210D01*
G01X78090254Y-40146566D01*
G01X78465389Y-39784302D01*
G01X78840525Y-39422037D01*
G01X79341374Y-39940681D01*
G01X79668558Y-40279490D01*
G01X79668558Y-40279490D01*
G01X79700966Y-40320947D01*
G01X79723395Y-40366782D01*
G01X79735875Y-40415397D01*
G01X79738434Y-40465191D01*
G01X79731098Y-40514567D01*
G01X79713896Y-40561925D01*
G01X79686856Y-40605667D01*
G01X79662388Y-40632990D01*
G01X79467087Y-40821590D01*
G37*
G36*
G01X88456960Y-61546091D02*
G01X88664941Y-61720608D01*
G01X88664941Y-61720608D01*
G01X88701504Y-61758450D01*
G01X88728602Y-61801689D01*
G01X88746095Y-61848733D01*
G01X88753845Y-61897987D01*
G01X88751710Y-61947860D01*
G01X88739553Y-61996756D01*
G01X88717233Y-62043084D01*
G01X88695755Y-62072816D01*
G01X88393002Y-62433622D01*
G01X87929552Y-62985941D01*
G01X87530060Y-62650727D01*
G01X87130568Y-62315513D01*
G01X87594017Y-61763195D01*
G01X87896770Y-61402388D01*
G01X87896770Y-61402388D01*
G01X87934613Y-61365825D01*
G01X87977852Y-61338726D01*
G01X88024896Y-61321233D01*
G01X88074150Y-61313484D01*
G01X88124023Y-61315618D01*
G01X88172919Y-61327776D01*
G01X88219247Y-61350095D01*
G01X88248978Y-61371574D01*
G01X88456960Y-61546091D01*
G37*
G36*
G01X86060647Y-64401904D02*
G01X85852666Y-64227387D01*
G01X85852666Y-64227387D01*
G01X85816103Y-64189545D01*
G01X85789004Y-64146306D01*
G01X85771511Y-64099262D01*
G01X85763762Y-64050008D01*
G01X85765896Y-64000135D01*
G01X85778054Y-63951239D01*
G01X85800373Y-63904911D01*
G01X85821852Y-63875179D01*
G01X86124605Y-63514373D01*
G01X86588055Y-62962054D01*
G01X86987547Y-63297268D01*
G01X87387039Y-63632482D01*
G01X86923589Y-64184800D01*
G01X86620836Y-64545607D01*
G01X86620836Y-64545607D01*
G01X86582994Y-64582170D01*
G01X86539754Y-64609269D01*
G01X86492711Y-64626762D01*
G01X86443456Y-64634511D01*
G01X86393584Y-64632377D01*
G01X86344687Y-64620219D01*
G01X86298359Y-64597900D01*
G01X86268628Y-64576421D01*
G01X86060647Y-64401904D01*
G37*
G36*
G01X66317821Y-76325211D02*
G01X66410679Y-76580338D01*
G01X66410679Y-76580338D01*
G01X66423423Y-76631392D01*
G01X66425271Y-76682388D01*
G01X66416899Y-76731875D01*
G01X66398983Y-76778406D01*
G01X66372198Y-76820529D01*
G01X66337221Y-76856796D01*
G01X66294728Y-76885758D01*
G01X66261261Y-76900766D01*
G01X65818666Y-77061858D01*
G01X65141148Y-77308454D01*
G01X64962784Y-76818405D01*
G01X64784421Y-76328355D01*
G01X65461939Y-76081758D01*
G01X65904534Y-75920667D01*
G01X65904534Y-75920667D01*
G01X65955588Y-75907923D01*
G01X66006584Y-75906075D01*
G01X66056072Y-75914447D01*
G01X66102602Y-75932364D01*
G01X66144725Y-75959148D01*
G01X66180992Y-75994125D01*
G01X66209954Y-76036619D01*
G01X66224963Y-76070085D01*
G01X66317821Y-76325211D01*
G37*
G36*
G01X62814648Y-77600264D02*
G01X62721789Y-77345137D01*
G01X62721789Y-77345137D01*
G01X62709045Y-77294083D01*
G01X62707198Y-77243087D01*
G01X62715570Y-77193600D01*
G01X62733486Y-77147069D01*
G01X62760271Y-77104946D01*
G01X62795247Y-77068679D01*
G01X62837741Y-77039717D01*
G01X62871207Y-77024709D01*
G01X63313803Y-76863617D01*
G01X63991321Y-76617021D01*
G01X64169684Y-77107070D01*
G01X64348048Y-77597120D01*
G01X63670530Y-77843717D01*
G01X63227934Y-78004808D01*
G01X63227934Y-78004808D01*
G01X63176880Y-78017552D01*
G01X63125885Y-78019400D01*
G01X63076397Y-78011028D01*
G01X63029867Y-77993111D01*
G01X62987743Y-77966327D01*
G01X62951476Y-77931350D01*
G01X62922515Y-77888856D01*
G01X62907506Y-77855390D01*
G01X62814648Y-77600264D01*
G37*
G36*
G01X17239303Y-70374646D02*
G01X17031321Y-70549163D01*
G01X17031321Y-70549163D01*
G01X16987705Y-70578600D01*
G01X16940417Y-70597778D01*
G01X16891050Y-70606836D01*
G01X16841198Y-70605915D01*
G01X16792454Y-70595153D01*
G01X16746412Y-70574689D01*
G01X16704663Y-70544664D01*
G01X16679113Y-70518349D01*
G01X16376360Y-70157542D01*
G01X15912911Y-69605224D01*
G01X16312403Y-69270010D01*
G01X16711895Y-68934796D01*
G01X17175345Y-69487115D01*
G01X17478098Y-69847921D01*
G01X17478098Y-69847921D01*
G01X17507535Y-69891538D01*
G01X17526713Y-69938826D01*
G01X17535771Y-69988193D01*
G01X17534849Y-70038045D01*
G01X17524087Y-70086788D01*
G01X17503624Y-70132831D01*
G01X17473598Y-70174580D01*
G01X17447284Y-70200129D01*
G01X17239303Y-70374646D01*
G37*
G36*
G01X14842990Y-67518833D02*
G01X15050971Y-67344316D01*
G01X15050971Y-67344316D01*
G01X15094588Y-67314879D01*
G01X15141876Y-67295701D01*
G01X15191242Y-67286643D01*
G01X15241094Y-67287564D01*
G01X15289838Y-67298326D01*
G01X15335881Y-67318790D01*
G01X15377629Y-67348815D01*
G01X15403179Y-67375130D01*
G01X15705932Y-67735937D01*
G01X16169382Y-68288255D01*
G01X15769890Y-68623469D01*
G01X15370398Y-68958683D01*
G01X14906948Y-68406364D01*
G01X14604195Y-68045558D01*
G01X14604195Y-68045558D01*
G01X14574758Y-68001941D01*
G01X14555580Y-67954653D01*
G01X14546522Y-67905286D01*
G01X14547443Y-67855434D01*
G01X14558205Y-67806691D01*
G01X14578669Y-67760648D01*
G01X14608694Y-67718899D01*
G01X14635009Y-67693350D01*
G01X14842990Y-67518833D01*
G37*
G36*
G01X4706944Y-51087717D02*
G01X4442403Y-51148791D01*
G01X4442403Y-51148791D01*
G01X4390176Y-51155218D01*
G01X4339336Y-51150837D01*
G01X4291237Y-51136496D01*
G01X4247237Y-51113043D01*
G01X4208692Y-51081324D01*
G01X4176958Y-51042188D01*
G01X4153391Y-50996482D01*
G01X4142573Y-50961436D01*
G01X4036621Y-50502508D01*
G01X3874431Y-49799987D01*
G01X4382565Y-49682675D01*
G01X4890699Y-49565363D01*
G01X5052889Y-50267884D01*
G01X5158841Y-50726812D01*
G01X5158841Y-50726812D01*
G01X5165267Y-50779039D01*
G01X5160887Y-50829879D01*
G01X5146546Y-50877978D01*
G01X5123093Y-50921978D01*
G01X5091374Y-50960523D01*
G01X5052238Y-50992257D01*
G01X5006532Y-51015824D01*
G01X4971486Y-51026642D01*
G01X4706944Y-51087717D01*
G37*
G36*
G01X3868326Y-47455265D02*
G01X4132868Y-47394190D01*
G01X4132868Y-47394190D01*
G01X4185094Y-47387764D01*
G01X4235935Y-47392144D01*
G01X4284033Y-47406485D01*
G01X4328033Y-47429938D01*
G01X4366579Y-47461657D01*
G01X4398313Y-47500793D01*
G01X4421880Y-47546499D01*
G01X4432698Y-47581545D01*
G01X4538650Y-48040473D01*
G01X4700840Y-48742994D01*
G01X4192706Y-48860306D01*
G01X3684572Y-48977618D01*
G01X3522382Y-48275097D01*
G01X3416430Y-47816169D01*
G01X3416430Y-47816169D01*
G01X3410003Y-47763942D01*
G01X3414384Y-47713102D01*
G01X3428725Y-47665003D01*
G01X3452178Y-47621003D01*
G01X3483896Y-47582458D01*
G01X3523033Y-47550724D01*
G01X3568739Y-47527157D01*
G01X3603785Y-47516339D01*
G01X3868326Y-47455265D01*
G37*
G36*
G01X5078555Y-27565870D02*
G01X4926734Y-27340786D01*
G01X4926734Y-27340786D01*
G01X4902018Y-27294332D01*
G01X4887888Y-27245298D01*
G01X4884040Y-27195255D01*
G01X4890167Y-27145773D01*
G01X4905965Y-27098421D01*
G01X4931129Y-27054769D01*
G01X4965354Y-27016388D01*
G01X4994196Y-26993729D01*
G01X5384672Y-26730349D01*
G01X5982408Y-26327171D01*
G01X6274028Y-26759514D01*
G01X6565647Y-27191857D01*
G01X5967911Y-27595035D01*
G01X5577434Y-27858415D01*
G01X5577434Y-27858415D01*
G01X5530979Y-27883131D01*
G01X5481945Y-27897261D01*
G01X5431902Y-27901110D01*
G01X5382420Y-27894982D01*
G01X5335068Y-27879184D01*
G01X5291417Y-27854020D01*
G01X5253035Y-27819795D01*
G01X5230376Y-27790954D01*
G01X5078555Y-27565870D01*
G37*
G36*
G01X8169207Y-25481199D02*
G01X8321028Y-25706283D01*
G01X8321028Y-25706283D01*
G01X8345744Y-25752737D01*
G01X8359874Y-25801771D01*
G01X8363723Y-25851814D01*
G01X8357596Y-25901296D01*
G01X8341797Y-25948648D01*
G01X8316633Y-25992300D01*
G01X8282408Y-26030681D01*
G01X8253567Y-26053340D01*
G01X7863090Y-26316720D01*
G01X7265354Y-26719898D01*
G01X6973735Y-26287555D01*
G01X6682116Y-25855212D01*
G01X7279852Y-25452034D01*
G01X7670329Y-25188654D01*
G01X7670329Y-25188654D01*
G01X7716783Y-25163938D01*
G01X7765817Y-25149808D01*
G01X7815860Y-25145959D01*
G01X7865343Y-25152087D01*
G01X7912694Y-25167885D01*
G01X7956346Y-25193049D01*
G01X7994727Y-25227274D01*
G01X8017386Y-25256115D01*
G01X8169207Y-25481199D01*
G37*
G36*
G01X39659655Y-80031489D02*
G01X39566797Y-80286615D01*
G01X39566797Y-80286615D01*
G01X39543742Y-80333916D01*
G01X39512378Y-80374169D01*
G01X39474155Y-80406697D01*
G01X39430521Y-80430825D01*
G01X39382926Y-80445877D01*
G01X39332820Y-80451176D01*
G01X39281652Y-80446048D01*
G01X39246368Y-80436033D01*
G01X38803773Y-80274942D01*
G01X38126255Y-80028345D01*
G01X38304618Y-79538295D01*
G01X38482982Y-79048246D01*
G01X39160500Y-79294842D01*
G01X39603095Y-79455934D01*
G01X39603095Y-79455934D01*
G01X39650397Y-79478988D01*
G01X39690649Y-79510352D01*
G01X39723177Y-79548576D01*
G01X39747305Y-79592209D01*
G01X39762357Y-79639804D01*
G01X39767656Y-79689910D01*
G01X39762528Y-79741078D01*
G01X39752513Y-79776362D01*
G01X39659655Y-80031489D01*
G37*
G36*
G01X36156482Y-78756436D02*
G01X36249340Y-78501310D01*
G01X36249340Y-78501310D01*
G01X36272395Y-78454009D01*
G01X36303759Y-78413756D01*
G01X36341982Y-78381228D01*
G01X36385616Y-78357100D01*
G01X36433210Y-78342048D01*
G01X36483316Y-78336749D01*
G01X36534484Y-78341877D01*
G01X36569768Y-78351892D01*
G01X37012364Y-78512983D01*
G01X37689882Y-78759580D01*
G01X37511518Y-79249630D01*
G01X37333155Y-79739679D01*
G01X36655637Y-79493083D01*
G01X36213041Y-79331991D01*
G01X36213041Y-79331991D01*
G01X36165740Y-79308937D01*
G01X36125487Y-79277573D01*
G01X36092959Y-79239349D01*
G01X36068831Y-79195716D01*
G01X36053780Y-79148121D01*
G01X36048480Y-79098015D01*
G01X36053609Y-79046847D01*
G01X36063623Y-79011563D01*
G01X36156482Y-78756436D01*
G37*
G36*
G01X36312353Y-33130439D02*
G01X36274567Y-32861582D01*
G01X36274567Y-32861582D01*
G01X36272717Y-32808994D01*
G01X36281512Y-32758728D01*
G01X36299990Y-32712063D01*
G01X36327189Y-32670274D01*
G01X36362146Y-32634640D01*
G01X36403899Y-32606438D01*
G01X36451486Y-32586944D01*
G01X36487341Y-32579221D01*
G01X36953757Y-32513671D01*
G01X37667741Y-32413327D01*
G01X37740319Y-32929752D01*
G01X37812898Y-33446177D01*
G01X37098915Y-33546520D01*
G01X36632499Y-33612071D01*
G01X36632499Y-33612071D01*
G01X36579911Y-33613921D01*
G01X36529645Y-33605126D01*
G01X36482980Y-33586648D01*
G01X36441191Y-33559449D01*
G01X36405557Y-33524492D01*
G01X36377355Y-33482739D01*
G01X36357861Y-33435153D01*
G01X36350138Y-33399297D01*
G01X36312353Y-33130439D01*
G37*
G36*
G01X40004072Y-32611602D02*
G01X40041857Y-32880459D01*
G01X40041857Y-32880459D01*
G01X40043708Y-32933047D01*
G01X40034913Y-32983313D01*
G01X40016434Y-33029978D01*
G01X39989235Y-33071767D01*
G01X39954278Y-33107401D01*
G01X39912525Y-33135603D01*
G01X39864939Y-33155097D01*
G01X39829083Y-33162820D01*
G01X39362667Y-33228370D01*
G01X38648684Y-33328714D01*
G01X38576105Y-32812289D01*
G01X38503526Y-32295864D01*
G01X39217510Y-32195521D01*
G01X39683926Y-32129970D01*
G01X39683926Y-32129970D01*
G01X39736514Y-32128120D01*
G01X39786779Y-32136915D01*
G01X39833445Y-32155393D01*
G01X39875233Y-32182592D01*
G01X39910867Y-32217549D01*
G01X39939070Y-32259302D01*
G01X39958564Y-32306888D01*
G01X39966286Y-32342744D01*
G01X40004072Y-32611602D01*
G37*
G36*
G01X44377305Y-49244513D02*
G01X45677305Y-49244513D01*
G01X45677305Y-51244513D01*
G01X44377305Y-51244513D01*
G01X44377305Y-49244513D01*
G37*
G36*
G01X44377305Y-53744513D02*
G01X45677305Y-53744513D01*
G01X45677305Y-55744513D01*
G01X44377305Y-55744513D01*
G01X44377305Y-53744513D01*
G37*
G36*
G01X54777305Y-51244513D02*
G01X53477305Y-51244513D01*
G01X53477305Y-49244513D01*
G01X54777305Y-49244513D01*
G01X54777305Y-51244513D01*
G37*
G36*
G01X54777305Y-55744513D02*
G01X53477305Y-55744513D01*
G01X53477305Y-53744513D01*
G01X54777305Y-53744513D01*
G01X54777305Y-55744513D01*
G37*
G36*
G01X85603017Y-25448060D02*
G01X85603017Y-25448060D01*
G01X85624430Y-25460218D01*
G01X85645613Y-25475093D01*
G01X85666639Y-25492620D01*
G01X85687585Y-25512736D01*
G01X85708523Y-25535374D01*
G01X85729528Y-25560469D01*
G01X85750674Y-25587956D01*
G01X85772036Y-25617770D01*
G01X85793688Y-25649846D01*
G01X85815704Y-25684118D01*
G01X85838159Y-25720521D01*
G01X85861127Y-25758991D01*
G01X85884682Y-25799461D01*
G01X85908899Y-25841867D01*
G01X85933851Y-25886143D01*
G01X85959614Y-25932225D01*
G01X85986261Y-25980046D01*
G01X86013867Y-26029543D01*
G01X86042506Y-26080649D01*
G01X86072252Y-26133300D01*
G01X86103180Y-26187430D01*
G01X86135364Y-26242974D01*
G01X86168878Y-26299867D01*
G01X86203797Y-26358043D01*
G01X86240195Y-26417438D01*
G01X86278146Y-26477986D01*
G01X86317724Y-26539623D01*
G01X86359004Y-26602282D01*
G01X86402061Y-26665899D01*
G01X86446968Y-26730409D01*
G01X86493799Y-26795745D01*
G01X86542630Y-26861844D01*
G01X86593534Y-26928640D01*
G01X86646586Y-26996067D01*
G01X86701860Y-27064061D01*
G01X86759430Y-27132557D01*
G01X86819370Y-27201488D01*
G01X86881756Y-27270791D01*
G01X86946661Y-27340399D01*
G01X87014159Y-27410247D01*
G01X87084325Y-27480271D01*
G01X87157233Y-27550405D01*
G01X87232958Y-27620584D01*
G01X87311573Y-27690743D01*
G01X87393154Y-27760816D01*
G01X87477774Y-27830739D01*
G01X87565507Y-27900445D01*
G01X87656429Y-27969871D01*
G01X87750613Y-28038950D01*
G01X87848133Y-28107618D01*
G01X87949064Y-28175810D01*
G01X88053481Y-28243459D01*
G01X88161457Y-28310502D01*
G01X88273067Y-28376872D01*
G01X88388385Y-28442505D01*
G01X88507486Y-28507335D01*
G01X88630443Y-28571297D01*
G01X88757331Y-28634326D01*
G01X88888225Y-28696357D01*
G01X89023198Y-28757325D01*
G01X89162325Y-28817164D01*
G01X89305681Y-28875809D01*
G01X89453339Y-28933195D01*
G01X89605374Y-28989257D01*
G01X89761861Y-29043930D01*
G01X89922873Y-29097148D01*
G01X90088484Y-29148846D01*
G01X90258770Y-29198959D01*
G01X90433804Y-29247422D01*
G01X90613661Y-29294170D01*
G01X90798415Y-29339137D01*
G01X90988141Y-29382258D01*
G01X91182912Y-29423468D01*
G01X91382803Y-29462702D01*
G01X91587888Y-29499895D01*
G01X91798242Y-29534981D01*
G01X92013939Y-29567895D01*
G01X92235053Y-29598572D01*
G01X92461659Y-29626948D01*
G01X92693830Y-29652955D01*
G01X92931642Y-29676531D01*
G01X93175168Y-29697608D01*
G01X93424483Y-29716123D01*
G01X93679661Y-29732009D01*
G01X93940776Y-29745202D01*
G01X94207903Y-29755636D01*
G01X94481116Y-29763247D01*
G01X94760489Y-29767969D01*
G01X95046096Y-29769736D01*
G01X95338013Y-29768485D01*
G01X95636313Y-29764148D01*
G01X95941070Y-29756662D01*
G01X96252359Y-29745961D01*
G01X96570255Y-29731980D01*
G01X96894830Y-29714654D01*
G01X97226161Y-29693917D01*
G01X97564320Y-29669705D01*
G01X97909383Y-29641951D01*
G01X98261424Y-29610591D01*
G01X98620516Y-29575560D01*
G01X98620516Y-29575560D01*
G01X98620516Y-29575560D01*
G01X98614420Y-29660234D01*
G01X98607526Y-29746571D01*
G01X98599781Y-29834503D01*
G01X98591133Y-29923965D01*
G01X98581530Y-30014888D01*
G01X98570918Y-30107207D01*
G01X98559247Y-30200854D01*
G01X98546462Y-30295762D01*
G01X98532511Y-30391864D01*
G01X98517343Y-30489094D01*
G01X98500904Y-30587384D01*
G01X98483142Y-30686667D01*
G01X98464005Y-30786877D01*
G01X98443439Y-30887947D01*
G01X98421393Y-30989809D01*
G01X98397813Y-31092397D01*
G01X98372648Y-31195644D01*
G01X98345845Y-31299482D01*
G01X98317351Y-31403845D01*
G01X98287115Y-31508666D01*
G01X98255082Y-31613878D01*
G01X98221201Y-31719414D01*
G01X98185420Y-31825207D01*
G01X98147685Y-31931191D01*
G01X98107944Y-32037297D01*
G01X98066146Y-32143460D01*
G01X98022236Y-32249612D01*
G01X97976164Y-32355686D01*
G01X97927875Y-32461616D01*
G01X97877318Y-32567334D01*
G01X97824441Y-32672774D01*
G01X97769190Y-32777868D01*
G01X97711513Y-32882550D01*
G01X97651358Y-32986752D01*
G01X97588672Y-33090409D01*
G01X97523403Y-33193452D01*
G01X97455498Y-33295815D01*
G01X97384904Y-33397431D01*
G01X97311570Y-33498233D01*
G01X97235442Y-33598154D01*
G01X97156468Y-33697127D01*
G01X97074596Y-33795086D01*
G01X96989772Y-33891962D01*
G01X96901946Y-33987690D01*
G01X96811063Y-34082202D01*
G01X96717072Y-34175431D01*
G01X96619920Y-34267311D01*
G01X96519554Y-34357775D01*
G01X96415922Y-34446754D01*
G01X96308972Y-34534184D01*
G01X96198651Y-34619996D01*
G01X96084906Y-34704124D01*
G01X95967685Y-34786501D01*
G01X95846935Y-34867059D01*
G01X95722605Y-34945733D01*
G01X95594640Y-35022454D01*
G01X95462990Y-35097157D01*
G01X95327601Y-35169773D01*
G01X95188421Y-35240237D01*
G01X95045397Y-35308480D01*
G01X94898477Y-35374437D01*
G01X94747608Y-35438041D01*
G01X94592738Y-35499223D01*
G01X94433814Y-35557918D01*
G01X94270784Y-35614059D01*
G01X94103596Y-35667578D01*
G01X93932196Y-35718408D01*
G01X93756532Y-35766483D01*
G01X93576552Y-35811736D01*
G01X93392203Y-35854100D01*
G01X93203433Y-35893507D01*
G01X93010189Y-35929892D01*
G01X92812419Y-35963186D01*
G01X92610070Y-35993323D01*
G01X92403089Y-36020236D01*
G01X92191425Y-36043859D01*
G01X91975024Y-36064123D01*
G01X91753835Y-36080963D01*
G01X91527804Y-36094311D01*
G01X91296879Y-36104100D01*
G01X91061007Y-36110264D01*
G01X90820137Y-36112735D01*
G01X90574215Y-36111446D01*
G01X90323189Y-36106331D01*
G01X90067007Y-36097323D01*
G01X89805616Y-36084355D01*
G01X89538963Y-36067359D01*
G01X89266996Y-36046268D01*
G01X88989663Y-36021017D01*
G01X88706911Y-35991538D01*
G01X88418687Y-35957763D01*
G01X88124939Y-35919627D01*
G01X87825614Y-35877061D01*
G01X87520661Y-35830000D01*
G01X87210025Y-35778376D01*
G01X86893656Y-35722122D01*
G01X86571500Y-35661171D01*
G01X86243505Y-35595457D01*
G01X85909618Y-35524912D01*
G01X85569787Y-35449470D01*
G01X85569787Y-35449470D01*
G01X85569787Y-35449470D01*
G01X85568861Y-35449172D01*
G01X85566092Y-35448274D01*
G01X85561494Y-35446770D01*
G01X85555081Y-35444653D01*
G01X85546867Y-35441915D01*
G01X85536867Y-35438551D01*
G01X85525094Y-35434553D01*
G01X85511561Y-35429914D01*
G01X85496284Y-35424628D01*
G01X85479276Y-35418687D01*
G01X85460551Y-35412086D01*
G01X85440123Y-35404818D01*
G01X85418006Y-35396875D01*
G01X85394215Y-35388250D01*
G01X85368762Y-35378938D01*
G01X85341662Y-35368931D01*
G01X85312930Y-35358222D01*
G01X85282578Y-35346805D01*
G01X85250622Y-35334672D01*
G01X85217074Y-35321818D01*
G01X85181950Y-35308235D01*
G01X85145263Y-35293917D01*
G01X85107026Y-35278856D01*
G01X85067255Y-35263046D01*
G01X85025963Y-35246481D01*
G01X84983164Y-35229152D01*
G01X84938872Y-35211055D01*
G01X84893100Y-35192181D01*
G01X84845864Y-35172524D01*
G01X84797177Y-35152077D01*
G01X84747053Y-35130834D01*
G01X84695506Y-35108787D01*
G01X84642549Y-35085930D01*
G01X84588198Y-35062257D01*
G01X84532466Y-35037759D01*
G01X84475367Y-35012431D01*
G01X84416914Y-34986266D01*
G01X84357123Y-34959257D01*
G01X84296007Y-34931397D01*
G01X84233579Y-34902679D01*
G01X84169855Y-34873097D01*
G01X84104847Y-34842644D01*
G01X84038571Y-34811313D01*
G01X83971039Y-34779097D01*
G01X83902266Y-34745989D01*
G01X83832266Y-34711983D01*
G01X83761053Y-34677072D01*
G01X83688641Y-34641249D01*
G01X83615044Y-34604507D01*
G01X83540276Y-34566840D01*
G01X83464351Y-34528241D01*
G01X83387283Y-34488702D01*
G01X83309085Y-34448218D01*
G01X83229773Y-34406781D01*
G01X83149359Y-34364385D01*
G01X83067858Y-34321022D01*
G01X82985284Y-34276687D01*
G01X82901651Y-34231372D01*
G01X82816973Y-34185070D01*
G01X82731263Y-34137775D01*
G01X82644537Y-34089480D01*
G01X82556807Y-34040178D01*
G01X82468088Y-33989862D01*
G01X82378394Y-33938526D01*
G01X82287739Y-33886162D01*
G01X82196137Y-33832765D01*
G01X82103601Y-33778327D01*
G01X82010147Y-33722841D01*
G01X81915787Y-33666301D01*
G01X81820536Y-33608699D01*
G01X81724408Y-33550030D01*
G01X81627416Y-33490286D01*
G01X81529576Y-33429460D01*
G01X81430900Y-33367546D01*
G01X81331403Y-33304537D01*
G01X81231098Y-33240426D01*
G01X81130001Y-33175206D01*
G01X81028124Y-33108871D01*
G01X80925482Y-33041414D01*
G01X80822089Y-32972828D01*
G01X80717959Y-32903106D01*
G01X80613105Y-32832241D01*
G01X80507542Y-32760227D01*
G01X80401284Y-32687057D01*
G01X80294344Y-32612724D01*
G01X80186738Y-32537221D01*
G01X80078478Y-32460541D01*
G01X79969578Y-32382679D01*
G01X79860054Y-32303626D01*
G01X79749918Y-32223376D01*
G01X79639185Y-32141923D01*
G01X79527869Y-32059259D01*
G01X79415983Y-31975378D01*
G01X79303542Y-31890273D01*
G01X79190560Y-31803938D01*
G01X79077050Y-31716364D01*
G01X78963027Y-31627547D01*
G01X78848505Y-31537478D01*
G01X78733497Y-31446151D01*
G01X78618018Y-31353560D01*
G01X78618018Y-31353560D01*
G01X78618018Y-31353560D01*
G01X78617912Y-31352121D01*
G01X78617626Y-31347837D01*
G01X78617209Y-31340761D01*
G01X78616710Y-31330944D01*
G01X78616177Y-31318436D01*
G01X78615659Y-31303291D01*
G01X78615205Y-31285558D01*
G01X78614865Y-31265290D01*
G01X78614685Y-31242537D01*
G01X78614716Y-31217352D01*
G01X78615006Y-31189786D01*
G01X78615604Y-31159890D01*
G01X78616559Y-31127715D01*
G01X78617919Y-31093314D01*
G01X78619733Y-31056737D01*
G01X78622050Y-31018036D01*
G01X78624918Y-30977262D01*
G01X78628388Y-30934468D01*
G01X78632506Y-30889703D01*
G01X78637322Y-30843020D01*
G01X78642885Y-30794470D01*
G01X78649244Y-30744105D01*
G01X78656447Y-30691975D01*
G01X78664543Y-30638133D01*
G01X78673581Y-30582630D01*
G01X78683609Y-30525517D01*
G01X78694677Y-30466846D01*
G01X78706833Y-30406668D01*
G01X78720126Y-30345035D01*
G01X78734604Y-30281997D01*
G01X78750317Y-30217608D01*
G01X78767313Y-30151916D01*
G01X78785641Y-30084976D01*
G01X78805350Y-30016837D01*
G01X78826489Y-29947551D01*
G01X78849105Y-29877170D01*
G01X78873249Y-29805745D01*
G01X78898968Y-29733327D01*
G01X78926313Y-29659968D01*
G01X78955330Y-29585720D01*
G01X78986070Y-29510633D01*
G01X79018580Y-29434760D01*
G01X79052910Y-29358152D01*
G01X79089109Y-29280859D01*
G01X79127225Y-29202934D01*
G01X79167306Y-29124428D01*
G01X79209403Y-29045393D01*
G01X79253563Y-28965879D01*
G01X79299835Y-28885938D01*
G01X79348268Y-28805623D01*
G01X79398911Y-28724983D01*
G01X79451813Y-28644071D01*
G01X79507021Y-28562938D01*
G01X79564586Y-28481635D01*
G01X79624556Y-28400215D01*
G01X79686980Y-28318727D01*
G01X79751906Y-28237225D01*
G01X79819383Y-28155759D01*
G01X79889460Y-28074380D01*
G01X79962186Y-27993140D01*
G01X80037609Y-27912091D01*
G01X80115779Y-27831284D01*
G01X80196743Y-27750770D01*
G01X80280551Y-27670601D01*
G01X80367252Y-27590828D01*
G01X80456894Y-27511503D01*
G01X80549527Y-27432677D01*
G01X80645198Y-27354401D01*
G01X80743957Y-27276728D01*
G01X80845852Y-27199708D01*
G01X80950932Y-27123392D01*
G01X81059246Y-27047833D01*
G01X81170843Y-26973082D01*
G01X81285772Y-26899190D01*
G01X81404080Y-26826209D01*
G01X81525818Y-26754189D01*
G01X81651033Y-26683183D01*
G01X81779775Y-26613242D01*
G01X81912092Y-26544417D01*
G01X82048034Y-26476760D01*
G01X82187648Y-26410322D01*
G01X82330983Y-26345155D01*
G01X82478090Y-26281310D01*
G01X82629015Y-26218839D01*
G01X82783808Y-26157792D01*
G01X82942518Y-26098222D01*
G01X83105193Y-26040179D01*
G01X83271883Y-25983716D01*
G01X83442635Y-25928883D01*
G01X83617499Y-25875733D01*
G01X83796524Y-25824316D01*
G01X83979758Y-25774684D01*
G01X84167250Y-25726889D01*
G01X84359049Y-25680981D01*
G01X84555204Y-25637013D01*
G01X84755763Y-25595035D01*
G01X84960775Y-25555100D01*
G01X85170289Y-25517258D01*
G01X85384353Y-25481561D01*
G01X85603017Y-25448060D01*
G01X85603017Y-25448060D01*
G37*
G36*
G01X23187597Y-74759619D02*
G01X21905306Y-73721241D01*
G01X22786355Y-72633236D01*
G01X24068646Y-73671615D01*
G01X23187597Y-74759619D01*
G37*
G36*
G01X19872058Y-70273286D02*
G01X21154348Y-71311664D01*
G01X20273300Y-72399669D01*
G01X18991009Y-71361290D01*
G01X19872058Y-70273286D01*
G37*
G36*
G01X14091200Y-67774108D02*
G01X13030601Y-66510134D01*
G01X14103063Y-65610232D01*
G01X15163662Y-66874205D01*
G01X14091200Y-67774108D01*
G37*
G36*
G01X11692609Y-62737565D02*
G01X12753208Y-64001539D01*
G01X11680746Y-64901441D01*
G01X10620146Y-63637468D01*
G01X11692609Y-62737565D01*
G37*
G36*
G01X89432628Y-53699468D02*
G01X89432628Y-55349469D01*
G01X88032628Y-55349469D01*
G01X88032628Y-53699468D01*
G01X89432628Y-53699468D01*
G37*
G36*
G01X88032628Y-59099469D02*
G01X88032628Y-57449468D01*
G01X89432628Y-57449468D01*
G01X89432628Y-59099469D01*
G01X88032628Y-59099469D01*
G37*
G36*
G01X48199485Y-80772509D02*
G01X46558523Y-80600037D01*
G01X46704863Y-79207707D01*
G01X48345824Y-79380179D01*
G01X48199485Y-80772509D01*
G37*
G36*
G01X42975405Y-78815726D02*
G01X44616367Y-78988198D01*
G01X44470027Y-80380528D01*
G01X42829066Y-80208056D01*
G01X42975405Y-78815726D01*
G37*
G36*
G01X7122978Y-58032153D02*
G01X6297978Y-56603211D01*
G01X7510414Y-55903211D01*
G01X8335414Y-57332153D01*
G01X7122978Y-58032153D01*
G37*
G36*
G01X5635414Y-52655616D02*
G01X6460414Y-54084558D01*
G01X5247979Y-54784558D01*
G01X4422979Y-53355616D01*
G01X5635414Y-52655616D01*
G37*
G36*
G01X74920593Y-74009892D02*
G01X73477471Y-74809828D01*
G01X72798737Y-73585361D01*
G01X74241860Y-72785425D01*
G01X74920593Y-74009892D01*
G37*
G36*
G01X69518913Y-75403397D02*
G01X70962036Y-74603461D01*
G01X71640769Y-75827928D01*
G01X70197647Y-76627864D01*
G01X69518913Y-75403397D01*
G37*
G36*
G01X14549571Y-31050981D02*
G01X15948850Y-31925348D01*
G01X15206964Y-33112615D01*
G01X13807684Y-32238248D01*
G01X14549571Y-31050981D01*
G37*
G36*
G01X18387143Y-35099812D02*
G01X16987864Y-34225445D01*
G01X17729751Y-33038178D01*
G01X19129030Y-33912545D01*
G01X18387143Y-35099812D01*
G37*
G36*
G01X1938630Y-35104345D02*
G01X2365681Y-33510568D01*
G01X3717977Y-33872914D01*
G01X3290926Y-35466692D01*
G01X1938630Y-35104345D01*
G37*
G36*
G01X4688549Y-30250694D02*
G01X4261498Y-31844471D01*
G01X2909201Y-31482125D01*
G01X3336253Y-29888347D01*
G01X4688549Y-30250694D01*
G37*
G36*
G01X40273653Y-31857247D02*
G01X41907595Y-31627611D01*
G01X42102438Y-33013987D01*
G01X40468495Y-33243622D01*
G01X40273653Y-31857247D01*
G37*
G36*
G01X45815942Y-32492088D02*
G01X44182000Y-32721724D01*
G01X43987158Y-31335348D01*
G01X45621100Y-31105713D01*
G01X45815942Y-32492088D01*
G37*
G36*
G01X101385567Y-5800000D02*
G01X102585567Y-5800000D01*
G01X102585567Y-7000000D01*
G01X101385567Y-7000000D01*
G01X101385567Y-5800000D01*
G37*
G36*
G01X102835567Y-6179102D02*
G01X102835567Y-6179102D01*
G01X102853438Y-6143946D01*
G01X102853438Y-6143946D01*
G01X102910445Y-6136381D01*
G01X102914668Y-6136329D01*
G01X102948652Y-6136329D01*
G01X102948652Y-6136329D01*
G01X102945162Y-6057561D01*
G01X102941833Y-6010582D01*
G01X102941035Y-6001563D01*
G01X102941035Y-6001563D01*
G01X102980879Y-5998047D01*
G01X102980879Y-5998047D01*
G01X103035150Y-6028967D01*
G01X103038301Y-6043750D01*
G01X103038301Y-6043750D01*
G01X103035677Y-6102063D01*
G01X103033613Y-6137500D01*
G01X103033613Y-6137500D01*
G01X103129378Y-6136493D01*
G01X103191524Y-6134278D01*
G01X103225105Y-6132062D01*
G01X103235176Y-6131055D01*
G01X103235176Y-6131055D01*
G01X103235176Y-6131055D01*
G01X103239863Y-6159180D01*
G01X103239863Y-6159180D01*
G01X103227266Y-6191407D01*
G01X103227266Y-6191407D01*
G01X103187129Y-6200782D01*
G01X103187129Y-6200782D01*
G01X103129184Y-6201601D01*
G01X103063682Y-6201908D01*
G01X103031304Y-6201954D01*
G01X103031270Y-6201954D01*
G01X103031270Y-6201954D01*
G01X103030171Y-6276151D01*
G01X103029484Y-6346828D01*
G01X103029112Y-6407548D01*
G01X103028958Y-6451872D01*
G01X103028926Y-6473362D01*
G01X103028926Y-6474414D01*
G01X103028926Y-6474414D01*
G01X103035851Y-6560115D01*
G01X103047880Y-6601574D01*
G01X103052363Y-6610059D01*
G01X103052363Y-6610059D01*
G01X103107431Y-6640169D01*
G01X103129707Y-6642579D01*
G01X103129707Y-6642579D01*
G01X103194344Y-6622782D01*
G01X103215840Y-6606250D01*
G01X103215840Y-6606250D01*
G01X103237520Y-6649610D01*
G01X103237520Y-6649610D01*
G01X103206787Y-6690166D01*
G01X103206465Y-6690332D01*
G01X103206465Y-6690332D01*
G01X103144757Y-6705194D01*
G01X103130879Y-6705860D01*
G01X103130879Y-6705860D01*
G01X103052607Y-6691983D01*
G01X103006815Y-6665405D01*
G01X102990160Y-6648706D01*
G01X102989961Y-6648438D01*
G01X102989961Y-6648438D01*
G01X102964071Y-6590592D01*
G01X102952171Y-6528545D01*
G01X102948822Y-6484832D01*
G01X102948652Y-6476758D01*
G01X102948652Y-6476758D01*
G01X102949751Y-6369360D01*
G01X102950438Y-6292231D01*
G01X102950810Y-6241250D01*
G01X102950964Y-6212292D01*
G01X102950996Y-6201234D01*
G01X102950996Y-6200782D01*
G01X102950996Y-6200782D01*
G01X102901969Y-6204519D01*
G01X102842121Y-6209325D01*
G01X102839082Y-6209571D01*
G01X102839082Y-6209571D01*
G01X102835567Y-6179102D01*
G37*
G36*
G01X103311348Y-6415821D02*
G01X103311348Y-6415821D01*
G01X103320278Y-6336638D01*
G01X103340928Y-6274311D01*
G01X103364089Y-6230636D01*
G01X103380554Y-6207411D01*
G01X103383418Y-6204004D01*
G01X103383418Y-6204004D01*
G01X103440776Y-6159133D01*
G01X103500159Y-6135270D01*
G01X103548202Y-6125780D01*
G01X103571541Y-6124029D01*
G01X103572090Y-6124024D01*
G01X103572090Y-6124024D01*
G01X103648582Y-6135633D01*
G01X103707040Y-6161616D01*
G01X103745325Y-6188704D01*
G01X103761298Y-6203631D01*
G01X103761641Y-6204004D01*
G01X103761641Y-6204004D01*
G01X103799356Y-6262365D01*
G01X103820813Y-6324049D01*
G01X103830597Y-6377320D01*
G01X103833294Y-6410443D01*
G01X103833418Y-6415821D01*
G01X103833418Y-6415821D01*
G01X103823774Y-6498098D01*
G01X103801827Y-6561712D01*
G01X103778058Y-6604739D01*
G01X103762945Y-6625253D01*
G01X103761641Y-6626758D01*
G01X103761641Y-6626758D01*
G01X103704277Y-6671136D01*
G01X103644600Y-6694737D01*
G01X103596195Y-6704123D01*
G01X103572645Y-6705855D01*
G01X103572090Y-6705860D01*
G01X103572090Y-6705860D01*
G01X103496213Y-6694378D01*
G01X103438009Y-6668681D01*
G01X103399764Y-6641890D01*
G01X103383762Y-6627128D01*
G01X103383418Y-6626758D01*
G01X103383418Y-6626758D01*
G01X103345549Y-6568859D01*
G01X103324004Y-6507438D01*
G01X103314180Y-6454287D01*
G01X103311472Y-6421197D01*
G01X103311348Y-6415821D01*
G37*
%LPC*%
G36*
G01X103395723Y-6398829D02*
G01X103395723Y-6398829D01*
G01X103404634Y-6476577D01*
G01X103423186Y-6533587D01*
G01X103439109Y-6565382D01*
G01X103442305Y-6570508D01*
G01X103442305Y-6570508D01*
G01X103496079Y-6618444D01*
G01X103547945Y-6636368D01*
G01X103572065Y-6639063D01*
G01X103572090Y-6639063D01*
G01X103572090Y-6639063D01*
G01X103646075Y-6623214D01*
G01X103690367Y-6594963D01*
G01X103702754Y-6582813D01*
G01X103702754Y-6582813D01*
G01X103734890Y-6521594D01*
G01X103747442Y-6463139D01*
G01X103749626Y-6433255D01*
G01X103749629Y-6432813D01*
G01X103749629Y-6432813D01*
G01X103740438Y-6354953D01*
G01X103721302Y-6297709D01*
G01X103704879Y-6265713D01*
G01X103701582Y-6260547D01*
G01X103701582Y-6260547D01*
G01X103647232Y-6212202D01*
G01X103595821Y-6194124D01*
G01X103572114Y-6191407D01*
G01X103572090Y-6191407D01*
G01X103572090Y-6191407D01*
G01X103498270Y-6207420D01*
G01X103454273Y-6235966D01*
G01X103442012Y-6248243D01*
G01X103442012Y-6248243D01*
G01X103410278Y-6309864D01*
G01X103397882Y-6368475D01*
G01X103395726Y-6398387D01*
G01X103395723Y-6398829D01*
G37*
%LPD*%
G36*
G01X103959395Y-6142188D02*
G01X103959395Y-6142188D01*
G01X104006270Y-6132813D01*
G01X104006270Y-6132813D01*
G01X104053733Y-6168930D01*
G01X104057832Y-6192579D01*
G01X104057832Y-6192579D01*
G01X104125966Y-6152945D01*
G01X104186738Y-6132593D01*
G01X104230372Y-6125095D01*
G01X104247090Y-6124024D01*
G01X104247090Y-6124024D01*
G01X104247090Y-6124024D01*
G01X104321016Y-6138698D01*
G01X104371816Y-6167431D01*
G01X104394777Y-6187285D01*
G01X104395625Y-6188184D01*
G01X104395625Y-6188184D01*
G01X104429330Y-6245784D01*
G01X104446638Y-6309949D01*
G01X104453015Y-6362084D01*
G01X104453926Y-6383594D01*
G01X104453926Y-6383594D01*
G01X104453926Y-6383594D01*
G01X104447342Y-6459919D01*
G01X104434731Y-6516070D01*
G01X104426807Y-6540872D01*
G01X104426680Y-6541211D01*
G01X104426680Y-6541211D01*
G01X104391238Y-6604637D01*
G01X104355004Y-6645678D01*
G01X104339668Y-6659278D01*
G01X104339668Y-6659278D01*
G01X104276377Y-6691850D01*
G01X104220505Y-6704029D01*
G01X104195553Y-6705860D01*
G01X104195527Y-6705860D01*
G01X104195527Y-6705860D01*
G01X104124516Y-6693913D01*
G01X104075010Y-6673164D01*
G01X104061348Y-6665430D01*
G01X104061348Y-6665430D01*
G01X104061873Y-6722430D01*
G01X104061934Y-6728418D01*
G01X104061934Y-6728418D01*
G01X104062915Y-6797617D01*
G01X104063106Y-6805762D01*
G01X104063106Y-6805762D01*
G01X104065787Y-6864140D01*
G01X104066035Y-6868750D01*
G01X104066035Y-6868750D01*
G01X104072289Y-6932415D01*
G01X104073360Y-6939063D01*
G01X104073360Y-6939063D01*
G01X104085369Y-6988275D01*
G01X104085371Y-6988282D01*
G01X104085371Y-6988282D01*
G01X104037324Y-6997657D01*
G01X104037324Y-6997657D01*
G01X103990742Y-6982129D01*
G01X103990742Y-6982129D01*
G01X103990742Y-6982129D01*
G01X103978739Y-6929970D01*
G01X103978731Y-6929102D01*
G01X103978731Y-6929102D01*
G01X103978881Y-6861405D01*
G01X103979250Y-6790867D01*
G01X103979715Y-6725525D01*
G01X103980152Y-6673417D01*
G01X103980439Y-6642580D01*
G01X103980488Y-6637598D01*
G01X103980488Y-6637598D01*
G01X103981380Y-6541724D01*
G01X103981903Y-6471644D01*
G01X103982157Y-6425323D01*
G01X103982239Y-6400728D01*
G01X103982246Y-6395313D01*
G01X103982246Y-6395313D01*
G01X103979870Y-6296313D01*
G01X103974202Y-6224454D01*
G01X103967438Y-6176782D01*
G01X103961771Y-6150344D01*
G01X103959395Y-6142188D01*
G01X103959395Y-6142188D01*
G37*
%LPC*%
G36*
G01X104061348Y-6257618D02*
G01X104061348Y-6257618D01*
G01X104062252Y-6364310D01*
G01X104062888Y-6448442D01*
G01X104063302Y-6512056D01*
G01X104063542Y-6557191D01*
G01X104063655Y-6585889D01*
G01X104063689Y-6600191D01*
G01X104063692Y-6602735D01*
G01X104063692Y-6602735D01*
G01X104126821Y-6628358D01*
G01X104184504Y-6637750D01*
G01X104207832Y-6639063D01*
G01X104207832Y-6639063D01*
G01X104273897Y-6620752D01*
G01X104299531Y-6602442D01*
G01X104299531Y-6602442D01*
G01X104299531Y-6602442D01*
G01X104339308Y-6546459D01*
G01X104352777Y-6513918D01*
G01X104352852Y-6513672D01*
G01X104352852Y-6513672D01*
G01X104365652Y-6445912D01*
G01X104368352Y-6403661D01*
G01X104368379Y-6401172D01*
G01X104368379Y-6401172D01*
G01X104358931Y-6317118D01*
G01X104340432Y-6264788D01*
G01X104327649Y-6243135D01*
G01X104327070Y-6242383D01*
G01X104327070Y-6242383D01*
G01X104269040Y-6201353D01*
G01X104225354Y-6191615D01*
G01X104220723Y-6191407D01*
G01X104220723Y-6191407D01*
G01X104152567Y-6204882D01*
G01X104097075Y-6232390D01*
G01X104065135Y-6254552D01*
G01X104061348Y-6257618D01*
G37*
%LPD*%
G36*
G01X104831270Y-6610352D02*
G01X104831270Y-6610352D01*
G01X104869247Y-6566249D01*
G01X104885176Y-6559961D01*
G01X104885176Y-6559961D01*
G01X104926077Y-6609257D01*
G01X104942305Y-6618848D01*
G01X104942305Y-6618848D01*
G01X105008457Y-6636827D01*
G01X105037520Y-6639063D01*
G01X105037520Y-6639063D01*
G01X105105028Y-6624918D01*
G01X105121016Y-6616211D01*
G01X105121016Y-6616211D01*
G01X105151332Y-6561336D01*
G01X105152949Y-6545313D01*
G01X105152949Y-6545313D01*
G01X105125651Y-6493536D01*
G01X105121016Y-6490235D01*
G01X105121016Y-6490235D01*
G01X105060900Y-6465254D01*
G01X105043672Y-6460645D01*
G01X105043672Y-6460645D01*
G01X104977094Y-6443680D01*
G01X104952559Y-6436622D01*
G01X104952559Y-6436622D01*
G01X104894199Y-6403367D01*
G01X104874922Y-6384473D01*
G01X104874922Y-6384473D01*
G01X104847743Y-6323012D01*
G01X104842995Y-6283477D01*
G01X104842988Y-6282813D01*
G01X104842988Y-6282813D01*
G01X104862983Y-6215300D01*
G01X104895832Y-6175983D01*
G01X104904805Y-6168555D01*
G01X104904805Y-6168555D01*
G01X104969749Y-6136826D01*
G01X105023693Y-6125483D01*
G01X105044551Y-6124024D01*
G01X105044551Y-6124024D01*
G01X105113168Y-6134365D01*
G01X105152749Y-6148218D01*
G01X105155000Y-6149219D01*
G01X105155000Y-6149219D01*
G01X105203924Y-6196894D01*
G01X105209199Y-6218946D01*
G01X105209199Y-6218946D01*
G01X105171222Y-6263632D01*
G01X105155293Y-6269336D01*
G01X105155293Y-6269336D01*
G01X105114376Y-6221545D01*
G01X105101094Y-6213086D01*
G01X105101094Y-6213086D01*
G01X105036698Y-6193130D01*
G01X105015840Y-6191407D01*
G01X105015840Y-6191407D01*
G01X104954030Y-6207998D01*
G01X104944942Y-6213672D01*
G01X104944942Y-6213672D01*
G01X104915866Y-6267034D01*
G01X104915059Y-6276368D01*
G01X104915059Y-6276368D01*
G01X104942003Y-6328855D01*
G01X104946992Y-6332618D01*
G01X104946992Y-6332618D01*
G01X105006308Y-6358837D01*
G01X105024336Y-6363965D01*
G01X105024336Y-6363965D01*
G01X105089937Y-6381183D01*
G01X105115449Y-6388575D01*
G01X105115449Y-6388575D01*
G01X105174583Y-6421179D01*
G01X105193086Y-6438379D01*
G01X105193086Y-6438379D01*
G01X105221028Y-6498914D01*
G01X105225020Y-6532422D01*
G01X105225020Y-6532422D01*
G01X105225020Y-6532422D01*
G01X105208598Y-6604822D01*
G01X105178586Y-6648147D01*
G01X105163789Y-6661622D01*
G01X105163789Y-6661622D01*
G01X105099474Y-6692555D01*
G01X105043219Y-6704121D01*
G01X105018209Y-6705860D01*
G01X105018184Y-6705860D01*
G01X105018184Y-6705860D01*
G01X104944013Y-6696952D01*
G01X104897368Y-6682318D01*
G01X104888106Y-6678321D01*
G01X104888106Y-6678321D01*
G01X104836802Y-6630827D01*
G01X104831270Y-6610352D01*
G37*
G36*
G01X105327559Y-6415821D02*
G01X105327559Y-6415821D01*
G01X105336489Y-6336638D01*
G01X105357139Y-6274311D01*
G01X105380300Y-6230636D01*
G01X105396765Y-6207411D01*
G01X105399629Y-6204004D01*
G01X105399629Y-6204004D01*
G01X105456987Y-6159133D01*
G01X105516370Y-6135270D01*
G01X105564413Y-6125780D01*
G01X105587752Y-6124029D01*
G01X105588301Y-6124024D01*
G01X105588301Y-6124024D01*
G01X105664793Y-6135633D01*
G01X105723251Y-6161616D01*
G01X105761536Y-6188704D01*
G01X105777509Y-6203631D01*
G01X105777852Y-6204004D01*
G01X105777852Y-6204004D01*
G01X105815567Y-6262365D01*
G01X105837024Y-6324049D01*
G01X105846808Y-6377320D01*
G01X105849505Y-6410443D01*
G01X105849629Y-6415821D01*
G01X105849629Y-6415821D01*
G01X105839985Y-6498098D01*
G01X105818038Y-6561712D01*
G01X105794268Y-6604739D01*
G01X105779156Y-6625253D01*
G01X105777852Y-6626758D01*
G01X105777852Y-6626758D01*
G01X105720488Y-6671136D01*
G01X105660811Y-6694737D01*
G01X105612406Y-6704123D01*
G01X105588856Y-6705855D01*
G01X105588301Y-6705860D01*
G01X105588301Y-6705860D01*
G01X105512423Y-6694378D01*
G01X105454220Y-6668681D01*
G01X105415975Y-6641890D01*
G01X105399973Y-6627128D01*
G01X105399629Y-6626758D01*
G01X105399629Y-6626758D01*
G01X105361760Y-6568859D01*
G01X105340215Y-6507438D01*
G01X105330391Y-6454287D01*
G01X105327683Y-6421197D01*
G01X105327559Y-6415821D01*
G37*
%LPC*%
G36*
G01X105411934Y-6398829D02*
G01X105411934Y-6398829D01*
G01X105420845Y-6476577D01*
G01X105439397Y-6533587D01*
G01X105455320Y-6565382D01*
G01X105458516Y-6570508D01*
G01X105458516Y-6570508D01*
G01X105512290Y-6618444D01*
G01X105564156Y-6636368D01*
G01X105588276Y-6639063D01*
G01X105588301Y-6639063D01*
G01X105588301Y-6639063D01*
G01X105662286Y-6623214D01*
G01X105706578Y-6594963D01*
G01X105718965Y-6582813D01*
G01X105718965Y-6582813D01*
G01X105751101Y-6521594D01*
G01X105763653Y-6463139D01*
G01X105765837Y-6433255D01*
G01X105765840Y-6432813D01*
G01X105765840Y-6432813D01*
G01X105756649Y-6354953D01*
G01X105737513Y-6297709D01*
G01X105721089Y-6265713D01*
G01X105717793Y-6260547D01*
G01X105717793Y-6260547D01*
G01X105663443Y-6212202D01*
G01X105612032Y-6194124D01*
G01X105588325Y-6191407D01*
G01X105588301Y-6191407D01*
G01X105588301Y-6191407D01*
G01X105514480Y-6207420D01*
G01X105470484Y-6235966D01*
G01X105458223Y-6248243D01*
G01X105458223Y-6248243D01*
G01X105426488Y-6309864D01*
G01X105414093Y-6368475D01*
G01X105411937Y-6398387D01*
G01X105411934Y-6398829D01*
G37*
%LPD*%
G36*
G01X105975606Y-5805860D02*
G01X105975606Y-5805860D01*
G01X106017793Y-5802344D01*
G01X106017793Y-5802344D01*
G01X106070081Y-5833907D01*
G01X106072871Y-5848047D01*
G01X106072871Y-5848047D01*
G01X106071331Y-5904789D01*
G01X106071113Y-5912207D01*
G01X106071113Y-5912207D01*
G01X106069271Y-5976627D01*
G01X106067580Y-6037843D01*
G01X106066731Y-6069071D01*
G01X106066719Y-6069532D01*
G01X106066719Y-6069532D01*
G01X106065151Y-6144038D01*
G01X106064374Y-6208111D01*
G01X106064110Y-6251555D01*
G01X106064082Y-6264649D01*
G01X106064082Y-6451563D01*
G01X106064082Y-6451563D01*
G01X106066682Y-6541160D01*
G01X106072789Y-6609312D01*
G01X106079864Y-6656279D01*
G01X106085366Y-6682322D01*
G01X106086934Y-6688282D01*
G01X106086934Y-6688282D01*
G01X106041817Y-6697657D01*
G01X106041817Y-6697657D01*
G01X105995527Y-6683301D01*
G01X105995527Y-6683301D01*
G01X105982637Y-6635547D01*
G01X105982637Y-6635547D01*
G01X105982637Y-6635547D01*
G01X105982935Y-6585454D01*
G01X105983494Y-6518080D01*
G01X105983808Y-6482949D01*
G01X105983809Y-6482911D01*
G01X105983809Y-6482911D01*
G01X105984525Y-6393698D01*
G01X105984867Y-6332444D01*
G01X105984973Y-6299047D01*
G01X105984981Y-6292188D01*
G01X105984981Y-6152735D01*
G01X105984981Y-6152735D01*
G01X105984411Y-6039649D01*
G01X105982956Y-5953003D01*
G01X105980994Y-5889653D01*
G01X105978906Y-5846454D01*
G01X105977070Y-5820261D01*
G01X105975868Y-5807931D01*
G01X105975606Y-5805860D01*
G37*
G36*
G01X106212910Y-6415821D02*
G01X106212910Y-6415821D01*
G01X106222058Y-6337181D01*
G01X106243212Y-6275036D01*
G01X106266938Y-6231333D01*
G01X106283804Y-6208018D01*
G01X106286738Y-6204590D01*
G01X106286738Y-6204590D01*
G01X106345717Y-6158013D01*
G01X106403486Y-6134095D01*
G01X106447413Y-6125283D01*
G01X106464863Y-6124024D01*
G01X106464863Y-6124024D01*
G01X106464863Y-6124024D01*
G01X106536127Y-6135580D01*
G01X106587816Y-6156180D01*
G01X106604317Y-6165039D01*
G01X106604317Y-6165039D01*
G01X106606179Y-6086439D01*
G01X106606647Y-6044792D01*
G01X106606660Y-6040235D01*
G01X106606660Y-6040235D01*
G01X106605499Y-5951904D01*
G01X106602812Y-5882917D01*
G01X106599800Y-5834921D01*
G01X106597658Y-5809562D01*
G01X106597285Y-5805860D01*
G01X106597285Y-5805860D01*
G01X106640059Y-5802344D01*
G01X106640059Y-5802344D01*
G01X106691450Y-5834543D01*
G01X106693965Y-5848047D01*
G01X106693965Y-5848047D01*
G01X106693466Y-5889368D01*
G01X106692259Y-5952903D01*
G01X106690778Y-6022160D01*
G01X106689457Y-6080644D01*
G01X106688730Y-6111862D01*
G01X106688692Y-6113477D01*
G01X106688692Y-6113477D01*
G01X106686544Y-6210156D01*
G01X106685076Y-6287669D01*
G01X106684160Y-6347009D01*
G01X106683664Y-6389170D01*
G01X106683460Y-6415146D01*
G01X106683418Y-6425929D01*
G01X106683418Y-6426368D01*
G01X106683418Y-6426368D01*
G01X106685579Y-6526081D01*
G01X106690810Y-6598900D01*
G01X106697228Y-6648005D01*
G01X106702953Y-6676581D01*
G01X106706104Y-6687811D01*
G01X106706270Y-6688282D01*
G01X106706270Y-6688282D01*
G01X106660567Y-6697657D01*
G01X106660567Y-6697657D01*
G01X106612766Y-6661539D01*
G01X106607832Y-6637891D01*
G01X106607832Y-6637891D01*
G01X106544761Y-6681533D01*
G01X106489418Y-6700824D01*
G01X106456037Y-6705710D01*
G01X106451973Y-6705860D01*
G01X106450801Y-6705860D01*
G01X106450801Y-6705860D01*
G01X106379375Y-6691149D01*
G01X106324366Y-6659933D01*
G01X106291174Y-6631587D01*
G01X106283809Y-6623829D01*
G01X106283809Y-6623829D01*
G01X106245278Y-6562320D01*
G01X106224074Y-6499268D01*
G01X106215022Y-6447078D01*
G01X106212947Y-6418152D01*
G01X106212910Y-6415821D01*
G37*
%LPC*%
G36*
G01X106297285Y-6398829D02*
G01X106297285Y-6398829D01*
G01X106306925Y-6478780D01*
G01X106326994Y-6536803D01*
G01X106344219Y-6568884D01*
G01X106347676Y-6574024D01*
G01X106347676Y-6574024D01*
G01X106404369Y-6623752D01*
G01X106452750Y-6640728D01*
G01X106469551Y-6642579D01*
G01X106469551Y-6642579D01*
G01X106535401Y-6625109D01*
G01X106584401Y-6592410D01*
G01X106604297Y-6574044D01*
G01X106604317Y-6574024D01*
G01X106604317Y-6574024D01*
G01X106603412Y-6452175D01*
G01X106602777Y-6362406D01*
G01X106602363Y-6299935D01*
G01X106602123Y-6259980D01*
G01X106602009Y-6237760D01*
G01X106601975Y-6228492D01*
G01X106601973Y-6227149D01*
G01X106601973Y-6227149D01*
G01X106532422Y-6199519D01*
G01X106486425Y-6191787D01*
G01X106478340Y-6191407D01*
G01X106478340Y-6191407D01*
G01X106405597Y-6206650D01*
G01X106360416Y-6234507D01*
G01X106345918Y-6248243D01*
G01X106345918Y-6248243D01*
G01X106312577Y-6309864D01*
G01X106299554Y-6368475D01*
G01X106297288Y-6398387D01*
G01X106297285Y-6398829D01*
G37*
%LPD*%
G36*
G01X106831660Y-6418164D02*
G01X106831660Y-6418164D01*
G01X106841570Y-6334220D01*
G01X106864487Y-6270006D01*
G01X106890191Y-6226198D01*
G01X106908462Y-6203468D01*
G01X106911641Y-6200196D01*
G01X106911641Y-6200196D01*
G01X106974725Y-6156159D01*
G01X107035530Y-6133545D01*
G01X107081338Y-6125214D01*
G01X107099434Y-6124024D01*
G01X107099434Y-6124024D01*
G01X107099434Y-6124024D01*
G01X107174905Y-6137396D01*
G01X107221845Y-6161233D01*
G01X107235371Y-6171485D01*
G01X107235371Y-6171485D01*
G01X107276256Y-6231175D01*
G01X107287102Y-6275791D01*
G01X107287520Y-6282813D01*
G01X107287520Y-6282813D01*
G01X107275987Y-6348760D01*
G01X107270820Y-6360743D01*
G01X107270820Y-6360743D01*
G01X107231311Y-6406645D01*
G01X107227168Y-6409668D01*
G01X107227168Y-6409668D01*
G01X107168050Y-6432883D01*
G01X107149238Y-6437207D01*
G01X107149238Y-6437207D01*
G01X107080025Y-6446839D01*
G01X107049043Y-6449219D01*
G01X107049043Y-6449219D01*
G01X107049043Y-6449219D01*
G01X106983891Y-6451031D01*
G01X106930021Y-6451538D01*
G01X106919551Y-6451563D01*
G01X106919551Y-6451563D01*
G01X106937624Y-6526526D01*
G01X106960833Y-6573309D01*
G01X106971406Y-6588379D01*
G01X106971406Y-6588379D01*
G01X107028211Y-6626984D01*
G01X107077914Y-6638362D01*
G01X107089473Y-6639063D01*
G01X107089473Y-6639063D01*
G01X107164864Y-6622249D01*
G01X107205678Y-6591519D01*
G01X107217207Y-6576368D01*
G01X107217207Y-6576368D01*
G01X107263371Y-6619079D01*
G01X107264668Y-6626758D01*
G01X107264668Y-6626758D01*
G01X107229357Y-6674261D01*
G01X107210176Y-6684180D01*
G01X107210176Y-6684180D01*
G01X107142182Y-6701407D01*
G01X107094382Y-6705733D01*
G01X107088301Y-6705860D01*
G01X107088301Y-6705860D01*
G01X107011708Y-6694736D01*
G01X106953462Y-6670264D01*
G01X106916420Y-6645792D01*
G01X106903438Y-6634668D01*
G01X106903438Y-6634668D01*
G01X106903438Y-6634668D01*
G01X106865722Y-6579256D01*
G01X106844266Y-6516338D01*
G01X106834481Y-6459934D01*
G01X106831784Y-6424063D01*
G01X106831660Y-6418164D01*
G37*
%LPC*%
G36*
G01X106918379Y-6391797D02*
G01X106918379Y-6391797D01*
G01X106988638Y-6391055D01*
G01X107004512Y-6390625D01*
G01X107004512Y-6390625D01*
G01X107067471Y-6384997D01*
G01X107080098Y-6383301D01*
G01X107080098Y-6383301D01*
G01X107141170Y-6368374D01*
G01X107146309Y-6366309D01*
G01X107146309Y-6366309D01*
G01X107187571Y-6335308D01*
G01X107187617Y-6335254D01*
G01X107187617Y-6335254D01*
G01X107204897Y-6285582D01*
G01X107204902Y-6285157D01*
G01X107204902Y-6285157D01*
G01X107181748Y-6227423D01*
G01X107173262Y-6218360D01*
G01X107173262Y-6218360D01*
G01X107114105Y-6192173D01*
G01X107094746Y-6190235D01*
G01X107094746Y-6190235D01*
G01X107024925Y-6205463D01*
G01X106981512Y-6231202D01*
G01X106971699Y-6239454D01*
G01X106971699Y-6239454D01*
G01X106936933Y-6296090D01*
G01X106921934Y-6355740D01*
G01X106918429Y-6390335D01*
G01X106918379Y-6391797D01*
G37*
%LPD*%
G36*
G01X107413496Y-6136329D02*
G01X107413496Y-6136329D01*
G01X107454512Y-6132813D01*
G01X107454512Y-6132813D01*
G01X107504048Y-6165830D01*
G01X107506074Y-6177930D01*
G01X107506074Y-6177930D01*
G01X107505488Y-6194336D01*
G01X107505488Y-6194336D01*
G01X107504902Y-6220118D01*
G01X107504902Y-6220118D01*
G01X107549059Y-6170230D01*
G01X107569063Y-6153614D01*
G01X107569063Y-6153614D01*
G01X107631305Y-6126063D01*
G01X107648457Y-6124024D01*
G01X107648457Y-6124024D01*
G01X107691817Y-6136622D01*
G01X107691817Y-6136622D01*
G01X107707637Y-6170899D01*
G01X107707637Y-6170899D01*
G01X107685262Y-6222581D01*
G01X107683613Y-6224805D01*
G01X107683613Y-6224805D01*
G01X107629450Y-6202165D01*
G01X107625606Y-6201954D01*
G01X107625606Y-6201954D01*
G01X107567217Y-6222290D01*
G01X107558516Y-6228321D01*
G01X107558516Y-6228321D01*
G01X107514222Y-6278005D01*
G01X107501973Y-6298047D01*
G01X107501973Y-6298047D01*
G01X107501153Y-6355096D01*
G01X107500847Y-6418922D01*
G01X107500801Y-6450358D01*
G01X107500801Y-6450391D01*
G01X107500801Y-6450391D01*
G01X107503401Y-6541043D01*
G01X107509508Y-6609580D01*
G01X107516582Y-6656523D01*
G01X107522085Y-6682393D01*
G01X107523652Y-6688282D01*
G01X107523652Y-6688282D01*
G01X107477949Y-6697657D01*
G01X107477949Y-6697657D01*
G01X107431367Y-6682129D01*
G01X107431367Y-6682129D01*
G01X107431367Y-6682129D01*
G01X107419364Y-6629970D01*
G01X107419356Y-6629102D01*
G01X107419356Y-6629102D01*
G01X107419994Y-6570743D01*
G01X107420527Y-6534473D01*
G01X107420527Y-6534473D01*
G01X107421482Y-6456431D01*
G01X107421696Y-6419448D01*
G01X107421699Y-6416993D01*
G01X107421699Y-6416993D01*
G01X107420998Y-6330650D01*
G01X107419275Y-6258114D01*
G01X107417107Y-6201006D01*
G01X107415065Y-6160946D01*
G01X107413726Y-6139552D01*
G01X107413496Y-6136329D01*
G37*
G36*
G01X107791426Y-6142188D02*
G01X107791426Y-6142188D01*
G01X107838301Y-6132813D01*
G01X107838301Y-6132813D01*
G01X107885764Y-6168930D01*
G01X107889863Y-6192579D01*
G01X107889863Y-6192579D01*
G01X107957997Y-6152945D01*
G01X108018770Y-6132593D01*
G01X108062404Y-6125095D01*
G01X108079121Y-6124024D01*
G01X108079121Y-6124024D01*
G01X108079121Y-6124024D01*
G01X108153047Y-6138698D01*
G01X108203847Y-6167431D01*
G01X108226808Y-6187285D01*
G01X108227656Y-6188184D01*
G01X108227656Y-6188184D01*
G01X108261362Y-6245784D01*
G01X108278670Y-6309949D01*
G01X108285046Y-6362084D01*
G01X108285957Y-6383594D01*
G01X108285957Y-6383594D01*
G01X108285957Y-6383594D01*
G01X108279373Y-6459919D01*
G01X108266762Y-6516070D01*
G01X108258838Y-6540872D01*
G01X108258711Y-6541211D01*
G01X108258711Y-6541211D01*
G01X108223269Y-6604637D01*
G01X108187035Y-6645678D01*
G01X108171699Y-6659278D01*
G01X108171699Y-6659278D01*
G01X108108408Y-6691850D01*
G01X108052536Y-6704029D01*
G01X108027584Y-6705860D01*
G01X108027559Y-6705860D01*
G01X108027559Y-6705860D01*
G01X107956547Y-6693913D01*
G01X107907041Y-6673164D01*
G01X107893379Y-6665430D01*
G01X107893379Y-6665430D01*
G01X107893904Y-6722430D01*
G01X107893965Y-6728418D01*
G01X107893965Y-6728418D01*
G01X107894947Y-6797617D01*
G01X107895137Y-6805762D01*
G01X107895137Y-6805762D01*
G01X107897818Y-6864140D01*
G01X107898067Y-6868750D01*
G01X107898067Y-6868750D01*
G01X107904320Y-6932415D01*
G01X107905391Y-6939063D01*
G01X107905391Y-6939063D01*
G01X107917400Y-6988275D01*
G01X107917402Y-6988282D01*
G01X107917402Y-6988282D01*
G01X107869356Y-6997657D01*
G01X107869356Y-6997657D01*
G01X107822774Y-6982129D01*
G01X107822774Y-6982129D01*
G01X107822774Y-6982129D01*
G01X107810771Y-6929970D01*
G01X107810762Y-6929102D01*
G01X107810762Y-6929102D01*
G01X107810912Y-6861405D01*
G01X107811281Y-6790867D01*
G01X107811746Y-6725525D01*
G01X107812183Y-6673417D01*
G01X107812470Y-6642580D01*
G01X107812520Y-6637598D01*
G01X107812520Y-6637598D01*
G01X107813411Y-6541724D01*
G01X107813935Y-6471644D01*
G01X107814188Y-6425323D01*
G01X107814270Y-6400728D01*
G01X107814277Y-6395313D01*
G01X107814277Y-6395313D01*
G01X107811901Y-6296313D01*
G01X107806234Y-6224454D01*
G01X107799470Y-6176782D01*
G01X107793802Y-6150344D01*
G01X107791426Y-6142188D01*
G01X107791426Y-6142188D01*
G37*
%LPC*%
G36*
G01X107893379Y-6257618D02*
G01X107893379Y-6257618D01*
G01X107894283Y-6364310D01*
G01X107894919Y-6448442D01*
G01X107895333Y-6512056D01*
G01X107895573Y-6557191D01*
G01X107895686Y-6585889D01*
G01X107895720Y-6600191D01*
G01X107895723Y-6602735D01*
G01X107895723Y-6602735D01*
G01X107958852Y-6628358D01*
G01X108016535Y-6637750D01*
G01X108039863Y-6639063D01*
G01X108039863Y-6639063D01*
G01X108105928Y-6620752D01*
G01X108131563Y-6602442D01*
G01X108131563Y-6602442D01*
G01X108131563Y-6602442D01*
G01X108171340Y-6546459D01*
G01X108184808Y-6513918D01*
G01X108184883Y-6513672D01*
G01X108184883Y-6513672D01*
G01X108197683Y-6445912D01*
G01X108200383Y-6403661D01*
G01X108200410Y-6401172D01*
G01X108200410Y-6401172D01*
G01X108190962Y-6317118D01*
G01X108172463Y-6264788D01*
G01X108159681Y-6243135D01*
G01X108159102Y-6242383D01*
G01X108159102Y-6242383D01*
G01X108101071Y-6201353D01*
G01X108057385Y-6191615D01*
G01X108052754Y-6191407D01*
G01X108052754Y-6191407D01*
G01X107984598Y-6204882D01*
G01X107929106Y-6232390D01*
G01X107897167Y-6254552D01*
G01X107893379Y-6257618D01*
G37*
%LPD*%
G36*
G01X108393184Y-6537110D02*
G01X108393184Y-6537110D01*
G01X108408400Y-6467540D01*
G01X108421895Y-6447168D01*
G01X108421895Y-6447168D01*
G01X108476951Y-6412388D01*
G01X108500996Y-6403516D01*
G01X108500996Y-6403516D01*
G01X108565543Y-6389877D01*
G01X108632139Y-6380345D01*
G01X108688879Y-6374434D01*
G01X108723860Y-6371657D01*
G01X108729512Y-6371289D01*
G01X108729512Y-6371289D01*
G01X108722413Y-6286357D01*
G01X108709759Y-6241541D01*
G01X108704317Y-6230372D01*
G01X108704317Y-6230372D01*
G01X108651329Y-6198623D01*
G01X108601532Y-6191514D01*
G01X108597090Y-6191407D01*
G01X108597090Y-6191407D01*
G01X108536893Y-6207902D01*
G01X108527656Y-6212793D01*
G01X108527656Y-6212793D01*
G01X108482157Y-6259389D01*
G01X108473457Y-6275196D01*
G01X108473457Y-6275196D01*
G01X108420949Y-6238722D01*
G01X108418379Y-6227149D01*
G01X108418379Y-6227149D01*
G01X108448102Y-6171304D01*
G01X108476094Y-6152149D01*
G01X108476094Y-6152149D01*
G01X108543126Y-6131056D01*
G01X108596684Y-6124518D01*
G01X108610567Y-6124024D01*
G01X108610567Y-6124024D01*
G01X108692877Y-6134361D01*
G01X108742730Y-6154158D01*
G01X108761507Y-6166597D01*
G01X108761738Y-6166797D01*
G01X108761738Y-6166797D01*
G01X108794001Y-6220714D01*
G01X108807149Y-6281749D01*
G01X108809769Y-6318169D01*
G01X108809785Y-6319727D01*
G01X108809785Y-6319727D01*
G01X108808852Y-6377642D01*
G01X108808613Y-6390332D01*
G01X108808613Y-6390332D01*
G01X108807548Y-6463495D01*
G01X108807442Y-6482032D01*
G01X108807442Y-6482032D01*
G01X108811012Y-6572596D01*
G01X108818867Y-6637012D01*
G01X108826723Y-6675501D01*
G01X108830293Y-6688282D01*
G01X108830293Y-6688282D01*
G01X108830293Y-6688282D01*
G01X108783418Y-6697657D01*
G01X108783418Y-6697657D01*
G01X108746211Y-6685059D01*
G01X108746211Y-6685059D01*
G01X108731856Y-6644922D01*
G01X108731856Y-6644922D01*
G01X108665880Y-6684958D01*
G01X108610946Y-6701960D01*
G01X108580629Y-6705799D01*
G01X108578340Y-6705860D01*
G01X108578340Y-6705860D01*
G01X108495486Y-6691426D01*
G01X108441981Y-6655996D01*
G01X108411407Y-6611381D01*
G01X108397347Y-6569391D01*
G01X108393385Y-6541835D01*
G01X108393184Y-6537110D01*
G37*
%LPC*%
G36*
G01X108477559Y-6537110D02*
G01X108477559Y-6537110D01*
G01X108496326Y-6602310D01*
G01X108508613Y-6616797D01*
G01X108508613Y-6616797D01*
G01X108568815Y-6640929D01*
G01X108587715Y-6642579D01*
G01X108587715Y-6642579D01*
G01X108660831Y-6628121D01*
G01X108709148Y-6601700D01*
G01X108725410Y-6588672D01*
G01X108725410Y-6588672D01*
G01X108724240Y-6533765D01*
G01X108724238Y-6532422D01*
G01X108724238Y-6532422D01*
G01X108726566Y-6463043D01*
G01X108728340Y-6432813D01*
G01X108728340Y-6432813D01*
G01X108676276Y-6438661D01*
G01X108676192Y-6438672D01*
G01X108676192Y-6438672D01*
G01X108629024Y-6444532D01*
G01X108629024Y-6444532D01*
G01X108585078Y-6451563D01*
G01X108585078Y-6451563D01*
G01X108549922Y-6461231D01*
G01X108549922Y-6461231D01*
G01X108518867Y-6474707D01*
G01X108518867Y-6474707D01*
G01X108497188Y-6490821D01*
G01X108497188Y-6490821D01*
G01X108481660Y-6511036D01*
G01X108481660Y-6511036D01*
G01X108477559Y-6537110D01*
G37*
%LPD*%
G36*
G01X108943965Y-6610352D02*
G01X108943965Y-6610352D01*
G01X108981943Y-6566249D01*
G01X108997871Y-6559961D01*
G01X108997871Y-6559961D01*
G01X109038772Y-6609257D01*
G01X109055000Y-6618848D01*
G01X109055000Y-6618848D01*
G01X109121152Y-6636827D01*
G01X109150215Y-6639063D01*
G01X109150215Y-6639063D01*
G01X109217723Y-6624918D01*
G01X109233711Y-6616211D01*
G01X109233711Y-6616211D01*
G01X109264027Y-6561336D01*
G01X109265645Y-6545313D01*
G01X109265645Y-6545313D01*
G01X109238346Y-6493536D01*
G01X109233711Y-6490235D01*
G01X109233711Y-6490235D01*
G01X109173595Y-6465254D01*
G01X109156367Y-6460645D01*
G01X109156367Y-6460645D01*
G01X109089789Y-6443680D01*
G01X109065254Y-6436622D01*
G01X109065254Y-6436622D01*
G01X109006894Y-6403367D01*
G01X108987617Y-6384473D01*
G01X108987617Y-6384473D01*
G01X108960438Y-6323012D01*
G01X108955691Y-6283477D01*
G01X108955684Y-6282813D01*
G01X108955684Y-6282813D01*
G01X108975679Y-6215300D01*
G01X109008527Y-6175983D01*
G01X109017500Y-6168555D01*
G01X109017500Y-6168555D01*
G01X109082445Y-6136826D01*
G01X109136388Y-6125483D01*
G01X109157246Y-6124024D01*
G01X109157246Y-6124024D01*
G01X109225863Y-6134365D01*
G01X109265444Y-6148218D01*
G01X109267695Y-6149219D01*
G01X109267695Y-6149219D01*
G01X109316619Y-6196894D01*
G01X109321895Y-6218946D01*
G01X109321895Y-6218946D01*
G01X109283917Y-6263632D01*
G01X109267988Y-6269336D01*
G01X109267988Y-6269336D01*
G01X109227071Y-6221545D01*
G01X109213789Y-6213086D01*
G01X109213789Y-6213086D01*
G01X109149393Y-6193130D01*
G01X109128535Y-6191407D01*
G01X109128535Y-6191407D01*
G01X109066726Y-6207998D01*
G01X109057637Y-6213672D01*
G01X109057637Y-6213672D01*
G01X109028561Y-6267034D01*
G01X109027754Y-6276368D01*
G01X109027754Y-6276368D01*
G01X109054698Y-6328855D01*
G01X109059688Y-6332618D01*
G01X109059688Y-6332618D01*
G01X109119003Y-6358837D01*
G01X109137031Y-6363965D01*
G01X109137031Y-6363965D01*
G01X109202633Y-6381183D01*
G01X109228145Y-6388575D01*
G01X109228145Y-6388575D01*
G01X109287278Y-6421179D01*
G01X109305781Y-6438379D01*
G01X109305781Y-6438379D01*
G01X109333723Y-6498914D01*
G01X109337715Y-6532422D01*
G01X109337715Y-6532422D01*
G01X109337715Y-6532422D01*
G01X109321293Y-6604822D01*
G01X109291282Y-6648147D01*
G01X109276485Y-6661622D01*
G01X109276485Y-6661622D01*
G01X109212169Y-6692555D01*
G01X109155914Y-6704121D01*
G01X109130904Y-6705860D01*
G01X109130879Y-6705860D01*
G01X109130879Y-6705860D01*
G01X109056709Y-6696952D01*
G01X109010063Y-6682318D01*
G01X109000801Y-6678321D01*
G01X109000801Y-6678321D01*
G01X108949497Y-6630827D01*
G01X108943965Y-6610352D01*
G37*
G36*
G01X109386348Y-6179102D02*
G01X109386348Y-6179102D01*
G01X109404219Y-6143946D01*
G01X109404219Y-6143946D01*
G01X109461226Y-6136381D01*
G01X109465449Y-6136329D01*
G01X109499434Y-6136329D01*
G01X109499434Y-6136329D01*
G01X109495943Y-6057561D01*
G01X109492614Y-6010582D01*
G01X109491817Y-6001563D01*
G01X109491817Y-6001563D01*
G01X109531660Y-5998047D01*
G01X109531660Y-5998047D01*
G01X109585931Y-6028967D01*
G01X109589082Y-6043750D01*
G01X109589082Y-6043750D01*
G01X109586458Y-6102063D01*
G01X109584395Y-6137500D01*
G01X109584395Y-6137500D01*
G01X109680159Y-6136493D01*
G01X109742305Y-6134278D01*
G01X109775886Y-6132062D01*
G01X109785957Y-6131055D01*
G01X109785957Y-6131055D01*
G01X109785957Y-6131055D01*
G01X109790645Y-6159180D01*
G01X109790645Y-6159180D01*
G01X109778047Y-6191407D01*
G01X109778047Y-6191407D01*
G01X109737910Y-6200782D01*
G01X109737910Y-6200782D01*
G01X109679965Y-6201601D01*
G01X109614463Y-6201908D01*
G01X109582085Y-6201954D01*
G01X109582051Y-6201954D01*
G01X109582051Y-6201954D01*
G01X109580953Y-6276151D01*
G01X109580266Y-6346828D01*
G01X109579894Y-6407548D01*
G01X109579740Y-6451872D01*
G01X109579707Y-6473362D01*
G01X109579707Y-6474414D01*
G01X109579707Y-6474414D01*
G01X109586633Y-6560115D01*
G01X109598661Y-6601574D01*
G01X109603145Y-6610059D01*
G01X109603145Y-6610059D01*
G01X109658212Y-6640169D01*
G01X109680488Y-6642579D01*
G01X109680488Y-6642579D01*
G01X109745125Y-6622782D01*
G01X109766621Y-6606250D01*
G01X109766621Y-6606250D01*
G01X109788301Y-6649610D01*
G01X109788301Y-6649610D01*
G01X109757568Y-6690166D01*
G01X109757246Y-6690332D01*
G01X109757246Y-6690332D01*
G01X109695538Y-6705194D01*
G01X109681660Y-6705860D01*
G01X109681660Y-6705860D01*
G01X109603388Y-6691983D01*
G01X109557596Y-6665405D01*
G01X109540942Y-6648706D01*
G01X109540742Y-6648438D01*
G01X109540742Y-6648438D01*
G01X109514852Y-6590592D01*
G01X109502953Y-6528545D01*
G01X109499603Y-6484832D01*
G01X109499434Y-6476758D01*
G01X109499434Y-6476758D01*
G01X109500532Y-6369360D01*
G01X109501219Y-6292231D01*
G01X109501591Y-6241250D01*
G01X109501745Y-6212292D01*
G01X109501777Y-6201234D01*
G01X109501777Y-6200782D01*
G01X109501777Y-6200782D01*
G01X109452750Y-6204519D01*
G01X109392902Y-6209325D01*
G01X109389863Y-6209571D01*
G01X109389863Y-6209571D01*
G01X109386348Y-6179102D01*
G37*
G36*
G01X109862129Y-6418164D02*
G01X109862129Y-6418164D01*
G01X109872039Y-6334220D01*
G01X109894956Y-6270006D01*
G01X109920659Y-6226198D01*
G01X109938931Y-6203468D01*
G01X109942110Y-6200196D01*
G01X109942110Y-6200196D01*
G01X110005194Y-6156159D01*
G01X110065999Y-6133545D01*
G01X110111807Y-6125214D01*
G01X110129902Y-6124024D01*
G01X110129902Y-6124024D01*
G01X110129902Y-6124024D01*
G01X110205374Y-6137396D01*
G01X110252314Y-6161233D01*
G01X110265840Y-6171485D01*
G01X110265840Y-6171485D01*
G01X110306724Y-6231175D01*
G01X110317571Y-6275791D01*
G01X110317988Y-6282813D01*
G01X110317988Y-6282813D01*
G01X110306456Y-6348760D01*
G01X110301289Y-6360743D01*
G01X110301289Y-6360743D01*
G01X110261780Y-6406645D01*
G01X110257637Y-6409668D01*
G01X110257637Y-6409668D01*
G01X110198519Y-6432883D01*
G01X110179707Y-6437207D01*
G01X110179707Y-6437207D01*
G01X110110493Y-6446839D01*
G01X110079512Y-6449219D01*
G01X110079512Y-6449219D01*
G01X110079512Y-6449219D01*
G01X110014360Y-6451031D01*
G01X109960490Y-6451538D01*
G01X109950020Y-6451563D01*
G01X109950020Y-6451563D01*
G01X109968092Y-6526526D01*
G01X109991302Y-6573309D01*
G01X110001875Y-6588379D01*
G01X110001875Y-6588379D01*
G01X110058680Y-6626984D01*
G01X110108383Y-6638362D01*
G01X110119942Y-6639063D01*
G01X110119942Y-6639063D01*
G01X110195332Y-6622249D01*
G01X110236146Y-6591519D01*
G01X110247676Y-6576368D01*
G01X110247676Y-6576368D01*
G01X110293839Y-6619079D01*
G01X110295137Y-6626758D01*
G01X110295137Y-6626758D01*
G01X110259826Y-6674261D01*
G01X110240645Y-6684180D01*
G01X110240645Y-6684180D01*
G01X110172651Y-6701407D01*
G01X110124851Y-6705733D01*
G01X110118770Y-6705860D01*
G01X110118770Y-6705860D01*
G01X110042177Y-6694736D01*
G01X109983931Y-6670264D01*
G01X109946889Y-6645792D01*
G01X109933906Y-6634668D01*
G01X109933906Y-6634668D01*
G01X109933906Y-6634668D01*
G01X109896191Y-6579256D01*
G01X109874734Y-6516338D01*
G01X109864950Y-6459934D01*
G01X109862253Y-6424063D01*
G01X109862129Y-6418164D01*
G37*
%LPC*%
G36*
G01X109948848Y-6391797D02*
G01X109948848Y-6391797D01*
G01X110019107Y-6391055D01*
G01X110034981Y-6390625D01*
G01X110034981Y-6390625D01*
G01X110097939Y-6384997D01*
G01X110110567Y-6383301D01*
G01X110110567Y-6383301D01*
G01X110171639Y-6368374D01*
G01X110176777Y-6366309D01*
G01X110176777Y-6366309D01*
G01X110218040Y-6335308D01*
G01X110218086Y-6335254D01*
G01X110218086Y-6335254D01*
G01X110235365Y-6285582D01*
G01X110235371Y-6285157D01*
G01X110235371Y-6285157D01*
G01X110212216Y-6227423D01*
G01X110203731Y-6218360D01*
G01X110203731Y-6218360D01*
G01X110144573Y-6192173D01*
G01X110125215Y-6190235D01*
G01X110125215Y-6190235D01*
G01X110055394Y-6205463D01*
G01X110011981Y-6231202D01*
G01X110002168Y-6239454D01*
G01X110002168Y-6239454D01*
G01X109967402Y-6296090D01*
G01X109952403Y-6355740D01*
G01X109948898Y-6390335D01*
G01X109948848Y-6391797D01*
G37*

G04 Pad flashes *
%LPD*%
D11*

G04 end of program *
M02*
